<svg width="1565" height="368" viewBox="0 0 1565 368" fill="none" xmlns="http://www.w3.org/2000/svg">
<path fill-rule="evenodd" clip-rule="evenodd" d="M184 368C285.62 368 368 285.62 368 184C368 82.3796 285.62 0 184 0C82.3796 0 0 82.3796 0 184C0 285.62 82.3796 368 184 368ZM116 88C108.82 88 103 93.8203 103 101C103 108.18 108.82 114 116 114H252C259.18 114 265 108.18 265 101C265 93.8203 259.18 88 252 88H116ZM103 267C103 259.82 108.82 254 116 254H252C259.18 254 265 259.82 265 267C265 274.18 259.18 280 252 280H116C108.82 280 103 274.18 103 267ZM116 171C108.82 171 103 176.82 103 184C103 191.18 108.82 197 116 197H252C259.18 197 265 191.18 265 184C265 176.82 259.18 171 252 171H116ZM103 225C103 219.477 107.477 215 113 215H160C165.523 215 170 219.477 170 225C170 230.523 165.523 235 160 235H113C107.477 235 103 230.523 103 225ZM113 132C107.477 132 103 136.477 103 142C103 147.523 107.477 152 113 152H160C165.523 152 170 147.523 170 142C170 136.477 165.523 132 160 132H113Z" fill="#84CA3D"/>
<rect opacity="0.5" x="103" y="215" width="67" height="20" rx="10" fill="#84CA3D"/>
<rect opacity="0.5" x="103" y="132" width="67" height="20" rx="10" fill="#84CA3D"/>
<path d="M429.778 283C424.808 283 420.778 278.971 420.778 274V95.6367C420.778 90.6661 424.808 86.6367 429.778 86.6367H530.287C535.257 86.6367 539.287 90.6662 539.287 95.6367V98.7305C539.287 103.701 535.257 107.73 530.287 107.73H453.557C448.586 107.73 444.557 111.76 444.557 116.73V165.08C444.557 170.05 448.586 174.08 453.557 174.08H524.15C529.121 174.08 533.15 178.109 533.15 183.08V186.174C533.15 191.144 529.121 195.174 524.15 195.174H453.557C448.586 195.174 444.557 199.203 444.557 204.174V252.907C444.557 257.877 448.586 261.907 453.557 261.907H531.821C536.792 261.907 540.821 265.936 540.821 270.907V274C540.821 278.971 536.792 283 531.821 283H429.778Z" fill="#84CA3D"/>
<path d="M642.742 283H591.146C586.175 283 582.146 278.971 582.146 274V95.6367C582.146 90.6661 586.175 86.6367 591.146 86.6367H645.427C664.475 86.6367 680.775 90.5678 694.326 98.43C707.877 106.228 718.264 117.446 725.487 132.084C732.71 146.658 736.322 164.108 736.322 184.435C736.322 204.89 732.678 222.5 725.391 237.265C718.104 251.967 707.494 263.281 693.559 271.207C679.624 279.069 662.685 283 642.742 283ZM605.924 252.907C605.924 257.877 609.953 261.907 614.924 261.907H641.208C657.444 261.907 670.899 258.775 681.574 252.51C692.248 246.246 700.207 237.329 705.448 225.76C710.69 214.19 713.31 200.415 713.31 184.435C713.31 168.583 710.721 154.936 705.544 143.494C700.366 131.988 692.632 123.167 682.341 117.031C672.05 110.831 659.234 107.73 643.893 107.73H614.924C609.953 107.73 605.924 111.76 605.924 116.73V252.907Z" fill="#84CA3D"/>
<path d="M777.16 277.011C775.885 280.601 772.488 283 768.678 283H762.997C756.739 283 752.391 276.772 754.548 270.898L820.041 92.5346C821.342 88.9916 824.715 86.6367 828.49 86.6367H840.469C844.244 86.6367 847.617 88.9916 848.918 92.5345L914.411 270.898C916.568 276.772 912.22 283 905.962 283H900.281C896.471 283 893.074 280.602 891.799 277.011L835.503 118.425C835.349 117.992 834.939 117.702 834.479 117.702V117.702C834.02 117.702 833.61 117.992 833.456 118.425L777.16 277.011ZM784.238 215.296C784.238 210.325 788.267 206.296 793.238 206.296H875.721C880.692 206.296 884.721 210.325 884.721 215.296V218.39C884.721 223.36 880.692 227.39 875.721 227.39H793.238C788.267 227.39 784.238 223.36 784.238 218.39V215.296Z" fill="#84CA3D"/>
<path d="M949.44 95.6367C949.44 90.6661 953.47 86.6367 958.44 86.6367H971.781C975.434 86.6367 978.725 88.8455 980.11 92.2267L1044.12 248.569C1044.38 249.213 1045.01 249.634 1045.7 249.634V249.634C1046.4 249.634 1047.03 249.213 1047.29 248.569L1111.3 92.2267C1112.68 88.8455 1115.97 86.6367 1119.63 86.6367H1132.97C1137.94 86.6367 1141.97 90.6662 1141.97 95.6367V274C1141.97 278.971 1137.94 283 1132.97 283H1128.72C1123.75 283 1119.72 278.971 1119.72 274V134.958C1119.72 134.324 1119.21 133.81 1118.58 133.81V133.81C1118.11 133.81 1117.69 134.091 1117.51 134.522L1058.74 277.424C1057.35 280.798 1054.06 283 1050.41 283H1041C1037.35 283 1034.06 280.798 1032.67 277.424L973.895 134.522C973.718 134.091 973.299 133.81 972.833 133.81V133.81C972.199 133.81 971.685 134.324 971.685 134.958V274C971.685 278.971 967.655 283 962.685 283H958.44C953.47 283 949.44 278.971 949.44 274V95.6367Z" fill="#84CA3D"/>
<path d="M1199.83 277.011C1198.55 280.602 1195.15 283 1191.34 283H1185.66C1179.41 283 1175.06 276.772 1177.21 270.898L1242.71 92.5346C1244.01 88.9916 1247.38 86.6367 1251.16 86.6367H1263.14C1266.91 86.6367 1270.28 88.9916 1271.58 92.5345L1337.08 270.898C1339.23 276.772 1334.89 283 1328.63 283H1322.95C1319.14 283 1315.74 280.602 1314.47 277.011L1258.17 118.425C1258.02 117.992 1257.61 117.702 1257.15 117.702V117.702C1256.69 117.702 1256.28 117.992 1256.12 118.425L1199.83 277.011ZM1206.9 215.296C1206.9 210.325 1210.93 206.296 1215.9 206.296H1298.39C1303.36 206.296 1307.39 210.325 1307.39 215.296V218.39C1307.39 223.36 1303.36 227.39 1298.39 227.39H1215.9C1210.93 227.39 1206.9 223.36 1206.9 218.39V215.296Z" fill="#84CA3D"/>
<path d="M1372.11 95.6367C1372.11 90.6661 1376.14 86.6367 1381.11 86.6367H1394.45C1398.1 86.6367 1401.39 88.8455 1402.78 92.2267L1466.78 248.569C1467.05 249.213 1467.67 249.634 1468.37 249.634V249.634C1469.07 249.634 1469.69 249.213 1469.96 248.569L1533.97 92.2267C1535.35 88.8455 1538.64 86.6367 1542.29 86.6367H1555.63C1560.61 86.6367 1564.63 90.6662 1564.63 95.6367V274C1564.63 278.971 1560.61 283 1555.63 283H1551.39C1546.42 283 1542.39 278.971 1542.39 274V134.958C1542.39 134.324 1541.88 133.81 1541.24 133.81V133.81C1540.78 133.81 1540.36 134.091 1540.18 134.522L1481.4 277.424C1480.02 280.798 1476.73 283 1473.08 283H1463.66C1460.01 283 1456.73 280.798 1455.34 277.424L1396.56 134.522C1396.38 134.091 1395.96 133.81 1395.5 133.81V133.81C1394.86 133.81 1394.35 134.324 1394.35 134.958V274C1394.35 278.971 1390.32 283 1385.35 283H1381.11C1376.14 283 1372.11 278.971 1372.11 274V95.6367Z" fill="#84CA3D"/>
</svg>
