<?xml version="1.0" encoding="UTF-8"?>
<svg width="261px" height="61px" viewBox="0 0 261 61" version="1.1" xmlns="http://www.w3.org/2000/svg" xmlns:xlink="http://www.w3.org/1999/xlink">
    <title>99C1E1C7-8A8B-417B-A998-1DFD910C0F4B@1x</title>
    <g id="Abso---Style-guide" stroke="none" stroke-width="1" fill="none" fill-rule="evenodd">
        <g id="Style-Guide-4---icons" transform="translate(-96.000000, -232.000000)" fill="#11385F">
            <g id="Group" transform="translate(96.500000, 221.000000)">
                <g id="Group-22" transform="translate(-0.000000, 11.000164)">
                    <path d="M56.1852163,0.738419972 C50.9206817,12.0977484 45.6747176,22.842582 40.4068816,34.2092991 C35.1406963,22.8446344 29.8955575,12.1006218 24.6310229,0.738419972 L24.9339286,0.738419972 C26.8871341,0.738419972 31.0836578,0.73226271 31.0836578,0.73226271 C34.0904305,7.24828842 37.2135784,14.0147095 40.2261286,20.5278618 C40.2715231,20.625557 40.3210445,20.7220208 40.3895491,20.8615854 C40.5368752,20.5496174 40.66398,20.2828027 40.7886088,20.0151671 C43.742146,13.6719552 46.8095824,7.07711652 49.7581675,0.73226271 C49.7581675,0.73226271 53.9451995,0.738419972 55.9070712,0.738419972 L56.1852163,0.738419972 Z" id="Fill-1"></path>
                    <polygon id="Fill-3" points="5.42176496 26.9123684 23.545762 26.9333031 22.1773214 32.3192658 0 32.3192658 0 0.732509 22.1773214 0.732509 22.1773214 6.11724034 5.42176496 6.11724034 5.42176496 12.1053834 19.3867921 12.0758285 19.3867921 17.4958615 5.42176496 17.4958615"></polygon>
                    <polygon id="Fill-5" points="64.0603526 26.9123684 82.1843497 26.9333031 80.8159091 32.3192658 58.6385876 32.3192658 58.6385876 0.732509 80.8159091 0.732509 80.8159091 6.11724034 64.0603526 6.11724034 64.0603526 12.1053834 78.0253797 12.0758285 78.0253797 17.4958615 64.0603526 17.4958615"></polygon>
                    <path d="M104.864148,49.8099963 C103.186199,53.5716732 101.550755,57.2377073 99.8719809,60.9997948 C97.759069,54.9537734 95.677108,48.9955957 93.575751,42.9815921 L96.7480076,42.9947276 C97.8024002,46.0565291 98.9669778,49.4430235 100.031687,52.501541 C100.065114,52.5984153 100.10143,52.6944686 100.173649,52.8910905 C101.746365,49.3810403 103.284829,45.9489822 104.863323,42.4274385 C106.436452,45.9391306 107.975328,49.3732411 109.544743,52.8759026 C109.609533,52.72115 109.650389,52.6341274 109.681752,52.5442314 C110.749763,49.4750412 111.953132,46.0684331 113.007938,42.9947276 L116.148005,42.9815921 C114.060267,48.9808183 111.984083,54.9476162 109.8786,60.9989738 C108.197762,57.2479694 106.550351,53.5733152 104.864148,49.8099963" id="Fill-7"></path>
                    <path d="M132.940785,49.9574833 L132.940785,60.5783507 L130.004581,60.5783507 L130.004581,42.5424972 C133.618403,46.2179725 137.177752,49.8380324 140.803954,53.5254117 L140.803954,42.9591387 L143.764094,42.9591387 L143.764094,60.8439339 C140.154399,57.172974 136.588035,53.5459359 133.021258,49.9184873 L132.940785,49.9574833 Z" id="Fill-9"></path>
                    <path d="M162.756077,57.5723751 C162.546849,58.6145944 162.35124,59.5931887 162.154392,60.5758878 L150.402145,60.5758878 L150.402145,42.9632435 L162.054524,42.9632435 L162.054524,45.9248868 L153.325144,45.9248868 L153.325144,49.2896255 L160.591168,49.2896255 L160.591168,52.2722035 L153.328446,52.2722035 L153.328446,57.5723751 L162.756077,57.5723751 Z" id="Fill-11"></path>
                    <polygon id="Fill-13" points="121.038076 60.5614387 123.85708 60.5614387 123.85708 42.9627509 121.038076 42.9627509"></polygon>
                    <path d="M254.575965,18.3761859 L244.120765,18.3761859 C244.169874,18.1417994 244.213205,17.9254742 244.259838,17.7099701 C244.590393,16.1817375 244.923012,14.6539154 245.249027,13.1248619 C245.273375,13.0115683 245.314231,12.9803715 245.427304,12.9803715 C250.229227,12.9832448 255.031562,12.9828344 259.833484,12.9832448 C259.88053,12.9832448 259.927988,12.9881707 259.997318,12.991865 L259.997318,13.1856135 C259.997318,18.5182134 259.996905,23.8508132 259.999797,29.1834131 C260.000206,29.3098422 259.95605,29.3824979 259.857832,29.4596689 C257.788252,31.0802604 255.39183,31.9484344 252.846844,32.4697493 C251.320348,32.7821278 249.774456,32.8937795 248.218246,32.8519101 C245.330325,32.7739181 242.594269,32.1187854 240.096329,30.6406319 C236.973181,28.7930426 234.848301,26.1220221 233.625949,22.7301914 C233.094419,21.2549113 232.788625,19.7303731 232.677614,18.1668389 C232.48283,15.4198789 232.82494,12.7492689 233.881396,10.1935944 C235.209807,6.97868241 237.356146,4.45913058 240.428122,2.76506241 C242.151053,1.81438108 244.001502,1.21507419 245.950168,0.917883651 C247.401144,0.696632684 248.857485,0.641627805 250.318778,0.768056929 C251.607572,0.879298139 252.856336,1.16992093 254.080752,1.58984624 C255.645627,2.12634905 257.108158,2.84880118 258.429966,3.84176239 C258.944163,4.22802799 259.439377,4.63892265 259.942844,5.03873423 C259.958526,5.05145924 259.970494,5.06869957 259.992778,5.09291814 C258.860389,6.4733764 257.730477,7.8501403 256.589009,9.24168164 C256.398352,9.09185492 256.211409,8.95146933 256.031481,8.80328455 C255.044768,7.99216783 253.980883,7.30912217 252.783704,6.84240167 C251.333141,6.276344 249.83058,6.04195754 248.274783,6.10353016 C246.825458,6.16099795 245.415749,6.40318361 244.074133,6.9659574 C241.539464,8.0291114 239.832627,9.88614179 238.846327,12.4163662 C238.175312,14.1379368 237.957418,15.9280583 238.093602,17.7645644 C238.217405,19.4311302 238.642051,21.0147781 239.459979,22.4797961 C240.834197,24.9410592 242.933903,26.4545143 245.667896,27.1137519 C247.336353,27.5160264 249.025032,27.5546119 250.724441,27.3493698 C252.004155,27.1946173 253.242602,26.8838808 254.436067,26.396636 C254.539237,26.3547667 254.578854,26.3042771 254.578854,26.1881101 C254.57514,23.6394139 254.575965,21.0907177 254.575965,18.5420215 L254.575965,18.3761859 Z" id="Fill-15"></path>
                    <polygon id="Fill-16" points="223.834665 0.686740015 229.286968 0.686740015 229.286968 32.8489957 208.811531 12.692581 208.811531 32.2874533 203.386465 32.2874533 203.386465 1.77635684e-15 223.875933 20.1404058"></polygon>
                    <polygon id="Fill-17" points="192.977361 32.2885206 198.403253 32.2885206 198.403253 0.701353252 192.977361 0.701353252"></polygon>
                    <polygon id="Fill-18" points="182.974581 0.701271155 188.406663 0.701271155 188.406663 32.2884385 182.974581 32.2884385 182.974581 18.6037172 167.969605 18.6037172 167.969605 32.2884385 162.547427 32.2884385 162.547427 0.701271155 167.969605 0.701271155 167.969605 13.2247327 182.974581 13.2247327"></polygon>
                    <polygon id="Fill-19" points="134.612916 0.701230107 134.612916 6.07241546 143.813162 6.10197032 143.813162 32.2883974 149.250608 32.2883974 149.250608 6.10197032 158.46571 6.10197032 158.46571 0.701230107"></polygon>
                    <path d="M90.2616157,16.5966138 L90.2616157,6.05579085 C91.7299244,6.01145856 93.1524258,6.0208997 94.4734085,6.23804583 C96.2693836,6.53277346 98.4396577,7.58648632 99.1465753,9.65861041 C99.904665,11.8805612 99.0652777,14.376305 97.149626,15.59298 C95.4101878,16.6975929 93.0071631,16.747672 90.2616157,16.5966138 L90.2616157,16.5966138 Z M122.020497,30.3917553 C118.617554,32.644082 114.950496,33.317276 112.209901,32.1925494 C110.971041,31.683549 109.820907,30.7833572 108.764039,29.8876808 C107.016347,28.4050119 105.382554,26.7881148 103.864724,25.070649 C103.8965,25.0419151 100.533174,21.7563999 99.4189429,20.4953925 C99.6339482,20.378815 99.8481281,20.2569012 100.058594,20.1230833 C104.043001,17.5924484 105.812565,12.4642697 104.265022,7.93047206 C103.030702,4.31492749 99.6166157,1.63405538 95.3548889,0.933769389 C93.6397987,0.652177248 91.9577227,0.630832072 90.2616157,0.677216783 L84.8522311,0.658134146 L84.8575959,32.2537115 L90.2616157,32.2537115 L90.2616157,21.9821661 C90.8909498,22.0158258 91.5475207,22.0420968 92.2276142,22.0420968 C92.6914644,22.0420968 93.1643935,22.0301928 93.6431001,22.0018694 C95.3016534,24.0805612 103.035241,32.0098839 105.259576,33.8968796 C106.589225,35.0240692 108.210637,36.2834346 110.15105,37.0797739 C111.572313,37.6634824 113.113666,37.9688826 114.714444,38.0066472 C118.074469,38.0858706 122.046496,36.9081915 125.503501,34.561043 L122.020497,30.3917553 Z" id="Fill-20"></path>
                    <path d="M124.820931,0.658129269 L119.146194,10.4682904 L113.342702,0.658129269 L106.988285,0.658129269 L116.515371,16.0656526 L116.515371,27.8580418 L116.636286,27.8375176 C118.408739,27.5333488 120.179953,26.801866 121.899995,25.6635934 L121.945803,25.6332176 L121.945803,16.0767356 L131.171222,0.658129269 L124.820931,0.658129269 Z" id="Fill-21"></path>
                </g>
            </g>
        </g>
    </g>
</svg>