<svg width="161" height="21" viewBox="0 0 161 21" fill="black"
    xmlns="http://www.w3.org/2000/svg">
    <path d="M22.8306 0.664909H16.2713V8.06201H7.47409V0.664909H0.889038V20.3351H7.47409V12.7718H16.2713V20.3351H22.8306V0.664909Z" fill="black"/>
    <path d="M46.3096 15.5699V12.6055H58.3736V8.22823H46.3096V5.43008H58.8109V0.664909H39.7245V20.3351H58.9909V15.5699H46.3096Z" fill="black"/>
    <path d="M81.8292 20.3351V0.664909H75.2442V20.3351H81.8292Z" fill="black"/>
    <path d="M98.7062 20.3351H104.674V11.6913V8.6715H104.803C105.06 9.36412 105.857 10.5554 106.372 11.1649L114.191 20.3351H120.622V0.664909H114.68V9.22559V12.2731H114.551C114.14 11.4142 113.497 10.4446 113.008 9.83509L105.523 0.664909H98.7062V20.3351Z" fill="black"/>
    <path d="M148.294 21C155.857 21 160.667 16.9274 160.667 10.5C160.667 4.07256 155.857 0 148.294 0C140.706 0 135.896 4.07256 135.896 10.5C135.896 16.9274 140.706 21 148.294 21ZM148.294 15.8747C145.002 15.8747 142.841 13.7137 142.841 10.5C142.841 7.25857 145.002 5.12533 148.294 5.12533C151.587 5.12533 153.722 7.25857 153.722 10.5C153.722 13.7137 151.587 15.8747 148.294 15.8747Z" fill="black"/>
</svg>
