<?xml version="1.0" encoding="utf-8"?>
<!-- Generator: Adobe Illustrator 27.1.1, SVG Export Plug-In . SVG Version: 6.00 Build 0)  -->
<svg version="1.1" id="Ebene_2" xmlns="http://www.w3.org/2000/svg" xmlns:xlink="http://www.w3.org/1999/xlink" x="0px" y="0px"
	 viewBox="0 0 381 156" style="enable-background:new 0 0 381 156;" xml:space="preserve">
<style type="text/css">
	.st0{fill:#E30613;}
</style>
<path class="st0" d="M78,11.2c-6.9-4.6-18.2-7.8-28.3-7.8c-16.1,0-28.7,7.1-37.2,19.3C4.4,34.4,0,51.4,0,69.3
	c0,36.1,19.1,59.1,47.1,59.1c11.5,0,24.8-4.1,33.8-10.3l1.8-29.7H70.8c-2.7,19.6-9.9,31.1-20.4,31.1c-13.3,0-19.8-17.7-19.8-53.8
	c0-37.5,5.8-53.4,17.7-53.4c9,0,16.8,10.4,20,28.3h12.6L78,11.2z"/>
<path class="st0" d="M178.2,112.8c-1.4-2.3-3.5-8.8-6-18.6L149.4,5.6H121l2.7,10.3l-21.6,75.6c-3,10.8-5.1,16.6-6.7,19.5
	c-1.6,2.8-3.7,5-6.9,6.5v8.8h29.4v-8.8c-5.3-1.9-8.5-5.7-8.5-11.2c0-3.7,0.7-7.6,1.9-11.9c1.2-4.2,2.3-7.6,2.8-9.7H141
	c3.4,13.3,5.3,21.1,5.3,24.1c0,4.6-2.3,7.4-7.3,8.7v8.8h44.8v-8.8C181.4,116.5,179.6,115.1,178.2,112.8z M117,74.4l10.8-42.1h0.4
	l10.1,42.1H117z"/>
<path class="st0" d="M259.8,16c-9-7.8-21.6-12.6-32.9-12.6c-19.5,0-32.9,13.1-32.9,30.4c0,10.8,5.7,20.7,14.9,30.6l17.7,18.8
	c8.7,9,12.9,15.9,12.9,22.7c0,7.8-5,13.6-11.5,13.6c-9,0-17.2-11.5-20.9-29.2h-12.7l1.4,30.4c10.8,5.1,21.2,7.6,31.1,7.6
	c21.8,0,36.6-13.8,36.6-33.3c0-13.6-6.4-21.4-15-31.3c-5.7-6.5-14.2-15-20.7-21.8c-6-6-11.5-12.6-11.5-19.1
	c0-6.4,4.1-10.6,10.1-10.6c9.9,0,18.1,11,21.2,29.7h12.2V16z"/>
<path class="st0" d="M274.8,5.6v8.8c7.4,0.4,9.9,5.5,9.9,12.4v77.9c0,7.3-2.3,11.9-9.9,12.7v8.8h49v-8.8c-8-0.9-10.1-5.3-10.1-12.2
	V69.5h26.5V104c0,8.3-2.3,12.7-10.1,13.5v8.8h49v-8.8c-8-0.7-9.9-5.7-9.9-12.6V25.7c0-5.7,2.8-10.8,9.9-11.3V5.6h-49v8.8
	c6.2,0,10.1,5.1,10.1,11.3v33.4h-26.5V27c0-7.1,2.3-12,10.1-12.6V5.6H274.8z"/>
<g>
	<path class="st0" d="M149.4,138.9c-1.1-0.8-2.6-1.2-4.3-1.2h-7.5v0.7c1.4,0,2.1,0.4,2.1,2v7.7c0,1.5-0.8,1.9-2.1,1.9v0.7h7.4
		c4.8,0,7.3-3.3,7.3-6.6C152.2,142.1,151.3,140.3,149.4,138.9z M144.9,149.9h-1.2c-1.2,0-2-0.8-2-2v-9.4h2c3.9,0,6.2,2.6,6.2,6.1
		C149.8,147.8,147.8,149.9,144.9,149.9z"/>
	<path class="st0" d="M164.5,148.8l-4.7-11h-2l0.3,0.6l-3.8,9.5c-0.6,1.4-0.9,2-1.9,2.2v0.7h4.4V150c-1.1-0.1-1.6-0.7-1.6-1.6
		c0-0.3,0.1-0.7,0.2-1l0.7-1.8h5l1,2.3c0.2,0.4,0.2,0.7,0.2,0.8c0,0.7-0.5,1.1-1.6,1.2v0.7h5.4V150
		C165.4,150,164.9,149.8,164.5,148.8z M156.4,144.6l2-5.2l2.2,5.2H156.4z"/>
	<path class="st0" d="M167.4,140.8c0,1.5,0.9,2.5,3.7,4.1c1.5,0.8,3.2,1.8,3.2,3.1c0,1.1-1.3,2.1-2.9,2.1c-2,0-3.1-1.1-3.5-3.3h-0.8
		v3.3c1,0.5,3,0.9,4.4,0.9c2.8,0,4.8-1.5,4.8-3.6c0-1.9-1.5-3-3.8-4.3c-2-1.2-3.1-1.8-3.1-2.9c0-1,1-1.8,2.4-1.8
		c1.8,0,3.1,1.1,3.3,3.1h0.8v-2.8c-1.2-0.6-2.6-1.1-4-1.1C169.2,137.5,167.4,138.8,167.4,140.8"/>
	<path class="st0" d="M183.3,137.7v0.7c1.2,0,2,0.4,2,1.8v7.9c0,1.5-0.6,1.9-2,1.9v0.7h6.1V150c-1.3,0-2.1-0.4-2.1-1.9v-3.6h7.1v3.6
		c0,1.2-0.6,1.8-1.9,1.8v0.7h5.9V150c-1.4,0-2-0.4-2-2v-7.7c0-1.5,0.8-1.9,2-1.9v-0.7h-5.9v0.7c1.2,0,1.9,0.7,1.9,1.7v3.5h-7.1v-3.3
		c0-1.3,0.6-1.8,2.1-1.8v-0.7H183.3z"/>
	<path class="st0" d="M211.3,148.8l-4.7-11h-2l0.3,0.6l-3.8,9.5c-0.6,1.4-0.9,2-1.9,2.2v0.7h4.4V150c-1.1-0.1-1.6-0.7-1.6-1.6
		c0-0.3,0.1-0.7,0.2-1l0.7-1.8h5.1l1,2.3c0.2,0.4,0.2,0.7,0.2,0.8c0,0.7-0.5,1.1-1.6,1.2v0.7h5.4V150
		C212.1,150,211.7,149.8,211.3,148.8z M203.2,144.6l2-5.2l2.2,5.2H203.2z"/>
	<path class="st0" d="M212.9,137.7v0.7c0.5,0,1.1,0.2,1.8,0.8l0.8,0.8v8c0,1.6-0.9,1.9-2.3,1.9v0.7h5.5V150c-1.5,0-2.3-0.6-2.3-2.4
		v-6.7l8,8.2c0.3,0.4,0.8,1,1.4,1.7h1.3c0-0.4-0.1-0.8-0.2-1.3c-0.1-0.3-0.2-1.2-0.2-2.2v-6.2c0-1.4,0.4-2.8,2-2.9v-0.7h-5.1v0.7
		c1.6,0,2.3,0.9,2.3,3v6.2l-9.8-9.9H212.9z"/>
	<path class="st0" d="M241.3,138.9c-1.1-0.8-2.6-1.2-4.3-1.2h-7.5v0.7c1.4,0,2.1,0.4,2.1,2v7.7c0,1.5-0.8,1.9-2.1,1.9v0.7h7.4
		c4.8,0,7.3-3.3,7.3-6.6C244.2,142.1,243.2,140.3,241.3,138.9z M236.8,149.9h-1.2c-1.2,0-2-0.8-2-2v-9.4h2c3.9,0,6.2,2.6,6.2,6.1
		C241.8,147.8,239.7,149.9,236.8,149.9z"/>
	<path class="st0" d="M245.6,137.7v0.7c1.2,0,2,0.4,2,1.9v7.8c0,1.5-0.7,1.9-2,1.9v0.7h11.2l0.9-3.2h-0.9c-0.8,1.5-1.6,2.4-3.9,2.4
		h-1.2c-1.6,0-2.1-0.6-2.1-2.3v-3.3h2.7c1.7,0,2.2,0.7,2.4,2h0.8v-4.6h-0.8c-0.1,1.2-0.7,1.8-2.5,1.8h-2.7v-5h3.2
		c1.8,0,2.6,0.6,3.2,2.1h0.7v-2.9H245.6z"/>
	<path class="st0" d="M258.4,137.7v0.7c1.4,0,2.2,0.3,2.2,1.8v7.7c0,1.6-0.5,2-2.2,2.1v0.7h12.1l0.8-3.2h-0.8
		c-0.8,1.5-1.8,2.4-3.7,2.4H265c-1.8,0-2.4-0.8-2.4-2.4v-7.3c0-1.4,0.9-1.8,2.2-1.8v-0.7H258.4z"/>
	<path class="st0" d="M272.4,140.8c0,1.5,0.9,2.5,3.7,4.1c1.5,0.8,3.2,1.8,3.2,3.1c0,1.1-1.3,2.1-2.9,2.1c-2,0-3.1-1.1-3.5-3.3h-0.8
		v3.3c1,0.5,3,0.9,4.4,0.9c2.8,0,4.8-1.5,4.8-3.6c0-1.9-1.5-3-3.8-4.3c-2-1.2-3.1-1.8-3.1-2.9c0-1,1-1.8,2.4-1.8
		c1.8,0,3.1,1.1,3.3,3.1h0.8v-2.8c-1.2-0.6-2.6-1.1-4-1.1C274.2,137.5,272.4,138.8,272.4,140.8"/>
	<path class="st0" d="M295.6,150.8h5.8V150c-1.2-0.1-1.8-0.6-2-1.9l-1-7.4c0-0.1-0.1-0.6-0.1-0.8c0-0.9,0.3-1.3,1.5-1.4v-0.7H296
		c0.1,0.3,0.1,0.5,0.1,0.7c0,1-0.3,2-2.8,7.2l-1.2,2.4l0-0.1c-0.2-0.5-0.6-1.6-1.3-3.1l-0.6-1.2c-1.1-2.2-1.9-4.1-2-5.9h-3.8v0.7
		c1.1,0.1,1.5,0.6,1.5,1.6c0,0.3,0,0.6-0.1,0.9l-1.1,7.1c-0.2,1.4-0.8,1.9-1.8,1.9v0.7h4.5V150c-1.2-0.1-1.8-0.6-1.8-1.8
		c0-0.3,0-0.6,0.1-0.9l1-7h0c0,0.1,0.1,0.4,0.4,1.1c0.3,0.8,0.8,1.9,1.5,3.3l0.8,1.6c1.1,2.1,1.6,3.4,1.8,4.4h0.9
		c0.1-0.4,0.3-1.3,1.4-3.4l1.5-3c0.6-1.1,1.1-2.4,1.6-3.8h0l0.7,6.4c0.1,0.5,0.2,1,0.2,1.5c0,1-0.5,1.6-1.7,1.6V150.8z"/>
	<path class="st0" d="M313.9,148.8l-4.7-11h-2l0.3,0.6l-3.8,9.5c-0.6,1.4-0.9,2-1.9,2.2v0.7h4.4V150c-1.1-0.1-1.6-0.7-1.6-1.6
		c0-0.3,0.1-0.7,0.2-1l0.7-1.8h5.1l1,2.3c0.2,0.4,0.2,0.7,0.2,0.8c0,0.7-0.5,1.1-1.6,1.2v0.7h5.4V150
		C314.7,150,314.3,149.8,313.9,148.8z M305.8,144.6l2-5.2l2.2,5.2H305.8z"/>
	<path class="st0" d="M315.8,144.5c0,3.2,2.5,6.5,7.8,6.5c1.4,0,3-0.2,5.4-0.9v-3.4c0-1.4,0.6-1.7,1.7-1.9V144h-6.1v0.7h0.5
		c1,0,1.8,0.5,1.8,1.7v2.8c-1.1,0.6-2,0.8-3.2,0.8c-3.1,0-5.5-2.6-5.5-6c0-3.3,2.3-5.9,5.3-5.9c2,0,3.4,0.9,4.5,3.1h0.8l-0.3-3.1
		c-1.8-0.6-3.1-0.9-4.6-0.9C319.4,137.5,315.8,140.6,315.8,144.5"/>
	<path class="st0" d="M343.1,148.8l-4.7-11h-2l0.3,0.6l-3.8,9.5c-0.6,1.4-0.9,2-1.9,2.2v0.7h4.4V150c-1.1-0.1-1.6-0.7-1.6-1.6
		c0-0.3,0.1-0.7,0.2-1l0.7-1.8h5l1,2.3c0.2,0.4,0.2,0.7,0.2,0.8c0,0.7-0.5,1.1-1.6,1.2v0.7h5.4V150
		C343.9,150,343.5,149.8,343.1,148.8z M335,144.6l2-5.2l2.2,5.2H335z"/>
	<path class="st0" d="M346.1,137.7v3h0.7c0.7-1.5,1.3-2.1,3.1-2.1h4l-8.7,11.6v0.6h11l0.9-3.4h-0.7c-1.4,1.9-2,2.6-4.6,2.6h-3.9
		l8.8-11.7v-0.6H346.1z"/>
	<path class="st0" d="M358.1,137.7v0.7c1.3,0,2.1,0.4,2.1,2v7.5c0,1.7-0.5,2.1-2.1,2.1v0.7h6.1V150c-1.3,0-2-0.4-2-1.9v-7.8
		c0-1.5,0.8-1.9,2-1.9v-0.7H358.1z"/>
	<path class="st0" d="M364.9,137.7v0.7c0.5,0,1.1,0.2,1.8,0.8l0.8,0.8v8c0,1.6-0.9,1.9-2.3,1.9v0.7h5.5V150c-1.5,0-2.3-0.6-2.3-2.4
		v-6.7l8,8.2c0.3,0.4,0.8,1,1.4,1.7h1.3c0-0.4-0.1-0.8-0.2-1.3c-0.1-0.3-0.2-1.2-0.2-2.2v-6.2c0-1.4,0.4-2.8,2-2.9v-0.7h-5.1v0.7
		c1.6,0,2.3,0.9,2.3,3v6.2l-9.8-9.9H364.9z"/>
</g>
</svg>
