<?xml version="1.0" encoding="utf-8"?>
<!-- Generator: Adobe Illustrator 17.1.0, SVG Export Plug-In . SVG Version: 6.00 Build 0)  -->
<!DOCTYPE svg PUBLIC "-//W3C//DTD SVG 1.1//EN" "http://www.w3.org/Graphics/SVG/1.1/DTD/svg11.dtd">
<svg version="1.1" id="Layer_1" xmlns="http://www.w3.org/2000/svg" xmlns:xlink="http://www.w3.org/1999/xlink" x="0px" y="0px"
	 viewBox="0 0 617.3 133.4" enable-background="new 0 0 617.3 133.4" xml:space="preserve">
<g>
	<g>
		<path fill="#00529C" d="M448.2,61.5h10.1c0-1.6,0.2-2.4,0.2-3.6c0-8-1.5-11-5.2-11c-3.7,0-5,3-5,11.7V61.5z M481.5,67
			c0,1.2,0,3.1-0.2,5.6h-33.4v2.5c0,10.4,3.1,15.9,9,15.9c3.2,0,7.2-3.1,7.5-9.8h16.9c-0.6,15.6-11.1,24.9-28.1,24.9
			c-9,0-17.7-3.3-22.9-8.5c-5.8-5.9-8.5-15-8.5-28.1c0-15.3,3.1-25.1,9.6-30.7c5.3-4.6,12.5-7,21.1-7C471.7,32,481.5,43.9,481.5,67
			 M480.2,0h30v37.9c5.2-4.3,9.7-5.9,16.6-5.9c9.3,0,14.5,4.3,16,13.2V32.9h7.4V17.3l23.7-6.4v22h8.4v15.9h-8.4v30
			c0,6.8,0.9,8.5,4.2,8.5c1.3,0,2-0.1,4.2-0.7v16.6c-5.7,2.4-9.2,3.1-14.5,3.1c-12.2,0-17.6-5.6-17.6-18.4v-39h-7
			c0,0.7,0.1,1.4,0.1,2.1v38.5h3.8v15.9h-27.6V60.7v-2.5c-0.1-4.6-1.5-6.5-4.4-6.5c-3.1,0-4.8,2.2-4.8,5.9v31.8h3.9v15.9h-34V89.3
			h6.3V18.4h-6.3V0z M387.1,0h30.6v89.3h3.9v15.9h-29.2h-5.4h-22v-6.8c-5.6,5.9-9.5,7.9-16.2,7.9c-12.1,0-19.2-8.6-19.2-23.8
			c0-15.1,7.6-23.9,21-23.9c5.3,0,8.9,1.3,13.5,5v-4.8c0-7.1-2.3-10.3-10.6-10.2c-3.2,0-4.8,2-5.4,3h-14.9v-3V35.9
			c9.7-3,16-4,23.7-4c9.2,0,17.4,2.2,22.7,5.9c5.3,3.7,7.9,10.8,7.9,21.2v30.3h4.7h1.5V18.4h-6.9V0z M360.4,72.2
			c-4.4-1.3-6.4,1.9-6.6,9c0.2,7.2,2.2,10.3,6.6,9c3.4-1,4.6-3.6,4.6-9C365,75.8,363.8,73.2,360.4,72.2 M585.2,32.9h28.3v56.4h3.8
			v15.9h-32V89.3h4.4V48.8h-4.4V32.9z M586.7,13.6c0-17.6,29.8-17.6,29.8,0C616.5,31.2,586.7,31.2,586.7,13.6 M73.2,19.5L54.4,47.7
			l20.1,38h1c-0.1-1-0.1-2.1-0.1-3.2c0-15.1,7.6-23.9,21-23.9c5.3,0,8.9,1.3,13.5,5v-4.8c0-7.1-2.3-10.3-10.6-10.2
			c-3.2,0-4.8,2-5.4,3H79.2v-3V35.9c9.7-3,16-4,23.7-4c9.2,0,17.4,2.2,22.7,5.9c5.3,3.7,7.9,10.8,7.9,21.2v30.3h4.7v15.9h-27.4v-6.8
			c-5.6,5.9-9.5,7.9-16.2,7.9c-6.3,0-11.3-2.3-14.6-6.7v5.7H46.2v-18L33,60.4v27.9v16.9H0V85.7h7.1V19.5H0V0h33v16.9v33.8l16.6-31.1
			h-5.1V0H80v19.5H73.2z M106,72.2c-4.4-1.3-6.4,1.9-6.6,9c0.2,7.2,2.2,10.3,6.6,9c3.4-1,4.6-3.6,4.6-9
			C110.6,75.8,109.4,73.2,106,72.2 M199.3,105.2h-27v-4.9c-5,4.3-9.5,5.9-16.3,5.9c-11.4,0-16.8-6.1-16.8-19V48.8h-4.6V32.9h28.8
			v44.5c0,6.2,1.3,9.1,4.3,9.1c2.8,0,4.6-2.2,4.6-5.9V48.8h-4.7V32.9h28.8v56.4h2.8V105.2z M233.3,52.9c-4,0-5.1,2.3-5.2,10.9
			l-0.1,7.3v1.6c0,10.7,1.3,14.2,5.7,14.2c4.3,0,5.5-3.6,5.5-16C239.1,57.3,237.6,52.9,233.3,52.9 M234.5,133.4h-36.2v-16.3h5.7
			V48.8h-5.7V32.9h29.4v9.2c4-6.6,10-10.2,17-10.2c9.2,0,14.8,4.6,17.7,15.3V32.9h29.4v9.2c4-6.6,10-10.2,17-10.2
			c14.5,0,20.1,11.3,20.1,39.9c0,15.5-1.9,24.1-6.6,29.5c-3.3,3.9-7.8,5.9-13.1,5.9c-6.6,0-11.6-2.4-16.7-8.3v18.2h6.1v16.3h-36.2
			v-16.3h5.7V48.8h-5.2c1.4,5.9,2,13.5,2,23c0,15.5-1.9,24.1-6.6,29.5c-3.3,3.9-7.8,5.9-13.1,5.9c-6.6,0-11.6-2.4-16.7-8.3v18.2h6.1
			V133.4z M297.4,52.9c-4,0-5.1,2.3-5.2,10.9l-0.1,7.3v1.6c0,10.7,1.3,14.2,5.7,14.2c4.3,0,5.5-3.6,5.5-16
			C303.2,57.3,301.7,52.9,297.4,52.9"/>
	</g>
</g>
</svg>
