<?xml version="1.0" encoding="UTF-8" standalone="no"?>
<svg
   clip-rule="evenodd"
   fill-rule="evenodd"
   stroke-linejoin="round"
   stroke-miterlimit="1.41421"
   viewBox="0 0 146.354 54.688041"
   version="1.1"
   id="svg40"
   sodipodi:docname="Tekniikka&amp;Talous logo.svg"
   width="1330.491"
   height="497.164"
   inkscape:version="1.1 (c68e22c387, 2021-05-23)"
   xmlns:inkscape="http://www.inkscape.org/namespaces/inkscape"
   xmlns:sodipodi="http://sodipodi.sourceforge.net/DTD/sodipodi-0.dtd"
   xmlns="http://www.w3.org/2000/svg"
   xmlns:svg="http://www.w3.org/2000/svg">
  <defs
     id="defs44" />
  <sodipodi:namedview
     id="namedview42"
     pagecolor="#ffffff"
     bordercolor="#666666"
     borderopacity="1.0"
     inkscape:pageshadow="2"
     inkscape:pageopacity="0.0"
     inkscape:pagecheckerboard="true"
     showgrid="false"
     fit-margin-top="0"
     fit-margin-left="0"
     fit-margin-right="0"
     fit-margin-bottom="0"
     inkscape:zoom="0.47232143"
     inkscape:cx="591.75803"
     inkscape:cy="-132.32514"
     inkscape:window-width="1920"
     inkscape:window-height="1017"
     inkscape:window-x="1912"
     inkscape:window-y="-8"
     inkscape:window-maximized="1"
     inkscape:current-layer="g38"
     scale-x="0.11"
     width="1395.54px"
     height="482.88px" />
  <g
     fill-rule="nonzero"
     id="g38">
    <g
       id="g901"
       transform="translate(3.3,3.3)">
      <path
         d="m 0,0.726 v 5.859 h 5.127 v 15.726 h 6.847 V 6.585 h 5.26 V 0.726 Z"
         id="path2" />
      <path
         d="m 24.362,13.268 c 0.066,-0.132 0.099,-0.462 0.099,-0.693 0,-0.908 -0.612,-1.469 -1.489,-1.469 -0.893,0 -1.587,0.99 -1.653,2.162 z m 0.579,3.086 5.06,1.898 c -1.108,3.053 -4.101,4.455 -7.227,4.455 -4.862,0 -8.071,-2.92 -8.071,-7.822 0,-5.363 3.027,-8.317 8.269,-8.317 4.896,0 7.129,3.02 7.129,7.179 0,0.495 -0.1,1.336 -0.232,1.897 h -8.666 c 0,1.436 0.628,2.278 1.67,2.278 0.778,0 1.737,-0.33 2.068,-1.568 z"
         id="path4" />
      <path
         d="m 49.369,22.311 h -7.525 l -2.663,-5.693 h -0.778 v 5.693 H 31.672 V 0.759 h 6.731 V 11.7 h 0.778 l 2.034,-4.752 h 7.525 l -3.638,7.112 z"
         id="path6" />
      <path
         d="m 57.109,9.902 c 0.628,-2.327 2.63,-3.367 4.796,-3.367 2.498,0 4.631,1.469 4.631,5.017 v 10.743 h -6.731 v -8.268 c 0,-1.271 -0.265,-1.931 -1.241,-1.931 -0.793,0 -1.505,0.594 -1.505,2.36 v 7.855 H 50.328 V 6.948 h 5.938 z"
         id="path8" />
      <path
         d="m 68.851,6.948 h 6.731 v 15.364 h -6.731 z"
         id="path10" />
      <path
         d="m 72.209,0.099 c 1.885,0 3.639,0.957 3.639,2.888 0,1.931 -1.754,2.888 -3.639,2.888 -1.885,0 -3.639,-0.957 -3.639,-2.888 0,-1.947 1.754,-2.888 3.639,-2.888 z"
         id="path12" />
      <path
         d="m 77.981,6.948 h 6.731 v 15.364 h -6.731 z"
         id="path14" />
      <path
         d="m 81.339,0 c 1.885,0 3.638,0.974 3.638,2.97 0,1.997 -1.753,2.971 -3.638,2.971 C 79.453,5.941 77.7,4.967 77.7,2.97 77.7,0.99 79.47,0 81.339,0 Z"
         id="path16" />
      <path
         d="M 104.824,22.311 H 97.282 L 94.62,16.618 h -0.778 v 5.693 H 87.111 V 0.759 h 6.731 V 11.7 h 0.778 l 2.034,-4.752 h 7.525 l -3.622,7.112 z"
         id="path18" />
      <path
         d="m 123.149,22.311 h -7.526 l -2.679,-5.693 h -0.76 v 5.693 h -6.732 V 0.759 h 6.732 V 11.7 h 0.76 l 2.034,-4.752 h 7.542 l -3.638,7.112 z"
         id="path20" />
      <path
         d="m 133.056,13.961 c 0,-1.601 -0.695,-2.525 -1.803,-2.525 -1.571,0 -2.034,1.172 -2.034,3.301 0,1.997 0.628,2.822 1.902,2.822 1.174,0 1.935,-0.924 1.935,-2.591 z m 0.496,-4.654 0.926,-2.359 h 5.276 v 15.363 h -5.838 l -0.86,-2.657 c -0.529,1.997 -2.332,3.053 -4.598,3.053 -3.97,0 -6.169,-2.954 -6.169,-7.954 0,-5.363 2.53,-8.218 6.798,-8.218 2.364,0 3.837,1.139 4.465,2.772 z"
         id="path22" />
      <path
         d="m 12.917,30.86 c 0,0.561 0.231,1.089 0.86,1.65 l 0.794,0.709 c 0.496,-0.445 0.909,-1.32 0.909,-2.227 0,-0.826 -0.446,-1.321 -1.273,-1.321 -0.81,0.017 -1.29,0.479 -1.29,1.189 z m -0.562,11.898 c 0.942,0 1.505,-0.231 1.951,-0.528 L 10.32,38.731 c -0.413,0.528 -0.645,1.056 -0.645,1.766 0,1.419 1.092,2.261 2.68,2.261 z M 22.41,47.824 18.656,45.91 c -1.571,1.353 -4.201,2.178 -7.476,2.178 -3.605,0 -8.236,-1.353 -8.236,-5.941 0,-2.937 2.133,-5 4.962,-5.38 -1.902,-1.798 -2.779,-3.383 -2.779,-5.528 0,-3.762 3.043,-6.205 8.567,-6.205 4.168,0 7.74,1.65 7.74,5.297 0,2.855 -2.365,4.621 -4.779,4.852 l 2.365,2.063 c 0.413,-0.594 0.595,-1.502 0.711,-2.261 l 5.441,1.7 c -0.297,1.584 -1.207,3.35 -2.034,4.291 l 2.712,2.326 z"
         fill="#0083c3"
         id="path24" />
      <path
         d="M 30.134,47.296 V 31.569 H 25.007 V 25.711 H 42.24 v 5.858 h -5.259 v 15.727 z"
         id="path26" />
      <path
         d="m 50.361,38.946 c 0,-1.601 -0.695,-2.525 -1.803,-2.525 -1.571,0 -2.034,1.172 -2.034,3.3 0,1.997 0.628,2.822 1.902,2.822 1.174,0 1.935,-0.924 1.935,-2.59 z m 0.513,-4.67 0.926,-2.36 h 5.259 V 47.28 h -5.838 l -0.86,-2.657 c -0.529,1.997 -2.332,3.053 -4.598,3.053 -3.969,0 -6.169,-2.954 -6.169,-7.955 0,-5.363 2.53,-8.218 6.797,-8.218 2.382,0.017 3.838,1.155 4.483,2.773 z"
         id="path28" />
      <path
         d="m 68.388,46.719 c -0.727,0.528 -1.869,0.858 -3.671,0.858 -2.365,0 -4.962,-1.139 -4.962,-4.852 V 25.744 h 6.731 v 15.05 c 0,0.924 0.364,1.271 0.893,1.271 0.464,0 0.53,-0.033 0.927,-0.215 z"
         id="path30" />
      <path
         d="m 77.22,36.405 c -1.24,0 -1.704,1.023 -1.704,3.201 0,2.162 0.464,3.201 1.704,3.201 1.241,0 1.704,-1.023 1.704,-3.201 0,-2.162 -0.48,-3.201 -1.704,-3.201 z m 0,-4.885 c 5.061,0 8.468,2.822 8.468,8.086 0,5.248 -3.407,8.086 -8.468,8.086 -5.061,0 -8.468,-2.822 -8.468,-8.086 0,-5.264 3.391,-8.086 8.468,-8.086 z"
         id="path32" />
      <path
         d="m 96.157,44.491 c -0.331,1.996 -1.802,3.201 -4.498,3.201 -2.961,0 -4.896,-1.667 -4.896,-5.215 V 31.932 h 6.732 v 9.11 c 0,1.105 0.264,1.732 1.074,1.732 1.142,0 1.539,-0.825 1.539,-2.855 v -7.987 h 6.731 v 15.364 h -5.838 z"
         id="path34" />
      <path
         d="m 109.851,42.692 c 0.033,0.759 0.43,1.172 1.175,1.172 0.694,0 1.075,-0.429 1.075,-0.892 0,-0.429 -0.265,-0.759 -1.075,-0.825 l -1.571,-0.132 c -3.375,-0.297 -5.16,-1.996 -5.16,-4.95 0,-4.06 3.307,-5.529 7.227,-5.529 3.903,0 6.268,1.337 6.831,4.324 l -5.673,0.561 c 0,-0.726 -0.331,-1.139 -1.142,-1.139 -0.661,0 -0.992,0.429 -0.992,0.891 0,0.43 0.298,0.694 0.992,0.76 l 1.67,0.132 c 3.838,0.297 5.409,2.359 5.409,5.148 0,3.928 -3.027,5.463 -7.608,5.463 -3.093,0 -6.169,-0.627 -6.831,-3.697 z"
         id="path36" />
    </g>
  </g>
</svg>
