<?xml version="1.0" encoding="utf-8"?>
<!-- Generator: Adobe Illustrator 27.0.0, SVG Export Plug-In . SVG Version: 6.00 Build 0)  -->
<svg version="1.1" id="Layer_1" xmlns="http://www.w3.org/2000/svg" xmlns:xlink="http://www.w3.org/1999/xlink" x="0px" y="0px"
	 viewBox="0 0 100 100" style="enable-background:new 0 0 100 100;" xml:space="preserve">
<style type="text/css">
	.st0{fill:#610526;}
	.st1{fill:#7A0A37;}
	.st2{fill:#FFA9A9;}
</style>
<g>
	<g>
		
			<rect x="57.52" y="31.58" transform="matrix(0.6657 -0.7462 0.7462 0.6657 -3.3359 57.7187)" class="st2" width="10.46" height="2"/>
	</g>
	<g>
		
			<rect x="62.73" y="36.77" transform="matrix(0.9515 -0.3076 0.3076 0.9515 -8.4066 22.2001)" class="st2" width="6.98" height="2"/>
	</g>
	<g>
		
			<rect x="33.77" y="30.42" transform="matrix(0.563 -0.8265 0.8265 0.563 -14.2651 44.319)" class="st2" width="2" height="10.46"/>
	</g>
	<g>
		
			<rect x="38.46" y="28.03" transform="matrix(0.9033 -0.4289 0.4289 0.9033 -9.7066 19.9736)" class="st2" width="2" height="6.98"/>
	</g>
	<path class="st1" d="M56.09,37.71l-0.05-1.72V25.61l0.54-0.54v-5.9H45.05v5.9l0.54,0.54l0,10.34l-0.06,1.75
		c-1.33,1.23-6.08,5.99-6.08,11.2v31.93h22.7V48.91C62.17,43.69,57.42,38.94,56.09,37.71z M47.05,21.17h7.52v3.07l-0.54,0.54l0,7.57
		H47.6v-7.57l-0.54-0.54V21.17z M41.46,52.98h12.02v17.81H41.46V52.98z M60.17,78.83h-18.7v-6.04h14.02V50.98H41.46v-2.08
		c0-5.01,5.66-9.93,5.71-9.98l0.33-0.29l0.08-2.65v-1.63h6.44l0,1.66l0.08,2.62l0.33,0.29c0.06,0.05,5.72,4.97,5.72,9.98V78.83z"/>
</g>
</svg>
