<?xml version="1.0" encoding="utf-8"?>
<!-- Generator: Adobe Illustrator 27.0.0, SVG Export Plug-In . SVG Version: 6.00 Build 0)  -->
<svg version="1.1" id="Layer_1" xmlns="http://www.w3.org/2000/svg" xmlns:xlink="http://www.w3.org/1999/xlink" x="0px" y="0px"
	 viewBox="0 0 100 100" style="enable-background:new 0 0 100 100;" xml:space="preserve">
<style type="text/css">
	.st0{fill:#610526;}
	.st1{fill:#7A0A37;}
	.st2{fill:#FFA9A9;}
</style>
<g>
	<path class="st1" d="M64.15,52.91c-2.18-1.68-7.7-1.16-9.41-0.95l-0.77-2.23c4.1-1.85,6.7-6.1,6.42-10.66
		c-0.08-1.3-0.46-2.66-1.13-4.02l-5.89-12.02L36.1,28.98l2.77,13.09c0.31,1.49,0.85,2.79,1.59,3.87c1.7,2.47,4.3,4.05,7.12,4.56
		c-0.68,1.34-0.88,3.07-0.98,4.07c-0.03,0.27-0.05,0.49-0.08,0.61c-0.12,0.55-1.32,2.39-3.5,4.56c-3.27,3.27-1.18,7.84-0.58,8.97
		l-0.01,12.44l2,0l0.01-12.69l0-0.28l-0.14-0.24c-0.1-0.17-2.44-4.22,0.14-6.79c1.79-1.79,3.74-4.2,4.03-5.54
		c0.04-0.17,0.07-0.46,0.11-0.83c0.12-1.08,0.41-3.84,1.54-4.12c0.66-0.04,1.32-0.13,1.97-0.29l0.93,2.71
		c0.11,1.07,0.14,3.97-2.09,7.29l0.02,0.01l-1.36,0.47l0.65,1.89l12.82-4.42l-0.65-1.89l-5.46,1.88l-1.53-4.43
		c2.58-0.28,6.32-0.33,7.52,0.6c1.95,1.51,4.92,10.28,4.33,11.83c-0.64,1.61-10.88,7.8-14.04,8.49l-0.79,0.17l-0.01,6.17l2,0
		l0.01-4.62c3.83-1.33,13.74-6.98,14.7-9.5C70.09,64.51,66.69,54.87,64.15,52.91z M52.34,25.49l3.96,8.06
		c-0.78,0.43-1.34,1.35-1.82,2.15c-0.82,1.35-1.66,2.75-3.3,3.04c-1.92,0.35-2.6-0.42-3.73-1.7c-0.68-0.77-1.45-1.65-2.62-2.34
		c-2.29-1.34-4.4-0.89-5.57-0.43l-0.84-3.98L52.34,25.49z M42.1,44.81c-0.59-0.86-1.02-1.92-1.28-3.15l-1.14-5.39
		c0.63-0.31,2.3-0.91,4.13,0.17c0.89,0.52,1.52,1.24,2.13,1.93c1.03,1.17,2.17,2.46,4.39,2.46c0.37,0,0.76-0.04,1.19-0.11
		c2.53-0.45,3.76-2.49,4.66-3.98c0.28-0.46,0.72-1.18,1-1.36l0.27,0.55c0.55,1.13,0.87,2.23,0.93,3.27c0.25,4-2.22,7.71-6,9.02
		c-0.65,0.23-1.32,0.37-1.99,0.43c-0.21-0.01-0.41,0.01-0.6,0.04C46.8,48.78,43.86,47.37,42.1,44.81z M53.75,59.42
		c0.32-0.69,0.57-1.36,0.76-1.99l0.53,1.54L53.75,59.42z"/>
	<g>
		<path class="st2" d="M35.42,47.51c-0.26,0-0.52,0-0.77-0.01c-6.8-0.1-7.83-1.55-8.01-2.64c-0.25-1.46,1.23-2.83,4.66-4.3
			l0.79,1.84c-2.72,1.17-3.32,1.92-3.44,2.13c0.97,1.02,8.85,1.72,21.89-0.47c13.04-2.19,20.26-5.41,20.85-6.69
			c-0.2-0.17-1.09-0.73-4.43-0.92l0.12-2c4.05,0.23,6.06,1.05,6.31,2.58c0.18,1.08-0.32,2.79-6.71,5.11
			c-4.15,1.5-9.76,2.89-15.8,3.9C45.16,46.99,39.72,47.51,35.42,47.51z"/>
	</g>
	<g>
		<rect x="59.52" y="26.86" transform="matrix(0.38 -0.925 0.925 0.38 14.8507 77.8742)" class="st2" width="11.99" height="2"/>
	</g>
	<g>
		
			<rect x="57.39" y="22.01" transform="matrix(0.0474 -0.9989 0.9989 0.0474 35.6564 83.3976)" class="st2" width="8.33" height="2"/>
	</g>
	<g>
		
			<rect x="27.29" y="53.55" transform="matrix(0.557 -0.8305 0.8305 0.557 -30.5605 51.8157)" class="st2" width="11.99" height="2"/>
	</g>
	<g>
		
			<rect x="34.21" y="56.03" transform="matrix(0.2462 -0.9692 0.9692 0.2462 -26.3434 80.1864)" class="st2" width="8.33" height="2"/>
	</g>
</g>
</svg>
