<?xml version="1.0" encoding="utf-8"?>
<!-- Generator: Adobe Illustrator 27.0.0, SVG Export Plug-In . SVG Version: 6.00 Build 0)  -->
<svg version="1.1" id="Layer_1" xmlns="http://www.w3.org/2000/svg" xmlns:xlink="http://www.w3.org/1999/xlink" x="0px" y="0px"
	 viewBox="0 0 100 100" style="enable-background:new 0 0 100 100;" xml:space="preserve">
<style type="text/css">
	.st0{fill:#610526;}
	.st1{fill:#7A0A37;}
	.st2{fill:#FFA9A9;}
</style>
<g>
	<g>
		<path class="st1" d="M64.26,43.16c-3.62,0-6.62,3.29-7.03,7.51H29.66v2h1.02v5.97h2v-5.97h1.29l-0.04,4.48l2,0.02l0.04-4.5h1.29
			l-0.03,3.16l2,0.02l0.03-3.18h17.97c0.41,4.22,3.41,7.51,7.03,7.51c3.91,0,7.08-3.82,7.08-8.51
			C71.34,46.98,68.16,43.16,64.26,43.16z M64.26,58.18c-2.8,0-5.08-2.92-5.08-6.51s2.28-6.51,5.08-6.51s5.08,2.92,5.08,6.51
			S67.06,58.18,64.26,58.18z"/>
		<path class="st1" d="M64.32,46.33c-2.37,0-4.29,2.4-4.29,5.34s1.93,5.34,4.29,5.34s4.29-2.39,4.29-5.34S66.69,46.33,64.32,46.33z
			 M64.32,55.01c-1.24,0-2.29-1.53-2.29-3.34c0-1.81,1.05-3.34,2.29-3.34s2.29,1.53,2.29,3.34C66.61,53.48,65.56,55.01,64.32,55.01z
			"/>
	</g>
	<g>
		<path class="st2" d="M42.01,62.25c-0.4,0-0.78-0.07-1.12-0.21c-1.06-0.44-2.24-1.61-1.77-4.67l1.98,0.3
			c-0.15,0.98-0.18,2.22,0.56,2.52c0.92,0.39,4.06-1.04,7.45-6.2c1.55-2.36,2.69-4.77,3.2-6.79c0.53-2.06,0.2-2.91-0.05-3.07
			c-0.28-0.18-1.07-0.03-2.21,0.73l-1.11-1.67c2.27-1.51,3.66-1.23,4.42-0.73c0.87,0.57,1.73,1.94,0.89,5.24
			c-0.57,2.23-1.8,4.85-3.47,7.39C47.83,59.55,44.48,62.25,42.01,62.25z"/>
	</g>
	<g>
		<g>
			<path class="st2" d="M42.49,49.15h-2c0-2.32-1.88-4.2-4.2-4.2v-2c2.32,0,4.2-1.88,4.2-4.2h2c0,2.32,1.88,4.2,4.2,4.2v2
				C44.37,44.95,42.49,46.84,42.49,49.15z M39.66,43.95c0.73,0.47,1.35,1.1,1.83,1.83c0.47-0.73,1.1-1.35,1.83-1.83
				c-0.73-0.47-1.35-1.1-1.83-1.83C41.01,42.85,40.39,43.48,39.66,43.95z"/>
		</g>
	</g>
</g>
</svg>
