<?xml version="1.0" encoding="UTF-8" standalone="no"?>
<!-- Generator: Adobe Illustrator 27.0.0, SVG Export Plug-In . SVG Version: 6.00 Build 0)  -->

<svg
   version="1.1"
   id="Layer_1"
   x="0px"
   y="0px"
   viewBox="0 0 100 100"
   style="enable-background:new 0 0 100 100;"
   xml:space="preserve"
   sodipodi:docname="Sommify_ai_icons-accessible.svg"
   inkscape:version="1.2.1 (9c6d41e, 2022-07-14)"
   xmlns:inkscape="http://www.inkscape.org/namespaces/inkscape"
   xmlns:sodipodi="http://sodipodi.sourceforge.net/DTD/sodipodi-0.dtd"
   xmlns:xlink="http://www.w3.org/1999/xlink"
   xmlns="http://www.w3.org/2000/svg"
   xmlns:svg="http://www.w3.org/2000/svg"><defs
   id="defs53"><linearGradient
     inkscape:collect="always"
     id="linearGradient4825"><stop
       style="stop-color:#8181e4;stop-opacity:1;"
       offset="0"
       id="stop4821" /><stop
       style="stop-color:#f2bdf9;stop-opacity:1;"
       offset="1"
       id="stop4823" /></linearGradient><linearGradient
     inkscape:collect="always"
     id="linearGradient1646"><stop
       style="stop-color:#8181e4;stop-opacity:1;"
       offset="0"
       id="stop1642" /><stop
       style="stop-color:#8181e4;stop-opacity:0;"
       offset="1"
       id="stop1644" /></linearGradient><linearGradient
     inkscape:collect="always"
     xlink:href="#linearGradient1646"
     id="linearGradient1648"
     x1="49.03"
     y1="42.703664"
     x2="59.138939"
     y2="42.703664"
     gradientUnits="userSpaceOnUse" /><linearGradient
     inkscape:collect="always"
     xlink:href="#linearGradient4825"
     id="linearGradient4827"
     x1="28.317829"
     y1="50"
     x2="71.68"
     y2="50"
     gradientUnits="userSpaceOnUse" /></defs><sodipodi:namedview
   id="namedview51"
   pagecolor="#ffffff"
   bordercolor="#000000"
   borderopacity="0.25"
   inkscape:showpageshadow="2"
   inkscape:pageopacity="0.0"
   inkscape:pagecheckerboard="0"
   inkscape:deskcolor="#d1d1d1"
   showgrid="false"
   inkscape:zoom="11.664356"
   inkscape:cx="42.99423"
   inkscape:cy="49.595537"
   inkscape:window-width="1728"
   inkscape:window-height="1051"
   inkscape:window-x="0"
   inkscape:window-y="38"
   inkscape:window-maximized="0"
   inkscape:current-layer="g48" />
<style
   type="text/css"
   id="style2">
	.st0{fill:#610526;}
	.st1{fill:#7A0A37;}
	.st2{fill:#FFA9A9;}
</style>
<g
   id="g48">
	
	
	
	
	
	
	
	
	
	<g
   id="g4433"
   style="fill-opacity:1;fill:url(#linearGradient4827)"><g
     id="g8"
     style="fill:url(#linearGradient4827);fill-opacity:1">
		<g
   id="g6"
   style="fill:url(#linearGradient4827);fill-opacity:1">
			<path
   class="st1"
   d="M49.25,28.87h-2c0-2.61-2.12-4.73-4.73-4.73v-2c2.61,0,4.73-2.12,4.73-4.73h2c0,2.61,2.12,4.73,4.73,4.73v2     C51.37,24.14,49.25,26.26,49.25,28.87z M46.04,23.14c0.89,0.55,1.65,1.31,2.2,2.2c0.55-0.89,1.31-1.65,2.2-2.2     c-0.89-0.55-1.65-1.31-2.2-2.2C47.69,21.83,46.94,22.59,46.04,23.14z"
   id="path4"
   style="fill:url(#linearGradient4827);fill-opacity:1" />
		</g>
	</g><g
     id="g14"
     style="fill:url(#linearGradient4827);fill-opacity:1">
		<g
   id="g12"
   style="fill:url(#linearGradient4827);fill-opacity:1">
			<path
   class="st1"
   d="M66.95,34.73h-2c0-2.61-2.12-4.73-4.73-4.73v-2c2.61,0,4.73-2.12,4.73-4.73h2c0,2.61,2.12,4.73,4.73,4.73v2     C69.08,30,66.95,32.12,66.95,34.73z M63.75,29c0.89,0.55,1.65,1.31,2.2,2.2c0.55-0.89,1.31-1.65,2.2-2.2     c-0.89-0.55-1.65-1.31-2.2-2.2C65.4,27.69,64.65,28.45,63.75,29z"
   id="path10"
   style="fill:url(#linearGradient4827);fill-opacity:1" />
		</g>
	</g><g
     id="g18"
     style="fill:url(#linearGradient4827);fill-opacity:1">
		<path
   class="st1"
   d="M36.12,63.1c-0.35-0.37-3.39-3.71-3.04-6.64c0.13-1.08,0.71-1.99,1.68-2.62c3.15-2.06,6.43,0.92,7.73,2.79    l-1.64,1.14c-0.03-0.04-2.67-3.77-4.99-2.25c-0.48,0.31-0.73,0.69-0.79,1.18c-0.21,1.7,1.74,4.21,2.51,5.04L36.12,63.1z"
   id="path16"
   style="fill:url(#linearGradient4827);fill-opacity:1" />
	</g><g
     id="g22"
     style="fill:url(#linearGradient4827);fill-opacity:1">
		<path
   class="st1"
   d="M45.53,82.59c-3.33,0-5.81-2.14-6.82-3.56l-7.42-10.56c-0.3-0.41-3-4.21-2.49-7.11    c0.17-0.96,0.67-1.74,1.46-2.27c0.98-0.66,2.08-0.88,3.16-0.65c2.4,0.53,4.04,3.16,4.11,3.27l-1.71,1.04l0.85-0.52l-0.85,0.52    c-0.35-0.56-1.54-2.08-2.84-2.37c-0.55-0.12-1.08,0-1.61,0.36c-0.34,0.23-0.53,0.53-0.61,0.95c-0.31,1.75,1.45,4.63,2.15,5.6    l7.43,10.57c0.11,0.16,2.92,3.97,7.42,2.29c5.12-1.91,11.82-8.13,13.75-10c1.81-1.74,1.33-5.08-1.2-8.49L42.23,35.31    c-0.47-0.69-1.13-1.16-1.84-1.31c-0.59-0.13-1.12-0.04-1.61,0.27c-0.48,0.31-0.78,0.74-0.93,1.3c-0.19,0.73-0.03,1.56,0.46,2.27    l9.14,13.62l-1.66,1.12l-9.14-13.62c-0.8-1.19-1.07-2.61-0.73-3.9c0.27-1.05,0.89-1.9,1.78-2.48c0.93-0.6,2.01-0.79,3.12-0.55    c1.22,0.27,2.31,1.02,3.07,2.14l18.07,26.34c3.83,5.16,2.91,9.21,0.96,11.09c-2,1.93-8.96,8.39-14.44,10.43    C47.43,82.42,46.45,82.59,45.53,82.59z"
   id="path20"
   style="fill:url(#linearGradient4827);fill-opacity:1" />
	</g><g
     id="g26"
     style="fill:url(#linearGradient4827);fill-opacity:1">
		<path
   class="st1"
   d="M40.89,57.8c-0.38-0.42-3.67-4.19-3.27-7.27c0.14-1.06,0.7-1.94,1.62-2.54c3.15-2.06,6.46,1.01,7.77,2.93    l-1.65,1.13c-0.03-0.04-2.72-3.89-5.03-2.38c-0.44,0.29-0.67,0.65-0.74,1.13c-0.24,1.85,1.92,4.72,2.77,5.68L40.89,57.8z"
   id="path24"
   style="fill:url(#linearGradient4827);fill-opacity:1" />
	</g><g
     id="g30"
     style="fill:url(#linearGradient4827);fill-opacity:1">
		
			<rect
   x="32.16"
   y="35.66"
   transform="matrix(0.7149 -0.6992 0.6992 0.7149 -18.5146 34.5884)"
   class="st2"
   width="2"
   height="8.67"
   id="rect28"
   style="fill:url(#linearGradient4827);fill-opacity:1" />
	</g><g
     id="g34"
     style="fill:url(#linearGradient4827);fill-opacity:1">
		<rect
   x="30.83"
   y="42.02"
   transform="matrix(0.5159 -0.8566 0.8566 0.5159 -23.5817 49.3022)"
   class="st2"
   width="2"
   height="7"
   id="rect32"
   style="fill:url(#linearGradient4827);fill-opacity:1" />
	</g><g
     id="g38"
     style="fill:url(#linearGradient4827);fill-opacity:1">
		
			<rect
   x="57.89"
   y="41.49"
   transform="matrix(0.5158 -0.8567 0.8567 0.5158 -6.0942 74.1877)"
   class="st2"
   width="9.38"
   height="2"
   id="rect36"
   style="fill:url(#linearGradient4827);fill-opacity:1" />
	</g><g
     id="g42"
     style="fill:url(#linearGradient4827);fill-opacity:1">
		<rect
   x="59.36"
   y="47"
   transform="matrix(0.7563 -0.6542 0.6542 0.7563 -15.7957 53.601)"
   class="st2"
   width="9.37"
   height="2"
   id="rect40"
   style="fill:url(#linearGradient4827);fill-opacity:1" />
	</g><g
     id="g46"
     style="fill:url(#linearGradient4827);fill-opacity:1">
		<path
   class="st1"
   d="M56.37,52.79l-1.95-0.44c0.02-0.1,2.21-9.83,2.7-14.86c0.07-0.68-0.06-1.7-0.63-2.32    c-0.35-0.38-0.86-0.56-1.48-0.54c-0.75,0.02-1.41,0.41-1.96,1.15c-0.37,0.5-0.63,1.12-0.76,1.85L51,44.77l-1.97-0.36l1.29-7.15    c0.19-1.03,0.56-1.93,1.12-2.68c0.92-1.25,2.14-1.93,3.52-1.96c1.21-0.04,2.25,0.37,2.99,1.17c0.87,0.94,1.31,2.38,1.16,3.87    C58.62,42.84,56.46,52.38,56.37,52.79z"
   id="path44"
   style="fill:url(#linearGradient4827);fill-opacity:1" />
	</g></g>
</g>
</svg>
