<?xml version="1.0" encoding="utf-8"?>
<!-- Generator: Adobe Illustrator 27.0.0, SVG Export Plug-In . SVG Version: 6.00 Build 0)  -->
<svg version="1.1" id="Layer_1" xmlns="http://www.w3.org/2000/svg" xmlns:xlink="http://www.w3.org/1999/xlink" x="0px" y="0px"
	 viewBox="0 0 100 100" style="enable-background:new 0 0 100 100;" xml:space="preserve">
<style type="text/css">
	.st0{fill:#610526;}
	.st1{fill:#7A0A37;}
	.st2{fill:#FFA9A9;}
</style>
<g>
	<path class="st1" d="M68.55,24.12h-3.14c-0.86,0-1.55,0.7-1.55,1.55v1.94H36.14v-1.94c0-0.86-0.7-1.55-1.55-1.55h-3.14
		c-0.86,0-1.55,0.7-1.55,1.55v48.66c0,0.86,0.7,1.55,1.55,1.55h3.14c0.86,0,1.55-0.7,1.55-1.55v-3.28h27.73v3.28
		c0,0.86,0.7,1.55,1.55,1.55h3.14c0.86,0,1.55-0.7,1.55-1.55V25.67C70.11,24.81,69.41,24.12,68.55,24.12z M34.14,73.88h-2.24V26.12
		h2.24V73.88z M63.86,29.61v11h-5.03c0.53-0.41,0.98-0.92,1.33-1.51c0.68-1.19,0.87-2.57,0.51-3.89c-0.35-1.32-1.2-2.43-2.39-3.11
		c-1.19-0.69-2.57-0.87-3.89-0.51s-2.43,1.2-3.12,2.39c-1.31,2.27-0.67,5.11,1.37,6.64h-5.97c1.24-0.94,2.05-2.41,2.05-4.08
		c0-2.83-2.3-5.13-5.13-5.13s-5.13,2.3-5.13,5.13c0,1.67,0.81,3.14,2.05,4.08h-4.39v-11H63.86z M53.01,34.97
		c0.42-0.72,1.09-1.24,1.9-1.46c0.27-0.07,0.54-0.11,0.82-0.11c0.54,0,1.08,0.14,1.56,0.42c1.5,0.86,2.01,2.78,1.15,4.28
		c-0.86,1.5-2.78,2.01-4.28,1.15C52.66,38.38,52.15,36.46,53.01,34.97z M40.47,36.54c0-1.73,1.4-3.13,3.13-3.13
		c1.73,0,3.13,1.4,3.13,3.13s-1.4,3.13-3.13,3.13C41.87,39.67,40.47,38.26,40.47,36.54z M42.98,46.66v-0.45h1.94v0.45l-0.22,0.22
		l0,4.91l0.04,1.34l0.33,0.29c0.6,0.52,2.16,2.2,2.16,3.69v11.81h-6.58V57.12c0-1.5,1.56-3.17,2.16-3.69l0.33-0.29l0.04-6.25
		L42.98,46.66z M54.76,46.66v-0.45h1.94v0.44l-0.23,0.22l0,4.92l0.04,1.34l0.33,0.29c0.6,0.52,2.16,2.2,2.16,3.69v11.81h-6.58V57.12
		c0-1.5,1.56-3.17,2.16-3.69l0.33-0.29l0.04-6.25L54.76,46.66z M61.02,69.05V57.12c0-2.19-1.77-4.15-2.53-4.9l-0.01-4.51l0.23-0.22
		v-3.28h-5.94v3.27l0.22,0.22l0,4.02l-0.02,0.49c-0.76,0.74-2.53,2.71-2.53,4.9v11.93h-1.21V57.12c0-2.19-1.77-4.15-2.53-4.9
		l-0.01-4.51l0.22-0.22v-3.27h-5.94v3.27l0.22,0.22l0,4.02l-0.02,0.49c-0.76,0.74-2.53,2.71-2.53,4.9v11.93h-2.53V42.61h27.73v26.44
		H61.02z M68.11,73.88h-2.24V26.12h2.24V73.88z"/>
	<g>
		<path class="st2" d="M46.17,36.55h-2c0-0.38-0.31-0.68-0.68-0.68v-2C44.97,33.87,46.17,35.07,46.17,36.55z"/>
	</g>
	<g>
		<path class="st2" d="M58.33,36.55h-2c0-0.38-0.31-0.68-0.68-0.68v-2C57.13,33.87,58.33,35.07,58.33,36.55z"/>
	</g>
	<g>
		<path class="st2" d="M47.28,64.69h-6.64v-6.69h6.64V64.69z M42.64,62.69h2.64v-2.69h-2.64V62.69z"/>
	</g>
	<g>
		<path class="st2" d="M59.06,64.69h-6.64v-6.69h6.64V64.69z M54.42,62.69h2.64v-2.69h-2.64V62.69z"/>
	</g>
</g>
</svg>
