<?xml version="1.0" encoding="utf-8"?>
<!-- Generator: Adobe Illustrator 27.0.0, SVG Export Plug-In . SVG Version: 6.00 Build 0)  -->
<svg version="1.1" id="Layer_1" xmlns="http://www.w3.org/2000/svg" xmlns:xlink="http://www.w3.org/1999/xlink" x="0px" y="0px"
	 viewBox="0 0 100 100" style="enable-background:new 0 0 100 100;" xml:space="preserve">
<style type="text/css">
	.st0{fill:#610526;}
	.st1{fill:#7A0A37;}
	.st2{fill:#FFA9A9;}
</style>
<g>
	<g>
		<path class="st1" d="M79.95,25.23h-3.76v-5.15H49.62v5.15h-3.96v25.82h2V27.23h30.3l0.09,19.21v23.37h-3.03v-8.17h-6.36v8.17
			h-2.78v-8.17h-6.36v8.17h-2.78v-8.17h-6.36v8.17h-3.73v2h33.39V46.44L79.95,25.23z M51.62,22.08h22.57v2.75H51.62V22.08z
			 M70.67,63.64h2.36v6.15h-2.36V63.64z M61.53,63.64h2.36v6.15h-2.36V63.64z M52.39,63.64h2.36v6.15h-2.36V63.64z"/>
		<path class="st1" d="M56.75,29.74h-6.36v7.35h6.36V29.74z M54.75,35.09h-2.36v-3.35h2.36V35.09z"/>
		<path class="st1" d="M65.88,29.74h-6.36v7.35h6.36V29.74z M63.88,35.09h-2.36v-3.35h2.36V35.09z"/>
		<path class="st1" d="M75.02,29.74h-6.36v7.35h6.36V29.74z M73.02,35.09h-2.36v-3.35h2.36V35.09z"/>
		<path class="st1" d="M50.39,48.01h6.36v-7.35h-6.36V48.01z M52.39,42.66h2.36v3.35h-2.36V42.66z"/>
		<path class="st1" d="M59.53,48.01h6.36v-7.35h-6.36V48.01z M61.53,42.66h2.36v3.35h-2.36V42.66z"/>
		<path class="st1" d="M68.67,48.01h6.36v-7.35h-6.36V48.01z M70.67,42.66h2.36v3.35h-2.36V42.66z"/>
		<polygon class="st1" points="50.39,56.02 52.39,56.02 52.39,53.51 54.75,53.51 54.75,56.02 56.75,56.02 56.75,51.51 50.39,51.51 
					"/>
		<path class="st1" d="M59.53,58.86h6.36v-7.35h-6.36V58.86z M61.53,53.51h2.36v3.35h-2.36V53.51z"/>
		<path class="st1" d="M68.67,58.86h6.36v-7.35h-6.36V58.86z M70.67,53.51h2.36v3.35h-2.36V53.51z"/>
	</g>
	<g>
		<path class="st2" d="M45.39,79.92H22.33c-1.31,0-2.38-1.07-2.38-2.38V51.59c0-1.31,1.07-2.38,2.38-2.38h23.06
			c1.31,0,2.38,1.07,2.38,2.38v4.53h10.52L47.77,66.62v10.92C47.77,78.85,46.7,79.92,45.39,79.92z M22.33,51.21
			c-0.21,0-0.38,0.17-0.38,0.38v25.95c0,0.21,0.17,0.38,0.38,0.38h23.06c0.21,0,0.38-0.17,0.38-0.38V65.79l7.69-7.68h-7.69v-6.53
			c0-0.21-0.17-0.38-0.38-0.38H22.33z"/>
	</g>
	<g>
		<path class="st1" d="M28.9,74.67h-2V56.04c0-0.51,0.34-0.95,0.83-1.08c0.48-0.13,1,0.09,1.24,0.53c3.71,6.65,3.71,7.59,3.71,8.04
			c0,2.95-2.44,4.8-3.79,5.59V74.67z M28.9,59.54v7.15c0.88-0.72,1.79-1.79,1.79-3.17C30.68,63.4,30.53,62.66,28.9,59.54z"/>
	</g>
	<path class="st1" d="M39.43,54.91v5.25c0,0.75-0.38,1.4-0.95,1.76v-7.02h-2v7.02c-0.57-0.36-0.95-1.01-0.95-1.76v-5.25h-2v5.25
		c0,1.88,1.26,3.46,2.95,3.91v10.93h2V64.08c1.69-0.46,2.95-2.03,2.95-3.91v-5.25H39.43z"/>
</g>
</svg>
