<?xml version="1.0" encoding="UTF-8" standalone="no"?>
<!-- Generator: Adobe Illustrator 27.0.0, SVG Export Plug-In . SVG Version: 6.00 Build 0)  -->

<svg
   version="1.1"
   id="Layer_1"
   x="0px"
   y="0px"
   viewBox="0 0 100 100"
   style="enable-background:new 0 0 100 100;"
   xml:space="preserve"
   sodipodi:docname="Sommify_ai_icons-worldwide.svg"
   inkscape:version="1.2.1 (9c6d41e, 2022-07-14)"
   xmlns:inkscape="http://www.inkscape.org/namespaces/inkscape"
   xmlns:sodipodi="http://sodipodi.sourceforge.net/DTD/sodipodi-0.dtd"
   xmlns="http://www.w3.org/2000/svg"
   xmlns:svg="http://www.w3.org/2000/svg"><defs
   id="defs1320" /><sodipodi:namedview
   id="namedview1318"
   pagecolor="#ffffff"
   bordercolor="#000000"
   borderopacity="0.25"
   inkscape:showpageshadow="2"
   inkscape:pageopacity="0.0"
   inkscape:pagecheckerboard="0"
   inkscape:deskcolor="#d1d1d1"
   showgrid="false"
   inkscape:zoom="11.909039"
   inkscape:cx="35.309314"
   inkscape:cy="52.6071"
   inkscape:window-width="1728"
   inkscape:window-height="1051"
   inkscape:window-x="804"
   inkscape:window-y="1478"
   inkscape:window-maximized="0"
   inkscape:current-layer="g1315" />
<style
   type="text/css"
   id="style1271">
	.st0{fill:#610526;}
	.st1{fill:#7A0A37;}
	.st2{fill:#FFA9A9;}
</style>
<g
   id="g1315">
	<g
   id="g1291">
		<g
   id="g1289">
			<g
   id="g1281">
				<g
   id="g1275">
					<path
   class="st0"
   d="M74.99,51.26c0,0.05,0,0.09-0.01,0.14L75,51.33L74.99,51.26z M74.99,51.26c0,0.05,0,0.09-0.01,0.14       L75,51.33L74.99,51.26z M74.99,51.26c0,0.05,0,0.09-0.01,0.14L75,51.33L74.99,51.26z M74.99,51.26c0,0.05,0,0.09-0.01,0.14       L75,51.33L74.99,51.26z M74.99,51.26c0,0.05,0,0.09-0.01,0.14L75,51.33L74.99,51.26z M74.99,51.26c0,0.05,0,0.09-0.01,0.14       L75,51.33L74.99,51.26z M74.99,51.26c0,0.05,0,0.09-0.01,0.14L75,51.33L74.99,51.26z M74.99,51.26c0,0.05,0,0.09-0.01,0.14       L75,51.33L74.99,51.26z M74.99,51.26c0,0.05,0,0.09-0.01,0.14L75,51.33L74.99,51.26z M74.99,51.26c0,0.05,0,0.09-0.01,0.14       L75,51.33L74.99,51.26z M74.99,51.26c0,0.05,0,0.09-0.01,0.14L75,51.33L74.99,51.26z M74.99,51.26c0,0.05,0,0.09-0.01,0.14       L75,51.33L74.99,51.26z M74.99,51.26c0,0.05,0,0.09-0.01,0.14L75,51.33L74.99,51.26z M74.99,51.26c0,0.05,0,0.09-0.01,0.14       L75,51.33L74.99,51.26z M74.99,51.26c0,0.05,0,0.09-0.01,0.14L75,51.33L74.99,51.26z"
   id="path1273" />
				</g>
				<g
   id="g1279">
					<path
   class="st0"
   d="M74.99,51.26c0,0.05,0,0.09-0.01,0.14L75,51.33L74.99,51.26z M74.99,51.26c0,0.05,0,0.09-0.01,0.14       L75,51.33L74.99,51.26z M74.99,51.26c0,0.05,0,0.09-0.01,0.14L75,51.33L74.99,51.26z M74.99,51.26c0,0.05,0,0.09-0.01,0.14       L75,51.33L74.99,51.26z M74.99,51.26c0,0.05,0,0.09-0.01,0.14L75,51.33L74.99,51.26z M74.99,51.26c0,0.05,0,0.09-0.01,0.14       L75,51.33L74.99,51.26z M74.99,51.26c0,0.05,0,0.09-0.01,0.14L75,51.33L74.99,51.26z M74.99,51.26c0,0.05,0,0.09-0.01,0.14       L75,51.33L74.99,51.26z M74.99,51.26c0,0.05,0,0.09-0.01,0.14L75,51.33L74.99,51.26z M74.99,51.26c0,0.05,0,0.09-0.01,0.14       L75,51.33L74.99,51.26z M74.99,51.26c0,0.05,0,0.09-0.01,0.14L75,51.33L74.99,51.26z M74.99,51.26c0,0.05,0,0.09-0.01,0.14       L75,51.33L74.99,51.26z M74.99,51.26c0,0.05,0,0.09-0.01,0.14L75,51.33L74.99,51.26z M74.99,51.26c0,0.05,0,0.09-0.01,0.14       L75,51.33L74.99,51.26z M74.99,51.26c0,0.05,0,0.09-0.01,0.14L75,51.33L74.99,51.26z"
   id="path1277" />
				</g>
			</g>
			<g
   id="g1287">
				<g
   id="g1285">
					<path
   class="st0"
   d="M75,51.33l-0.02,0.07c0.01-0.05,0.01-0.09,0.01-0.14L75,51.33z"
   id="path1283" />
				</g>
			</g>
		</g>
	</g>
	<g
   id="g1297"
   style="fill:#a51c5e;fill-opacity:1">
		<g
   id="g1295"
   style="fill:#303030;fill-opacity:1">
			<path
   class="st1"
   d="M55.52,22.08c-2.02-0.45-4.11-0.68-6.2-0.68c-15.58,0-28.25,12.67-28.25,28.24     c0,15.58,12.67,28.25,28.25,28.25c15.57,0,28.24-12.67,28.24-28.25C77.56,36.54,68.29,24.95,55.52,22.08z M48.67,58.59     c-1.24,1.24-1.11,2.04-0.96,2.96c0.12,0.73,0.29,1.73-0.56,2.58c-0.22,0.22-0.45,0.44-0.7,0.66c-1.05,0.97-1.96,1.8-1.96,3.29     c0,1.96-2.29,3.63-4.33,3.81c-0.13,0.01-0.26,0.02-0.39,0.02c-1.74,0-3.01-1.1-3.34-2.94c-0.33-1.82-0.16-3.89,0.01-5.9     c0.17-2.05,0.37-4.37-0.27-5.01c-0.57-0.57-5.49-5.69-3.82-10.88c0.65-2.01-2.95-5.83-6.13-8.32c-0.21-0.17-0.41-0.32-0.61-0.47     c0.14-0.31,0.29-0.61,0.45-0.9c1.43-2.73,3.33-5.17,5.58-7.23c0.01-0.01,0.03-0.03,0.04-0.04c1.75-1.59,3.72-2.95,5.85-4.01     c0.01-0.02,0.02-0.02,0.04-0.03c1.63-0.82,3.36-1.48,5.16-1.94c0.34-0.09,0.69-0.17,1.04-0.25c0.13,0.2,0.28,0.44,0.45,0.73     c1.3,2.17,3.58,6.62,2.33,9.44c-1.26,2.82-3.55,3.23-4.91,3.47c-0.33,0.06-0.74,0.13-0.87,0.2c-0.39,0.23-1.01,0.38-2.06,0.63     c-0.78,0.19-2.51,0.6-3.12,0.99c0.8,0.77,1.95,1.25,3.17,1.75c1.44,0.6,3.07,1.27,4.36,2.57c1.21,1.2,1.63,2.63,1.93,3.67     c0.4,1.34,0.51,1.4,0.87,1.4c0.53,0,1.19-0.6,1.83-1.17c1.07-0.97,2.86-2.59,4.78-0.67C55.45,49.92,51.19,56.07,48.67,58.59z      M56.71,36.03c-0.88-0.28-1.58-1-2.15-2.21c-1.17-2.53,1.93-6.12,3.82-7.99c0.22-0.22,0.42-0.41,0.6-0.58     c0.34,0.13,0.68,0.28,1.02,0.44c4.03,1.8,7.5,4.6,10.12,8.04c0.24,0.31,0.47,0.62,0.68,0.94l-0.1,0.01     c-0.04,0.01-0.26,0.03-0.61,0.06c-1.24,0.1-4.1,0.17-6-0.93c-1.02-0.59-1.14-0.5-2.03,0.19c-0.35,0.27-0.79,0.6-1.35,0.92     c-1.09,0.63-2.13,1.23-3.19,1.23C57.25,36.15,56.98,36.11,56.71,36.03z M69.04,66.92v0.01c-0.55,0.64-1.13,1.24-1.74,1.8     c0.01-0.19,0.07-0.43,0.21-0.7c0.02-0.05,0.05-0.09,0.07-0.14c0.5-1,0.71-1.8,0.71-2.48c0-1.27-0.72-2.12-1.66-3.06     c-1.14-1.15-0.48-2.65,0.05-3.85c0.75-1.72,1.13-2.85-0.05-4.02c-1.03-1.03-2.18-1.22-3.39-1.43c-1.78-0.3-4-0.68-4.64-4.29     c-0.5-2.75,0.51-5.31,2.7-6.84c1.68-1.18,3.66-1.43,5.04-0.63c1.25,0.72,4.86,0.97,7.54,0.98c0.21,0,0.41,0,0.6-0.01     c0.1,0.33,0.19,0.66,0.28,0.99c0.52,2.06,0.8,4.2,0.8,6.39C75.56,56.26,73.1,62.3,69.04,66.92z"
   id="path1293"
   style="fill:#303030;fill-opacity:1" />
		</g>
	</g>
	<g
   id="g1301"
   style="fill:#a51c5e;fill-opacity:1">
		<path
   class="st2"
   d="M27.95,78.6c-2.68,0-4.78-0.74-6.09-2.29c-2.1-2.5-1.89-6.62,0.61-11.92l1.81,0.85    c-2.11,4.47-2.43,7.95-0.89,9.78c3.74,4.45,19.04-0.29,35.87-14.43c7.63-6.42,13.94-13.46,17.76-19.84    c3.58-5.99,4.54-10.73,2.62-13.01c-1.64-1.95-5.4-2.15-10.6-0.57l-0.58-1.91c6.1-1.85,10.49-1.43,12.71,1.2    c2.54,3.02,1.67,8.46-2.44,15.32c-3.93,6.56-10.39,13.79-18.19,20.34C48.2,72.49,35.66,78.6,27.95,78.6z"
   id="path1299"
   style="fill:#a51c5e;fill-opacity:1" />
	</g>
	<g
   id="g1307"
   style="fill:#303030;fill-opacity:1">
		<g
   id="g1305"
   style="fill:#303030;fill-opacity:1">
			<path
   class="st1"
   d="M23.08,33.04h-2c0-2.61-2.12-4.73-4.73-4.73v-2c2.61,0,4.73-2.12,4.73-4.73h2c0,2.61,2.12,4.73,4.73,4.73v2     C25.2,28.31,23.08,30.43,23.08,33.04z M19.87,27.31c0.89,0.55,1.65,1.31,2.2,2.2c0.55-0.89,1.31-1.65,2.2-2.2     c-0.89-0.55-1.65-1.31-2.2-2.2C21.52,26,20.77,26.76,19.87,27.31z"
   id="path1303"
   style="fill:#303030;fill-opacity:1" />
		</g>
	</g>
	<g
   id="g1313"
   style="fill:#a51c5e;fill-opacity:1">
		<g
   id="g1311"
   style="fill:#303030;fill-opacity:1">
			<path
   class="st1"
   d="M78.93,76.08h-2c0-2.61-2.12-4.73-4.73-4.73v-2c2.61,0,4.73-2.12,4.73-4.73h2c0,2.61,2.12,4.73,4.73,4.73v2     C81.05,71.35,78.93,73.48,78.93,76.08z M75.72,70.35c0.89,0.55,1.65,1.31,2.2,2.2c0.55-0.89,1.31-1.65,2.2-2.2     c-0.89-0.55-1.65-1.31-2.2-2.2C77.37,69.05,76.62,69.8,75.72,70.35z"
   id="path1309"
   style="fill:#303030;fill-opacity:1" />
		</g>
	</g>
</g>
</svg>
