<?xml version="1.0" encoding="utf-8"?>
<!-- Generator: Adobe Illustrator 27.0.0, SVG Export Plug-In . SVG Version: 6.00 Build 0)  -->
<svg version="1.1" id="Layer_1" xmlns="http://www.w3.org/2000/svg" xmlns:xlink="http://www.w3.org/1999/xlink" x="0px" y="0px"
	 viewBox="0 0 100 100" style="enable-background:new 0 0 100 100;" xml:space="preserve">
<style type="text/css">
	.st0{fill:#610526;}
	.st1{fill:#7A0A37;}
	.st2{fill:#FFA9A9;}
</style>
<g>
	<g>
		<path class="st1" d="M77.92,61.29c-1.98,0-3.6,1.61-3.6,3.6v3.7h-1.86v-6.94c3.22-0.4,5.95-2.71,6.83-5.9
			c0.26-0.94,0.32-1.98,0.18-3.1l-1.22-9.77H64.67l-1.22,9.77c-0.14,1.12-0.08,2.16,0.18,3.1c0.88,3.19,3.62,5.5,6.83,5.9v6.94
			h-2.54c-2.04,0-3.7,1.66-3.7,3.77c0,2.04,1.66,3.7,3.7,3.7h9.89c1.79,0,3.28-1.27,3.63-3.01c0.05-0.24,0.07-0.48,0.07-0.73v-7.44
			C81.52,62.91,79.91,61.29,77.92,61.29z M76.5,44.87l0.64,5.14H65.8l0.64-5.14H76.5z M65.56,55.21c-0.19-0.68-0.23-1.47-0.12-2.32
			l0.11-0.88h11.84l0.11,0.88c0.11,0.86,0.06,1.64-0.12,2.32c-0.73,2.65-3.16,4.5-5.91,4.5S66.3,57.86,65.56,55.21z M76.33,64.89
			c0-0.88,0.72-1.6,1.6-1.6s1.6,0.72,1.6,1.6v4.14c-0.51-0.27-1.09-0.43-1.7-0.43h-1.49V64.89z M76.33,70.59h1.49
			c0.93,0,1.69,0.76,1.7,1.75c-0.01,0.87-0.72,1.58-1.6,1.58c-0.88,0-1.6-0.72-1.6-1.6V70.59z M66.22,72.29c0-0.94,0.76-1.7,1.7-1.7
			h6.4v1.74c0,0.63,0.18,1.22,0.47,1.74h-6.87C66.99,74.06,66.22,73.3,66.22,72.29z"/>
		<g>
			<path class="st1" d="M57.02,75.92H28.77c-1.79,0-3.26-1.46-3.26-3.25V65.1c0-1.79,1.46-3.25,3.26-3.25h5.75v2h-5.75
				c-0.69,0-1.26,0.56-1.26,1.25v7.56c0,0.69,0.56,1.25,1.26,1.25h28.25c0.69,0,1.25-0.56,1.25-1.25V65.1
				c0-0.69-0.56-1.25-1.25-1.25h-5.99v-2h5.99c1.79,0,3.25,1.46,3.25,3.25v7.56C60.28,74.46,58.82,75.92,57.02,75.92z"/>
		</g>
		<g>
			<path class="st1" d="M54.24,29.85H31.56c-4.09,0-7.46,3.17-7.77,7.19c-0.07,0.01-0.13,0.02-0.19,0.03v-5.45
				c1.6-0.5,2.77-1.98,2.77-3.74c0-2.17-1.77-3.94-3.94-3.94s-3.94,1.77-3.94,3.94c0,1.89,1.34,3.47,3.12,3.85v6.19
				c-1.63,1.12-2.72,3.14-2.72,5.44c0,3.22,2.13,5.88,4.88,6.31v0.42c0,4.3,3.5,7.8,7.8,7.8h22.68c4.3,0,7.8-3.5,7.8-7.8V37.65
				C62.04,33.35,58.54,29.85,54.24,29.85z M20.48,27.88c0-1.07,0.87-1.94,1.94-1.94s1.94,0.87,1.94,1.94s-0.87,1.94-1.94,1.94
				S20.48,28.95,20.48,27.88z M20.88,43.36c0-2.09,1.24-3.85,2.88-4.27v8.55C22.11,47.2,20.88,45.45,20.88,43.36z M60.04,50.09
				c0,3.2-2.6,5.8-5.8,5.8H31.56c-3.2,0-5.8-2.6-5.8-5.8V37.65c0-3.2,2.6-5.8,5.8-5.8h22.68c3.2,0,5.8,2.6,5.8,5.8V50.09z"/>
			<path class="st1" d="M32.94,36.97c-2.17,0-3.94,1.77-3.94,3.94s1.77,3.94,3.94,3.94s3.94-1.77,3.94-3.94S35.12,36.97,32.94,36.97
				z M32.94,42.85c-1.07,0-1.94-0.87-1.94-1.94s0.87-1.94,1.94-1.94s1.94,0.87,1.94,1.94S34.01,42.85,32.94,42.85z"/>
			<path class="st1" d="M52.92,36.97c-2.17,0-3.94,1.77-3.94,3.94s1.77,3.94,3.94,3.94s3.94-1.77,3.94-3.94S55.09,36.97,52.92,36.97
				z M52.92,42.85c-1.07,0-1.94-0.87-1.94-1.94s0.87-1.94,1.94-1.94s1.94,0.87,1.94,1.94S53.99,42.85,52.92,42.85z"/>
		</g>
		<g>
			
				<rect x="64.52" y="31.07" transform="matrix(0.231 -0.9729 0.9729 0.231 23.2658 93.5759)" class="st2" width="12.62" height="2"/>
		</g>
		<g>
			
				<rect x="73.29" y="34.58" transform="matrix(0.6911 -0.7228 0.7228 0.6911 -1.7741 67.0105)" class="st2" width="8.42" height="2"/>
		</g>
		<path class="st2" d="M50.97,56.06c-0.6-0.35-1.32-0.35-1.92,0l-6.16,3.56l-6.16-3.56c-0.6-0.35-1.32-0.35-1.92,0
			c-0.6,0.35-0.96,0.97-0.96,1.66v10.55c0,0.69,0.36,1.31,0.96,1.66c0.3,0.17,0.63,0.26,0.96,0.26s0.66-0.09,0.96-0.26l6.16-3.56
			l6.16,3.56c0.3,0.17,0.63,0.26,0.96,0.26s0.66-0.09,0.96-0.26c0.6-0.35,0.96-0.97,0.96-1.66V57.72
			C51.93,57.03,51.57,56.41,50.97,56.06z M35.86,68.12V57.87l5.03,2.91l-0.97,0.56c-0.6,0.35-0.96,0.97-0.96,1.66
			c0,0.69,0.36,1.31,0.96,1.66l0.97,0.56L35.86,68.12z M44.75,63l-1.85,1.07L41.05,63l1.85-1.07L44.75,63z M49.93,68.12l-5.03-2.91
			l0.97-0.56c0.6-0.35,0.96-0.97,0.96-1.66c0-0.69-0.36-1.31-0.96-1.66l-0.97-0.56l5.03-2.91V68.12z"/>
	</g>
	<path class="st1" d="M50.07,48.1c-0.54-1.71-2.45-2.74-4.43-2.4c-2.58,0.45-3.84,0.45-6.42,0c-1.98-0.34-3.89,0.69-4.43,2.39
		c-0.26,0.82-0.14,1.71,0.35,2.51c0.6,0.99,1.66,1.68,2.9,1.9h0c1.72,0.3,3.06,0.45,4.39,0.45c1.33,0,2.67-0.15,4.39-0.45
		c1.24-0.22,2.3-0.91,2.9-1.9C50.2,49.81,50.33,48.92,50.07,48.1z M36.85,49.57c-0.1-0.17-0.26-0.51-0.15-0.87
		c0.24-0.75,1.19-1.2,2.18-1.03c0.24,0.04,0.45,0.07,0.68,0.11l-0.26,2.9c-0.29-0.04-0.59-0.09-0.91-0.15
		C37.72,50.42,37.14,50.06,36.85,49.57z M41.28,50.91l0.26-2.9c0.69,0.04,1.35,0.03,2.04-0.02l0.3,2.9
		C42.99,50.96,42.16,50.97,41.28,50.91z M48.01,49.57c-0.3,0.49-0.87,0.85-1.53,0.96c-0.22,0.04-0.41,0.07-0.61,0.1l-0.3-2.89
		c0.14-0.02,0.27-0.04,0.41-0.07c0.99-0.17,1.94,0.28,2.18,1.03C48.27,49.06,48.11,49.4,48.01,49.57z"/>
</g>
</svg>
