<?xml version="1.0" encoding="UTF-8" standalone="no"?>
<!-- Generator: Adobe Illustrator 27.0.0, SVG Export Plug-In . SVG Version: 6.00 Build 0)  -->

<svg
   version="1.1"
   id="Layer_1"
   x="0px"
   y="0px"
   viewBox="0 0 100 100"
   style="enable-background:new 0 0 100 100;"
   xml:space="preserve"
   sodipodi:docname="Sommify_ai_icons-refreshing.svg"
   inkscape:version="1.2.1 (9c6d41e, 2022-07-14)"
   xmlns:inkscape="http://www.inkscape.org/namespaces/inkscape"
   xmlns:sodipodi="http://sodipodi.sourceforge.net/DTD/sodipodi-0.dtd"
   xmlns="http://www.w3.org/2000/svg"
   xmlns:svg="http://www.w3.org/2000/svg"><defs
   id="defs47" /><sodipodi:namedview
   id="namedview45"
   pagecolor="#ffffff"
   bordercolor="#000000"
   borderopacity="0.25"
   inkscape:showpageshadow="2"
   inkscape:pageopacity="0.0"
   inkscape:pagecheckerboard="0"
   inkscape:deskcolor="#d1d1d1"
   showgrid="false"
   inkscape:zoom="10.202749"
   inkscape:cx="61.159987"
   inkscape:cy="45.771978"
   inkscape:window-width="1845"
   inkscape:window-height="944"
   inkscape:window-x="193"
   inkscape:window-y="260"
   inkscape:window-maximized="0"
   inkscape:current-layer="g36" />
<style
   type="text/css"
   id="style2">
	.st0{fill:#610526;}
	.st1{fill:#7A0A37;}
	.st2{fill:#FFA9A9;}
</style>
<g
   id="g42">
	<g
   id="g8"
   style="fill:#303030;fill-opacity:1">
		<g
   id="g6"
   style="fill:#303030;fill-opacity:1">
			<path
   class="st1"
   d="M44.3,77.58h-2c0-7.83-6.37-14.2-14.2-14.2v-2c7.83,0,14.2-6.37,14.2-14.2h2c0,7.83,6.37,14.2,14.2,14.2v2     C50.67,63.38,44.3,69.75,44.3,77.58z M33.71,62.38c4.43,1.64,7.95,5.16,9.59,9.59c1.64-4.43,5.16-7.95,9.59-9.59     c-4.43-1.64-7.95-5.16-9.59-9.59C41.66,57.22,38.14,60.74,33.71,62.38z"
   id="path4"
   style="fill:#303030;fill-opacity:1" />
		</g>
	</g>
	<g
   id="g14"
   style="fill:#303030;fill-opacity:1">
		<g
   id="g12"
   style="fill:#303030;fill-opacity:1">
			<path
   class="st1"
   d="M53.19,48.35h-2c0-4.73-3.85-8.59-8.59-8.59v-2c4.73,0,8.59-3.85,8.59-8.59h2c0,4.73,3.85,8.59,8.58,8.59v2     C57.04,39.77,53.19,43.62,53.19,48.35z M47.09,38.77c2.23,1.05,4.04,2.86,5.1,5.1c1.05-2.23,2.86-4.04,5.1-5.1     c-2.23-1.05-4.04-2.86-5.1-5.1C51.14,35.91,49.33,37.72,47.09,38.77z"
   id="path10"
   style="fill:#303030;fill-opacity:1" />
		</g>
	</g>
	<g
   id="g20"
   style="fill:#a51c5e;fill-opacity:1">
		<g
   id="g18"
   style="fill:#303030;fill-opacity:1">
			<path
   class="st1"
   d="M66.92,57.06h-2c0-3.06-2.49-5.55-5.55-5.55v-2c3.06,0,5.55-2.49,5.55-5.55h2c0,3.06,2.49,5.55,5.55,5.55v2     C69.41,51.52,66.92,54.01,66.92,57.06z M63.13,50.52c1.16,0.67,2.13,1.63,2.79,2.79c0.67-1.16,1.63-2.13,2.8-2.79     c-1.16-0.67-2.13-1.63-2.8-2.8C65.25,48.88,64.29,49.85,63.13,50.52z"
   id="path16"
   style="fill:#303030;fill-opacity:1" />
		</g>
	</g>
	<g
   id="g24"
   style="fill:#a51c5e;fill-opacity:1">
		<path
   class="st2"
   d="M27.98,56.97c-0.31-2.35-1.17-8.96,0.9-13.24c-0.16-4.79,2.18-11.54,6.16-14.7l1.24,1.57    c-2.8,2.22-4.7,6.63-5.25,10.45c0.95-0.71,2.09-1.13,3.4-1.26c2.89-0.29,4.06,1.08,4.5,1.93c1.04,1.99,0.14,4.7-1.28,6.35    c-1.48,1.72-3.49,2.35-5.37,1.7c-0.82-0.28-1.79-0.9-2.49-2.2c-0.57,3.45-0.04,7.47,0.18,9.14L27.98,56.97z M30.9,44.17    c0.02,0.26,0.05,0.5,0.09,0.74c0.19,1.12,0.68,2.54,1.93,2.97c1.5,0.52,2.65-0.47,3.2-1.11c1.09-1.26,1.55-3.11,1.02-4.12    c-0.46-0.88-1.62-0.95-2.52-0.86c-1.4,0.14-2.47,0.71-3.28,1.73C31.19,43.71,31.04,43.94,30.9,44.17z"
   id="path22"
   style="fill:#a51c5e;fill-opacity:1" />
	</g>
	<g
   id="g28"
   style="fill:#a51c5e;fill-opacity:1">
		<rect
   x="57.27"
   y="25.66"
   transform="matrix(0.6659 -0.746 0.746 0.6659 0.8422 55.2078)"
   class="st2"
   width="9.59"
   height="2"
   id="rect26"
   style="fill:#a51c5e;fill-opacity:1" />
	</g>
	<g
   id="g32"
   style="fill:#a51c5e;fill-opacity:1">
		
			<rect
   x="62.05"
   y="30.42"
   transform="matrix(0.9515 -0.3076 0.3076 0.9515 -6.5005 21.5933)"
   class="st2"
   width="6.4"
   height="2"
   id="rect30"
   style="fill:#a51c5e;fill-opacity:1" />
	</g>
	<g
   id="g36"
   style="fill:#8181e4;fill-opacity:1">
		
			<rect
   x="60.51"
   y="66.84"
   transform="matrix(0.9213 -0.3889 0.3889 0.9213 -22.8174 29.5208)"
   class="st2"
   width="2"
   height="8.56"
   id="rect34"
   style="fill:#a51c5e;fill-opacity:1" />
	</g>
	<g
   id="g40"
   style="fill:#a51c5e;fill-opacity:1">
		
			<rect
   x="64.28"
   y="63.56"
   transform="matrix(0.5914 -0.8064 0.8064 0.5914 -27.2125 79.9445)"
   class="st2"
   width="2"
   height="6.52"
   id="rect38"
   style="fill:#a51c5e;fill-opacity:1" />
	</g>
</g>
</svg>
