<?xml version="1.0" encoding="utf-8"?>
<!-- Generator: Adobe Illustrator 27.0.0, SVG Export Plug-In . SVG Version: 6.00 Build 0)  -->
<svg version="1.1" id="Layer_1" xmlns="http://www.w3.org/2000/svg" xmlns:xlink="http://www.w3.org/1999/xlink" x="0px" y="0px"
	 viewBox="0 0 100 100" style="enable-background:new 0 0 100 100;" xml:space="preserve">
<style type="text/css">
	.st0{fill:#610526;}
	.st1{fill:#7A0A37;}
	.st2{fill:#FFA9A9;}
</style>
<g>
	<path class="st1" d="M81.41,34.9c-0.02-0.12-0.07-0.25-0.12-0.36l-5.45-10.48H46.31l-5.44,10.55c-0.09,0.15-0.17,0.31-0.24,0.47
		c-0.45,1.03-0.6,2.17-0.44,3.31c0.29,2.06,1.66,3.8,3.5,4.64v4.04h2v-3.52c2.18,0.18,4.25-0.81,5.47-2.53
		c1.12,1.57,2.96,2.56,4.95,2.56c2,0,3.83-0.99,4.95-2.56c1.12,1.57,2.95,2.56,4.95,2.56c2.02,0,3.84-0.99,4.96-2.56
		c1.15,1.61,3.05,2.59,5.1,2.54v22.26h-2.9v-20.8H59.59v20.8h-14.9v2h33.39V43.18c1.69-0.65,3.06-2.04,3.64-3.83
		C82.2,37.86,82.1,36.32,81.41,34.9z M61.59,47.03h9.59v18.65h-9.59V47.03z M79.42,35.28l-0.01,0.1l0.13,0.26
		c0.13,0.26,0.24,0.52,0.31,0.78h-8.17l-2.38-10.36h5.31L79.42,35.28z M52.43,36.41l2.38-10.36h5.37v10.36H52.43z M62.18,26.06h5.08
		l2.38,10.36h-7.45V26.06z M42.65,35.51l4.87-9.45h5.23l-2.38,10.36h-8.11c0.05-0.18,0.11-0.36,0.19-0.54
		C42.51,35.76,42.57,35.65,42.65,35.51z M45.5,41.53c-1.59-0.26-2.91-1.55-3.26-3.12h8c-0.04,0.08-0.09,0.15-0.11,0.24
		C49.53,40.67,47.6,41.88,45.5,41.53z M56.12,41.59c-1.8,0-3.41-1.21-3.91-2.93c-0.03-0.09-0.07-0.17-0.11-0.24h8.01l-0.05,0.19
		C59.55,40.36,57.94,41.59,56.12,41.59z M66.02,41.59c-1.82,0-3.44-1.23-3.93-2.99c-0.02-0.07-0.06-0.13-0.09-0.19H70l-0.02,0.1
		C69.52,40.32,67.89,41.59,66.02,41.59z M76.46,41.55c-2.05,0.26-3.98-1.05-4.49-3.06l-0.02-0.08h7.94
		c-0.03,0.11-0.04,0.21-0.07,0.32C79.33,40.23,77.98,41.36,76.46,41.55z"/>
	<g>
		<path class="st2" d="M43.42,75.95H20.36c-1.31,0-2.38-1.07-2.38-2.38V47.61c0-1.31,1.07-2.38,2.38-2.38h23.06
			c1.31,0,2.38,1.07,2.38,2.38v4.53h10.52L45.8,62.65v10.92C45.8,74.88,44.73,75.95,43.42,75.95z M20.36,47.23
			c-0.21,0-0.38,0.17-0.38,0.38v25.95c0,0.21,0.17,0.38,0.38,0.38h23.06c0.21,0,0.38-0.17,0.38-0.38V61.82l7.68-7.68H43.8v-6.53
			c0-0.21-0.17-0.38-0.38-0.38H20.36z"/>
	</g>
	<g>
		<path class="st1" d="M25.76,50.69c-0.49,0.13-0.83,0.57-0.83,1.08V70.4h2v-5.55c1.35-0.79,3.79-2.64,3.79-5.59
			c0-0.42,0-1.4-3.72-8.04C26.76,50.78,26.25,50.56,25.76,50.69z M26.93,62.42v-7.16c1.63,3.12,1.78,3.87,1.79,3.99
			C28.72,60.63,27.81,61.71,26.93,62.42z"/>
		<path class="st1" d="M37.46,50.64v5.26c0,0.75-0.38,1.4-0.95,1.76v-7.02h-2v7.02c-0.57-0.36-0.95-1.01-0.95-1.76v-5.26h-2v5.26
			c0,1.88,1.26,3.45,2.95,3.91v10.93h2V59.81c1.69-0.46,2.95-2.03,2.95-3.91v-5.26H37.46z"/>
	</g>
</g>
</svg>
