<?xml version="1.0" encoding="utf-8"?>
<!-- Generator: Adobe Illustrator 27.0.0, SVG Export Plug-In . SVG Version: 6.00 Build 0)  -->
<svg version="1.1" id="Layer_1" xmlns="http://www.w3.org/2000/svg" xmlns:xlink="http://www.w3.org/1999/xlink" x="0px" y="0px"
	 viewBox="0 0 100 100" style="enable-background:new 0 0 100 100;" xml:space="preserve">
<style type="text/css">
	.st0{fill:#610526;}
	.st1{fill:#7A0A37;}
	.st2{fill:#FFA9A9;}
</style>
<g>
	<path class="st1" d="M74.14,20.52H71c-0.86,0-1.55,0.7-1.55,1.55v9.13h-4.5c1.46-0.91,2.44-2.51,2.44-4.35
		c0-2.83-2.3-5.13-5.13-5.13s-5.13,2.3-5.13,5.13c0,1.84,0.98,3.44,2.44,4.35h-6.75c0.72-0.44,1.33-1.03,1.76-1.78
		c0.68-1.19,0.87-2.57,0.51-3.89c-0.35-1.32-1.2-2.43-2.39-3.11c-1.19-0.69-2.57-0.87-3.89-0.51c-1.32,0.35-2.43,1.2-3.12,2.39
		c-1.39,2.4-0.59,5.46,1.75,6.91H40.7c1.46-0.91,2.44-2.51,2.44-4.35c0-2.83-2.3-5.13-5.13-5.13s-5.13,2.3-5.13,5.13
		c0,1.84,0.98,3.44,2.44,4.35h-4.78v-9.13c0-0.86-0.7-1.55-1.55-1.55h-3.14c-0.86,0-1.55,0.7-1.55,1.55v55.85
		c0,0.86,0.7,1.55,1.55,1.55H29c0.86,0,1.55-0.7,1.55-1.55v-3.28h38.9v3.28c0,0.86,0.7,1.55,1.55,1.55h3.14
		c0.86,0,1.55-0.7,1.55-1.55V22.08C75.69,21.22,75,20.52,74.14,20.52z M62.26,23.73c1.73,0,3.13,1.4,3.13,3.13s-1.4,3.13-3.13,3.13
		s-3.13-1.4-3.13-3.13S60.53,23.73,62.26,23.73z M47.42,25.29c0.58-1,1.63-1.56,2.72-1.56c0.53,0,1.07,0.13,1.56,0.42
		c0.72,0.42,1.24,1.09,1.46,1.9c0.22,0.81,0.11,1.65-0.31,2.38s-1.09,1.24-1.9,1.46c-0.81,0.22-1.65,0.1-2.38-0.31
		C47.08,28.71,46.56,26.79,47.42,25.29z M38.01,23.73c1.73,0,3.13,1.4,3.13,3.13s-1.4,3.13-3.13,3.13c-1.73,0-3.13-1.4-3.13-3.13
		S36.29,23.73,38.01,23.73z M28.55,77.48h-2.24V22.52h2.24V77.48z M69.45,33.21v11h-4.12c1.24-0.94,2.05-2.41,2.05-4.08
		c0-2.83-2.3-5.13-5.13-5.13s-5.13,2.3-5.13,5.13c0,1.67,0.81,3.14,2.05,4.08h-5.93c0.53-0.41,0.98-0.92,1.33-1.51
		c0.68-1.19,0.87-2.57,0.51-3.89c-0.35-1.32-1.2-2.43-2.39-3.12c-1.19-0.68-2.57-0.87-3.89-0.51c-1.32,0.35-2.43,1.2-3.12,2.39
		c-1.31,2.27-0.67,5.11,1.37,6.64h-5.97c1.24-0.94,2.05-2.41,2.05-4.08c0-2.83-2.3-5.13-5.13-5.13s-5.13,2.3-5.13,5.13
		c0,1.67,0.81,3.14,2.05,4.08h-4.39v-11H69.45z M59.12,40.13c0-1.73,1.4-3.13,3.13-3.13s3.13,1.4,3.13,3.13s-1.4,3.13-3.13,3.13
		S59.12,41.86,59.12,40.13z M47.42,38.56c0.58-1,1.63-1.56,2.72-1.56c0.53,0,1.07,0.13,1.56,0.42c0.72,0.42,1.24,1.09,1.46,1.9
		s0.11,1.65-0.31,2.38s-1.09,1.24-1.9,1.46c-0.81,0.22-1.65,0.1-2.38-0.31C47.08,41.98,46.56,40.06,47.42,38.56z M34.88,40.13
		c0-1.73,1.4-3.13,3.13-3.13c1.73,0,3.13,1.4,3.13,3.13s-1.4,3.13-3.13,3.13C36.29,43.26,34.88,41.86,34.88,40.13z M37.39,50.26
		v-0.45h1.94v0.45l-0.22,0.22l0,4.91l0.04,1.34l0.33,0.29c0.6,0.52,2.16,2.2,2.16,3.69v11.81h-6.58V60.72c0-1.5,1.56-3.17,2.16-3.69
		l0.33-0.29l0.04-6.25L37.39,50.26z M49.18,50.26v-0.45h1.94v0.44l-0.23,0.22l0,4.92l0.04,1.34l0.33,0.29
		c0.6,0.52,2.16,2.2,2.16,3.69v11.81h-6.58V60.72c0-1.5,1.56-3.17,2.16-3.69l0.33-0.29l0.04-6.26L49.18,50.26z M60.96,50.26v-0.45
		h1.94v0.45l-0.22,0.22l0,4.91l0.04,1.34l0.33,0.29c0.6,0.52,2.16,2.2,2.16,3.69v11.81h-6.58V60.72c0-1.5,1.56-3.17,2.16-3.69
		l0.33-0.29l0.04-6.25L60.96,50.26z M67.22,72.65V60.72c0-2.19-1.77-4.15-2.53-4.9l-0.01-4.51l0.22-0.22v-3.27h-5.94v3.27l0.22,0.22
		l0,4.02l-0.02,0.49c-0.76,0.74-2.53,2.71-2.53,4.9v11.93h-1.21V60.72c0-2.19-1.77-4.15-2.53-4.9l-0.01-4.51l0.23-0.22v-3.27h-5.94
		v3.27l0.22,0.22l0,4.02l-0.02,0.49c-0.76,0.74-2.53,2.71-2.53,4.9v11.93h-1.21V60.72c0-2.19-1.77-4.15-2.53-4.9l-0.01-4.51
		l0.22-0.22v-3.27h-5.94v3.27l0.22,0.22l0,4.02l-0.02,0.49c-0.76,0.74-2.53,2.71-2.53,4.9v11.93h-2.53V46.21h38.9v26.44H67.22z
		 M73.69,77.48h-2.24V22.52h2.24V77.48z"/>
	<g>
		<path class="st2" d="M40.58,26.94h-2c0-0.38-0.31-0.68-0.68-0.68v-2C39.38,24.26,40.58,25.46,40.58,26.94z"/>
	</g>
	<g>
		<path class="st2" d="M52.75,26.94h-2c0-0.38-0.31-0.68-0.68-0.68v-2C51.55,24.26,52.75,25.46,52.75,26.94z"/>
	</g>
	<g>
		<path class="st2" d="M64.87,26.94h-2c0-0.38-0.31-0.68-0.68-0.68v-2C63.67,24.26,64.87,25.46,64.87,26.94z"/>
	</g>
	<g>
		<path class="st2" d="M40.58,40.14h-2c0-0.38-0.31-0.68-0.68-0.68v-2C39.38,37.46,40.58,38.66,40.58,40.14z"/>
	</g>
	<g>
		<path class="st2" d="M52.75,40.14h-2c0-0.38-0.31-0.68-0.68-0.68v-2C51.55,37.46,52.75,38.66,52.75,40.14z"/>
	</g>
	<g>
		<path class="st2" d="M64.87,40.14h-2c0-0.38-0.31-0.68-0.68-0.68v-2C63.67,37.46,64.87,38.66,64.87,40.14z"/>
	</g>
	<g>
		<path class="st2" d="M41.69,68.28h-6.64v-6.69h6.64V68.28z M37.05,66.28h2.64v-2.69h-2.64V66.28z"/>
	</g>
	<g>
		<path class="st2" d="M53.47,68.28h-6.64v-6.69h6.64V68.28z M48.84,66.28h2.64v-2.69h-2.64V66.28z"/>
	</g>
	<g>
		<path class="st2" d="M65.26,68.28h-6.64v-6.69h6.64V68.28z M60.62,66.28h2.64v-2.69h-2.64V66.28z"/>
	</g>
</g>
</svg>
