<?xml version="1.0" encoding="utf-8"?>
<!-- Generator: Adobe Illustrator 19.2.1, SVG Export Plug-In . SVG Version: 6.00 Build 0)  -->
<svg version="1.1" id="layer" xmlns="http://www.w3.org/2000/svg" xmlns:xlink="http://www.w3.org/1999/xlink" x="0px" y="0px"
	 viewBox="0 0 652 652" style="enable-background:new 0 0 652 652;" xml:space="preserve">
<style type="text/css">
	.st0{fill:#8D323D;}
</style>
<path class="st0" d="M347.2,299.4c-7.8-8.5-15.9-10.8-27.2-10.8c-9.2,0-18.2,2.6-25.9,7.6l-12.3,24.3l4.8,2.3
	c2.9-4.4,17.7-25.2,32.8-25.2c13.4,0,14.3,9.9,14.4,11.7c-8.3,3.1-57.1,22.7-57.1,51.1c0,19.1,17.8,24.1,30.1,24.1
	c10.7,0,21.4-4.5,27.1-7.7v6.3h19.2v-68.4C352.7,313.8,351.9,304.6,347.2,299.4z M333.7,369.6c-2.8,2.5-8.8,5.8-21.4,5.4
	c-9.3-0.2-15.3-9.5-15.1-16.8c0.8-24.9,29.8-38.4,36.5-41.3L333.7,369.6z"/>
<path class="st0" d="M406,309.5c-0.3-3.1-2.2-5.8-5.1-7c-9-4.1-17,5.1-19.6,8.4v72.3H362v-82.5l18.7-11.3h0.4v10.7
	c2.7-2.2,5.6-4.3,8.6-6.2c4.7-2.9,20.8-11.4,31.3,1.8c2.9,4,4.4,8.8,4,13.8v73.7h-19.2L406,309.5z"/>
<path class="st0" d="M466.9,289.6h19.2v7.1c0,0-8.5,0.2-10.7,0.1c-2.6-0.1-6.7-0.1-8.5,0v59.4c0,0-1,18.5,12.4,18.5
	c3.3-0.2,6.4-1.4,8.8-3.7v4.4c-2.4,2.4-9,8.9-18.4,8.9c-24.2,0-22.1-27.3-22.1-27.3v-60.3h-18.8v-7.1h18.8V269l18.9-9.4v30"/>
<path class="st0" d="M247.7,288.6c5.2,0.1,10.3,1.1,15.2,2.8l9.2,21.6l-5.6,2.5c-0.7-2.3-6.6-18.8-23-18.8
	c-19.4,0-25.4,27.5-19.4,49.7c6.3,21.7,21.9,29.3,31.8,29.6c11.7,0.4,24.1-5.3,24.1-5.3l3.1,5.1c0,0-14.7,8.6-29.7,8.6
	c-17.4,0-51-12.6-51-46.4C202.4,303.4,229.1,288.6,247.7,288.6"/>
<path class="st0" d="M50.8,259.5H20.4v5.3h9.7v113.7h-9.7v4.5h30.8c0,0,74.6,4.3,74.6-62.5C125.7,256.3,50.8,259.5,50.8,259.5z
	 M50,378.5V264.8c0,0,52.7-2.1,52.7,55.7C102.7,376.9,50,378.5,50,378.5L50,378.5z"/>
<path class="st0" d="M617.4,298.6l-11.3,11.8c-0.3-3.1-2.2-5.8-5.1-7c-9-4.1-17,5.1-19.6,8.4v72.3h-19.2v-82.5l18.7-11.3h0.4V301
	c2.8-2.2,5.7-4.3,8.7-6.1c4.7-2.9,18.3-11.6,30.3,0.3c0.7,0.7-2.9,3.2-3.2,3.9"/>
<path class="st0" d="M557,372.5c-6.7,2.8-13.9,4.1-21.1,3.9c-9.9-0.3-24.6-6.3-31-24l6.7-6.5l43.1-38.8c0,0-1.6-18.1-28.7-18.1
	c-21.6,0-43.6,14.8-43.6,49.4c0,33.7,31.2,46.4,51,46.4c9.5,0,18.9-2.5,27.1-7.4L557,372.5z M503.2,341.1
	c-3.8-26.6,6.6-45.4,20.5-44.9c8.3,0.2,11,9.3,10.3,14.7c-1,7.8-7.4,13.9-7.4,13.9L503.9,345C503.7,343.7,503.4,342.4,503.2,341.1z"
	/>
<path class="st0" d="M203.4,371.4c-6.7,2.8-13.9,4.1-21.1,3.9c-9.9-0.3-24.6-6.3-31-24l6.7-6.5l43.1-38.8c0,0-1.6-18.1-28.7-18.1
	c-21.6,0-43.6,14.8-43.6,49.4c0,33.7,31.2,46.4,51,46.4c9.5,0,18.9-2.5,27.1-7.4L203.4,371.4z M149.7,339.9
	c-3.8-26.6,6.6-45.4,20.5-44.9c8.3,0.2,11,9.3,10.3,14.7c-1,7.8-7.4,13.9-7.4,13.9l-22.8,20.3C150.1,342.6,149.9,341.3,149.7,339.9z
	"/>
</svg>
