<?xml version="1.0" encoding="utf-8"?>
<!-- Generator: Adobe Illustrator 23.0.2, SVG Export Plug-In . SVG Version: 6.00 Build 0)  -->
<svg version="1.1" id="Layer_1" xmlns="http://www.w3.org/2000/svg" xmlns:xlink="http://www.w3.org/1999/xlink" x="0px" y="0px"
	 viewBox="0 0 150 51.03" style="enable-background:new 0 0 150 51.03;" xml:space="preserve">
<style type="text/css">
	.st0{fill:#FCB813;}
	.st1{fill:#231F20;}
</style>
<g>
	<polygon class="st0" points="0,44.1 0,51.03 150,51.03 150,44.1 0,44.1 	"/>
	<path class="st1" d="M0.1,37.11h15.21v-1.18l-2.4-0.44c-1.61-0.29-1.81-0.54-1.81-3.29V5.4c0.59-0.2,2.1-0.34,3.62-0.34
		c4.26,0,5.87,1.87,5.87,8.3c0,6.43-2.35,8.39-7.97,8.3v1.33c0.44,0.2,1.61,0.54,3.42,0.54c7.88,0,12.08-4.76,12.08-10.6
		c0-6.58-4.45-9.82-12.96-9.82H0.1v1.18l2.15,0.49C3.38,5.01,3.77,5.2,3.77,8v24.2c0,2.8-0.44,3.09-1.76,3.34L0.1,35.93V37.11
		L0.1,37.11z M29.26,37.11h13.11v-1.13l-1.96-0.39c-1.22-0.25-1.47-0.49-1.47-2.7v-16.3c0.73-0.79,2.35-1.62,3.23-1.62
		c0.44,0,0.69,0.15,0.93,0.74c0.73,1.33,1.32,2.06,3.38,2.06c1.66,0,3.03-1.18,3.03-3.29c0-2.21-1.32-3.39-3.52-3.39
		c-2.64,0-5.48,1.96-7.04,3.63H38.7l0.1-3.24l-0.44-0.34l-9.2,1.13v0.83l1.71,1.03c1.27,0.79,1.52,0.93,1.52,2.99v15.76
		c0,2.01-0.24,2.31-1.57,2.7l-1.57,0.39V37.11L29.26,37.11z M57.48,37.75c2.98,0,5.38-1.37,6.6-2.99h0.24
		c0.44,1.82,1.96,2.95,4.65,2.95c2.35,0,4.26-0.83,5.09-1.47V35.2c-0.83,0-1.71-0.15-2.3-0.44c-0.93-0.49-1.22-1.23-1.22-2.85V17.72
		c0-4.61-3.13-6.63-9.1-6.63c-5.67,0-10.08,1.52-10.08,4.66c0,1.62,0.98,2.75,2.98,2.75c2.4,0,3.08-1.33,3.33-3.83
		c0.15-1.42,0.64-1.82,2.4-1.82c3.28,0,3.91,1.47,3.91,5.25v4.56l-5.77,1.42c-4.55,1.08-8.07,2.95-8.07,7.12
		C50.15,35.39,52.93,37.75,57.48,37.75L57.48,37.75z M60.47,34.71c-2.3,0-3.82-1.33-3.82-4.37c0-3.58,1.71-4.81,4.5-5.06l2.84-0.29
		v7.9C63.45,33.87,62.23,34.71,60.47,34.71L60.47,34.71z M83.76,37.11h3.42l7.58-19.68c1.08-2.9,1.52-3.78,2.79-4.17l1.13-0.29
		v-1.13h-8.61v1.13l1.32,0.34c0.98,0.25,1.42,0.79,1.42,1.72c0,0.59-0.2,1.47-0.64,2.7l-4.4,12.32h-0.24l-4.5-12.32
		c-0.39-1.13-0.64-1.96-0.64-2.6c0-1.03,0.34-1.52,1.42-1.82l1.32-0.34v-1.13H71.92v1.13l1.03,0.29c1.32,0.44,1.76,1.13,2.79,3.63
		L83.76,37.11L83.76,37.11z M106.94,37.7c3.33,0,6.21-1.37,8.27-3.04h0.2l-0.1,2.7l0.49,0.34l9.05-1.28v-0.93l-1.57-0.74
		c-1.32-0.54-1.52-0.83-1.52-3.19V6.19c0-3.63,0.15-5.84,0.15-5.84L121.47,0l-9.78,0.93v0.98l2.05,1.03
		c1.17,0.59,1.47,0.74,1.47,2.9v2.21c0,1.77,0.1,3.63,0.1,3.63c-1.03-0.29-2.45-0.54-4.06-0.54c-7.34,0-13.89,4.17-13.89,14.14
		C97.36,34.41,102.2,37.7,106.94,37.7L106.94,37.7z M110.42,34.31c-4.06,0-6.31-2.75-6.31-10.36c0-8.25,2.74-11,6.9-11
		c1.96,0,3.28,1.03,4.21,2.01v18.02C114.28,33.43,112.82,34.31,110.42,34.31L110.42,34.31z M133.41,37.75c2.98,0,5.38-1.37,6.6-2.99
		h0.24c0.44,1.82,1.96,2.95,4.65,2.95c2.35,0,4.26-0.83,5.09-1.47V35.2c-0.83,0-1.71-0.15-2.3-0.44c-0.93-0.49-1.22-1.23-1.22-2.85
		V17.72c0-4.61-3.13-6.63-9.1-6.63c-5.68,0-10.08,1.52-10.08,4.66c0,1.62,0.98,2.75,2.98,2.75c2.4,0,3.08-1.33,3.33-3.83
		c0.15-1.42,0.64-1.82,2.4-1.82c3.28,0,3.91,1.47,3.91,5.25v4.56l-5.77,1.42c-4.55,1.08-8.07,2.95-8.07,7.12
		C126.07,35.39,128.86,37.75,133.41,37.75L133.41,37.75z M136.4,34.71c-2.3,0-3.82-1.33-3.82-4.37c0-3.58,1.71-4.81,4.5-5.06
		l2.84-0.29v7.9C139.38,33.87,138.16,34.71,136.4,34.71L136.4,34.71z"/>
</g>
</svg>
