<svg xmlns="http://www.w3.org/2000/svg" width="120" height="18" fill="currentColor" class="h-full w-auto text-white"><path fill-rule="evenodd" d="M20.434 4.034c-1.94-.547-4.995-.869-8.875-.869-3.509 0-7.761.258-7.761 2.316 0 1.74 3.316 1.956 7.12 2.204 5.12.333 11.126.723 11.126 4.967s-6.027 5.016-11.518 5.016c-3.26 0-7.43-.257-10.526-.804l.124-2.187c3.26.547 6.77.804 9.99.804 4.25 0 8.627-.482 8.627-2.733 0-1.982-3.596-2.225-7.598-2.496C6.119 9.912.453 9.529.453 5.609.456 1.461 6.73.947 11.106.947c4.377 0 7.968.482 9.536.9l-.206 2.187ZM31.58 17.346V1.204h3.427v16.142h-3.427ZM46.481 1.204v16.142h19.402v-2.283H49.908V1.203H46.48Zm30.093 16.142V3.52h-9.99V1.204h23.407v2.315h-9.949v13.827h-3.467Zm21.795-3.505h14.861l2.972 3.505H120L105.8.946l-14.16 16.4h3.798l2.931-3.505Zm13.004-2.186h-11.145l5.572-6.592 5.573 6.592Z" clip-rule="evenodd"></path></svg>