<?xml version="1.0" encoding="UTF-8" standalone="no"?>
<!-- Generator: Adobe Illustrator 12.0.0, SVG Export Plug-In . SVG Version: 6.00 Build 51448)  -->

<svg
   version="1.1"
   id="Layer_1"
   width="749.04218"
   height="1350.7332"
   viewBox="0 0 749.04216 1350.7331"
   overflow="visible"
   enable-background="new 0 0 1490.848 973.854"
   xml:space="preserve"
   sodipodi:docname="aisle_lg.svg"
   xmlns:inkscape="http://www.inkscape.org/namespaces/inkscape"
   xmlns:sodipodi="http://sodipodi.sourceforge.net/DTD/sodipodi-0.dtd"
   xmlns="http://www.w3.org/2000/svg"
   xmlns:svg="http://www.w3.org/2000/svg"><defs
   id="defs10492" /><sodipodi:namedview
   id="namedview10490"
   pagecolor="#ffffff"
   bordercolor="#000000"
   borderopacity="0.25"
   inkscape:showpageshadow="2"
   inkscape:pageopacity="0.0"
   inkscape:pagecheckerboard="0"
   inkscape:deskcolor="#d1d1d1"
   showgrid="false" />

<g
   id="g554"
   transform="matrix(1.8213484,0,0,1.8213484,-3.1434211e-5,-7.3886517e-4)">
	<g
   id="g500">
		<g
   id="g404">
			<line
   fill="none"
   stroke="#3a312c"
   stroke-width="4"
   x1="15.784"
   y1="407.578"
   x2="65.539001"
   y2="352.46301"
   id="line400" />
			<line
   fill="none"
   stroke="#3a312c"
   stroke-width="4"
   x1="125.821"
   y1="407.38599"
   x2="80.098"
   y2="355.077"
   id="line402" />
		</g>
		<g
   id="g442">
			<g
   id="g410">
				<path
   fill="#ffdc64"
   d="m 118.939,381.28 c 2.178,2.112 11.771,16.412 12.609,25.546 l -49.203,-34.283 10.593,2.53 c -0.181,0.35 -0.228,0.745 -0.101,1.118 0.277,0.8 1.258,1.187 2.191,0.864 0.611,-0.211 1.049,-0.677 1.199,-1.197 l 7.666,1.829 c -0.078,0.421 -0.057,0.855 0.09,1.273 0.504,1.462 2.295,2.17 3.997,1.581 0.812,-0.282 1.456,-0.805 1.854,-1.435 z"
   id="path406" />
				<path
   fill="#fdef7f"
   d="m 131.549,406.826 c -6.674,9.917 -24.311,25.459 -24.311,25.459 l -46.778,-37.18 6.856,-7.068 c 1.133,0.906 2.789,0.818 3.82,-0.244 1.031,-1.063 1.067,-2.721 0.128,-3.826 l 11.081,-11.424 z"
   id="path408" />
			</g>
			<g
   id="g440">
				
					<ellipse
   transform="matrix(0.7177,0.6963,-0.6963,0.7177,311.6986,36.5288)"
   fill="#f6cc57"
   cx="110.794"
   cy="402.72"
   rx="3.1719999"
   ry="2.9349999"
   id="ellipse412" />
				<circle
   fill="#f6cc57"
   cx="96.777"
   cy="399.08301"
   r="1.4680001"
   id="circle414" />
				<circle
   fill="#f6cc57"
   cx="80.269997"
   cy="392.371"
   r="1.325"
   id="circle416" />
				<circle
   fill="#f6cc57"
   cx="95.613998"
   cy="388.65399"
   r="3.4089999"
   id="circle418" />
				<circle
   fill="#f6cc57"
   cx="118.157"
   cy="393.759"
   r="1.425"
   id="circle420" />
				<circle
   fill="#f6cc57"
   cx="113.969"
   cy="385.64999"
   r="2.6760001"
   id="circle422" />
				<circle
   fill="#f6cc57"
   cx="87.967003"
   cy="405.37701"
   r="0.94800001"
   id="circle424" />
				<circle
   fill="#f6cc57"
   cx="115.291"
   cy="418.82199"
   r="3.977"
   id="circle426" />
				<circle
   fill="#f6cc57"
   cx="107.578"
   cy="418.00201"
   r="1.6569999"
   id="circle428" />
				<circle
   fill="#f6cc57"
   cx="116.326"
   cy="412.043"
   r="0.47400001"
   id="circle430" />
				<path
   fill="#f6cc57"
   d="m 95.288,422.241 c 1.712,-1.765 1.669,-4.581 -0.096,-6.293 -1.765,-1.711 -4.581,-1.668 -6.293,0.097 -0.312,0.321 -0.565,0.679 -0.762,1.06 l 6.835,5.432 c 0.108,-0.093 0.216,-0.192 0.316,-0.296 z"
   id="path432" />
				<circle
   fill="#f6cc57"
   cx="71.928001"
   cy="398.65799"
   r="2.4619999"
   id="circle434" />
				<circle
   fill="#f6cc57"
   cx="80.758003"
   cy="380.44299"
   r="0.852"
   id="circle436" />
				<circle
   fill="#f6cc57"
   cx="82.851997"
   cy="408.06601"
   r="2.8410001"
   id="circle438" />
			</g>
		</g>
		<path
   fill="#e99347"
   d="m 56.541,431.129 c 0,0 -1.216,-37.631 -0.801,-41.181 0.455,-3.9 3,-6.823 5.091,-7.527 4.232,-1.427 9.864,-0.07 12.256,1.735 2.392,1.807 3.853,4.873 3.359,9.095 -0.494,4.222 -11.334,38.88 -11.334,38.88 z"
   id="path444" />
		<g
   id="g450">
			<path
   fill="#f8a244"
   d="m 59.352,412.896 c 0,0 1.215,-37.631 0.801,-41.181 -0.456,-3.9 -3,-6.823 -5.092,-7.527 -4.232,-1.427 -9.863,-0.07 -12.256,1.735 -2.391,1.807 -3.852,4.873 -3.359,9.095 0.494,4.222 11.334,38.88 11.334,38.88 z"
   id="path446" />
			<path
   fill="#97b558"
   d="m 53.121,363.733 1.662,-10.094 -2.615,0.306 -0.379,4.315 -1.76,0.058 -0.66,-8.17 -3.923,0.458 0.687,7.137 -3.923,0.459 2.071,6.854 c 2.295,-1.085 5.735,-1.773 8.84,-1.323 z"
   id="path448" />
		</g>
		<g
   id="g468">
			<path
   fill="#ffcd6c"
   d="m 27.852,458.998 c 3.1,15.224 10.274,19.719 17.688,18.209 7.413,-1.51 12.259,-8.453 9.158,-23.677 L 28.961,327.151 c -3.102,-15.225 -10.613,-21.374 -18.027,-19.864 -7.413,1.51 -11.922,10.107 -8.82,25.332 z"
   id="path452" />
			<g
   id="g462">
				<path
   fill="#f0af3d"
   d="m 26.064,327.526 c 0,0 -0.455,7.392 -4.82,13.991 -4.366,6.6 -10.99,9.908 -10.99,9.908 0,0 0.456,-7.39 4.822,-13.989 4.365,-6.6 10.988,-9.91 10.988,-9.91 z"
   id="path454" />
				<path
   fill="#f0af3d"
   d="m 32.224,357.765 c 0,0 -0.456,7.391 -4.821,13.989 -4.366,6.601 -10.99,9.909 -10.99,9.909 0,0 0.457,-7.39 4.822,-13.989 4.366,-6.598 10.989,-9.909 10.989,-9.909 z"
   id="path456" />
				<path
   fill="#f0af3d"
   d="m 38.382,388.004 c 0,0 -0.456,7.39 -4.821,13.989 -4.366,6.6 -10.99,9.909 -10.99,9.909 0,0 0.457,-7.391 4.822,-13.99 4.367,-6.599 10.989,-9.908 10.989,-9.908 z"
   id="path458" />
				<path
   fill="#f0af3d"
   d="m 44.54,418.243 c 0,0 -0.455,7.391 -4.821,13.989 -4.365,6.601 -10.989,9.909 -10.989,9.909 0,0 0.456,-7.39 4.821,-13.989 4.366,-6.6 10.989,-9.909 10.989,-9.909 z"
   id="path460" />
			</g>
			<g
   id="g466">
				<path
   fill="#f1dead"
   d="m 58.617,452.732 -16.418,-80.62 -6.168,-3.373 -4.73,7.406 -7.705,-4.22 -4.729,7.406 -7.705,-4.22 -3.395,5.316 16.164,79.367 c 4.569,22.439 17.191,22.393 22.406,21.331 4.301,-0.876 7.79,-3.178 10.092,-6.655 3.357,-5.073 4.093,-12.387 2.188,-21.738 z"
   id="path464" />
			</g>
		</g>
		<g
   id="g494">
			<g
   id="g474">
				<path
   fill="#b7a6a5"
   d="m 7.008,419.592 c 2.619,21.395 5.238,42.788 7.858,64.184 0.113,0.922 0.893,1.669 1.739,1.669 h 105.549 c 0.848,0 1.626,-0.747 1.739,-1.669 2.62,-21.396 5.239,-42.789 7.859,-64.184 z"
   id="path470" />
				<path
   fill="#c3b6b5"
   d="m 138.76,417.923 c 0,0.922 -0.747,1.669 -1.668,1.669 H 1.669 C 0.747,419.592 0,418.845 0,417.923 v -15.007 c 0,-0.922 0.747,-1.669 1.669,-1.669 h 135.423 c 0.921,0 1.668,0.747 1.668,1.669 z"
   id="path472" />
			</g>
			<g
   id="g492">
				<g
   id="g478">
					<path
   fill="#967f7e"
   d="m 31.787,435.585 v 32.926 c 0,3.228 2.615,5.843 5.843,5.843 3.228,0 5.843,-2.615 5.843,-5.843 v -32.926 c 0,-3.227 -2.615,-5.842 -5.843,-5.842 -3.228,0 -5.843,2.616 -5.843,5.842 z"
   id="path476" />
				</g>
				<g
   id="g482">
					<path
   fill="#967f7e"
   d="m 52.954,435.585 v 32.926 c 0,3.228 2.616,5.843 5.843,5.843 3.227,0 5.842,-2.615 5.842,-5.843 v -32.926 c 0,-3.227 -2.615,-5.842 -5.842,-5.842 -3.227,0 -5.843,2.616 -5.843,5.842 z"
   id="path480" />
				</g>
				<g
   id="g486">
					<path
   fill="#967f7e"
   d="m 74.121,435.585 v 32.926 c 0,3.228 2.615,5.843 5.842,5.843 3.227,0 5.843,-2.615 5.843,-5.843 v -32.926 c 0,-3.227 -2.616,-5.842 -5.843,-5.842 -3.227,0 -5.842,2.616 -5.842,5.842 z"
   id="path484" />
				</g>
				<g
   id="g490">
					<path
   fill="#967f7e"
   d="m 95.287,435.585 v 32.926 c 0,3.228 2.615,5.843 5.843,5.843 3.228,0 5.843,-2.615 5.843,-5.843 v -32.926 c 0,-3.227 -2.615,-5.842 -5.843,-5.842 -3.228,0 -5.843,2.616 -5.843,5.842 z"
   id="path488" />
				</g>
			</g>
		</g>
		<g
   id="g498">
			<path
   fill="#97b558"
   d="m 62.771,381.966 -1.663,-10.094 2.615,0.306 0.379,4.315 1.761,0.058 0.66,-8.17 3.922,0.458 -0.686,7.137 3.922,0.459 -2.071,6.854 c -2.295,-1.084 -5.733,-1.773 -8.839,-1.323 z"
   id="path496" />
		</g>
	</g>
	<g
   id="g530">
		<polygon
   fill="#c3b6b5"
   points="139.856,232.549 122.639,252.015 143.657,203.342 "
   id="polygon502" />
		<path
   fill="#c3b6b5"
   d="m 325.482,129.354 c -1.318,1.5 -43.414,49.799 -45.451,58.311 -1.369,5.687 3.852,49.951 8.563,83.939 -6.506,-24.747 -22.426,-73.673 -20.166,-82.702 2.228,-8.908 55.583,-58.2 57.054,-59.548 z"
   id="path504" />
		<path
   fill="#c16198"
   d="m 283.556,324.099 -136.393,59.537 c 0.232,-11.219 0.375,-18.291 0.375,-19.548 17.633,-5.533 124.811,-43.081 134.915,-47.388 0,0.001 0.394,2.615 1.103,7.399 z"
   id="path506" />
		<path
   fill="#a41d5e"
   d="m 321.529,705.178 c 3.982,3.973 11.594,11.583 15.748,15.737 -15.748,2.949 -35.803,0.162 -42.725,-1.286 -0.617,-3.314 -1.043,-5.949 -1.043,-6.841 0,-3.121 -7.064,-33.695 -7.064,-33.695 12.941,-2.007 26.439,-5.401 26.439,-5.401 0,0 4.672,27.503 8.645,31.486 z"
   id="path508" />
		<path
   fill="#a41d5e"
   d="m 195.958,710.356 0.324,9.01 c 0,0 -26.268,4.135 -40.789,4.135 8.016,-5.128 16.6,-17.644 16.6,-17.644 l -5.188,-25.943 c 13.843,0 29.054,0.346 29.054,0.346 v 30.096 z"
   id="path510" />
		<path
   fill="#a41d5e"
   d="m 175.306,64.172 c 2.239,2.25 5.016,12.627 5.016,17.815 0,0 -8.998,-2.422 -8.998,-12.1 -0.001,-9.687 3.982,-5.715 3.982,-5.715 z"
   id="path512" />
		<path
   fill="#a41d5e"
   d="m 229.755,75.786 c 0.01,5.655 -0.729,15.626 -5.848,18.312 0,5.878 0.842,15.191 0.842,15.191 -14.674,4.703 -35.784,11.796 -35.784,11.796 0,-9.688 -1.389,-16.61 -1.389,-21.109 0,0 -1.55,-1.551 -3.628,-3.628 -2.077,-2.077 -3.628,-14.36 -3.628,-14.36 3.72,5.583 8.006,12.465 12.496,14.188 8.27,3.172 17.188,1.125 24.342,-2.422 5.535,-2.747 12.416,-13.489 12.597,-17.968 z"
   id="path514" />
		<path
   fill="#a41d5e"
   d="m 108.644,245.824 -8.057,13.935 c -3.121,3.121 -20.217,67.026 -19.508,73.938 0.629,6.151 2.352,13.712 4.885,27.402 0.75,4.085 -23.947,3.648 -25.041,-7.895 -1.084,-11.553 -0.182,-25.852 1.824,-35.327 1.367,-6.435 1.338,-47.507 8.715,-68.931 2.129,-6.172 8.127,-15.161 8.502,-15.718 l 0.203,0.01 z"
   id="path516" />
		<path
   fill="#a41d5e"
   d="m 234.287,76.11 c 1.123,-1.135 6.627,-2.037 10.031,-3.627 0,0 -4.672,-0.7 -14.705,-0.7 -2.947,-0.456 -10.123,-0.962 -10.123,-3.03 0,-2.078 5.26,-9.252 13.094,-10.813 15.92,-2.382 32.459,-1.5 37.941,-1.5 7.611,0 60.055,-6.658 68.385,-3.263 4.783,1.946 9.586,11.725 10.205,16.833 0.537,4.469 -26.553,36.949 -31.568,41.965 -4.783,-6.861 -12.586,-18.079 -26.449,-26.014 l 16.943,-11.766 c 0,0 -31.537,-3.952 -35.691,-3.952 -4.145,0 -20.289,6.557 -26.684,6.557 -5.461,-10e-4 -13.458,1.388 -11.379,-0.69 z"
   id="path518" />
		<path
   fill="#d276a6"
   d="m 334.683,668.847 -21.799,4.845 c 0,0 -13.498,3.395 -26.439,5.401 l -18.879,1.854 -41.854,-268.085 -9.688,4.154 2.422,260.829 -22.489,2.413 c 0,0 -15.211,-0.346 -29.054,-0.346 L 140.615,677.5 c 0,0 5.117,-225.045 6.547,-293.865 l 136.393,-59.537 c 7.278,48.604 48.017,321.127 51.128,344.749 z"
   id="path520" />
		<path
   fill="#1f2937"
   d="m 196.282,719.366 0.721,20.056 h -67.807 c 7.793,-7.794 16.174,-9.465 26.297,-15.921 14.522,-10e-4 40.789,-4.135 40.789,-4.135 z"
   id="path522" />
		<path
   fill="#1f2937"
   d="m 367.537,740.11 h -68.84 c 0,0 -2.635,-12.282 -4.145,-20.48 6.922,1.448 26.977,4.235 42.725,1.286 4.144,4.145 28.537,14.349 30.26,19.194 z"
   id="path524" />
		<path
   fill="#1f2937"
   d="m 229.613,71.783 c 0,0 0.133,1.611 0.143,3.983 0,0 0,0.01 0,0.02 -0.182,4.479 -7.063,15.221 -12.596,17.968 -7.154,3.547 -16.073,5.594 -24.342,2.422 -4.49,-1.723 -8.776,-8.604 -12.496,-14.188 0,-5.188 -2.776,-15.565 -5.016,-17.815 0,0 -8.482,-27.494 11.238,-35.804 0,0 -7.955,-11.411 3.111,-16.944 11.066,-5.533 37.02,-6.577 24.909,14.522 0,0 21.131,7.083 18.02,31.993 -7.834,1.561 -13.094,8.735 -13.094,10.813 0,2.067 7.176,2.574 10.123,3.03 z"
   id="path526" />
		<path
   fill="#e7e2e1"
   d="m 317.546,111.974 7.965,17.339 c 0,0 -0.01,0.01 -0.029,0.041 -1.471,1.348 -54.826,50.64 -57.055,59.548 -2.26,9.029 13.66,57.955 20.166,82.702 2.453,17.705 4.773,32.612 5.959,37.831 l -12.1,7.266 c -10.104,4.307 -117.282,41.854 -134.915,47.388 l -17.927,7.113 10.245,-138.652 3.801,-29.207 -21.019,48.673 -13.995,-6.191 -28.477,-12.586 -0.203,-0.01 c 0.012,-0.021 0.021,-0.031 0.021,-0.031 0,0 -5.473,-1.813 -10.186,-5.26 20.43,-41.396 71.232,-79.713 82.278,-86.067 17.197,-9.901 36.888,-20.785 36.888,-20.785 0,0 21.11,-7.094 35.784,-11.796 8.441,-5.057 66.348,-23.328 66.348,-23.328 13.865,7.934 21.668,19.151 26.451,26.012 z"
   id="path528" />
	</g>
	<line
   fill="none"
   stroke="#1f2937"
   stroke-width="3"
   x1="199.278"
   y1="424.19299"
   x2="242.46001"
   y2="405.68701"
   id="line532" />
	<line
   fill="none"
   stroke="#1f2937"
   stroke-width="3"
   x1="239.78101"
   y1="739.41901"
   x2="118.624"
   y2="739.41901"
   id="line534" />
	<line
   fill="none"
   stroke="#1f2937"
   stroke-width="3"
   x1="298.703"
   y1="740.112"
   x2="411.25699"
   y2="740.112"
   id="line536" />
	<path
   fill="none"
   stroke="#1f2937"
   stroke-width="3"
   d="M 200.095,21.38 C 198.599,10.772 178.729,1.472 169.693,3.815"
   id="path538" />
	<path
   fill="none"
   stroke="#1f2937"
   stroke-width="3"
   d="m 205.499,16.651 c -2.59,-4.686 -1.82,-11.44 2.704,-15.539"
   id="path540" />
	<g
   id="g546">
		<rect
   x="276.285"
   y="54.188999"
   fill="#1f2937"
   width="4.5209999"
   height="18.278999"
   id="rect542" />
		<path
   fill="#1f2937"
   d="m 282.884,66.708 c 0,1.039 -0.842,1.881 -1.881,1.881 h -4.918 c -1.039,0 -1.881,-0.842 -1.881,-1.881 V 59.45 c 0,-1.039 0.842,-1.881 1.881,-1.881 h 4.918 c 1.039,0 1.881,0.842 1.881,1.881 z"
   id="path544" />
	</g>
	
		<line
   fill="none"
   stroke="#1f2937"
   stroke-width="3"
   stroke-linecap="round"
   stroke-linejoin="round"
   x1="60.872002"
   y1="313.23099"
   x2="83.899002"
   y2="329.09799"
   id="line548" />
	
		<line
   fill="none"
   stroke="#c16198"
   stroke-width="3"
   stroke-linecap="round"
   stroke-linejoin="round"
   x1="62.222"
   y1="309.17801"
   x2="85.231003"
   y2="323.26801"
   id="line550" />
	
		<line
   fill="none"
   stroke="#c3b6b5"
   stroke-width="4"
   stroke-linecap="round"
   stroke-linejoin="round"
   x1="62.534"
   y1="303.60001"
   x2="87.561996"
   y2="307.63101"
   id="line552" />
</g></svg>
