<?xml version="1.0" encoding="utf-8"?>
<!-- Generator: Adobe Illustrator 12.0.0, SVG Export Plug-In . SVG Version: 6.00 Build 51448)  -->
<!DOCTYPE svg PUBLIC "-//W3C//DTD SVG 1.1//EN" "http://www.w3.org/Graphics/SVG/1.1/DTD/svg11.dtd" [
	<!ENTITY ns_flows "http://ns.adobe.com/Flows/1.0/">
	<!ENTITY ns_extend "http://ns.adobe.com/Extensibility/1.0/">
	<!ENTITY ns_ai "http://ns.adobe.com/AdobeIllustrator/10.0/">
	<!ENTITY ns_graphs "http://ns.adobe.com/Graphs/1.0/">
	<!ENTITY ns_svg "http://www.w3.org/2000/svg">
	<!ENTITY ns_xlink "http://www.w3.org/1999/xlink">
]>
<svg  version="1.1" id="Layer_1" xmlns:x="&ns_extend;" xmlns:i="&ns_ai;" xmlns:graph="&ns_graphs;"
	 xmlns="&ns_svg;" xmlns:xlink="&ns_xlink;" xmlns:a="http://ns.adobe.com/AdobeSVGViewerExtensions/3.0/"
	 width="276.401" height="320.137" viewBox="0 0 276.401 320.137" overflow="visible" enable-background="new 0 0 276.401 320.137"
	 xml:space="preserve">
<g>
	<g>
		<path fill="#1F2937" d="M222.29,43.292c0,0,11.047,33.244,1.669,47.619c-9.38,14.401-19.521,23.229-19.521,23.229
			c0.433-6.155,0.438-11.732,1.14-21.729c0.7-9.977,4.5-13.93-1.198-8.983c-5.693,4.949-3.394,9.582-3.394,9.582
			s-17.28-5.262-20.493-16.854c-3.192-11.593-29.264-21.456-37.075,4.086l-5.981,4.256c-2.953-3.373-14.743-27.556-2.996-42.459
			c11.761-14.904,33.246-26.326,59.072-17.817c0,0-0.686-11.103,8.307-13.47c7.139-1.889,19.541-1.984,26.661,6.213
			C239.131,29.248,230.032,39.076,222.29,43.292z"/>
		<path fill="#D276A6" d="M208.172,101.795c-3.984,5.587-3.503,9.053-3.734,12.346c0,0-0.484,8.818-0.216,24.231
			c0.269,15.414-45.409,37.066-44.302,21.3c0.705-10.036,0.709-24.362,0.709-24.362c-10.722-0.507-14.275-9.512-16.983-18.39
			c-4.645-15.229-2.938-33.948-2.747-36.678c7.812-27.557,38.328-22.366,48.809-11.886c5.516,5.517,12.277,15.382,12.277,15.382
			s2.337-7.196,9.881-7.196c5.889,0,6.211,9.211,5.413,14.495C216.583,95.645,213.364,99.799,208.172,101.795z"/>
		
			<line fill="none" stroke="#E7E2E1" stroke-width="4" stroke-linecap="round" stroke-linejoin="round" x1="210.354" y1="97.6" x2="209.502" y2="103.779"/>
		<path fill="none" stroke="#1F2937" stroke-width="3" d="M214.703,27.867c13.776-10.896,34.513-8.796,34.513-8.796"/>
		<path fill="none" stroke="#1F2937" stroke-width="3" d="M211.143,0.506c2.559,7.133,2.486,14.395,0.361,20.92"/>
		<path fill="#C16198" d="M160.499,145.762c0.13-5.83,0.131-10.452,0.131-10.452c4.085-1.166,16.291-5.832,19.232-8.388
			C179.862,126.922,170.862,138.91,160.499,145.762z"/>
	</g>
	<path fill="#DBD6D5" d="M271.387,238.84c3.243,21.375,8.742,25.912,1.293,41.457s-11.653,25.904-20.082,25.904
		c-7.744,0-23.936-7.307-25.485-7.496c4.404-9.447,8.143-35.693,3.558-36.578c-5.66-1.094-40.439-2.854-42.933-6.545
		c-2.492-3.682-17.495-25.162-21.442-25.924s-22.299-1.646-25.381-1.35c-3.082,0.295-15.278,13.527-19.416,17.676
		c-4.148,4.137,1.313,4.109,0.789,6.848c-0.532,2.75,3.443,2.445,3.443,2.445s-0.732,3.777,3.045,4.51
		c3.701,0.713,30.09-5.613,31.184-5.869c-0.732,0.293-12.48,5.098-16.99,6.125c-4.661,1.057-9.998,2.873-7.639,6.355
		c2.35,3.48,24.049-2.824,24.049-2.824s3.188,6.486,6.24,10.996c3.044,4.508,16.705,4.338,19.626,4.898
		c2.245,0.439,20.891,12.986,31.745,19.178c0,0,0,0,0.01,0.01c0.39,0.381,11.871,11.787,14.545,21.48c-33.162,0-129.549,0-129.549,0
		l4.689-44.529c0,0-6.792,6.791-16.676,16.676c-9.875,9.875-13.604,7.449-23.964,9.389c-10.369,1.941-15.221-6.154-18.142-12.309
		c-2.911-6.156-5.422-32.154-5.422-32.154c8.59-2.721,22.793-13.795,26.521-22.709l7.401,16.316c0,0,11.663-20.73,19.436-32.061
		c7.772-11.34,9.723-20.729,16.848-27.854c7.126-7.125,39.67-22.584,39.67-22.584l2.216-12.825c0,0,2.883,0.115,5.527,0.762
		c1.579,0.391,3.082,0.971,3.805,1.827c9.172-9.172,27.627-17.771,39.938-22.015c4.1-1.407,7.515-2.339,9.684-2.644v13.604
		c0,0,29.082,0.01,42.523,13.451c8.924,8.923,11.444,19.73,14.688,36.902C273.974,214.542,268.152,217.463,271.387,238.84z"/>
	<path fill="#1F2937" d="M69.69,228.737c0.485,1.713,0.181,3.682-0.686,5.764c-3.729,8.914-17.932,19.988-26.521,22.709
		c-3.645,1.16-6.279,0.809-6.679-1.838c-2.207-14.535-1.579-54.357-1.921-62.443c-0.076-1.701-1.352-7.086-2.73-12.451
		c-1.39-5.365-2.883-10.732-3.387-12.377c4.156,2.529,12.462,1.17,15.715,1.17c0,0,2.34,0,8.305-1.922c0,0,7.563,13.746,2.77,27.713
		C55.792,200.901,66.284,216.588,69.69,228.737z"/>
	<g>
		<g id="XMLID_50_">
			<g>
				<path fill="#A41D5E" d="M153.918,187.516c0.732,7.344,1.304,14.203,1.304,17.791c0,9.131-7.002,15.646-15.649,15.646
					s-15.648-7.391-15.648-15.646c0-3.455,0.58-10.371,1.322-17.791H153.918z"/>
			</g>
			<g>
				
					<path fill="none" stroke="#C3B6B5" stroke-width="4" stroke-linecap="square" stroke-linejoin="bevel" stroke-miterlimit="10" d="
					M125.247,187.516c-0.742,7.42-1.322,14.336-1.322,17.791c0,8.256,7.001,15.646,15.648,15.646s15.649-6.516,15.649-15.646
					c0-3.588-0.571-10.447-1.304-17.791c-1.313-13.166-3.148-27.864-3.148-27.864h-22.385
					C128.385,159.652,126.569,174.379,125.247,187.516z"/>
				
					<line fill="none" stroke="#C3B6B5" stroke-width="4" stroke-miterlimit="10" x1="139.573" y1="220.954" x2="139.573" y2="275.768"/>
				<polyline fill="none" stroke="#C3B6B5" stroke-width="4" stroke-miterlimit="10" points="128.376,275.768 139.573,275.768 
					150.77,275.768 				"/>
			</g>
		</g>
	</g>
	<path fill="#1F2937" d="M159.959,253.918c-1.094,0.256-27.482,6.582-31.184,5.869c-3.777-0.732-3.045-4.51-3.045-4.51
		s-3.976,0.305-3.443-2.445c0.523-2.738-4.938-2.711-0.789-6.848c4.138-4.148,16.334-17.381,19.416-17.676
		c3.082-0.297,21.434,0.588,25.381,1.35s18.95,22.242,21.442,25.924c2.493,3.691,37.272,5.451,42.933,6.545
		c4.585,0.885,0.847,27.131-3.558,36.578c-1.047,2.227-2.122,3.52-3.14,3.32c-1.208-0.238-3.748-1.523-6.973-3.369
		c-0.01-0.01-0.01-0.01-0.01-0.01c-10.854-6.191-29.5-18.738-31.745-19.178c-2.921-0.561-16.582-0.391-19.626-4.898
		c-3.053-4.51-6.24-10.996-6.24-10.996s-21.699,6.305-24.049,2.824c-2.359-3.482,2.978-5.299,7.639-6.355
		C147.479,259.016,159.227,254.211,159.959,253.918z"/>
	<g>
		<path fill="none" stroke="#C3B6B5" stroke-width="4" stroke-linecap="square" stroke-linejoin="bevel" stroke-miterlimit="10" d="
			M49.799,97.03c-5.675,0.283-10.552,2.549-8.656,6.567c5.48,11.618,6.281,50.921-2.549,58.797
			c-8.831,7.875-35.869,14.516-36.582,26.996c-0.714,12.48,30.463,16.381,46.016,17.27c15.553,0.891,46.97,0.566,47.685-11.914
			c0.713-12.48-25.394-22.16-33.269-30.99c-7.875-8.831-7.719-47.533-2.668-61.602C61.25,98.048,55.12,96.766,49.799,97.03z"/>
		<path fill="#A41D5E" d="M17.532,180.542c-5.179,2.943-9.652,6.221-9.821,9.176c-0.002,0.031-0.003,0.066-0.003,0.107
			c0,0.246,0.071,0.676,0.696,1.375c4.202,4.715,20.258,8.637,39.95,9.762c19.688,1.129,36.085-0.939,40.801-5.145
			c0.82-0.732,0.847-1.182,0.859-1.396c0.003-0.061,0.005-0.119,0.005-0.18c0-2.979-4.148-6.74-8.97-10.236
			C59.695,186.512,38.422,186.155,17.532,180.542z"/>
	</g>
	<path fill="#1F2937" d="M60.875,161.395c0.779-1.236,1.418-2.816,1.803-4.908c0.914-4.963-0.662-10.024-1.729-16.845
		c-1.065-6.819,1.066-9.804,5.542-16.198s-5.377-6.5-9.96-1.918C55.571,136.26,56.786,153.602,60.875,161.395z"/>
	<path fill="#C3B6B5" d="M101.155,260.77c-0.922,10.83-4.881,21.182-7.829,28.199c8.045-8.047,13.349-13.35,13.359-13.361
		l0.003-0.004c0.263-5.307,2.213-17.117,4.565-24.715c4.702-15.184,2.099-31.84,4.345-42.824c0,0-6.254,14.896-6.254,28.414
		C109.344,247.004,101.645,255.02,101.155,260.77z M227.398,245.108c-4.519-4.518,2.959-8.855,2.959-21.699
		c0-4.227-4.945-7.096-4.945-10.492c0-11.457-6.167-15.537-6.167-15.537c3.563,7.77-3.582,18.801,2.105,24.615
		c3.682,3.766-0.044,8.098-2.106,13.604c-0.642,1.715,0.002,5.83,2.755,14.088c1.494,4.484,0.693,8.607-0.349,11.451
		c4.224,0.387,7.574,0.711,9.021,0.99c0.964,0.188,1.557,1.502,1.855,3.539c1.591-2.602,2.958-5.693,2.958-8.666
		C235.484,249.866,231.917,249.627,227.398,245.108z"/>
	<g>
		<g>
			<path fill="#D276A6" d="M145.377,75.688c-0.466-0.136-0.933-0.233-1.399-0.313l-12.864,17.096
				c0.622,1.297,1.466,2.484,2.512,3.49l14.395-19.129C147.202,76.359,146.324,75.965,145.377,75.688z"/>
			<path fill="#A41D5E" d="M130.407,83.881c-0.87,2.972-0.531,6.001,0.707,8.59l12.864-17.096
				C138.032,74.373,132.142,77.95,130.407,83.881z"/>
			<path fill="#A41D5E" d="M148.02,76.832l-14.395,19.129c1.211,1.168,2.685,2.088,4.361,2.677l13.82-18.365
				C150.821,78.887,149.54,77.708,148.02,76.832z"/>
			<path fill="#A41D5E" d="M141.349,99.31c5.466,0.293,10.616-3.171,12.22-8.65c0.732-2.503,0.607-5.049-0.188-7.338L141.349,99.31z
				"/>
			<path fill="#D276A6" d="M151.807,80.272l-13.82,18.365c0.203,0.071,0.402,0.152,0.611,0.213c0.916,0.269,1.838,0.41,2.751,0.459
				l12.031-15.988C153.002,82.233,152.473,81.208,151.807,80.272z"/>
		</g>
		
			<circle fill="none" stroke="#1F2937" stroke-width="4" stroke-linejoin="bevel" stroke-miterlimit="10" cx="141.988" cy="87.27" r="12.067"/>
		<g>
			<path fill="#D276A6" d="M182.305,71.87c-0.475-0.139-0.949-0.24-1.425-0.322l-13.496,17.935c0.626,1.299,1.461,2.493,2.494,3.515
				l15.058-20.013C184.118,72.527,183.243,72.145,182.305,71.87z"/>
			<path fill="#A41D5E" d="M166.625,80.449c-0.916,3.126-0.554,6.315,0.759,9.033l13.496-17.935
				C174.637,70.474,168.447,74.224,166.625,80.449z"/>
			<path fill="#A41D5E" d="M184.936,72.984l-15.058,20.013c1.194,1.182,2.645,2.131,4.29,2.771l14.621-19.431
				C187.762,74.99,186.463,73.841,184.936,72.984z"/>
			<path fill="#D276A6" d="M188.79,76.338l-14.621,19.431c0.339,0.132,0.682,0.256,1.037,0.36c0.743,0.218,1.49,0.353,2.235,0.431
				l13.02-17.302C190.037,78.214,189.472,77.234,188.79,76.338z"/>
			<path fill="#A41D5E" d="M177.441,96.56c5.959,0.63,11.7-3.056,13.443-9.012c0.833-2.843,0.61-5.743-0.424-8.29L177.441,96.56z"/>
		</g>
		
			<circle fill="none" stroke="#1F2937" stroke-width="4" stroke-linejoin="bevel" stroke-miterlimit="10" cx="178.755" cy="83.999" r="12.638"/>
		
			<line fill="none" stroke="#1F2937" stroke-width="4" stroke-linejoin="bevel" stroke-miterlimit="10" x1="154.042" y1="84.645" x2="166.131" y2="84.603"/>
		
			<line fill="none" stroke="#1F2937" stroke-width="4" stroke-linejoin="bevel" stroke-miterlimit="10" x1="191.371" y1="85.887" x2="201.586" y2="76.17"/>
	</g>
	<path fill="#1F2937" d="M43.478,169.268c0,0,2.345,0,8.313-1.918s-3.197-10.016-3.197-10.016s4.902-4.903,4.05-8.952
		c-0.854-4.051-11.723-1.706-11.723-1.706s5.435-9.271,9.165-15.984c3.587-6.456-0.641-10.017-0.641-10.017
		c2.132-2.132,3.038-12.569-0.105-10.124c-7.194,5.593-18.862,19.076-18.862,21.846c0,2.558,2.237,5.222,0,7.46
		c-2.238,2.238-6.821,2.13-5.115,7.246c1.705,5.116,1.704,5.755,0.426,9.591c-1.278,3.836-2.131,2.771-0.213,8.739
		C27.494,171.401,39.428,169.268,43.478,169.268z"/>
	<circle fill="#A41D5E" cx="54.795" cy="75.068" r="9.992"/>
	<circle fill="#A41D5E" cx="38.256" cy="48.537" r="4.135"/>
	<circle fill="#A41D5E" cx="54.623" cy="36.306" r="3.273"/>
	<path fill="none" stroke="#1F2937" stroke-width="4" stroke-linejoin="bevel" stroke-miterlimit="10" d="M152.112,111.884
		c5.086,1.638,15,1,18-2"/>
	<path fill="none" stroke="#1F2937" stroke-width="4" stroke-linejoin="bevel" stroke-miterlimit="10" d="M153.817,89.641
		c0,3.108-2.261,12.76-2.261,12.76h11.052"/>
</g>
</svg>
