<?xml version="1.0" encoding="utf-8"?>
<!-- Generator: Adobe Illustrator 12.0.0, SVG Export Plug-In . SVG Version: 6.00 Build 51448)  -->
<!DOCTYPE svg PUBLIC "-//W3C//DTD SVG 1.1//EN" "http://www.w3.org/Graphics/SVG/1.1/DTD/svg11.dtd" [
	<!ENTITY ns_flows "http://ns.adobe.com/Flows/1.0/">
	<!ENTITY ns_extend "http://ns.adobe.com/Extensibility/1.0/">
	<!ENTITY ns_ai "http://ns.adobe.com/AdobeIllustrator/10.0/">
	<!ENTITY ns_graphs "http://ns.adobe.com/Graphs/1.0/">
	<!ENTITY ns_svg "http://www.w3.org/2000/svg">
	<!ENTITY ns_xlink "http://www.w3.org/1999/xlink">
]>
<svg  version="1.1" id="Layer_1" xmlns:x="&ns_extend;" xmlns:i="&ns_ai;" xmlns:graph="&ns_graphs;"
	 xmlns="&ns_svg;" xmlns:xlink="&ns_xlink;" xmlns:a="http://ns.adobe.com/AdobeSVGViewerExtensions/3.0/"
	 width="79.434" height="80.334" viewBox="0 0 79.434 80.334" overflow="visible" enable-background="new 0 0 79.434 80.334"
	 xml:space="preserve">
<g>
	<g>
		<path fill="#1F2937" d="M63.869,9.663c0,0,3.178,9.563,0.48,13.698c-2.699,4.143-5.615,6.682-5.615,6.682
			c0.123-1.771,0.125-3.375,0.326-6.251c0.201-2.869,1.293-4.006-0.344-2.583s-0.977,2.756-0.977,2.756s-4.971-1.513-5.895-4.848
			c-0.92-3.334-8.418-6.171-10.666,1.175l-1.721,1.224c-0.85-0.97-4.24-7.927-0.861-12.213c3.383-4.288,9.565-7.573,16.995-5.125
			c0,0-0.197-3.193,2.389-3.875c2.053-0.543,5.621-0.571,7.668,1.787C68.713,5.623,66.096,8.449,63.869,9.663z"/>
		<path fill="#D276A6" d="M59.809,26.492c-1.146,1.607-1.008,2.604-1.074,3.551c0,0-0.141,2.537-0.063,6.971
			c0.076,4.434-13.063,10.663-12.746,6.127c0.205-2.887,0.205-7.009,0.205-7.009c-3.084-0.145-4.105-2.735-4.885-5.289
			c-1.336-4.38-0.846-9.766-0.792-10.551c2.249-7.927,11.026-6.434,14.042-3.418c1.588,1.586,3.531,4.424,3.531,4.424
			s0.674-2.07,2.842-2.07c1.695,0,1.789,2.649,1.559,4.17C62.227,24.722,61.301,25.917,59.809,26.492z"/>
		
			<line fill="none" stroke="#E7E2E1" stroke-linecap="round" stroke-linejoin="round" x1="60.436" y1="25.285" x2="60.191" y2="27.062"/>
		<path fill="#C16198" d="M46.094,39.139c0.037-1.678,0.037-3.008,0.037-3.008c1.176-0.334,4.688-1.677,5.533-2.412
			C51.664,33.72,49.074,37.167,46.094,39.139z"/>
	</g>
	<path fill="#DBD6D5" d="M26.828,80.275c2.285-2.285,3.785-3.785,3.785-3.785l-0.398,3.785h27.487
		c-2.174-1.37-4.117-2.602-4.488-2.674c-0.84-0.162-4.77-0.112-5.645-1.41c-0.879-1.297-1.797-3.162-1.797-3.162
		s-6.241,1.813-6.918,0.813c-0.678-1.002,0.857-1.525,2.198-1.828c1.297-0.297,4.678-1.678,4.889-1.763
		c-0.316,0.073-7.907,1.894-8.971,1.688c-1.086-0.211-0.875-1.297-0.875-1.297s-1.145,0.086-0.992-0.703
		c0.15-0.789-1.42-0.781-0.227-1.971c1.189-1.193,4.699-5,5.586-5.084c0.887-0.086,6.167,0.168,7.299,0.388
		c1.137,0.219,5.453,6.398,6.17,7.456c0.717,1.063,10.723,1.57,12.35,1.885c0.98,0.188,0.639,4.395-0.119,7.662h11.039
		c0.365-0.748,0.746-1.563,1.166-2.436c2.141-4.473,0.559-5.777-0.373-11.926c-0.932-6.15,0.744-6.99-0.188-11.926
		c-0.932-4.939-1.656-8.049-4.225-10.615c-3.865-3.867-12.23-3.87-12.23-3.87v-3.914c-0.625,0.089-1.607,0.356-2.787,0.762
		c-3.541,1.22-8.85,3.694-11.488,6.333c-0.207-0.246-0.641-0.413-1.096-0.525c-0.76-0.186-1.59-0.22-1.59-0.22l-0.637,3.689
		c0,0-9.362,4.446-11.411,6.495c-2.051,2.051-2.611,4.752-4.848,8.014c-2.236,3.259-5.588,9.222-5.588,9.222l-2.131-4.692
		c-1.072,2.564-5.158,5.749-7.629,6.531c0,0,0.682,7.066,1.492,9.078H26.828z"/>
	<path fill="#1F2937" d="M19.972,63.008c0.139,0.492,0.053,1.059-0.197,1.658c-1.072,2.564-5.158,5.749-7.629,6.531
		c-1.049,0.334-1.809,0.232-1.922-0.527c-0.637-4.182-0.453-15.637-0.553-17.963c-0.021-0.49-0.389-2.038-0.785-3.582
		c-0.4-1.543-0.83-3.088-0.975-3.561c1.197,0.729,3.584,0.336,4.52,0.336c0,0,0.674,0,2.391-0.552c0,0,2.176,3.954,0.797,7.972
		C15.972,55,18.992,59.512,19.972,63.008z"/>
	<g>
		<g id="XMLID_27_">
			<g>
				<path fill="#A41D5E" d="M44.201,51.149c0.211,2.112,0.375,4.087,0.375,5.118c0,2.627-2.014,4.501-4.5,4.501
					c-2.49,0-4.504-2.126-4.504-4.501c0-0.994,0.168-2.982,0.381-5.118H44.201z"/>
			</g>
			<g>
				<path fill="none" stroke="#C3B6B5" stroke-linecap="square" stroke-linejoin="bevel" stroke-miterlimit="10" d="M35.953,51.149
					c-0.213,2.136-0.381,4.124-0.381,5.118c0,2.375,2.014,4.501,4.504,4.501c2.487,0,4.5-1.874,4.5-4.501
					c0-1.031-0.164-3.006-0.375-5.118c-0.377-3.787-0.906-8.015-0.906-8.015h-6.438C36.857,43.135,36.335,47.371,35.953,51.149z"/>
				<line fill="none" stroke="#C3B6B5" stroke-miterlimit="10" x1="40.076" y1="60.769" x2="40.076" y2="76.535"/>
				<polyline fill="none" stroke="#C3B6B5" stroke-miterlimit="10" points="36.853,76.535 40.076,76.535 43.295,76.535 				"/>
			</g>
		</g>
	</g>
	<path fill="#1F2937" d="M35.101,69.939c-0.152,0.789,0.992,0.703,0.992,0.703s-0.211,1.086,0.875,1.297
		c1.064,0.205,8.655-1.615,8.971-1.688c-0.211,0.085-3.592,1.466-4.889,1.763c-1.34,0.303-2.875,0.826-2.198,1.828
		c0.678,1.001,6.918-0.813,6.918-0.813s0.918,1.865,1.797,3.162c0.875,1.298,4.805,1.248,5.645,1.41
		c0.371,0.072,2.314,1.304,4.488,2.674h8.459c0.758-3.268,1.1-7.474,0.119-7.662c-1.627-0.314-11.633-0.822-12.35-1.885
		c-0.717-1.058-5.033-7.237-6.17-7.456c-1.133-0.22-6.412-0.474-7.299-0.388c-0.887,0.084-4.396,3.891-5.586,5.084
		C33.681,69.158,35.251,69.15,35.101,69.939z"/>
	<g>
		<path fill="none" stroke="#C3B6B5" stroke-linecap="square" stroke-linejoin="bevel" stroke-miterlimit="10" d="M14.25,25.121
			c-1.633,0.082-3.035,0.734-2.488,1.89c1.576,3.342,1.805,14.648-0.734,16.914c-2.541,2.266-10.318,4.175-10.523,7.766
			c-0.205,3.59,8.762,4.711,13.236,4.968c4.475,0.256,13.512,0.163,13.719-3.427c0.205-3.59-7.307-6.375-9.572-8.914
			c-2.264-2.541-2.219-13.675-0.768-17.722C17.542,25.414,15.779,25.045,14.25,25.121z"/>
		<path fill="#A41D5E" d="M4.968,49.145c-1.49,0.846-2.777,1.788-2.826,2.639c0,0.01-0.002,0.02-0.002,0.03
			c0,0.071,0.023,0.194,0.201,0.396c1.211,1.356,5.828,2.483,11.492,2.808s10.381-0.271,11.738-1.48
			c0.236-0.21,0.242-0.34,0.246-0.401c0-0.017,0.002-0.034,0.002-0.051c0-0.857-1.195-1.94-2.582-2.946
			C17.097,50.861,10.978,50.758,4.968,49.145z"/>
	</g>
	<path fill="#1F2937" d="M17.437,43.636c0.223-0.355,0.406-0.81,0.518-1.411c0.262-1.429-0.189-2.884-0.498-4.846
		c-0.307-1.961,0.309-2.82,1.596-4.659c1.287-1.839-1.547-1.87-2.865-0.552C15.91,36.405,16.259,41.395,17.437,43.636z"/>
	<path fill="#C3B6B5" d="M29.023,72.221c-0.266,3.117-1.404,6.095-2.252,8.113c2.313-2.314,3.838-3.841,3.842-3.844v-0.002
		c0.076-1.525,0.639-4.923,1.314-7.108c1.354-4.368,0.604-9.159,1.25-12.319c0,0-1.799,4.285-1.799,8.174
		C31.378,68.262,29.164,70.568,29.023,72.221z M65.338,67.717c-1.299-1.3,0.852-2.548,0.852-6.242c0-1.215-1.424-2.041-1.424-3.018
		c0-3.296-1.773-4.471-1.773-4.471c1.025,2.236-1.031,5.408,0.605,7.082c1.061,1.082-0.012,2.328-0.605,3.913
		c-0.184,0.492,0,1.677,0.793,4.052c0.43,1.289,0.201,2.477-0.102,3.293c1.217,0.113,2.18,0.206,2.596,0.287
		c0.277,0.053,0.449,0.432,0.533,1.018c0.459-0.75,0.852-1.639,0.852-2.494C67.664,69.086,66.639,69.018,65.338,67.717z"/>
	<g>
		<g>
			<path fill="#D276A6" d="M41.744,18.98c-0.135-0.038-0.268-0.066-0.402-0.089l-3.702,4.918c0.18,0.373,0.422,0.715,0.723,1.004
				l4.143-5.502C42.27,19.175,42.018,19.061,41.744,18.98z"/>
			<path fill="#A41D5E" d="M37.437,21.339c-0.25,0.854-0.152,1.726,0.203,2.47l3.702-4.918
				C39.63,18.603,37.935,19.632,37.437,21.339z"/>
			<path fill="#A41D5E" d="M42.506,19.311l-4.143,5.502c0.35,0.336,0.773,0.601,1.256,0.771l3.975-5.283
				C43.311,19.902,42.941,19.563,42.506,19.311z"/>
			<path fill="#A41D5E" d="M40.585,25.776c1.573,0.085,3.055-0.912,3.516-2.488c0.211-0.72,0.172-1.453-0.055-2.111L40.585,25.776z"
				/>
			<path fill="#D276A6" d="M43.594,20.3l-3.975,5.283c0.057,0.02,0.115,0.044,0.176,0.061c0.262,0.077,0.527,0.118,0.791,0.131
				l3.461-4.599C43.939,20.864,43.785,20.57,43.594,20.3z"/>
		</g>
		<circle fill="none" stroke="#1F2937" stroke-linejoin="bevel" stroke-miterlimit="10" cx="40.769" cy="22.313" r="3.472"/>
		<g>
			<path fill="#D276A6" d="M52.367,17.883c-0.137-0.04-0.275-0.069-0.41-0.092l-3.883,5.159c0.182,0.374,0.42,0.717,0.719,1.011
				l4.33-5.757C52.889,18.072,52.637,17.962,52.367,17.883z"/>
			<path fill="#A41D5E" d="M47.857,20.351c-0.266,0.899-0.16,1.817,0.217,2.599l3.883-5.159
				C50.162,17.482,48.381,18.56,47.857,20.351z"/>
			<path fill="#A41D5E" d="M53.123,18.204l-4.33,5.757c0.342,0.34,0.762,0.613,1.232,0.797l4.207-5.589
				C53.936,18.78,53.563,18.451,53.123,18.204z"/>
			<path fill="#D276A6" d="M54.232,19.168l-4.207,5.589c0.098,0.038,0.195,0.075,0.301,0.104c0.213,0.063,0.428,0.101,0.641,0.124
				l3.748-4.977C54.592,19.708,54.428,19.427,54.232,19.168z"/>
			<path fill="#A41D5E" d="M50.967,24.985c1.715,0.182,3.367-0.879,3.867-2.592c0.24-0.818,0.178-1.652-0.119-2.385L50.967,24.985z"
				/>
		</g>
		<path fill="none" stroke="#1F2937" stroke-linejoin="bevel" stroke-miterlimit="10" d="M54.834,22.393
			c-0.563,1.928-2.582,3.032-4.508,2.469c-1.93-0.564-3.033-2.584-2.469-4.511c0.563-1.927,2.582-3.032,4.51-2.468
			C54.295,18.447,55.396,20.466,54.834,22.393z"/>
		
			<line fill="none" stroke="#1F2937" stroke-linejoin="bevel" stroke-miterlimit="10" x1="44.236" y1="21.558" x2="47.713" y2="21.545"/>
		
			<line fill="none" stroke="#1F2937" stroke-linejoin="bevel" stroke-miterlimit="10" x1="54.975" y1="21.915" x2="57.914" y2="19.121"/>
	</g>
	<path fill="#1F2937" d="M12.431,45.9c0,0,0.674,0,2.393-0.551c1.717-0.553-0.92-2.883-0.92-2.883s1.41-1.41,1.164-2.575
		c-0.244-1.165-3.371-0.49-3.371-0.49s1.561-2.667,2.635-4.599c1.033-1.857-0.184-2.881-0.184-2.881
		c0.613-0.613,0.873-3.616-0.031-2.912c-2.068,1.609-5.426,5.488-5.426,6.284c0,0.736,0.645,1.502,0,2.146
		c-0.643,0.645-1.961,0.613-1.471,2.084c0.49,1.472,0.49,1.655,0.121,2.759c-0.367,1.104-0.611,0.797-0.061,2.514
		C7.833,46.514,11.267,45.9,12.431,45.9z"/>
	<circle fill="#A41D5E" cx="15.688" cy="18.804" r="2.874"/>
	<circle fill="#A41D5E" cx="10.929" cy="11.171" r="1.189"/>
	<circle fill="#A41D5E" cx="15.638" cy="7.653" r="0.941"/>
	<path fill="none" stroke="#1F2937" stroke-linejoin="bevel" stroke-miterlimit="10" d="M43.682,29.393
		c1.463,0.471,4.314,0.288,5.178-0.575"/>
	<path fill="none" stroke="#1F2937" stroke-linejoin="bevel" stroke-miterlimit="10" d="M44.172,22.996c0,0.894-0.65,3.67-0.65,3.67
		h3.18"/>
</g>
</svg>
