<?xml version="1.0" encoding="utf-8"?>
<!-- Generator: Adobe Illustrator 12.0.0, SVG Export Plug-In . SVG Version: 6.00 Build 51448)  -->
<!DOCTYPE svg PUBLIC "-//W3C//DTD SVG 1.1//EN" "http://www.w3.org/Graphics/SVG/1.1/DTD/svg11.dtd" [
	<!ENTITY ns_flows "http://ns.adobe.com/Flows/1.0/">
	<!ENTITY ns_extend "http://ns.adobe.com/Extensibility/1.0/">
	<!ENTITY ns_ai "http://ns.adobe.com/AdobeIllustrator/10.0/">
	<!ENTITY ns_graphs "http://ns.adobe.com/Graphs/1.0/">
	<!ENTITY ns_svg "http://www.w3.org/2000/svg">
	<!ENTITY ns_xlink "http://www.w3.org/1999/xlink">
]>
<svg  version="1.1" id="Layer_1" xmlns:x="&ns_extend;" xmlns:i="&ns_ai;" xmlns:graph="&ns_graphs;"
	 xmlns="&ns_svg;" xmlns:xlink="&ns_xlink;" xmlns:a="http://ns.adobe.com/AdobeSVGViewerExtensions/3.0/"
	 width="81" height="79.45" viewBox="0 0 81 79.45" overflow="visible" enable-background="new 0 0 81 79.45" xml:space="preserve">
<g>
	<g>
		<g>
			<path fill="#DBD6D5" d="M41.792,28.653c-2.579-0.237-4.52,0.327-4.52,2.354c0,6.905-0.573,22.876-4.831,26.07
				c-4.317,3.239-17.236,4.554-18.363,10.144c-1.123,5.588,12.7,9.355,19.663,10.759c6.965,1.403,21.17,3.279,22.297-2.309
				C57.163,70.083,46,64.031,43.011,59.539c-2.985-4.495,0.632-20.959,2.762-26.986C46.435,30.677,44.209,28.877,41.792,28.653z"/>
			<path fill="#A41D5E" d="M21.655,64.225c-2.528,0.993-4.758,2.185-5.025,3.509c-0.003,0.015-0.007,0.029-0.009,0.048
				c-0.016,0.11-0.009,0.31,0.225,0.667c1.597,2.399,8.592,5.204,17.41,6.979c8.815,1.777,16.353,1.897,18.751,0.304
				c0.42-0.277,0.457-0.479,0.478-0.576c0.004-0.027,0.01-0.051,0.014-0.079c0.192-1.346-1.44-3.312-3.392-5.2
				C39.292,66.043,31.758,64.906,21.655,64.225z"/>
			<path fill="#911657" d="M50.107,69.876c-0.06-0.021-0.117-0.04-0.177-0.062c1.017,1.218,1.679,2.365,1.554,3.247
				c-0.004,0.027-0.01,0.052-0.014,0.079c-0.021,0.097-0.059,0.299-0.478,0.576c-2.399,1.593-9.937,1.473-18.752-0.305
				c-6.867-1.384-12.616-3.39-15.583-5.343c0.032,0.102,0.085,0.223,0.188,0.379c1.597,2.399,8.592,5.204,17.41,6.979
				c8.815,1.777,16.353,1.897,18.751,0.304c0.42-0.277,0.457-0.479,0.478-0.576c0.004-0.027,0.01-0.051,0.014-0.079
				C53.691,73.731,52.058,71.765,50.107,69.876z"/>
		</g>
		<circle fill="#A41D5E" cx="45.271" cy="19.007" r="4.556"/>
		<circle fill="#A41D5E" cx="39.511" cy="5.962" r="1.887"/>
		<path fill="#A41D5E" d="M49.166,1.705c-0.116,0.815-0.872,1.383-1.692,1.267c-0.815-0.116-1.379-0.873-1.263-1.689
			c0.116-0.815,0.869-1.384,1.686-1.268C48.713,0.132,49.282,0.889,49.166,1.705z"/>
	</g>
	<path fill="none" stroke="#DBD6D5" d="M55.802,36.904c4.571,4.782,6.725,8.842,5.377,11.041c-1.557,2.54-7.441,2.045-15.342-0.789"
		/>
	<path fill="none" stroke="#DBD6D5" d="M20.868,34.025C7.191,24.726-1.501,14.922,0.897,11.008
		c2.695-4.399,18.374,0.304,35.021,10.504c0.886,0.543,1.757,1.091,2.612,1.642"/>
	<g>
		
			<path fill="none" stroke="#1F2937" stroke-linecap="square" stroke-linejoin="bevel" stroke-miterlimit="10" stroke-dasharray="3" d="
			M2.059,56.121c-1.47-5.947,12.323-14.567,31.526-20.066"/>
		<path fill="none" stroke="#1F2937" stroke-linecap="square" stroke-linejoin="bevel" stroke-miterlimit="10" d="M51.943,55.874
			c-2.511,0.786-5.132,1.521-7.836,2.191C22.476,63.42,3.652,62.549,2.059,56.121"/>
		
			<path fill="none" stroke="#1F2937" stroke-linecap="square" stroke-linejoin="bevel" stroke-miterlimit="10" stroke-dasharray="3" d="
			M76.639,43.808c-4.798,4.205-13.709,8.627-24.696,12.065"/>
		<path fill="none" stroke="#1F2937" stroke-linecap="square" stroke-linejoin="bevel" stroke-miterlimit="10" d="M50.302,32.398
			c16.221-2.434,28.803-0.872,30.09,4.332c0.523,2.109-0.875,4.554-3.753,7.079"/>
		<polyline fill="none" stroke="#1F2937" stroke-linecap="square" stroke-linejoin="bevel" stroke-miterlimit="10" points="
			53.097,34.051 49.702,32.474 51.329,28.968 		"/>
	</g>
</g>
</svg>
