<?xml version="1.0" encoding="utf-8"?>
<!-- Generator: Adobe Illustrator 12.0.0, SVG Export Plug-In . SVG Version: 6.00 Build 51448)  -->
<!DOCTYPE svg PUBLIC "-//W3C//DTD SVG 1.1//EN" "http://www.w3.org/Graphics/SVG/1.1/DTD/svg11.dtd" [
	<!ENTITY ns_flows "http://ns.adobe.com/Flows/1.0/">
	<!ENTITY ns_extend "http://ns.adobe.com/Extensibility/1.0/">
	<!ENTITY ns_ai "http://ns.adobe.com/AdobeIllustrator/10.0/">
	<!ENTITY ns_graphs "http://ns.adobe.com/Graphs/1.0/">
	<!ENTITY ns_svg "http://www.w3.org/2000/svg">
	<!ENTITY ns_xlink "http://www.w3.org/1999/xlink">
]>
<svg  version="1.1" id="Layer_1" xmlns:x="&ns_extend;" xmlns:i="&ns_ai;" xmlns:graph="&ns_graphs;"
	 xmlns="&ns_svg;" xmlns:xlink="&ns_xlink;" xmlns:a="http://ns.adobe.com/AdobeSVGViewerExtensions/3.0/"
	 width="80.228" height="79.576" viewBox="0 0 80.228 79.576" overflow="visible" enable-background="new 0 0 80.228 79.576"
	 xml:space="preserve">
<g>
	<g>
		<path fill="#E7E2E1" d="M40.714,62.871H12.708c-2.686,0-4.885,2.199-4.885,4.887V74.4c0,2.688,2.199,4.887,4.885,4.887h14.039
			c2.688,0,4.887-2.198,4.887-4.887v-2.449L40.714,62.871z"/>
		<path fill="#DBD6D5" d="M12.708,62.871c-2.674,0-4.863,2.18-4.883,4.85c2.57-4.263,24.799-4.85,24.799,3.238l8.09-8.088H12.708z"
			/>
	</g>
	<g>
		<path fill="#E7E2E1" d="M39.347,26.621h28.004c2.688,0,4.887-2.2,4.887-4.887V15.09c0-2.688-2.199-4.888-4.887-4.888H53.314
			c-2.688,0-4.887,2.2-4.887,4.888v2.45L39.347,26.621z"/>
		<path fill="#DBD6D5" d="M44.378,21.588l-5.031,5.032h28.004c2.688,0,4.887-2.2,4.887-4.887V19.12
			C68.519,24.865,44.378,26.621,44.378,21.588z"/>
	</g>
	<g>
		<g>
			<path fill="#E4A1BE" d="M56.669,50.392c0-7.723-6.586-8.642-10.254-8.642c-1.059,3.477-0.836,6.613-0.836,7.25
				c0,1.7-3.84,5.852-3.84,6.901c0,1.4,2.756,0.95,2.756,2.351c0,0.813-0.365,0.938-0.365,1.471c0,0.535,1.771,1.148,1.771,1.148
				s-0.648,1.109-0.541,1.528c0.107,0.417,1.813,1.797,1.813,2.532c0,0.741-2.715,3.11,2.367,3.693
				C58.173,63.101,56.669,54.111,56.669,50.392z"/>
			<path fill="#D276A6" d="M80.228,47.199c0-5.803-3.225-16.154-16.838-16.154c-11.287,0-15.453,5.706-16.975,10.705
				c3.668,0,10.254,0.919,10.254,8.642c0,3.72,1.504,12.709-7.129,18.233c0.729,0.083,1.613,0.129,2.691,0.129
				c3.379,0,4.453,2.832,4.453,4.441l0.529,6.381c0,0,4.225-0.248,8.428-1.726c6.619-2.327,11.158-4.682,11.158-4.682
				c0-1.36-2.561-4.765-2.561-8.266C74.24,55.701,80.228,54.25,80.228,47.199z"/>
		</g>
		<g>
			<circle fill="none" stroke="#1F2937" stroke-linejoin="bevel" stroke-miterlimit="10" cx="66.451" cy="45.326" r="2.074"/>
			<path fill="none" stroke="#1F2937" stroke-linejoin="bevel" stroke-miterlimit="10" d="M69.869,50.998l1.998,1.332l1.203-1.199
				l-1.295-1.943c0.459-0.66,0.799-1.411,0.986-2.221l2.357-0.471v-1.699l-2.287-0.457c-0.148-0.82-0.449-1.587-0.873-2.27l1.334-2
				l-1.201-1.199l-1.941,1.294c-0.662-0.461-1.412-0.8-2.221-0.989l-0.473-2.356h-1.697L65.3,39.109
				c-0.818,0.147-1.586,0.447-2.27,0.87l-1.998-1.332l-1.199,1.202l1.293,1.941c-0.461,0.66-0.801,1.411-0.988,2.219l-2.357,0.473
				v1.697l2.289,0.459c0.146,0.82,0.449,1.586,0.871,2.269l-1.332,1.999l1.201,1.201l1.941-1.294"/>
			<line fill="none" stroke="#1F2937" stroke-linejoin="bevel" stroke-miterlimit="10" x1="45.58" y1="49" x2="50.453" y2="49"/>
			<circle fill="none" stroke="#1F2937" stroke-miterlimit="10" cx="51.889" cy="49" r="1.437"/>
			<polyline fill="none" stroke="#1F2937" stroke-linejoin="bevel" stroke-miterlimit="10" points="66.451,47.4 66.451,61.918 
				74.24,61.918 			"/>
		</g>
	</g>
	<g>
		<path fill="#1F2937" d="M3.576,11.729c0,0-4.783,11.601-1.793,16.973c2.988,5.381,6.393,8.791,6.393,8.791
			c0-2.211-0.652-7.472-0.652-11.06c0-3.583,2.393-4.302,4.303-2.392c1.908,1.912,2.27,5.142,2.27,5.142s2.15-0.6,3.588-4.661
			c1.432-4.062,10.996-6.933,13.145,2.39l2.031,1.671c1.141-1.131,5.959-9.476,2.137-15.097c-3.828-5.621-11.219-10.24-20.66-7.848
			c0,0,0.523-3.95-2.629-5.021C9.203-0.238,4.771-0.583,2.023,2.167C-2.09,6.287,0.916,10.027,3.576,11.729z"/>
		<path fill="#D276A6" d="M8.175,37.492c0,0-0.049,3.162-0.533,8.662c-0.48,5.502,15.295,14.385,15.295,8.724
			c0-3.604,0.359-8.724,0.359-8.724c2.895,0.143,8.027-0.238,6.686-9.576c1.678-0.84,3.117-2.257,3.117-2.257
			s-2.271-5.859-2.271-7.411c-2.148-9.322-11.713-6.452-13.145-2.39c-1.438,4.061-3.588,4.661-3.588,4.661s-0.361-3.229-2.27-5.142
			c-1.91-1.91-4.303-1.19-4.303,2.392C7.523,30.021,8.175,35.281,8.175,37.492z"/>
		<ellipse fill="#1F2937" cx="26.347" cy="29.001" rx="0.898" ry="1.019"/>
		<g>
			<line fill="none" stroke="#1F2937" x1="27.675" y1="24.776" x2="23.972" y2="26.043"/>
			<path fill="none" stroke="#1F2937" d="M28.357,39.149c1.76,0.545,0.131,2.092-2.029,1.601c-2.162-0.49-2.477-2.484-1.732-2.604
				C25.761,37.957,26.845,38.681,28.357,39.149z"/>
		</g>
		
			<line fill="none" stroke="#E7E2E1" stroke-linecap="round" stroke-linejoin="round" x1="10.953" y1="32.234" x2="11.101" y2="34.463"/>
		<path fill="#C16198" d="M23.082,49.893c0.1-2.086,0.215-3.738,0.215-3.738c-1.43-0.518-5.674-2.492-6.662-3.479
			C16.634,42.676,19.552,47.186,23.082,49.893z"/>
	</g>
</g>
</svg>
