<?xml version="1.0" encoding="utf-8"?>
<!-- Generator: Adobe Illustrator 12.0.0, SVG Export Plug-In . SVG Version: 6.00 Build 51448)  -->
<!DOCTYPE svg PUBLIC "-//W3C//DTD SVG 1.1//EN" "http://www.w3.org/Graphics/SVG/1.1/DTD/svg11.dtd" [
	<!ENTITY ns_flows "http://ns.adobe.com/Flows/1.0/">
	<!ENTITY ns_extend "http://ns.adobe.com/Extensibility/1.0/">
	<!ENTITY ns_ai "http://ns.adobe.com/AdobeIllustrator/10.0/">
	<!ENTITY ns_graphs "http://ns.adobe.com/Graphs/1.0/">
	<!ENTITY ns_svg "http://www.w3.org/2000/svg">
	<!ENTITY ns_xlink "http://www.w3.org/1999/xlink">
]>
<svg  version="1.1" id="Layer_1" xmlns:x="&ns_extend;" xmlns:i="&ns_ai;" xmlns:graph="&ns_graphs;"
	 xmlns="&ns_svg;" xmlns:xlink="&ns_xlink;" xmlns:a="http://ns.adobe.com/AdobeSVGViewerExtensions/3.0/"
	 width="320" height="320.429" viewBox="0 0 320 320.429" overflow="visible" enable-background="new 0 0 320 320.429"
	 xml:space="preserve">
<g>
	<path fill="#E7E2E1" d="M155.336,253.245H20.035c-11.019,0-20.035,9-20.035,20v27.185c0,11,9.016,20,20.035,20h78.042
		c11.02,0,20.035-9,20.035-20v-10.027L155.336,253.245z"/>
	<path fill="#DBD6D5" d="M20.035,253.245c-10.968,0-19.945,8.919-20.027,19.85c10.539-17.447,122.167-19.85,122.167,13.253
		l33.162-33.103H20.035z"/>
</g>
<g>
	<path fill="#E7E2E1" d="M164.664,116.938h135.301c11.02,0,20.035-9,20.035-20V69.752c0-11-9.016-20-20.035-20h-78.042
		c-11.02,0-20.035,9-20.035,20V79.78L164.664,116.938z"/>
	<path fill="#DBD6D5" d="M185.292,96.346l-20.628,20.592h135.301c11.02,0,20.035-9,20.035-20V86.244
		C304.753,109.755,185.292,116.938,185.292,96.346z"/>
</g>
<g>
	<g>
		<path fill="#E4A1BE" d="M226.411,221.454c0-26.189-22.377-29.307-34.837-29.307c-3.594,11.793-2.841,22.43-2.841,24.587
			c0,5.767-13.04,19.845-13.04,23.406c0,4.749,9.354,3.222,9.354,7.972c0,2.759-1.236,3.182-1.236,4.99
			c0,1.81,6.016,3.891,6.016,3.891s-2.203,3.769-1.839,5.186s6.159,6.094,6.159,8.587c0,2.513-9.221,10.551,8.039,12.525
			C231.52,264.556,226.411,234.073,226.411,221.454z"/>
		<path fill="#D276A6" d="M306.445,210.627c0-19.676-10.957-54.786-57.203-54.786c-38.343,0-52.5,19.35-57.668,36.306
			c12.46,0,34.837,3.117,34.837,29.307c0,12.619,5.108,43.103-24.225,61.837c2.474,0.282,5.488,0.441,9.151,0.441
			c11.475,0,15.126,9.601,15.126,15.063l1.802,21.635c0,0,14.344-0.838,28.628-5.851c22.489-7.895,37.902-15.876,37.902-15.876
			c0-4.613-8.692-16.159-8.692-28.032C286.104,239.461,306.445,234.542,306.445,210.627z"/>
	</g>
	<g>
		
			<ellipse fill="none" stroke="#1F2937" stroke-width="4" stroke-linejoin="bevel" stroke-miterlimit="10" cx="259.639" cy="204.275" rx="7.045" ry="7.034"/>
		<path fill="none" stroke="#1F2937" stroke-width="4" stroke-linejoin="bevel" stroke-miterlimit="10" d="M271.251,223.512
			l6.793,4.517l4.079-4.07l-4.396-6.587c1.561-2.241,2.715-4.785,3.355-7.53l8.004-1.599v-5.759l-7.773-1.554
			c-0.499-2.781-1.519-5.381-2.96-7.694l4.527-6.781l-4.079-4.07l-6.598,4.388c-2.246-1.561-4.796-2.711-7.543-3.351l-1.603-7.99
			h-5.77l-1.556,7.761c-2.786,0.497-5.39,1.516-7.709,2.953l-6.793-4.518l-4.077,4.072l4.396,6.586
			c-1.563,2.241-2.716,4.786-3.357,7.529l-8.004,1.601v5.757l7.772,1.556c0.499,2.78,1.521,5.38,2.961,7.693l-4.525,6.78
			l4.079,4.072l6.598-4.39"/>
		
			<line fill="none" stroke="#1F2937" stroke-width="4" stroke-linejoin="bevel" stroke-miterlimit="10" x1="188.733" y1="216.734" x2="205.29" y2="216.734"/>
		
			<ellipse fill="none" stroke="#1F2937" stroke-width="4" stroke-miterlimit="10" cx="210.171" cy="216.734" rx="4.881" ry="4.874"/>
		<polyline fill="none" stroke="#1F2937" stroke-width="4" stroke-linejoin="bevel" stroke-miterlimit="10" points="
			259.639,211.309 259.639,260.546 286.104,260.546 		"/>
	</g>
</g>
<g>
	<path fill="#1F2937" d="M33.172,56.16c0,0-17.069,41.336-6.396,60.479c10.673,19.174,22.815,31.321,22.815,31.321
		c0-7.876-2.324-26.621-2.324-39.409c0-12.765,8.531-15.329,15.355-8.521c6.817,6.811,8.103,18.32,8.103,18.32
		s7.674-2.138,12.811-16.61c5.11-14.473,39.245-24.7,46.919,8.519l7.248,5.954c4.068-4.031,21.272-33.766,7.625-53.791
		c-13.665-20.028-40.042-36.49-73.745-27.968c0,0,1.869-14.073-9.389-17.893c-8.935-3.043-24.745-4.274-34.559,5.525
		C12.948,36.772,23.675,50.099,33.172,56.16z"/>
	<path fill="#D276A6" d="M49.591,147.959c0,0-0.172,11.27-1.896,30.87c-1.723,19.601,54.594,51.252,54.594,31.081
		c0-12.842,1.279-31.081,1.279-31.081c10.329,0.507,28.652-0.854,23.86-34.126c5.992-2.991,11.129-8.038,11.129-8.038
		s-8.104-20.881-8.104-26.408c-7.674-33.219-41.809-22.991-46.919-8.519c-5.136,14.473-12.811,16.61-12.811,16.61
		s-1.286-11.51-8.103-18.32c-6.824-6.808-15.355-4.243-15.355,8.521C47.267,121.338,49.591,140.083,49.591,147.959z"/>
	<path fill="#1F2937" d="M111.25,117.708c0-2.002,1.442-3.632,3.208-3.632c1.765,0,3.211,1.63,3.211,3.632s-1.446,3.631-3.211,3.631
		C112.692,121.338,111.25,119.709,111.25,117.708z"/>
	<g>
		<line fill="none" stroke="#1F2937" stroke-width="4" x1="119.193" y1="102.651" x2="105.979" y2="107.165"/>
		<path fill="none" stroke="#1F2937" stroke-width="4" d="M121.628,153.864c6.281,1.942,0.472,7.457-7.244,5.707
			c-7.715-1.75-8.834-8.852-6.181-9.281C112.37,149.615,116.233,152.195,121.628,153.864z"/>
	</g>
	
		<line fill="none" stroke="#E7E2E1" stroke-width="4" stroke-linecap="round" stroke-linejoin="round" x1="59.509" y1="129.223" x2="60.041" y2="137.167"/>
	<path fill="none" stroke="#1F2937" stroke-width="3" d="M44.229,37.199C27.635,22.094,1,22.915,1,22.915"/>
	<path fill="none" stroke="#1F2937" stroke-width="3" d="M51.368,0.605c-3.903,8.853-4.609,20.182-2.481,28.68"/>
	<path fill="#C16198" d="M102.8,192.149c0.356-7.436,0.769-13.319,0.769-13.319c-5.106-1.85-20.255-8.883-23.778-12.399
		C79.791,166.43,90.196,182.5,102.8,192.149z"/>
</g>
</svg>
