<?xml version="1.0" encoding="utf-8"?>
<!-- Generator: Adobe Illustrator 12.0.0, SVG Export Plug-In . SVG Version: 6.00 Build 51448)  -->
<!DOCTYPE svg PUBLIC "-//W3C//DTD SVG 1.1//EN" "http://www.w3.org/Graphics/SVG/1.1/DTD/svg11.dtd" [
	<!ENTITY ns_flows "http://ns.adobe.com/Flows/1.0/">
	<!ENTITY ns_extend "http://ns.adobe.com/Extensibility/1.0/">
	<!ENTITY ns_ai "http://ns.adobe.com/AdobeIllustrator/10.0/">
	<!ENTITY ns_graphs "http://ns.adobe.com/Graphs/1.0/">
	<!ENTITY ns_svg "http://www.w3.org/2000/svg">
	<!ENTITY ns_xlink "http://www.w3.org/1999/xlink">
]>
<svg  version="1.1" xmlns:x="&ns_extend;" xmlns:i="&ns_ai;" xmlns:graph="&ns_graphs;"
	 xmlns="&ns_svg;" xmlns:xlink="&ns_xlink;" xmlns:a="http://ns.adobe.com/AdobeSVGViewerExtensions/3.0/"
	 width="1040.36" height="711.179" viewBox="0 0 1040.36 711.179" overflow="visible" enable-background="new 0 0 1040.36 711.179"
	 xml:space="preserve">
<g id="books">
	<g>
		<rect x="121.74" y="46.876" fill="#FFFFFF" stroke="#1F2937" width="32.237" height="147.674"/>
		<rect x="170.618" y="63.436" fill="#E4A1BE" width="45.758" height="133.115"/>
		<rect x="222.614" y="20.798" fill="#F9C7E3" width="45.759" height="175.753"/>
		
			<rect x="834.346" y="48.876" transform="matrix(0.9819 -0.1893 0.1893 0.9819 -7.9073 162.6591)" fill="#FFFFFF" stroke="#1F2937" width="26" height="147.676"/>
		<rect x="879.875" y="63.436" fill="#E4A1BE" width="45.759" height="133.115"/>
		<rect x="931.871" y="20.798" fill="#D88FB2" width="45.759" height="175.753"/>
		<rect x="647.733" y="353.907" fill="#E4A1BE" width="143.514" height="25.999"/>
		<rect x="474.149" y="233.163" fill="#F9C7E3" width="41.121" height="146.743"/>
		<rect x="72.081" y="233.163" fill="#F9C7E3" width="199.51" height="146.743"/>
		
			<rect x="399.177" y="267.569" transform="matrix(-0.9002 0.4356 -0.4356 -0.9002 929.0957 433.828)" fill="#FCE0EF" width="31.294" height="111.671"/>
		
			<rect x="338.492" y="228.749" transform="matrix(-0.962 0.273 -0.273 -0.962 788.791 498.9929)" fill="#E4A1BE" width="42.381" height="151.243"/>
		
			<rect x="326.953" y="244.596" transform="matrix(-0.962 0.2729 -0.2729 -0.962 743.8119 396.8601)" fill="#F9C7E3" width="34.698" height="11.142"/>
		
			<rect x="297.052" y="258.534" transform="matrix(-0.962 0.273 -0.273 -0.962 698.578 541.4371)" fill="#F9C7E3" width="29.141" height="121.565"/>
		<rect x="525.932" y="253.724" fill="#F9D2E6" width="20.561" height="126.183"/>
		<rect x="560.961" y="253.724" fill="#FCE0EF" width="20.561" height="126.183"/>
		<rect x="595.99" y="253.724" fill="#F9C7E3" width="20.561" height="126.183"/>
		
			<rect x="834.013" y="233.646" transform="matrix(-1 0.0095 -0.0095 -1 1712.0315 605.882)" fill="#E4A1BE" width="41.121" height="146.743"/>
		
			<rect x="890.847" y="244.666" transform="matrix(-1 0.0095 -0.0095 -1 1815.1143 615.946)" fill="#F9C7E3" width="30.48" height="135.28"/>
		
			<rect x="8.29" y="244.666" transform="matrix(-1 0.0095 -0.0095 -1 50.0413 624.3724)" fill="#E4A1BE" width="30.48" height="135.28"/>
		
			<rect x="945.319" y="253.232" transform="matrix(-0.9836 -0.1801 0.1801 -0.9836 1840.9912 799.8137)" fill="#E4A1BE" width="22.977" height="126.183"/>
		
			<rect x="989.744" y="252.775" transform="matrix(-1 0.0095 -0.0095 -1 2012.928 622.1549)" fill="#F9C7E3" width="30.48" height="126.182"/>
		<rect x="629.014" y="321.669" fill="#D88FB2" width="193.345" height="25.999"/>
		<rect x="647.733" y="289.941" fill="#F9C7E3" width="132.627" height="25.999"/>
		<rect x="636.366" y="257.703" fill="#FFFFFF" stroke="#1F2937" width="160.244" height="25.999"/>
		<rect x="667.917" y="226.481" fill="#FCE0EF" width="101.943" height="25.999"/>
		<rect x="279.296" y="561.528" fill="#E4A1BE" width="132.627" height="25.999"/>
		<rect x="304.899" y="529.29" fill="#D88FB2" width="123.273" height="25.999"/>
		<rect x="270.401" y="498.068" fill="#F9C7E3" width="131.021" height="25.999"/>
		<rect x="677.08" y="21.838" fill="#F9D2E6" width="29.724" height="174.713"/>
		<rect x="50.188" y="21.838" fill="#F9D2E6" width="29.724" height="174.713"/>
		
			<rect x="625.857" y="21.838" transform="matrix(0.969 0.247 -0.247 0.969 46.703 -153.8658)" fill="#F9C7E3" width="21.405" height="174.714"/>
		
			<rect x="532.225" y="77.005" transform="matrix(0.9078 0.4194 -0.4194 0.9078 106.8725 -215.2282)" fill="#F9C7E3" width="21.404" height="116.88"/>
		
			<rect x="576.775" y="42.33" transform="matrix(0.969 0.2471 -0.2471 0.969 47.6194 -142.2183)" fill="#E4A1BE" width="27.509" height="152.634"/>
		<rect x="722.144" y="83.195" fill="#FFFFFF" stroke="#1F2937" width="42.189" height="113.356"/>
		<rect x="770.084" y="35.357" fill="#E4A1BE" width="42.189" height="161.194"/>
		<rect x="311.011" fill="#FCE0EF" width="155.996" height="196.551"/>
		
			<rect x="630.559" y="439.853" transform="matrix(-0.9819 -0.1893 0.1893 -0.9819 1178.235 1139.9226)" fill="#E4A1BE" width="25.999" height="147.675"/>
		<rect x="676.087" y="454.412" fill="#FFFFFF" stroke="#1F2937" width="22.88" height="133.115"/>
		<rect x="728.083" y="411.774" fill="#F9C7E3" width="45.76" height="175.753"/>
		<rect x="461.092" y="436.203" fill="#E4A1BE" width="41.925" height="151.324"/>
		<rect x="118.41" y="410.707" fill="#E4A1BE" width="118.494" height="176.82"/>
		
			<rect x="853.356" y="412.814" transform="matrix(-0.969 0.247 -0.247 -0.969 1824.8986 771.3807)" fill="#F9C7E3" width="21.406" height="174.713"/>
		
			<rect x="946.989" y="467.981" transform="matrix(-0.9078 0.4194 -0.4194 -0.9078 2047.8678 602.5996)" fill="#E4A1BE" width="21.403" height="116.88"/>
		
			<rect x="896.333" y="433.306" transform="matrix(-0.969 0.247 -0.247 -0.969 1917.8633 778.636)" fill="#D88FB2" width="27.511" height="152.635"/>
		<rect x="515.356" y="474.171" fill="#F9D2E6" width="42.189" height="113.356"/>
		<rect x="339.43" y="407.797" fill="#F9D2E6" width="30.121" height="81.582"/>
		<rect x="310.045" y="407.797" fill="#FCE0EF" width="15.061" height="81.582"/>
		<rect x="278.81" y="401.192" fill="#F9C7E3" width="18.888" height="88.187"/>
		<rect x="997.671" y="425.703" fill="#FFFFFF" stroke="#1F2937" width="42.189" height="161.824"/>
		<rect x="566.296" y="412.204" fill="#FCE0EF" width="42.189" height="175.323"/>
		<rect x="792.614" y="433.202" fill="#E4A1BE" width="29.883" height="154.325"/>
		<rect x="48.654" y="411.774" fill="#FFFFFF" stroke="#1F2937" width="45.759" height="175.753"/>
		<rect y="433.202" fill="#D88FB2" width="29.883" height="154.325"/>
		<rect x="92.806" y="252.521" fill="#E4A1BE" width="159.791" height="22.827"/>
		<rect x="138.463" y="430.858" fill="#FCE0EF" width="78.266" height="35.871"/>
		<rect x="208.575" y="290.023" fill="#FCE0EF" width="41.339" height="71.734"/>
		<rect x="330.864" y="136.422" fill="#F9C7E3" width="115.768" height="35.872"/>
		<path fill="#EFC0D5" d="M220.316,565.851c0-1.678,0.163-4.22,0.163-7.629c0-3.41-0.054-25.215-0.054-31.871
			s-2.68-7.711-3.949-8.982c-1.271-1.271-2.76-3.625-2.76-4.979c0-0.756-0.051-2.932-0.096-4.969
			c-0.035-1.607-0.067-3.128-0.067-3.797c0-1.34-0.848-3.146-1.042-4.481c-0.025-0.175-0.04-0.341-0.04-0.497
			c0-1.352,0.487-1.352,0.487-2.001c0-0.65-0.434-0.434-0.434-1.299c0-0.866,0.325-0.975,0.325-1.948s-0.325-3.896-0.325-4.762
			c0-0.865,0.218-1.353-0.919-1.84c-1.137-0.486-5.076-0.53-6.562-0.09c-1.076,0.32-1.067,1.01-1.067,1.335v2.435
			c0,1.082-0.108,2.435-0.108,3.463s0.473,0.92,0.473,1.393c0,0.475-0.608,0.609-0.608,1.231s0.729,0.731,0.729,1.704
			c0,0.311-0.064,0.674-0.163,1.076c-0.211,0.861-0.571,1.895-0.756,2.929c-0.157,0.879-0.242,3.397-0.349,5.675
			c-0.075,1.646-0.164,3.166-0.301,3.848c-0.324,1.624,0.162,3.681-1.893,4.979c-2.058,1.299-4.764,4.168-5.033,6.98
			c-0.271,2.814-0.056,14.395-0.056,19.479c0,5.087,0.272,18.723,0.272,21.265c0,2.545-0.326,2.003,0.053,6.494
			c0.38,4.49,5.682,4.762,10.931,4.762c4.615,0,9.983,0.568,12.175-2.164C221.083,571.419,220.316,567.528,220.316,565.851z"/>
		<path fill="#D375A6" d="M152.151,509.919c-0.189-0.24-0.359-0.459-0.503-0.656c-1.612-2.212-1.598-3.773-1.598-6.506
			c0-0.49-0.009-1.241-0.022-2.148c-0.012-0.674-0.025-1.434-0.041-2.234c-0.083-4.121-0.214-9.344-0.214-9.691
			c0-0.662,0.517-0.412,0.517-0.991c0-0.517-0.025-0.962-0.025-1.364c0-0.76-0.466-0.463-0.466-0.98
			c0-0.866-0.141-1.285-0.707-1.474c-0.764-0.252-3.594-0.124-4.938-0.124s-2.256-0.094-2.256,1.518c0,0.598-0.438,0.408-0.46,0.971
			c-0.026,0.65-0.217,1.815,0.286,2.014c0.192,0.075,0.175,0.108,0.175,0.76c0,0.381-0.153,4.779-0.344,9.026
			c-0.033,0.755-0.069,1.505-0.104,2.227c-0.105,2.163-0.216,4.07-0.313,5.097c-0.272,2.883-0.583,3.945-2.319,5.68
			c-0.1,0.102-0.2,0.203-0.297,0.308c-2.279,2.399-3.967,5.646-4.3,9.927c-0.272,3.52,0.044,19.211,0.044,23.244
			c0,4.032-0.173,23.721-0.173,25.456c0,1.733,0.067,5.425,3.249,5.945c2.661,0.435,13.713,0.583,16.742-0.135
			c3.19-0.757,3.6-3.599,3.6-5.55c0-1.953-0.173-39.551,0.087-46.748C158.008,516.932,154.073,512.354,152.151,509.919z"/>
		<path fill="#F7D7E7" d="M190.979,541.415c0-3.859-0.402-12.735-2.255-19.055c-0.822-2.805-1.779-5.543-2.647-8.111
			c-1.091-3.209-2.05-6.153-2.467-8.633c-0.05-0.286-0.097-0.609-0.143-0.959c-0.68-5.08-1.163-16.147-1.163-17.04
			c0-0.952,1.289-1.356,1.289-3.021c0-2.215-0.786-2.241-0.786-2.796c0-0.549,0.854-3.91-1.506-5.063
			c-2.354-1.153-7.372-0.8-8.222,1.202c-0.549,1.303-0.099,2.759-0.349,3.562c-0.254,0.803-0.854,0.387-0.854,2.506
			c0,2.055,1.153,1.904,1.153,3.261c0,1.159-0.404,12.976-1.153,18.28c-0.122,0.882-0.256,1.582-0.399,2.025
			c-0.409,1.265-1.365,3.804-2.435,6.775c-1.557,4.324-3.352,9.561-4.034,13.125c-1.153,6.017-1.003,38.354-0.752,41.213
			c0.252,2.859,0.752,6.42,3.159,7.372c2.406,0.954,18.551,1.104,21.006-0.302c2.458-1.403,2.607-7.07,2.607-10.878
			C191.028,561.067,190.979,545.273,190.979,541.415z"/>
		<path fill="#E4A1BE" d="M405.503,115.894c0-1.984,0.193-4.991,0.193-9.023c0-4.033-0.064-29.824-0.064-37.696
			c0-7.871-3.169-9.12-4.672-10.624c-1.504-1.503-3.264-4.287-3.264-5.887c0-0.895-0.061-3.468-0.114-5.878
			c-0.04-1.901-0.079-3.699-0.079-4.489c0-1.585-1.002-3.722-1.231-5.301c-0.03-0.206-0.048-0.403-0.048-0.587
			c0-1.6,0.576-1.6,0.576-2.368c0-0.769-0.512-0.513-0.512-1.536c0-1.024,0.384-1.153,0.384-2.305c0-1.151-0.384-4.607-0.384-5.632
			s0.257-1.6-1.088-2.175c-1.345-0.577-6.003-0.627-7.761-0.107c-1.272,0.378-1.264,1.194-1.264,1.579v2.879
			c0,1.28-0.127,2.88-0.127,4.095c0,1.217,0.56,1.088,0.56,1.648s-0.721,0.721-0.721,1.457s0.864,0.864,0.864,2.015
			c0,0.367-0.077,0.797-0.194,1.272c-0.248,1.02-0.675,2.242-0.893,3.465c-0.188,1.04-0.287,4.019-0.412,6.712
			c-0.09,1.947-0.194,3.745-0.356,4.551c-0.385,1.92,0.191,4.352-2.239,5.888c-2.434,1.536-5.634,4.929-5.954,8.256
			c-0.319,3.328-0.063,17.024-0.063,23.04c0,6.017,0.32,22.144,0.32,25.152c0,3.008-0.385,2.369,0.063,7.68
			c0.45,5.312,6.721,5.633,12.928,5.633c5.46,0,11.81,0.671,14.4-2.561C406.409,122.48,405.503,117.878,405.503,115.894z"/>
		<path fill="#EFC0D5" d="M359.149,49.169c-0.225-0.284-0.425-0.542-0.596-0.776c-1.906-2.616-1.889-4.462-1.889-7.694
			c0-0.58-0.01-1.468-0.026-2.542c-0.015-0.797-0.03-1.695-0.05-2.642c-0.097-4.875-0.252-11.051-0.252-11.463
			c0-0.783,0.61-0.486,0.61-1.172c0-0.611-0.029-1.139-0.029-1.615c0-0.898-0.552-0.546-0.552-1.158
			c0-1.025-0.165-1.521-0.836-1.743c-0.904-0.299-4.251-0.146-5.84-0.146c-1.591,0-2.67-0.111-2.67,1.794
			c0,0.707-0.518,0.482-0.543,1.148c-0.031,0.769-0.258,2.147,0.337,2.381c0.228,0.089,0.208,0.129,0.208,0.898
			c0,0.451-0.182,5.654-0.406,10.677c-0.041,0.893-0.082,1.779-0.123,2.633c-0.126,2.558-0.255,4.814-0.371,6.027
			c-0.321,3.409-0.69,4.668-2.743,6.719c-0.117,0.119-0.235,0.241-0.351,0.363c-2.696,2.839-4.691,6.678-5.086,11.742
			c-0.322,4.163,0.053,22.722,0.053,27.493c0,4.769-0.205,28.055-0.205,30.107c0,2.051,0.081,6.417,3.843,7.032
			c3.146,0.514,16.22,0.69,19.802-0.16c3.773-0.895,4.258-4.255,4.258-6.564c0-2.31-0.204-46.778,0.103-55.292
			C366.076,57.464,361.423,52.05,359.149,49.169z"/>
		<path fill="#EFC0D5" d="M436.95,121.882c0-2.016-1.09-64.952-1.309-67.117c-0.564-5.552-4.712-5.845-4.712-10.468
			c0-0.604-0.003-1.35-0.007-2.201c-0.008-1.136-0.02-2.463-0.035-3.895c-0.031-3.184-0.077-6.895-0.121-10.224
			c-0.064-4.944-0.124-9.049-0.124-9.341c0-0.646,0.848,0,0.848-1.354c0-0.806,0.029-1.343-0.044-2.863
			c-0.032-0.703-0.635-0.516-0.635-0.862c0-0.596,0.025-0.839-0.472-0.935c-2.439-0.471-6.253-0.305-7.946-0.146
			c-1.284,0.12-1.381,0.38-1.381,1.105s-0.658,0.187-0.658,1.557c0,0.924,0.007,1.469,0.007,1.964c0,0.903,0.198,1.151,0.694,1.279
			c0.317,0.082,0.24,1.262,0.21,1.97c-0.029,0.715-0.051,3.848-0.064,7.651c-0.011,3.233-0.018,6.951-0.022,10.083
			c-0.001,1.48-0.001,2.829-0.003,3.935c-0.001,1.307-0.001,2.271-0.001,2.705c0,4.84-3.855,6.273-3.855,10.674
			c0,2.321,0.022,11.195,0.022,15.708c0,4.515,0.726,50.867,0.726,52.881c0,2.015,0.402,3.063,2.256,3.386
			c1.855,0.323,11.294,0.585,14.35-0.402C437.356,126.102,436.95,123.897,436.95,121.882z"/>
		<path fill="#E4A1BE" d="M141.057,312.894c-0.146-0.185-0.277-0.354-0.388-0.504c-1.237-1.699-1.226-2.897-1.226-4.996
			c0-0.378-0.007-0.954-0.018-1.652c-0.01-0.518-0.021-1.1-0.031-1.716c-0.064-3.165-0.164-7.176-0.164-7.444
			c0-0.508,0.396-0.314,0.396-0.76c0-0.397-0.021-0.74-0.021-1.048c0-0.585-0.355-0.355-0.355-0.753
			c0-0.666-0.109-0.988-0.544-1.132c-0.586-0.194-2.76-0.096-3.793-0.096s-1.732-0.072-1.732,1.166c0,0.459-0.337,0.313-0.355,0.745
			c-0.018,0.5-0.165,1.395,0.222,1.547c0.147,0.058,0.135,0.083,0.135,0.583c0,0.293-0.117,3.672-0.265,6.934
			c-0.025,0.579-0.053,1.155-0.079,1.71c-0.082,1.66-0.165,3.126-0.241,3.914c-0.209,2.215-0.449,3.031-1.781,4.363
			c-0.076,0.077-0.153,0.157-0.229,0.235c-1.75,1.844-3.046,4.338-3.302,7.626c-0.209,2.703,0.033,14.756,0.033,17.854
			s-0.133,18.219-0.133,19.552c0,1.332,0.053,4.166,2.495,4.565c2.044,0.335,10.533,0.449,12.859-0.103
			c2.451-0.582,2.766-2.765,2.766-4.264s-0.134-30.377,0.067-35.906C145.556,318.28,142.532,314.765,141.057,312.894z"/>
		<path fill="#FCE0EF" d="M167.237,360.113c0-1.31-0.709-42.18-0.851-43.585c-0.366-3.606-3.06-3.796-3.06-6.798
			c0-0.393-0.002-0.877-0.005-1.429c-0.005-0.739-0.012-1.6-0.022-2.53c-0.02-2.067-0.05-4.478-0.078-6.64
			c-0.043-3.211-0.08-5.877-0.08-6.065c0-0.421,0.549,0,0.549-0.88c0-0.524,0.02-0.873-0.026-1.86
			c-0.022-0.456-0.414-0.334-0.414-0.559c0-0.389,0.017-0.545-0.307-0.607c-1.584-0.307-4.06-0.198-5.159-0.096
			c-0.834,0.077-0.896,0.247-0.896,0.718s-0.429,0.122-0.429,1.012c0,0.601,0.005,0.954,0.005,1.273c0,0.588,0.128,0.749,0.45,0.832
			c0.207,0.053,0.156,0.821,0.138,1.279c-0.021,0.465-0.034,2.498-0.043,4.968c-0.008,2.101-0.011,4.515-0.015,6.549
			c0,0.96-0.002,1.835-0.002,2.554c0,0.85,0,1.476,0,1.757c0,3.144-2.503,4.075-2.503,6.933c0,1.507,0.012,7.271,0.012,10.201
			c0,2.932,0.473,33.032,0.473,34.34c0,1.309,0.262,1.99,1.465,2.199c1.205,0.209,7.335,0.38,9.318-0.261
			C167.501,362.854,167.237,361.421,167.237,360.113z"/>
		<path fill="#E8B3CD" d="M196.44,336.696c0-2.967-0.31-9.783-1.731-14.638c-0.633-2.154-1.367-4.257-2.034-6.229
			c-0.838-2.466-1.573-4.727-1.893-6.631c-0.041-0.22-0.076-0.469-0.111-0.737c-0.521-3.901-0.894-12.4-0.894-13.087
			c0-0.732,0.991-1.043,0.991-2.321c0-1.701-0.604-1.722-0.604-2.147c0-0.421,0.654-3.003-1.156-3.889
			c-1.81-0.885-5.663-0.614-6.315,0.924c-0.422,1.001-0.077,2.118-0.268,2.736c-0.195,0.615-0.656,0.296-0.656,1.923
			c0,1.579,0.885,1.464,0.885,2.505c0,0.891-0.31,9.967-0.885,14.041c-0.094,0.679-0.195,1.216-0.307,1.556
			c-0.314,0.973-1.049,2.922-1.871,5.204c-1.195,3.321-2.573,7.344-3.099,10.081c-0.885,4.621-0.77,29.46-0.577,31.654
			c0.194,2.197,0.577,4.932,2.428,5.662c1.848,0.733,14.248,0.848,16.134-0.231c1.887-1.076,2.003-5.431,2.003-8.354
			C196.479,351.79,196.44,339.658,196.44,336.696z"/>
		<path fill="#D375A6" d="M114.688,356.224c0-1.288,0.127-3.241,0.127-5.859c0-2.62-0.042-19.368-0.042-24.48
			s-2.059-5.922-3.035-6.898c-0.976-0.976-2.118-2.785-2.118-3.823c0-0.581-0.04-2.252-0.074-3.817
			c-0.027-1.234-0.052-2.402-0.052-2.916c0-1.029-0.649-2.417-0.8-3.44c-0.02-0.135-0.03-0.262-0.03-0.384
			c0-1.038,0.373-1.038,0.373-1.535c0-0.5-0.332-0.334-0.332-0.998c0-0.667,0.249-0.749,0.249-1.497
			c0-0.749-0.249-2.991-0.249-3.657s0.167-1.039-0.706-1.412c-0.873-0.376-3.899-0.407-5.04-0.07
			c-0.826,0.245-0.819,0.775-0.819,1.025v1.87c0,0.831-0.084,1.868-0.084,2.659c0,0.79,0.363,0.707,0.363,1.07
			s-0.467,0.467-0.467,0.946c0,0.477,0.561,0.561,0.561,1.31c0,0.237-0.051,0.516-0.125,0.824c-0.163,0.662-0.439,1.456-0.581,2.25
			c-0.121,0.676-0.187,2.61-0.267,4.359c-0.061,1.265-0.128,2.432-0.232,2.955c-0.25,1.246,0.123,2.827-1.454,3.823
			c-1.581,0.997-3.659,3.201-3.866,5.362c-0.209,2.161-0.041,11.056-0.041,14.961c0,3.908,0.208,14.382,0.208,16.335
			c0,1.954-0.249,1.538,0.04,4.987c0.293,3.449,4.365,3.657,8.396,3.657c3.547,0,7.669,0.437,9.352-1.663
			C115.278,360.501,114.688,357.513,114.688,356.224z"/>
		<rect x="479.996" y="351.753" fill="#E4A1BE" width="30.328" height="11.752"/>
		<rect x="479.996" y="367.736" fill="#E4A1BE" width="30.328" height="5.876"/>
		<rect x="773.877" y="174.997" fill="#F9D2E6" width="33.378" height="14.573"/>
		<rect x="938.062" y="32.086" fill="#E4A1BE" width="33.378" height="7.287"/>
		<ellipse fill="#E4A1BE" cx="954.75" cy="71.575" rx="11.752" ry="22.564"/>
		<rect x="840.162" y="243.645" fill="#F9D2E6" width="28.206" height="54.063"/>
		<rect x="734.855" y="423.696" fill="#FCE0EF" width="32.437" height="14.103"/>
		<rect x="56.488" y="419.938" fill="#FCE0EF" width="31.968" height="14.103"/>
		<rect x="56.488" y="575.072" fill="#FCE0EF" width="31.968" height="5.641"/>
		<rect x="56.488" y="564.73" fill="#FCE0EF" width="31.968" height="5.641"/>
		<rect x="56.488" y="554.389" fill="#FCE0EF" width="31.968" height="5.641"/>
		<rect x="230.521" y="30.871" fill="#FCE0EF" width="29.189" height="39.548"/>
		<rect x="230.521" y="170.231" fill="#FCE0EF" width="29.189" height="15.065"/>
		<rect x="230.521" y="159.873" fill="#FCE0EF" width="29.189" height="7.533"/>
		<rect x="466.988" y="568.538" fill="#F9D2E6" width="30.132" height="8.475"/>
		<rect x="473.712" y="451.821" fill="#F9D2E6" width="16.674" height="52.683"/>
		<rect x="15.997" y="271.361" fill="#E8B3CD" width="15.066" height="89.079"/>
		<rect x="572.312" y="566.188" fill="#E8B3CD" width="29.19" height="13.653"/>
		<rect x="572.312" y="551.979" fill="#E8B3CD" width="29.19" height="7.467"/>
		<rect x="344.927" y="89.13" fill="#F9C7E3" width="20.729" height="19.766"/>
		<path fill="#EFC0D5" d="M404.283,96.824c-0.229-0.403-2.819-0.61-6.235-0.671c-2.634-7.303-11.715-5.43-13.703,0.353
			c-2.591,0.187-4.404,0.432-4.526,0.703c-0.33,0.735-0.42,15.321,0.11,16.253c0.528,0.931,11.318,0.963,12.633,0.963
			s11.101-0.514,11.686-1.542C404.612,112.241,404.558,97.306,404.283,96.824z"/>
		<path fill="#E4A1BE" d="M99.37,345.808c2.014-1.275,11.283-2.132,13.139,0.486c0.563,0.795,1.594,7.017-1.357,7.771
			c-2.162,0.555-9.559,0.776-11.67-0.682C98.432,352.658,97.82,346.789,99.37,345.808z"/>
		<path fill="#E8B3CD" d="M104.485,344.261c0.528-1.229,2.987-0.816,2.987,0.826c0,1.389-1.321,1.65-2.19,1.381
			C104.411,346.197,103.958,345.49,104.485,344.261z"/>
		<path fill="#D375A6" d="M195.052,339.872c-0.216-0.2-3.971,0.058-4.155-0.113c-0.185-0.173-2.308-1.405-4.586-1.233
			c-2.277,0.172-4.093,1.462-4.339,1.462s-4.442-0.028-4.581,0.101c-0.138,0.129,0.026,10.047,0.118,10.133
			c0.093,0.086,3.247,0.13,3.54,0.401c0.292,0.272,3.293,1.52,5.354,1.52c2.063,0,5.048-1.262,5.509-1.462
			c0.462-0.201,3.065-0.229,3.297-0.444C195.439,350.021,195.437,340.231,195.052,339.872z"/>
		<g>
			<path fill="#FCE0EF" d="M142.215,317.11c-0.425-0.297-1.822-0.604-3.622-0.75c-1.008-1.505-3.311-1.205-4.156,0.134
				c-2.353,0.322-4.218,1.061-4.388,1.157c-0.406,0.237,0.515,2.491,0.76,2.637c0.19,0.105,1.961-0.462,3.965-0.596
				c0.916,0.874,2.385,0.729,3.398-0.026c1.932,0.106,3.513,0.453,3.635,0.386C142.12,319.885,142.662,317.419,142.215,317.11z"/>
		</g>
		<path fill="#E4A1BE" d="M103.079,318.613c-0.126,3.585-0.363,9.403-0.363,9.834l2.426-1.177l2.72,1.103l-0.349-9.99
			C106.056,318.421,104.548,318.5,103.079,318.613z"/>
		<rect x="154.826" y="336.513" fill="#EFCEE1" width="8.846" height="14.381"/>
		<rect x="420.299" y="79.886" fill="#E4A1BE" width="14.365" height="22.529"/>
		<path fill="#EFC0D5" d="M188.158,549.755c-0.198-0.348-2.442-0.527-5.4-0.58c-2.281-6.325-10.147-4.703-11.87,0.305
			c-2.243,0.162-3.814,0.375-3.92,0.61c-0.285,0.637-0.363,13.271,0.096,14.077c0.458,0.806,9.804,0.834,10.942,0.834
			s9.614-0.444,10.121-1.335C188.444,563.109,188.396,550.174,188.158,549.755z"/>
		<rect x="136.572" y="524.902" fill="#D88FB2" width="18.901" height="39.215"/>
	</g>
</g>
<g id="person_02">
	<g>
		<g>
			<g>
				<line fill="none" stroke="#3A312C" stroke-width="4" x1="448.121" y1="645.259" x2="489.282" y2="599.663"/>
				<line fill="none" stroke="#3A312C" stroke-width="4" x1="539.154" y1="645.102" x2="501.326" y2="601.826"/>
			</g>
			<g>
				<g>
					<path fill="#E7E2E1" d="M533.461,623.503c1.801,1.747,9.739,13.577,10.432,21.135l-40.705-28.363l8.764,2.094
						c-0.15,0.288-0.189,0.616-0.085,0.924c0.23,0.662,1.041,0.982,1.814,0.716c0.504-0.174,0.866-0.56,0.991-0.989l6.342,1.512
						c-0.064,0.349-0.046,0.708,0.075,1.054c0.416,1.21,1.898,1.795,3.307,1.308c0.67-0.232,1.204-0.665,1.534-1.187
						L533.461,623.503z"/>
					<path fill="#E7E2E1" d="M543.893,644.638c-5.521,8.204-20.113,21.062-20.113,21.062l-38.698-30.758l5.672-5.848
						c0.937,0.749,2.308,0.677,3.161-0.203c0.854-0.879,0.884-2.25,0.104-3.165l9.169-9.451L543.893,644.638z"/>
				</g>
				<g>
					
						<ellipse transform="matrix(0.7176 0.6964 -0.6964 0.7176 595.296 -185.7562)" fill="#C3B6B5" cx="526.722" cy="641.24" rx="2.623" ry="2.429"/>
					<circle fill="#C3B6B5" cx="515.125" cy="638.232" r="1.213"/>
					<circle fill="#C3B6B5" cx="501.469" cy="632.678" r="1.096"/>
					<circle fill="#C3B6B5" cx="514.164" cy="629.604" r="2.82"/>
					<circle fill="#C3B6B5" cx="532.814" cy="633.828" r="1.179"/>
					<circle fill="#C3B6B5" cx="529.349" cy="627.118" r="2.214"/>
					<circle fill="#C3B6B5" cx="507.838" cy="643.438" r="0.784"/>
					<path fill="#C3B6B5" d="M532.805,656.853c-1.266,1.304-3.347,1.336-4.654,0.069c-1.303-1.264-1.335-3.347-0.068-4.651
						c1.263-1.304,3.348-1.337,4.652-0.071C534.038,653.465,534.068,655.548,532.805,656.853z"/>
					<path fill="#C3B6B5" d="M525.046,654.837c-0.528,0.544-1.396,0.558-1.94,0.03c-0.543-0.527-0.555-1.395-0.027-1.938
						c0.525-0.543,1.393-0.557,1.938-0.03C525.559,653.426,525.572,654.294,525.046,654.837z"/>
					<circle fill="#C3B6B5" cx="531.299" cy="648.953" r="0.392"/>
					<path fill="#C3B6B5" d="M513.894,657.391c1.416-1.462,1.381-3.791-0.079-5.207c-1.461-1.416-3.79-1.38-5.205,0.079
						c-0.26,0.267-0.469,0.563-0.631,0.878l5.653,4.493C513.723,657.559,513.811,657.476,513.894,657.391z"/>
					<circle fill="#C3B6B5" cx="494.568" cy="637.88" r="2.036"/>
					<circle fill="#C3B6B5" cx="501.873" cy="622.811" r="0.705"/>
					<circle fill="#C3B6B5" cx="503.606" cy="645.663" r="2.35"/>
				</g>
			</g>
			<path fill="#E8B3CD" d="M481.839,664.743c0,0-1.007-31.131-0.663-34.069c0.377-3.227,2.482-5.644,4.212-6.227
				c3.501-1.18,8.16-0.058,10.14,1.435c1.978,1.496,3.187,4.033,2.778,7.524c-0.408,3.494-9.376,32.166-9.376,32.166
				L481.839,664.743z"/>
			<g>
				<path fill="#EFC0D5" d="M484.163,649.659c0,0,1.005-31.131,0.663-34.069c-0.377-3.227-2.482-5.645-4.213-6.227
					c-3.502-1.181-8.16-0.058-10.14,1.435c-1.977,1.496-3.186,4.032-2.778,7.524c0.409,3.493,9.377,32.166,9.377,32.166
					L484.163,649.659z"/>
				<path fill="#C3B6B5" d="M479.011,608.987l1.373-8.351l-2.163,0.252l-0.313,3.57l-1.455,0.048l-0.548-6.759l-3.244,0.38
					l0.566,5.902l-3.244,0.381l1.714,5.669C473.595,609.183,476.439,608.614,479.011,608.987z"/>
			</g>
			<g>
				<path fill="#E7E2E1" d="M458.104,687.799c2.563,12.594,8.499,16.313,14.633,15.064c6.134-1.25,10.142-6.994,7.577-19.587
					l-21.294-104.554c-2.566-12.596-8.778-17.683-14.913-16.434c-6.132,1.249-9.862,8.361-7.297,20.956L458.104,687.799z"/>
				<g>
					<path fill="#C3B6B5" d="M456.625,579.033c0,0-0.377,6.114-3.987,11.574c-3.612,5.459-9.093,8.196-9.093,8.196
						s0.377-6.113,3.989-11.572C451.146,581.771,456.625,579.033,456.625,579.033z"/>
					<path fill="#C3B6B5" d="M461.721,604.049c0,0-0.377,6.114-3.989,11.573c-3.612,5.461-9.093,8.199-9.093,8.199
						s0.379-6.115,3.99-11.574S461.721,604.049,461.721,604.049z"/>
					<path fill="#C3B6B5" d="M466.814,629.066c0,0-0.377,6.113-3.987,11.573c-3.613,5.459-9.092,8.197-9.092,8.197
						s0.378-6.113,3.988-11.574C461.337,631.803,466.814,629.066,466.814,629.066z"/>
					<path fill="#C3B6B5" d="M471.91,654.082c0,0-0.378,6.114-3.988,11.573c-3.612,5.46-9.091,8.197-9.091,8.197
						s0.376-6.112,3.988-11.571C466.432,656.82,471.91,654.082,471.91,654.082z"/>
				</g>
				<g>
					<path fill="#DBD6D5" d="M483.557,682.615l-13.584-66.696l-5.103-2.791l-3.913,6.127l-6.374-3.49l-3.912,6.127l-6.375-3.491
						l-2.807,4.398l13.37,65.66c3.783,18.564,14.224,18.524,18.537,17.647c3.558-0.725,6.445-2.63,8.35-5.507
						C484.523,696.401,485.132,690.351,483.557,682.615z"/>
				</g>
			</g>
			<g>
				<g>
					<path fill="#B7A6A5" d="M440.859,655.199c2.167,17.699,4.334,35.397,6.501,53.099c0.095,0.762,0.739,1.381,1.439,1.381h87.321
						c0.7,0,1.345-0.619,1.438-1.381c2.166-17.701,4.334-35.399,6.501-53.099H440.859z"/>
					<path fill="#C3B6B5" d="M549.858,653.818c0,0.763-0.619,1.381-1.38,1.381H436.442c-0.761,0-1.381-0.618-1.381-1.381v-12.416
						c0-0.763,0.62-1.38,1.381-1.38h112.036c0.761,0,1.38,0.617,1.38,1.38V653.818z"/>
				</g>
				<g>
					<g>
						<path fill="#967F7E" d="M461.359,668.43v27.239c0,2.67,2.164,4.833,4.834,4.833s4.834-2.163,4.834-4.833V668.43
							c0-2.67-2.164-4.833-4.834-4.833S461.359,665.76,461.359,668.43z"/>
					</g>
					<g>
						<path fill="#967F7E" d="M478.871,668.43v27.239c0,2.67,2.164,4.833,4.834,4.833s4.832-2.163,4.832-4.833V668.43
							c0-2.67-2.162-4.833-4.832-4.833S478.871,665.76,478.871,668.43z"/>
					</g>
					<g>
						<path fill="#967F7E" d="M496.383,668.43v27.239c0,2.67,2.163,4.833,4.833,4.833c2.668,0,4.833-2.163,4.833-4.833V668.43
							c0-2.67-2.165-4.833-4.833-4.833C498.546,663.597,496.383,665.76,496.383,668.43z"/>
					</g>
					<g>
						<path fill="#967F7E" d="M513.893,668.43v27.239c0,2.67,2.163,4.833,4.833,4.833c2.672,0,4.835-2.163,4.835-4.833V668.43
							c0-2.67-2.163-4.833-4.835-4.833C516.056,663.597,513.893,665.76,513.893,668.43z"/>
					</g>
				</g>
			</g>
			<g>
				<path fill="#C3B6B5" d="M486.991,624.071l-1.374-8.351l2.164,0.253l0.313,3.569l1.456,0.049l0.547-6.76l3.244,0.38l-0.566,5.902
					l3.245,0.381l-1.715,5.67C492.406,624.269,489.563,623.697,486.991,624.071z"/>
			</g>
		</g>
		<g>
			<g>
				<path fill="#C3B6B5" d="M726.521,184.825c-1.09,1.241-26.924,60.775-28.608,67.816c-1.132,4.704,3.188,41.325,7.084,69.442
					c-5.382-20.472-18.553-60.948-16.683-68.419C690.157,246.295,725.306,185.94,726.521,184.825z"/>
				<path fill="#C16198" d="M700.83,365.513l-112.838,49.255c0.193-9.281,0.311-15.133,0.311-16.172
					c14.588-4.577,103.256-35.641,111.613-39.204C699.916,359.392,700.244,361.555,700.83,365.513z"/>
				<path fill="#A41D5E" d="M732.245,680.779c3.294,3.285,9.592,9.582,13.028,13.019c-13.028,2.439-29.619,0.135-35.348-1.064
					c-0.51-2.742-0.862-4.922-0.862-5.66c0-2.581-5.843-27.876-5.843-27.876c10.705-1.659,21.873-4.468,21.873-4.468
					S728.957,677.483,732.245,680.779z"/>
				<path fill="#A41D5E" d="M628.36,685.062l0.268,7.454c0,0-21.73,3.421-33.744,3.421c6.631-4.243,13.733-14.597,13.733-14.597
					l-4.293-21.463c11.452,0,24.036,0.286,24.036,0.286V685.062z"/>
				<path fill="#A41D5E" d="M605.224,158.604c2.124,1.549,5.737,9.667,6.41,13.906c0,0-7.666-0.811-8.921-8.718
					C601.456,155.874,605.224,158.604,605.224,158.604z"/>
				<path fill="#A41D5E" d="M649.77,145.838c-5.384,7.415-0.314,11.235,1.159,15.268c0,0,6.459-3.459,3.712-10.979
					C651.891,142.597,649.77,145.838,649.77,145.838z"/>
				<path fill="#A41D5E" d="M651.221,161.034c0.741,4.619,1.43,12.862-2.403,15.72c0.761,4.804,2.656,12.303,2.656,12.303
					c-11.379,5.745-27.707,14.278-27.707,14.278c-1.257-7.916-3.289-13.39-3.872-17.067c0,0-1.468-1.067-3.436-2.493
					c-1.967-1.428-4.825-11.264-4.825-11.264c3.762,4.081,8.156,9.146,12.049,9.973c7.169,1.521,14.19-1.309,19.576-5.135
					C647.423,174.386,651.651,164.717,651.221,161.034z"/>
				<path fill="#A41D5E" d="M570.099,314.729c0,0-20.117,68.437-21.481,74.02c-0.896,3.671,3.126,24.285-0.13,25.812
					c-1.274,0.596-3.265-8.764-3.827-7.452c-0.558,1.297-1.095,14.236-1.095,15.434c0,5.676-2.674,13.285-3.728,9.846
					c-2.926-9.557-5.84-46.681-4.18-54.521c1.131-5.323,10.244-73.257,10.555-73.718L570.099,314.729z"/>
				<path fill="#A41D5E" d="M692.827,53.674c1.332,0.86,3.334,6.025,5.573,9.008c0,0-0.273-4.683-2.322-14.434
					c-0.158-2.961-1.134-10.038,0.877-10.46c2.02-0.423,10.067,3.222,13.185,10.518c5.564,14.986,8.086,31.244,9.207,36.571
					c1.554,7.397,3.609,87.887,2.01,96.675c-0.915,5.047-6.893-27.346-24.252-38.226c1.702-17.272,10.048-49.819,9.198-53.856
					c-0.848-4.028-10.517-18.38-11.823-24.595C693.364,59.565,690.385,52.078,692.827,53.674z"/>
				<path fill="#D276A6" d="M743.127,650.722l-18.033,4.008c0,0-11.168,2.809-21.873,4.468l-15.619,1.536l-34.626-221.786
					l-8.015,3.437l2.005,215.783l-18.605,1.996c0,0-12.584-0.286-24.036-0.286l-21.748-1.995c0,0,4.233-186.18,5.416-243.114
					l112.838-49.255C706.851,405.722,740.553,631.18,743.127,650.722z"/>
				<path fill="#1F2937" d="M628.628,692.516l0.598,16.592h-56.097c6.447-6.447,13.379-7.829,21.755-13.171
					C606.897,695.937,628.628,692.516,628.628,692.516z"/>
				<path fill="#1F2937" d="M770.308,709.678h-56.95c0,0-2.183-10.162-3.432-16.944c5.729,1.199,22.319,3.504,35.348,1.064
					C748.701,697.228,768.883,705.669,770.308,709.678z"/>
				<path fill="#1F2937" d="M651.217,161.017c0,0,0.001,0.007,0.004,0.017c0.431,3.684-3.798,13.353-7.962,16.313
					c-5.386,3.827-12.407,6.656-19.576,5.135c-3.893-0.826-8.287-5.892-12.049-9.973c-0.673-4.238-4.286-12.357-6.41-13.906
					c0,0-10.495-21.364,4.541-30.712c0,0-7.979-8.291,0.345-14.247c8.325-5.956,29.396-10.174,22.235,8.637
					c0,0,13.518-3.595,17.735,22.978C646.128,152.801,650.902,159.08,651.217,161.017z"/>
				<path fill="#E7E2E1" d="M726.521,184.825c0.016-0.024,0.025-0.033,0.025-0.033l-4.188-9.113
					c-3.956-5.677-16.245-27.287-27.715-33.851c0,0-35.482,41.789-42.467,45.973c-12.139,3.89-29.601,9.759-29.601,9.759
					s-16.29,9.005-30.518,17.195c-9.14,5.256-44.857,54.365-61.757,88.612c3.898,2.852,48.425,19.99,48.425,19.99l5.701-22.916
					l-10.956,104.04l14.83-5.886c14.588-4.577,103.256-35.641,111.613-39.204l10.01-6.01c-0.98-4.318-2.898-16.65-4.929-31.299
					c-5.382-20.472-18.553-60.948-16.683-68.419C690.157,246.295,725.306,185.94,726.521,184.825z"/>
				<path fill="#C3B6B5" d="M572.643,320.998c3.695,1.438,6.085,2.359,6.085,2.359l5.701-22.916l5.738-33.28L572.643,320.998z"/>
			</g>
			<line fill="none" stroke="#1F2937" stroke-width="2" x1="631.107" y1="448.319" x2="666.831" y2="433.011"/>
			<line fill="none" stroke="#1F2937" stroke-width="3" x1="664.614" y1="709.106" x2="436.664" y2="709.106"/>
			<line fill="none" stroke="#1F2937" stroke-width="3" x1="713.36" y1="709.679" x2="806.477" y2="709.679"/>
			<path fill="none" stroke="#1F2937" stroke-width="3" d="M619.931,120.425c-2.598-8.474-20.04-13.496-27.118-10.409"/>
			<path fill="none" stroke="#1F2937" stroke-width="3" d="M623.732,115.862c-2.724-3.493-2.971-9.113,0.195-13.047"/>
			<g>
				
					<rect x="712.043" y="85.002" transform="matrix(0.2056 0.9786 -0.9786 0.2056 659.5281 -624.2932)" fill="#1F2937" width="4.489" height="18.154"/>
				<path fill="#1F2937" d="M711.89,98.986c-1.01,0.213-2-0.433-2.213-1.442l-1.003-4.782c-0.212-1.009,0.434-2,1.444-2.212
					l7.054-1.483c1.01-0.211,1.999,0.436,2.212,1.446l1.003,4.779c0.213,1.011-0.434,2-1.444,2.212L711.89,98.986z"/>
			</g>
			
				<line fill="none" stroke="#1F2937" stroke-width="3" stroke-linecap="round" stroke-linejoin="round" x1="534.563" y1="366.724" x2="553.612" y2="379.85"/>
			
				<line fill="none" stroke="#C16198" stroke-width="3" stroke-linecap="round" stroke-linejoin="round" x1="535.678" y1="363.371" x2="554.715" y2="375.026"/>
			
				<line fill="none" stroke="#C3B6B5" stroke-width="4" stroke-linecap="round" stroke-linejoin="round" x1="535.936" y1="358.755" x2="556.643" y2="362.09"/>
		</g>
	</g>
</g>
</svg>
