<?xml version="1.0" encoding="utf-8"?>
<!-- Generator: Adobe Illustrator 12.0.0, SVG Export Plug-In . SVG Version: 6.00 Build 51448)  -->
<!DOCTYPE svg PUBLIC "-//W3C//DTD SVG 1.1//EN" "http://www.w3.org/Graphics/SVG/1.1/DTD/svg11.dtd" [
	<!ENTITY ns_flows "http://ns.adobe.com/Flows/1.0/">
	<!ENTITY ns_extend "http://ns.adobe.com/Extensibility/1.0/">
	<!ENTITY ns_ai "http://ns.adobe.com/AdobeIllustrator/10.0/">
	<!ENTITY ns_graphs "http://ns.adobe.com/Graphs/1.0/">
	<!ENTITY ns_svg "http://www.w3.org/2000/svg">
	<!ENTITY ns_xlink "http://www.w3.org/1999/xlink">
]>
<svg  version="1.1" xmlns:x="&ns_extend;" xmlns:i="&ns_ai;" xmlns:graph="&ns_graphs;"
	 xmlns="&ns_svg;" xmlns:xlink="&ns_xlink;" xmlns:a="http://ns.adobe.com/AdobeSVGViewerExtensions/3.0/"
	 width="1040.36" height="716.158" viewBox="0 0 1040.36 716.158" overflow="visible" enable-background="new 0 0 1040.36 716.158"
	 xml:space="preserve">
<g id="books">
	<g>
		<rect x="121.74" y="46.876" fill="#FFFFFF" stroke="#1F2937" width="32.237" height="147.674"/>
		<rect x="170.618" y="63.436" fill="#E4A1BE" width="45.758" height="133.115"/>
		<rect x="222.614" y="20.798" fill="#F9C7E3" width="45.759" height="175.753"/>
		
			<rect x="834.346" y="48.876" transform="matrix(0.9819 -0.1893 0.1893 0.9819 -7.9073 162.6591)" fill="#FFFFFF" stroke="#1F2937" width="26" height="147.676"/>
		<rect x="879.875" y="63.436" fill="#E4A1BE" width="45.759" height="133.115"/>
		<rect x="931.871" y="20.798" fill="#D88FB2" width="45.759" height="175.753"/>
		<rect x="647.733" y="353.907" fill="#E4A1BE" width="143.514" height="25.999"/>
		<rect x="474.149" y="233.163" fill="#F9C7E3" width="41.121" height="146.743"/>
		<rect x="72.081" y="233.163" fill="#F9C7E3" width="199.51" height="146.743"/>
		
			<rect x="399.177" y="267.569" transform="matrix(-0.9002 0.4356 -0.4356 -0.9002 929.0957 433.828)" fill="#FCE0EF" width="31.294" height="111.671"/>
		
			<rect x="338.492" y="228.749" transform="matrix(-0.962 0.273 -0.273 -0.962 788.791 498.9929)" fill="#E4A1BE" width="42.381" height="151.243"/>
		
			<rect x="326.953" y="244.596" transform="matrix(-0.962 0.2729 -0.2729 -0.962 743.8119 396.8601)" fill="#F9C7E3" width="34.698" height="11.142"/>
		
			<rect x="297.052" y="258.534" transform="matrix(-0.962 0.273 -0.273 -0.962 698.578 541.4371)" fill="#F9C7E3" width="29.141" height="121.565"/>
		<rect x="525.932" y="253.724" fill="#F9D2E6" width="20.561" height="126.183"/>
		<rect x="560.961" y="253.724" fill="#FCE0EF" width="20.561" height="126.183"/>
		<rect x="595.99" y="253.724" fill="#F9C7E3" width="20.561" height="126.183"/>
		
			<rect x="834.013" y="233.646" transform="matrix(-1 0.0095 -0.0095 -1 1712.0315 605.882)" fill="#E4A1BE" width="41.121" height="146.743"/>
		
			<rect x="890.847" y="244.666" transform="matrix(-1 0.0095 -0.0095 -1 1815.1143 615.946)" fill="#F9C7E3" width="30.48" height="135.28"/>
		
			<rect x="8.29" y="244.666" transform="matrix(-1 0.0095 -0.0095 -1 50.0413 624.3724)" fill="#E4A1BE" width="30.48" height="135.28"/>
		
			<rect x="945.319" y="253.232" transform="matrix(-0.9836 -0.1801 0.1801 -0.9836 1840.9912 799.8137)" fill="#E4A1BE" width="22.977" height="126.183"/>
		
			<rect x="989.744" y="252.775" transform="matrix(-1 0.0095 -0.0095 -1 2012.928 622.1549)" fill="#F9C7E3" width="30.48" height="126.182"/>
		<rect x="629.014" y="321.669" fill="#D88FB2" width="193.345" height="25.999"/>
		<rect x="647.733" y="289.941" fill="#F9C7E3" width="132.627" height="25.999"/>
		<rect x="636.366" y="257.703" fill="#FFFFFF" stroke="#1F2937" width="160.244" height="25.999"/>
		<rect x="667.917" y="226.481" fill="#FCE0EF" width="101.943" height="25.999"/>
		<rect x="279.296" y="561.528" fill="#E4A1BE" width="132.627" height="25.999"/>
		<rect x="304.899" y="529.29" fill="#D88FB2" width="123.273" height="25.999"/>
		<rect x="270.401" y="498.068" fill="#F9C7E3" width="131.021" height="25.999"/>
		<rect x="677.08" y="21.838" fill="#F9D2E6" width="29.724" height="174.713"/>
		<rect x="50.188" y="21.838" fill="#F9D2E6" width="29.724" height="174.713"/>
		
			<rect x="625.857" y="21.838" transform="matrix(0.969 0.247 -0.247 0.969 46.703 -153.8658)" fill="#F9C7E3" width="21.405" height="174.714"/>
		
			<rect x="532.225" y="77.005" transform="matrix(0.9078 0.4194 -0.4194 0.9078 106.8725 -215.2282)" fill="#F9C7E3" width="21.404" height="116.88"/>
		
			<rect x="576.775" y="42.33" transform="matrix(0.969 0.2471 -0.2471 0.969 47.6194 -142.2183)" fill="#E4A1BE" width="27.509" height="152.634"/>
		<rect x="722.144" y="83.195" fill="#FFFFFF" stroke="#1F2937" width="42.189" height="113.356"/>
		<rect x="770.084" y="35.357" fill="#E4A1BE" width="42.189" height="161.194"/>
		<rect x="311.011" fill="#FCE0EF" width="155.996" height="196.551"/>
		
			<rect x="630.559" y="439.853" transform="matrix(-0.9819 -0.1893 0.1893 -0.9819 1178.235 1139.9226)" fill="#E4A1BE" width="25.999" height="147.675"/>
		<rect x="676.087" y="454.412" fill="#FFFFFF" stroke="#1F2937" width="22.88" height="133.115"/>
		<rect x="728.083" y="411.774" fill="#F9C7E3" width="45.76" height="175.753"/>
		<rect x="461.092" y="436.203" fill="#E4A1BE" width="41.925" height="151.324"/>
		<rect x="118.41" y="410.707" fill="#E4A1BE" width="118.494" height="176.82"/>
		
			<rect x="853.356" y="412.814" transform="matrix(-0.969 0.247 -0.247 -0.969 1824.8986 771.3807)" fill="#F9C7E3" width="21.406" height="174.713"/>
		
			<rect x="946.989" y="467.981" transform="matrix(-0.9078 0.4194 -0.4194 -0.9078 2047.8678 602.5996)" fill="#E4A1BE" width="21.403" height="116.88"/>
		
			<rect x="896.333" y="433.306" transform="matrix(-0.969 0.247 -0.247 -0.969 1917.8633 778.636)" fill="#D88FB2" width="27.511" height="152.635"/>
		<rect x="515.356" y="474.171" fill="#F9D2E6" width="42.189" height="113.356"/>
		<rect x="339.43" y="407.797" fill="#F9D2E6" width="30.121" height="81.582"/>
		<rect x="310.045" y="407.797" fill="#FCE0EF" width="15.061" height="81.582"/>
		<rect x="278.81" y="401.192" fill="#F9C7E3" width="18.888" height="88.187"/>
		<rect x="997.671" y="425.703" fill="#FFFFFF" stroke="#1F2937" width="42.189" height="161.824"/>
		<rect x="566.296" y="412.204" fill="#FCE0EF" width="42.189" height="175.323"/>
		<rect x="792.614" y="433.202" fill="#E4A1BE" width="29.883" height="154.325"/>
		<rect x="48.654" y="411.774" fill="#FFFFFF" stroke="#1F2937" width="45.759" height="175.753"/>
		<rect y="433.202" fill="#D88FB2" width="29.883" height="154.325"/>
		<rect x="92.806" y="252.521" fill="#E4A1BE" width="159.791" height="22.827"/>
		<rect x="138.463" y="430.858" fill="#FCE0EF" width="78.266" height="35.871"/>
		<rect x="208.575" y="290.023" fill="#FCE0EF" width="41.339" height="71.734"/>
		<rect x="330.864" y="136.422" fill="#F9C7E3" width="115.768" height="35.872"/>
		<path fill="#EFC0D5" d="M220.316,565.851c0-1.678,0.163-4.22,0.163-7.629c0-3.41-0.054-25.215-0.054-31.871
			s-2.68-7.711-3.949-8.982c-1.271-1.271-2.76-3.625-2.76-4.979c0-0.756-0.051-2.932-0.096-4.969
			c-0.035-1.607-0.067-3.128-0.067-3.797c0-1.34-0.848-3.146-1.042-4.481c-0.025-0.175-0.04-0.341-0.04-0.497
			c0-1.352,0.487-1.352,0.487-2.001c0-0.65-0.434-0.434-0.434-1.299c0-0.866,0.325-0.975,0.325-1.948s-0.325-3.896-0.325-4.762
			c0-0.865,0.218-1.353-0.919-1.84c-1.137-0.486-5.076-0.53-6.562-0.09c-1.076,0.32-1.067,1.01-1.067,1.335v2.435
			c0,1.082-0.108,2.435-0.108,3.463s0.473,0.92,0.473,1.393c0,0.475-0.608,0.609-0.608,1.231s0.729,0.731,0.729,1.704
			c0,0.311-0.064,0.674-0.163,1.076c-0.211,0.861-0.571,1.895-0.756,2.929c-0.157,0.879-0.242,3.397-0.349,5.675
			c-0.075,1.646-0.164,3.166-0.301,3.848c-0.324,1.624,0.162,3.681-1.893,4.979c-2.058,1.299-4.764,4.168-5.033,6.98
			c-0.271,2.814-0.056,14.395-0.056,19.479c0,5.087,0.272,18.723,0.272,21.265c0,2.545-0.326,2.003,0.053,6.494
			c0.38,4.49,5.682,4.762,10.931,4.762c4.615,0,9.983,0.568,12.175-2.164C221.083,571.419,220.316,567.528,220.316,565.851z"/>
		<path fill="#D375A6" d="M152.151,509.919c-0.189-0.24-0.359-0.459-0.503-0.656c-1.612-2.212-1.598-3.773-1.598-6.506
			c0-0.49-0.009-1.241-0.022-2.148c-0.012-0.674-0.025-1.434-0.041-2.234c-0.083-4.121-0.214-9.344-0.214-9.691
			c0-0.662,0.517-0.412,0.517-0.991c0-0.517-0.025-0.962-0.025-1.364c0-0.76-0.466-0.463-0.466-0.98
			c0-0.866-0.141-1.285-0.707-1.474c-0.764-0.252-3.594-0.124-4.938-0.124s-2.256-0.094-2.256,1.518c0,0.598-0.438,0.408-0.46,0.971
			c-0.026,0.65-0.217,1.815,0.286,2.014c0.192,0.075,0.175,0.108,0.175,0.76c0,0.381-0.153,4.779-0.344,9.026
			c-0.033,0.755-0.069,1.505-0.104,2.227c-0.105,2.163-0.216,4.07-0.313,5.097c-0.272,2.883-0.583,3.945-2.319,5.68
			c-0.1,0.102-0.2,0.203-0.297,0.308c-2.279,2.399-3.967,5.646-4.3,9.927c-0.272,3.52,0.044,19.211,0.044,23.244
			c0,4.032-0.173,23.721-0.173,25.456c0,1.733,0.067,5.425,3.249,5.945c2.661,0.435,13.713,0.583,16.742-0.135
			c3.19-0.757,3.6-3.599,3.6-5.55c0-1.953-0.173-39.551,0.087-46.748C158.008,516.932,154.073,512.354,152.151,509.919z"/>
		<path fill="#F7D7E7" d="M190.979,541.415c0-3.859-0.402-12.735-2.255-19.055c-0.822-2.805-1.779-5.543-2.647-8.111
			c-1.091-3.209-2.05-6.153-2.467-8.633c-0.05-0.286-0.097-0.609-0.143-0.959c-0.68-5.08-1.163-16.147-1.163-17.04
			c0-0.952,1.289-1.356,1.289-3.021c0-2.215-0.786-2.241-0.786-2.796c0-0.549,0.854-3.91-1.506-5.063
			c-2.354-1.153-7.372-0.8-8.222,1.202c-0.549,1.303-0.099,2.759-0.349,3.562c-0.254,0.803-0.854,0.387-0.854,2.506
			c0,2.055,1.153,1.904,1.153,3.261c0,1.159-0.404,12.976-1.153,18.28c-0.122,0.882-0.256,1.582-0.399,2.025
			c-0.409,1.265-1.365,3.804-2.435,6.775c-1.557,4.324-3.352,9.561-4.034,13.125c-1.153,6.017-1.003,38.354-0.752,41.213
			c0.252,2.859,0.752,6.42,3.159,7.372c2.406,0.954,18.551,1.104,21.006-0.302c2.458-1.403,2.607-7.07,2.607-10.878
			C191.028,561.067,190.979,545.273,190.979,541.415z"/>
		<path fill="#E4A1BE" d="M405.503,115.894c0-1.984,0.193-4.991,0.193-9.023c0-4.033-0.064-29.824-0.064-37.696
			c0-7.871-3.169-9.12-4.672-10.624c-1.504-1.503-3.264-4.287-3.264-5.887c0-0.895-0.061-3.468-0.114-5.878
			c-0.04-1.901-0.079-3.699-0.079-4.489c0-1.585-1.002-3.722-1.231-5.301c-0.03-0.206-0.048-0.403-0.048-0.587
			c0-1.6,0.576-1.6,0.576-2.368c0-0.769-0.512-0.513-0.512-1.536c0-1.024,0.384-1.153,0.384-2.305c0-1.151-0.384-4.607-0.384-5.632
			s0.257-1.6-1.088-2.175c-1.345-0.577-6.003-0.627-7.761-0.107c-1.272,0.378-1.264,1.194-1.264,1.579v2.879
			c0,1.28-0.127,2.88-0.127,4.095c0,1.217,0.56,1.088,0.56,1.648s-0.721,0.721-0.721,1.457s0.864,0.864,0.864,2.015
			c0,0.367-0.077,0.797-0.194,1.272c-0.248,1.02-0.675,2.242-0.893,3.465c-0.188,1.04-0.287,4.019-0.412,6.712
			c-0.09,1.947-0.194,3.745-0.356,4.551c-0.385,1.92,0.191,4.352-2.239,5.888c-2.434,1.536-5.634,4.929-5.954,8.256
			c-0.319,3.328-0.063,17.024-0.063,23.04c0,6.017,0.32,22.144,0.32,25.152c0,3.008-0.385,2.369,0.063,7.68
			c0.45,5.312,6.721,5.633,12.928,5.633c5.46,0,11.81,0.671,14.4-2.561C406.409,122.48,405.503,117.878,405.503,115.894z"/>
		<path fill="#EFC0D5" d="M359.149,49.169c-0.225-0.284-0.425-0.542-0.596-0.776c-1.906-2.616-1.889-4.462-1.889-7.694
			c0-0.58-0.01-1.468-0.026-2.542c-0.015-0.797-0.03-1.695-0.05-2.642c-0.097-4.875-0.252-11.051-0.252-11.463
			c0-0.783,0.61-0.486,0.61-1.172c0-0.611-0.029-1.139-0.029-1.615c0-0.898-0.552-0.546-0.552-1.158
			c0-1.025-0.165-1.521-0.836-1.743c-0.904-0.299-4.251-0.146-5.84-0.146c-1.591,0-2.67-0.111-2.67,1.794
			c0,0.707-0.518,0.482-0.543,1.148c-0.031,0.769-0.258,2.147,0.337,2.381c0.228,0.089,0.208,0.129,0.208,0.898
			c0,0.451-0.182,5.654-0.406,10.677c-0.041,0.893-0.082,1.779-0.123,2.633c-0.126,2.558-0.255,4.814-0.371,6.027
			c-0.321,3.409-0.69,4.668-2.743,6.719c-0.117,0.119-0.235,0.241-0.351,0.363c-2.696,2.839-4.691,6.678-5.086,11.742
			c-0.322,4.163,0.053,22.722,0.053,27.493c0,4.769-0.205,28.055-0.205,30.107c0,2.051,0.081,6.417,3.843,7.032
			c3.146,0.514,16.22,0.69,19.802-0.16c3.773-0.895,4.258-4.255,4.258-6.564c0-2.31-0.204-46.778,0.103-55.292
			C366.076,57.464,361.423,52.05,359.149,49.169z"/>
		<path fill="#EFC0D5" d="M436.95,121.882c0-2.016-1.09-64.952-1.309-67.117c-0.564-5.552-4.712-5.845-4.712-10.468
			c0-0.604-0.003-1.35-0.007-2.201c-0.008-1.136-0.02-2.463-0.035-3.895c-0.031-3.184-0.077-6.895-0.121-10.224
			c-0.064-4.944-0.124-9.049-0.124-9.341c0-0.646,0.848,0,0.848-1.354c0-0.806,0.029-1.343-0.044-2.863
			c-0.032-0.703-0.635-0.516-0.635-0.862c0-0.596,0.025-0.839-0.472-0.935c-2.439-0.471-6.253-0.305-7.946-0.146
			c-1.284,0.12-1.381,0.38-1.381,1.105s-0.658,0.187-0.658,1.557c0,0.924,0.007,1.469,0.007,1.964c0,0.903,0.198,1.151,0.694,1.279
			c0.317,0.082,0.24,1.262,0.21,1.97c-0.029,0.715-0.051,3.848-0.064,7.651c-0.011,3.233-0.018,6.951-0.022,10.083
			c-0.001,1.48-0.001,2.829-0.003,3.935c-0.001,1.307-0.001,2.271-0.001,2.705c0,4.84-3.855,6.273-3.855,10.674
			c0,2.321,0.022,11.195,0.022,15.708c0,4.515,0.726,50.867,0.726,52.881c0,2.015,0.402,3.063,2.256,3.386
			c1.855,0.323,11.294,0.585,14.35-0.402C437.356,126.102,436.95,123.897,436.95,121.882z"/>
		<path fill="#E4A1BE" d="M141.057,312.894c-0.146-0.185-0.277-0.354-0.388-0.504c-1.237-1.699-1.226-2.897-1.226-4.996
			c0-0.378-0.007-0.954-0.018-1.652c-0.01-0.518-0.021-1.1-0.031-1.716c-0.064-3.165-0.164-7.176-0.164-7.444
			c0-0.508,0.396-0.314,0.396-0.76c0-0.397-0.021-0.74-0.021-1.048c0-0.585-0.355-0.355-0.355-0.753
			c0-0.666-0.109-0.988-0.544-1.132c-0.586-0.194-2.76-0.096-3.793-0.096s-1.732-0.072-1.732,1.166c0,0.459-0.337,0.313-0.355,0.745
			c-0.018,0.5-0.165,1.395,0.222,1.547c0.147,0.058,0.135,0.083,0.135,0.583c0,0.293-0.117,3.672-0.265,6.934
			c-0.025,0.579-0.053,1.155-0.079,1.71c-0.082,1.66-0.165,3.126-0.241,3.914c-0.209,2.215-0.449,3.031-1.781,4.363
			c-0.076,0.077-0.153,0.157-0.229,0.235c-1.75,1.844-3.046,4.338-3.302,7.626c-0.209,2.703,0.033,14.756,0.033,17.854
			s-0.133,18.219-0.133,19.552c0,1.332,0.053,4.166,2.495,4.565c2.044,0.335,10.533,0.449,12.859-0.103
			c2.451-0.582,2.766-2.765,2.766-4.264s-0.134-30.377,0.067-35.906C145.556,318.28,142.532,314.765,141.057,312.894z"/>
		<path fill="#FCE0EF" d="M167.237,360.113c0-1.31-0.709-42.18-0.851-43.585c-0.366-3.606-3.06-3.796-3.06-6.798
			c0-0.393-0.002-0.877-0.005-1.429c-0.005-0.739-0.012-1.6-0.022-2.53c-0.02-2.067-0.05-4.478-0.078-6.64
			c-0.043-3.211-0.08-5.877-0.08-6.065c0-0.421,0.549,0,0.549-0.88c0-0.524,0.02-0.873-0.026-1.86
			c-0.022-0.456-0.414-0.334-0.414-0.559c0-0.389,0.017-0.545-0.307-0.607c-1.584-0.307-4.06-0.198-5.159-0.096
			c-0.834,0.077-0.896,0.247-0.896,0.718s-0.429,0.122-0.429,1.012c0,0.601,0.005,0.954,0.005,1.273c0,0.588,0.128,0.749,0.45,0.832
			c0.207,0.053,0.156,0.821,0.138,1.279c-0.021,0.465-0.034,2.498-0.043,4.968c-0.008,2.101-0.011,4.515-0.015,6.549
			c0,0.96-0.002,1.835-0.002,2.554c0,0.85,0,1.476,0,1.757c0,3.144-2.503,4.075-2.503,6.933c0,1.507,0.012,7.271,0.012,10.201
			c0,2.932,0.473,33.032,0.473,34.34c0,1.309,0.262,1.99,1.465,2.199c1.205,0.209,7.335,0.38,9.318-0.261
			C167.501,362.854,167.237,361.421,167.237,360.113z"/>
		<path fill="#E8B3CD" d="M196.44,336.696c0-2.967-0.31-9.783-1.731-14.638c-0.633-2.154-1.367-4.257-2.034-6.229
			c-0.838-2.466-1.573-4.727-1.893-6.631c-0.041-0.22-0.076-0.469-0.111-0.737c-0.521-3.901-0.894-12.4-0.894-13.087
			c0-0.732,0.991-1.043,0.991-2.321c0-1.701-0.604-1.722-0.604-2.147c0-0.421,0.654-3.003-1.156-3.889
			c-1.81-0.885-5.663-0.614-6.315,0.924c-0.422,1.001-0.077,2.118-0.268,2.736c-0.195,0.615-0.656,0.296-0.656,1.923
			c0,1.579,0.885,1.464,0.885,2.505c0,0.891-0.31,9.967-0.885,14.041c-0.094,0.679-0.195,1.216-0.307,1.556
			c-0.314,0.973-1.049,2.922-1.871,5.204c-1.195,3.321-2.573,7.344-3.099,10.081c-0.885,4.621-0.77,29.46-0.577,31.654
			c0.194,2.197,0.577,4.932,2.428,5.662c1.848,0.733,14.248,0.848,16.134-0.231c1.887-1.076,2.003-5.431,2.003-8.354
			C196.479,351.79,196.44,339.658,196.44,336.696z"/>
		<path fill="#D375A6" d="M114.688,356.224c0-1.288,0.127-3.241,0.127-5.859c0-2.62-0.042-19.368-0.042-24.48
			s-2.059-5.922-3.035-6.898c-0.976-0.976-2.118-2.785-2.118-3.823c0-0.581-0.04-2.252-0.074-3.817
			c-0.027-1.234-0.052-2.402-0.052-2.916c0-1.029-0.649-2.417-0.8-3.44c-0.02-0.135-0.03-0.262-0.03-0.384
			c0-1.038,0.373-1.038,0.373-1.535c0-0.5-0.332-0.334-0.332-0.998c0-0.667,0.249-0.749,0.249-1.497
			c0-0.749-0.249-2.991-0.249-3.657s0.167-1.039-0.706-1.412c-0.873-0.376-3.899-0.407-5.04-0.07
			c-0.826,0.245-0.819,0.775-0.819,1.025v1.87c0,0.831-0.084,1.868-0.084,2.659c0,0.79,0.363,0.707,0.363,1.07
			s-0.467,0.467-0.467,0.946c0,0.477,0.561,0.561,0.561,1.31c0,0.237-0.051,0.516-0.125,0.824c-0.163,0.662-0.439,1.456-0.581,2.25
			c-0.121,0.676-0.187,2.61-0.267,4.359c-0.061,1.265-0.128,2.432-0.232,2.955c-0.25,1.246,0.123,2.827-1.454,3.823
			c-1.581,0.997-3.659,3.201-3.866,5.362c-0.209,2.161-0.041,11.056-0.041,14.961c0,3.908,0.208,14.382,0.208,16.335
			c0,1.954-0.249,1.538,0.04,4.987c0.293,3.449,4.365,3.657,8.396,3.657c3.547,0,7.669,0.437,9.352-1.663
			C115.278,360.501,114.688,357.513,114.688,356.224z"/>
		<rect x="479.996" y="351.753" fill="#E4A1BE" width="30.328" height="11.752"/>
		<rect x="479.996" y="367.736" fill="#E4A1BE" width="30.328" height="5.876"/>
		<rect x="773.877" y="174.997" fill="#F9D2E6" width="33.378" height="14.573"/>
		<rect x="938.062" y="32.086" fill="#E4A1BE" width="33.378" height="7.287"/>
		<ellipse fill="#E4A1BE" cx="954.75" cy="71.575" rx="11.752" ry="22.564"/>
		<rect x="840.162" y="243.645" fill="#F9D2E6" width="28.206" height="54.063"/>
		<rect x="734.855" y="423.696" fill="#FCE0EF" width="32.437" height="14.103"/>
		<rect x="56.488" y="419.938" fill="#FCE0EF" width="31.968" height="14.103"/>
		<rect x="56.488" y="575.072" fill="#FCE0EF" width="31.968" height="5.641"/>
		<rect x="56.488" y="564.73" fill="#FCE0EF" width="31.968" height="5.641"/>
		<rect x="56.488" y="554.389" fill="#FCE0EF" width="31.968" height="5.641"/>
		<rect x="230.521" y="30.871" fill="#FCE0EF" width="29.189" height="39.548"/>
		<rect x="230.521" y="170.231" fill="#FCE0EF" width="29.189" height="15.065"/>
		<rect x="230.521" y="159.873" fill="#FCE0EF" width="29.189" height="7.533"/>
		<rect x="466.988" y="568.538" fill="#F9D2E6" width="30.132" height="8.475"/>
		<rect x="473.712" y="451.821" fill="#F9D2E6" width="16.674" height="52.683"/>
		<rect x="15.997" y="271.361" fill="#E8B3CD" width="15.066" height="89.079"/>
		<rect x="572.312" y="566.188" fill="#E8B3CD" width="29.19" height="13.653"/>
		<rect x="572.312" y="551.979" fill="#E8B3CD" width="29.19" height="7.467"/>
		<rect x="344.927" y="89.13" fill="#F9C7E3" width="20.729" height="19.766"/>
		<path fill="#EFC0D5" d="M404.283,96.824c-0.229-0.403-2.819-0.61-6.235-0.671c-2.634-7.303-11.715-5.43-13.703,0.353
			c-2.591,0.187-4.404,0.432-4.526,0.703c-0.33,0.735-0.42,15.321,0.11,16.253c0.528,0.931,11.318,0.963,12.633,0.963
			s11.101-0.514,11.686-1.542C404.612,112.241,404.558,97.306,404.283,96.824z"/>
		<path fill="#E4A1BE" d="M99.37,345.808c2.014-1.275,11.283-2.132,13.139,0.486c0.563,0.795,1.594,7.017-1.357,7.771
			c-2.162,0.555-9.559,0.776-11.67-0.682C98.432,352.658,97.82,346.789,99.37,345.808z"/>
		<path fill="#E8B3CD" d="M104.485,344.261c0.528-1.229,2.987-0.816,2.987,0.826c0,1.389-1.321,1.65-2.19,1.381
			C104.411,346.197,103.958,345.49,104.485,344.261z"/>
		<path fill="#D375A6" d="M195.052,339.872c-0.216-0.2-3.971,0.058-4.155-0.113c-0.185-0.173-2.308-1.405-4.586-1.233
			c-2.277,0.172-4.093,1.462-4.339,1.462s-4.442-0.028-4.581,0.101c-0.138,0.129,0.026,10.047,0.118,10.133
			c0.093,0.086,3.247,0.13,3.54,0.401c0.292,0.272,3.293,1.52,5.354,1.52c2.063,0,5.048-1.262,5.509-1.462
			c0.462-0.201,3.065-0.229,3.297-0.444C195.439,350.021,195.437,340.231,195.052,339.872z"/>
		<g>
			<path fill="#FCE0EF" d="M142.215,317.11c-0.425-0.297-1.822-0.604-3.622-0.75c-1.008-1.505-3.311-1.205-4.156,0.134
				c-2.353,0.322-4.218,1.061-4.388,1.157c-0.406,0.237,0.515,2.491,0.76,2.637c0.19,0.105,1.961-0.462,3.965-0.596
				c0.916,0.874,2.385,0.729,3.398-0.026c1.932,0.106,3.513,0.453,3.635,0.386C142.12,319.885,142.662,317.419,142.215,317.11z"/>
		</g>
		<path fill="#E4A1BE" d="M103.079,318.613c-0.126,3.585-0.363,9.403-0.363,9.834l2.426-1.177l2.72,1.103l-0.349-9.99
			C106.056,318.421,104.548,318.5,103.079,318.613z"/>
		<rect x="154.826" y="336.513" fill="#EFCEE1" width="8.846" height="14.381"/>
		<rect x="420.299" y="79.886" fill="#E4A1BE" width="14.365" height="22.529"/>
		<path fill="#EFC0D5" d="M188.158,549.755c-0.198-0.348-2.442-0.527-5.4-0.58c-2.281-6.325-10.147-4.703-11.87,0.305
			c-2.243,0.162-3.814,0.375-3.92,0.61c-0.285,0.637-0.363,13.271,0.096,14.077c0.458,0.806,9.804,0.834,10.942,0.834
			s9.614-0.444,10.121-1.335C188.444,563.109,188.396,550.174,188.158,549.755z"/>
		<rect x="136.572" y="524.902" fill="#D88FB2" width="18.901" height="39.215"/>
	</g>
</g>
<g id="person_03">
	<path fill="#E7E2E1" d="M672.081,326.931l2.258,13.436l28.609-14.331l11.542-27.779l-13.629,23.254l-22.101,8.43L672.081,326.931
		c0.599-9.053-2.074-21.074-4.913-25.458l0.387-0.247l1.064-12.048l1.854-56.608l-8.56,54.027l-2.814,10.946
		c-10.607-3.942-28.012-9.816-28.012-9.816c2.594-6.057,5.291-56.117,25.872-96.061c0,2.49,26.469-15.095,26.469-15.095
		c22.671,22.669,43.396,67.787,55.911,94.633c-0.586,2.671-2.153,5.836-4.244,9.156c-2.682,4.254-6.248,8.753-9.738,12.683
		l-19.985-62.613l15.342,67.553c-0.063,0.066-0.116,0.117-0.18,0.183c0.726,2.49,1.439,6.51,2.139,11.542
		c3.918,28.169,7.251,88.045,7.251,88.045l-7.781,2.035c-19.078,0-98.887-3.487-105.242-5.057l-4.979,0.609l13.552-91.183
		C633.604,308.632,672.081,326.931,672.081,326.931z"/>
	<path fill="#C3B6B5" d="M720.714,297.983l-15.342-67.553l19.985,62.613C723.764,294.833,722.181,296.506,720.714,297.983z"/>
	<path fill="#A41D5E" d="M720.714,297.983c1.467-1.478,3.05-3.15,4.644-4.94c3.49-3.93,7.057-8.429,9.738-12.683
		c0,0,4.852,12.515,4.852,16.12c0,3.605-17.274,13.229-17.274,13.229c-0.699-5.032-1.413-9.052-2.139-11.542
		C720.598,298.101,720.65,298.05,720.714,297.983z"/>
	<path fill="#C16198" d="M721.52,406.74l0.623-6.952c-19.078,0-98.887-3.487-105.242-5.057l-0.642,5.816
		c23.661,4.137,77.362,11.822,107.33,15.585L721.52,406.74z"/>
	<path fill="#D276A6" d="M740.465,517.857l-16.876-101.725c-29.968-3.763-83.669-11.448-107.33-15.585l-28.097,254.881
		c11.231,5.304,49.02,12.464,61.236,8.261l18.916-186.321l22.084,60.408l48.695,127.246c11.114,2.427,52.281-18.445,56.472-26.001
		L740.465,517.857z"/>
	<polygon fill="#E7E2E1" points="714.49,298.256 702.948,326.035 674.339,340.366 672.081,326.931 678.761,329.939 700.861,321.51 	
		"/>
	<path fill="#1F2937" d="M690.471,116.993c0,0,8.275,20.076,3.101,29.374c-5.175,9.312-11.062,15.212-11.062,15.212
		c0-3.826,1.127-12.93,1.127-19.141c0-6.199-4.136-7.445-7.444-4.138c-3.306,3.307-3.929,8.897-3.929,8.897
		s-3.721-1.038-6.211-8.067c-2.478-7.029-19.027-11.996-22.748,4.137l-3.514,2.892c-1.973-1.958-9.521-13.644-2.905-23.37
		c6.626-9.727,18.622-20.478,34.962-16.34c0,0-0.906-6.834,4.552-8.689c4.332-1.479,11.997-2.075,16.756,2.685
		C700.275,107.577,695.075,114.049,690.471,116.993z"/>
	<path fill="#A41D5E" d="M682.51,161.579l0.919,14.993c0,0-26.469,17.585-26.469,15.095c0-6.237-0.62-15.095-0.62-15.095
		c-5.008,0.246-13.892-0.415-11.568-16.575c-2.905-1.452-5.396-3.904-5.396-3.904s3.929-10.141,3.929-12.826
		c3.721-16.133,20.271-11.167,22.748-4.137c2.49,7.029,6.211,8.067,6.211,8.067s0.623-5.59,3.929-8.897
		c3.309-3.307,7.444-2.062,7.444,4.138C683.637,148.648,682.51,157.753,682.51,161.579z"/>
	<path fill="#1F2937" d="M652.615,146.885c0-0.972-0.699-1.763-1.556-1.763c-0.855,0-1.557,0.791-1.557,1.763
		c0,0.973,0.701,1.764,1.557,1.764C651.916,148.648,652.615,147.857,652.615,146.885z"/>
	<path fill="#A41D5E" d="M667.168,301.473c2.839,4.384,5.512,16.405,4.913,25.458c0,0-38.478-18.299-46.608-22.772
		c0,0-5.578-2.841-9.468-5.435c-4.071,0.596-17.946,0.098-22.65-2.767c-2.216-1.347-16.942-17.28-16.398-18.991
		c1.103-3.541,26.611,5.222,32.239,5.222c5.615,0,21.893,5.539,21.893,5.539s17.404,5.874,28.012,9.816
		c3.334,1.245,6.006,2.296,7.263,2.918C666.636,300.733,666.894,301.07,667.168,301.473z"/>
	<path fill="#C3B6B5" d="M670.474,232.57l-1.854,56.608l-1.064,12.048l-0.387,0.247c-0.274-0.402-0.532-0.739-0.806-1.012
		c-1.257-0.622-3.929-1.673-7.263-2.918l2.814-10.946L670.474,232.57z"/>
	<g>
		<line fill="none" stroke="#1F2937" stroke-width="2" x1="648.765" y1="139.573" x2="655.171" y2="141.765"/>
		<path fill="none" stroke="#1F2937" stroke-width="2" d="M647.584,164.445c2.605,0.234,6.744-0.545,8.689-2.27"/>
	</g>
	
		<line fill="none" stroke="#E7E2E1" stroke-width="2" stroke-linecap="round" stroke-linejoin="round" x1="677.701" y1="152.478" x2="677.443" y2="156.336"/>
	<path fill="#A41D5E" d="M610.738,661.774c-1.196,6.401-4.136,20.867-6.728,23.465c-3.354,3.345-9.765,9.755-13.263,13.254
		c13.263,2.483,30.152,0.136,35.983-1.085c0.52-2.79,0.876-5.01,0.876-5.761c0-2.245,4.34-21.35,5.605-26.876
		C626.177,664.354,618.181,663.227,610.738,661.774z"/>
	<path fill="#1F2937" d="M565.262,714.658h57.977c0,0,2.222-10.345,3.493-17.25c-5.831,1.221-22.721,3.568-35.983,1.085
		C587.258,701.983,566.713,710.577,565.262,714.658z"/>
	<path fill="#A41D5E" d="M793.496,668.992l-10.53-20.167c-6.291,3.736-14.067,7.645-21.461,10.712l12.422,15.4
		c0,0-1.53,12.69-5.515,19.643c10.841-5.661,28.838-18.99,28.838-18.99L793.496,668.992z"/>
	<path fill="#1F2937" d="M797.25,675.59l8.357,14.691l-32.795,24.377h-19.881c5.059-6.575,10.441-11.313,15.48-20.078
		C779.253,688.919,797.25,675.59,797.25,675.59z"/>
	<line fill="none" stroke="#1F2937" stroke-width="2" x1="668.81" y1="477.368" x2="661.97" y2="442.203"/>
	<path fill="none" stroke="#1F2937" stroke-width="3" d="M685.109,107.783c8.046-7.335,20.959-6.938,20.959-6.938"/>
	<path fill="none" stroke="#1F2937" stroke-width="3" d="M681.648,90.011c1.893,4.299,2.234,9.802,1.203,13.929"/>
	<g>
		<g>
			<g>
				<path fill="#DBD6D5" d="M638.025,331.808c-1.836,1.779-9.913,13.822-10.62,21.515l41.439-28.873l-8.921,2.132
					c0.151,0.293,0.189,0.627,0.083,0.941c-0.232,0.674-1.06,0.998-1.845,0.728c-0.516-0.178-0.884-0.569-1.01-1.008l-6.457,1.54
					c0.066,0.354,0.049,0.72-0.076,1.072c-0.426,1.23-1.933,1.827-3.366,1.332c-0.684-0.237-1.226-0.678-1.563-1.209
					L638.025,331.808z"/>
				<path fill="#DBD6D5" d="M627.405,353.322c5.621,8.353,20.474,21.441,20.474,21.441l39.397-31.313l-5.775-5.951
					c-0.954,0.762-2.348,0.688-3.216-0.207c-0.869-0.896-0.9-2.291-0.109-3.223l-9.331-9.621L627.405,353.322z"/>
			</g>
			<g>
				
					<ellipse transform="matrix(-0.7178 0.6962 -0.6962 -0.7178 1351.3796 152.0059)" fill="#C3B6B5" cx="644.885" cy="349.865" rx="2.671" ry="2.472"/>
				<circle fill="#C3B6B5" cx="656.69" cy="346.802" r="1.236"/>
				<circle fill="#C3B6B5" cx="670.592" cy="341.148" r="1.116"/>
				<path fill="#C3B6B5" d="M655.609,340.018c1.103,1.138,2.921,1.166,4.059,0.062c1.139-1.104,1.165-2.92,0.06-4.059
					c-1.101-1.138-2.92-1.166-4.057-0.062C654.533,337.063,654.506,338.881,655.609,340.018z"/>
				<circle fill="#C3B6B5" cx="638.685" cy="342.318" r="1.2"/>
				<circle fill="#C3B6B5" cx="642.211" cy="335.488" r="2.254"/>
				<circle fill="#C3B6B5" cx="664.109" cy="352.103" r="0.798"/>
				<circle fill="#C3B6B5" cx="641.099" cy="363.426" r="3.349"/>
				<circle fill="#C3B6B5" cx="647.594" cy="362.735" r="1.395"/>
				<circle fill="#C3B6B5" cx="640.225" cy="357.716" r="0.399"/>
				<path fill="#C3B6B5" d="M657.942,366.306c-1.44-1.487-1.403-3.859,0.081-5.301c1.487-1.441,3.858-1.404,5.302,0.081
					c0.261,0.271,0.477,0.573,0.642,0.894l-5.758,4.574C658.12,366.477,658.028,366.393,657.942,366.306z"/>
				<circle fill="#C3B6B5" cx="677.617" cy="346.444" r="2.073"/>
				<path fill="#C3B6B5" d="M669.664,331.604c0.28,0.284,0.733,0.292,1.017,0.016s0.291-0.731,0.015-1.015
					c-0.275-0.284-0.729-0.291-1.013-0.015C669.396,330.864,669.389,331.318,669.664,331.604z"/>
				<circle fill="#C3B6B5" cx="668.418" cy="354.368" r="2.391"/>
			</g>
		</g>
		<g>
			<path fill="#EFC0D5" d="M665.111,360.984c0,0-1.023-31.692-0.674-34.682c0.384-3.285,2.527-5.747,4.288-6.339
				c3.563-1.202,8.308-0.06,10.321,1.46c2.014,1.522,3.244,4.104,2.83,7.66c-0.416,3.556-9.545,32.744-9.545,32.744L665.111,360.984
				z"/>
			<path fill="#967F7E" d="M670.358,319.579l-1.4-8.5l2.204,0.257l0.319,3.636l1.481,0.047l0.555-6.88l3.306,0.386l-0.577,6.01
				l3.303,0.388l-1.745,5.771C675.87,319.78,672.973,319.201,670.358,319.579z"/>
		</g>
		<g>
			<path fill="#DBD6D5" d="M706.725,295.262c2.612-12.821-1.186-20.062-7.43-21.333c-6.243-1.271-12.57,3.907-15.182,16.729
				l-19.319,94.862c7.549,1.659,15.016,3.516,22.434,5.479L706.725,295.262z"/>
			<g>
				<path fill="#C3B6B5" d="M686.553,290.974c0,0,0.382,6.225,4.06,11.784c3.678,5.557,9.256,8.343,9.256,8.343
					s-0.386-6.223-4.061-11.781C692.129,293.762,686.553,290.974,686.553,290.974z"/>
				<path fill="#C3B6B5" d="M681.365,316.44c0,0,0.385,6.224,4.06,11.782c3.678,5.558,9.256,8.346,9.256,8.346
					s-0.386-6.225-4.061-11.781C686.942,319.229,681.365,316.44,681.365,316.44z"/>
				<path fill="#C3B6B5" d="M676.18,341.908c0,0,0.383,6.224,4.061,11.781c3.675,5.558,9.256,8.345,9.256,8.345
					s-0.386-6.224-4.061-11.781C681.755,344.694,676.18,341.908,676.18,341.908z"/>
				<path fill="#C3B6B5" d="M670.992,367.374c0,0,0.383,6.225,4.061,11.782c3.678,5.559,9.255,8.345,9.255,8.345
					s-0.385-6.224-4.06-11.781C676.569,370.162,670.992,367.374,670.992,367.374z"/>
			</g>
			<g>
				<path fill="#CCCACA" d="M701.963,335.527l-2.859-4.477l-6.49,3.554l-3.981-6.238l-6.489,3.555l-3.985-6.238l-5.194,2.841
					l-12.156,59.7c9.405,3.497,18.811,7.214,28.215,10.838L701.963,335.527z"/>
			</g>
		</g>
		<g>
			<path fill="#E8B3CD" d="M668.021,372.053c0,0,1.022-31.692,0.673-34.683c-0.382-3.285-2.527-5.746-4.288-6.34
				c-3.563-1.201-8.308-0.059-10.321,1.462c-2.014,1.521-3.245,4.104-2.829,7.659c0.415,3.556,9.547,32.745,9.547,32.745
				L668.021,372.053z"/>
			<g>
				<path fill="#967F7E" d="M662.773,330.647l1.4-8.5l-2.204,0.257l-0.319,3.635l-1.481,0.049l-0.555-6.882l-3.304,0.386l0.576,6.01
					l-3.304,0.388l1.745,5.771C657.261,330.848,660.156,330.268,662.773,330.647z"/>
			</g>
		</g>
		<g>
			<g>
				<line fill="none" stroke="#3A312C" stroke-width="4" x1="611.551" y1="346.302" x2="656.743" y2="294.22"/>
				<line fill="none" stroke="#3A312C" stroke-width="4" x1="704.222" y1="346.141" x2="664.066" y2="297.472"/>
			</g>
			<g>
				<g>
					<path fill="#B7A6A5" d="M604.159,356.42c2.206,18.02,4.411,36.036,6.618,54.055c0.095,0.776,0.751,1.406,1.466,1.406h88.892
						c0.714,0,1.37-0.63,1.464-1.406c2.207-18.019,4.412-36.035,6.619-54.055H604.159z"/>
					<path fill="#C3B6B5" d="M715.119,355.015c0,0.776-0.629,1.405-1.404,1.405H599.663c-0.776,0-1.405-0.629-1.405-1.405v-12.64
						c0-0.776,0.629-1.404,1.405-1.404h114.052c0.775,0,1.404,0.628,1.404,1.404V355.015z"/>
				</g>
				<g>
					<g>
						<path fill="#967F7E" d="M625.028,369.89v27.729c0,2.718,2.202,4.92,4.92,4.92s4.922-2.202,4.922-4.92V369.89
							c0-2.718-2.204-4.92-4.922-4.92S625.028,367.172,625.028,369.89z"/>
					</g>
					<g>
						<path fill="#967F7E" d="M642.854,369.89v27.729c0,2.718,2.203,4.92,4.921,4.92s4.92-2.202,4.92-4.92V369.89
							c0-2.718-2.202-4.92-4.92-4.92S642.854,367.172,642.854,369.89z"/>
					</g>
					<g>
						<path fill="#967F7E" d="M660.681,369.89v27.729c0,2.718,2.203,4.92,4.921,4.92c2.717,0,4.919-2.202,4.919-4.92V369.89
							c0-2.718-2.202-4.92-4.919-4.92C662.884,364.97,660.681,367.172,660.681,369.89z"/>
					</g>
					<g>
						<path fill="#967F7E" d="M678.507,369.89v27.729c0,2.718,2.203,4.92,4.921,4.92c2.719,0,4.92-2.202,4.92-4.92V369.89
							c0-2.718-2.201-4.92-4.92-4.92C680.71,364.97,678.507,367.172,678.507,369.89z"/>
					</g>
				</g>
			</g>
		</g>
	</g>
	<g>
		
			<line fill="none" stroke="#1F2937" stroke-width="3" stroke-linecap="round" stroke-linejoin="round" x1="623.357" y1="306.264" x2="624.516" y2="278.385"/>
		
			<line fill="none" stroke="#C16198" stroke-width="3" stroke-linecap="round" stroke-linejoin="round" x1="629.538" y1="309.461" x2="631.571" y2="280.918"/>
		
			<line fill="none" stroke="#C3B6B5" stroke-width="4" stroke-linecap="round" stroke-linejoin="round" x1="635.908" y1="312.635" x2="641.164" y2="284.365"/>
	</g>
	<line fill="none" stroke="#1F2937" stroke-width="3" x1="650.799" y1="714.658" x2="559.243" y2="714.658"/>
	<line fill="none" stroke="#1F2937" stroke-width="3" x1="840.859" y1="714.658" x2="749.304" y2="714.658"/>
	<polygon fill="#E4A1BE" points="616.551,283.422 535.094,269.348 515.665,211.062 612.089,228.332 	"/>
	<polygon fill="#E8B3CD" points="542.689,260.512 552.623,261.908 541.563,227.063 530.477,223.874 	"/>
	<polygon fill="#D88FB2" points="612.787,236.954 616.551,283.422 612.079,282.649 612.079,282.649 620.003,284.323 
		636.216,240.685 	"/>
	<polygon fill="#E7E2E1" points="613.02,239.829 616.551,283.422 632.236,242.725 	"/>
	<g>
		<path fill="#E8B3CD" d="M585.057,245.726c-1.955-0.385-6.452-1.072-9.677-0.797c-1.431,0.123-2.829,0.318-4.142,0.487
			c-1.639,0.213-3.143,0.387-4.402,0.344c-0.146-0.002-0.311-0.012-0.488-0.024c-2.581-0.174-8.188-1.04-8.641-1.129
			c-0.482-0.094-0.67-0.765-1.513-0.931c-1.12-0.221-1.145,0.161-1.426,0.106c-0.277-0.055-1.967-0.806-2.583,0.231
			c-0.614,1.036-0.504,3.522,0.497,4.138c0.653,0.397,1.396,0.323,1.8,0.524c0.402,0.205,0.184,0.457,1.257,0.667
			c1.04,0.205,0.979-0.373,1.666-0.238c0.587,0.116,6.563,1.49,9.237,2.385c0.445,0.147,0.798,0.282,1.02,0.396
			c0.637,0.327,1.908,1.046,3.398,1.865c2.167,1.191,4.795,2.59,6.589,3.278c3.031,1.163,19.402,4.311,20.852,4.473
			c1.452,0.162,3.26,0.272,3.774-0.811c0.516-1.08,0.808-8.954,0.131-10.294c-0.678-1.339-3.545-1.978-5.473-2.357
			S587.01,246.11,585.057,245.726z"/>
		<path fill="#D375A6" d="M587.127,247.021c-0.136,0.111-0.032,2.534-0.147,2.629c-0.118,0.095-0.968,1.286-0.894,2.757
			c0.073,1.471,0.892,2.793,0.888,2.95c-0.006,0.157-0.097,2.823-0.015,2.928c0.083,0.104,6.622,1.286,6.68,1.239
			c0.059-0.048,0.144-2.049,0.327-2.201c0.183-0.15,1.059-1.897,1.095-3.209c0.036-1.312-0.742-3.375-0.867-3.694
			c-0.123-0.32-0.098-1.98-0.233-2.154C593.822,248.091,587.369,246.823,587.127,247.021z"/>
	</g>
</g>
</svg>
