<?xml version="1.0" encoding="utf-8"?>
<!-- Generator: Adobe Illustrator 12.0.0, SVG Export Plug-In . SVG Version: 6.00 Build 51448)  -->
<!DOCTYPE svg PUBLIC "-//W3C//DTD SVG 1.1//EN" "http://www.w3.org/Graphics/SVG/1.1/DTD/svg11.dtd" [
	<!ENTITY ns_flows "http://ns.adobe.com/Flows/1.0/">
	<!ENTITY ns_extend "http://ns.adobe.com/Extensibility/1.0/">
	<!ENTITY ns_ai "http://ns.adobe.com/AdobeIllustrator/10.0/">
	<!ENTITY ns_graphs "http://ns.adobe.com/Graphs/1.0/">
	<!ENTITY ns_svg "http://www.w3.org/2000/svg">
	<!ENTITY ns_xlink "http://www.w3.org/1999/xlink">
]>
<svg  version="1.1" id="Layer_1" xmlns:x="&ns_extend;" xmlns:i="&ns_ai;" xmlns:graph="&ns_graphs;"
	 xmlns="&ns_svg;" xmlns:xlink="&ns_xlink;" xmlns:a="http://ns.adobe.com/AdobeSVGViewerExtensions/3.0/"
	 width="79.594" height="79.827" viewBox="0 0 79.594 79.827" overflow="visible" enable-background="new 0 0 79.594 79.827"
	 xml:space="preserve">
<g>
	<g>
		<g>
			<path fill="#A41D5E" d="M44.416,1.406c-0.001,0.444,0.399,0.19,0.399,0.845c0,0.345,0.021,0.73,0.021,1.177
				c0.002,0.499-0.446,0.283-0.443,0.852c0,0.361,0.159,6.717,0.216,10.286c0.014,0.783,0.023,1.43,0.022,1.853
				c-0.002,0.857-0.003,1.581,0.062,2.247l-7.748-0.002c0.084-0.883,0.179-2.529,0.269-4.393c0.202-4.125,0.387-9.318,0.387-9.704
				c0.003-0.563,0.015-0.593-0.149-0.655c-0.434-0.172-0.271-1.176-0.248-1.737c0.02-0.486,0.396-0.32,0.397-0.838
				c0-1.388,0.785-1.307,1.944-1.309c1.158,0,3.602-0.109,4.258,0.108C44.294,0.297,44.415,0.658,44.416,1.406z"/>
			<path fill="#911657" d="M44.631,16.419c0.001-0.423-0.009-1.07-0.022-1.853c-0.005-0.368-0.013-0.768-0.021-1.186
				c-1.801,2.466-4.495,4.15-7.528,3.725c-0.041,0.636-0.077,1.172-0.115,1.559l7.748,0.002C44.628,18,44.629,17.276,44.631,16.419z
				"/>
			<path fill="#D276A6" d="M46.441,22.596c1.658,2.099,5.053,6.046,4.847,11.699c-0.224,6.208-0.075,38.631-0.075,40.313
				c0.002,1.686-0.352,4.137-3.104,4.787c-2.612,0.62-12.145,0.493-14.438,0.117c-2.744-0.449-2.804-3.633-2.801-5.129
				c-0.001-1.496,0.147-18.473,0.148-21.951c-0.001-3.478-0.273-17.008-0.038-20.044c0.288-3.691,1.743-6.491,3.708-8.56
				c0.082-0.089,0.169-0.178,0.258-0.267c1.494-1.493,1.765-2.413,1.998-4.898l7.748,0.002c0.114,1.164,0.428,2.151,1.316,3.366
				C46.133,22.201,46.28,22.389,46.441,22.596z"/>
			<path fill="#C16198" d="M44.693,18.666l-7.748-0.002c-0.193,2.051-0.412,3.035-1.322,4.155c3.108-0.741,6.501-1.67,9.702-1.896
				C44.946,20.167,44.77,19.456,44.693,18.666z"/>
			<path fill="#C16198" d="M37.266,77.116c-2.025-0.185-4.611-0.707-6.387-2.048c0.054,1.619,0.417,4.055,2.792,4.443
				c2.293,0.376,11.825,0.503,14.438-0.117c2.752-0.65,3.105-3.102,3.104-4.787c0-0.32-0.005-1.758-0.012-3.914
				C48.723,75.637,42.534,77.644,37.266,77.116z"/>
		</g>
	</g>
	<g id="XMLID_22_">
		<g>
			<path fill="#DBD6D5" d="M59.788,66.751h1.898c0.291,0,0.527,0.265,0.527,0.589v1.189c0,0.324-0.236,0.589-0.527,0.589H20.483
				c-0.293,0-0.529-0.265-0.529-0.589V67.34c0-0.324,0.236-0.589,0.529-0.589h1.898H59.788z"/>
			<path fill="#DBD6D5" d="M42.274,48.097V48.1c-0.395-0.029-0.789-0.04-1.189-0.04c-0.398,0-0.797,0.011-1.191,0.04v-0.003
				c0.26-1.649-0.242-2.788-0.377-3.196v-0.003c0.406-0.022,0.82-0.034,1.232-0.037c0.641-0.005,1.271,0.011,1.9,0.048
				C42.514,45.32,42.014,46.447,42.274,48.097z"/>
			<path fill="#C3B6B5" d="M42.282,46.211c0.107-0.63,0.293-1.075,0.367-1.303c-0.629-0.037-1.26-0.053-1.9-0.048
				c-0.412,0.003-0.826,0.015-1.232,0.037V44.9c0.061,0.186,0.197,0.524,0.305,0.992C40.674,45.785,41.506,45.866,42.282,46.211z"/>
			<path fill="#C3B6B5" d="M42.202,47.129c-0.746,0.209-1.492,0.301-2.238,0.192c-0.008,0.245-0.027,0.501-0.07,0.775V48.1
				c0.395-0.029,0.793-0.04,1.191-0.04c0.4,0,0.795,0.011,1.189,0.04v-0.003C42.219,47.75,42.2,47.428,42.202,47.129z"/>
			<path fill="#DBD6D5" d="M59.788,66.751H22.381c0.006-9.923,7.742-18.04,17.512-18.651c0.395-0.029,0.793-0.04,1.191-0.04
				c0.4,0,0.795,0.011,1.189,0.04C52.045,48.711,59.782,56.824,59.788,66.751z"/>
			<path fill="#CEC7C6" d="M59.788,66.751c-0.002-4.009-1.266-7.72-3.414-10.763c1.359,7.012-24.5,13.13-33.613,7.029
				c-0.246,1.207-0.377,2.455-0.379,3.733H59.788z"/>
		</g>
		<g>
			<path fill="none" stroke="#C3B6B5" stroke-miterlimit="10" d="M44.278,45.053c-0.539-0.063-1.08-0.109-1.629-0.145
				c-0.629-0.037-1.26-0.053-1.9-0.048c-0.412,0.003-0.826,0.015-1.232,0.037c-0.549,0.025-1.09,0.07-1.625,0.129"/>
		</g>
	</g>
	<path fill="none" stroke="#1F2937" stroke-linecap="square" stroke-linejoin="bevel" stroke-miterlimit="10" d="M35.82,56.604
		C14.822,51.896-0.852,42.79,0.592,36.02c1.104-5.183,11.925-7.526,26.401-6.427"/>
	<path fill="none" stroke="#1F2937" stroke-linecap="square" stroke-linejoin="bevel" stroke-miterlimit="10" d="M51.293,34.083
		c17.093,4.988,28.974,12.717,27.709,18.65c-0.795,3.727-6.613,5.985-15.2,6.552"/>
	<path fill="none" stroke="#DBD6D5" d="M22.439,26.779c2.296-2.02,5.555-4.084,9.492-5.994"/>
	<path fill="none" stroke="#DBD6D5" d="M47.991,15.06c13.612-3.377,25.054-2.671,26.429,1.916
		c1.511,5.039-9.703,12.853-25.046,17.453c-15.343,4.6-29.006,4.243-30.517-0.796"/>
</g>
</svg>
