<?xml version="1.0" encoding="utf-8"?>
<!-- Generator: Adobe Illustrator 12.0.0, SVG Export Plug-In . SVG Version: 6.00 Build 51448)  -->
<!DOCTYPE svg PUBLIC "-//W3C//DTD SVG 1.1//EN" "http://www.w3.org/Graphics/SVG/1.1/DTD/svg11.dtd" [
	<!ENTITY ns_flows "http://ns.adobe.com/Flows/1.0/">
	<!ENTITY ns_extend "http://ns.adobe.com/Extensibility/1.0/">
	<!ENTITY ns_ai "http://ns.adobe.com/AdobeIllustrator/10.0/">
	<!ENTITY ns_graphs "http://ns.adobe.com/Graphs/1.0/">
	<!ENTITY ns_svg "http://www.w3.org/2000/svg">
	<!ENTITY ns_xlink "http://www.w3.org/1999/xlink">
]>
<svg  version="1.1" id="Layer_1" xmlns:x="&ns_extend;" xmlns:i="&ns_ai;" xmlns:graph="&ns_graphs;"
	 xmlns="&ns_svg;" xmlns:xlink="&ns_xlink;" xmlns:a="http://ns.adobe.com/AdobeSVGViewerExtensions/3.0/"
	 width="320" height="282.344" viewBox="0 0 320 282.344" overflow="visible" enable-background="new 0 0 320 282.344"
	 xml:space="preserve">
<g>
	<g id="XMLID_7_">
		<g>
			<path fill="#DBD6D5" d="M310.827,132.214h7.181c1.098,0,1.992,1.001,1.992,2.227v4.496c0,1.226-0.895,2.227-1.992,2.227H162.24
				c-1.108,0-2.003-1.001-2.003-2.227v-4.496c0-1.226,0.895-2.227,2.003-2.227h7.181H310.827z"/>
			<path fill="#DBD6D5" d="M244.62,61.691v0.011c-1.491-0.107-2.983-0.149-4.496-0.149s-3.016,0.042-4.506,0.149v-0.011
				c0.979-6.232-0.917-10.538-1.429-12.082v-0.01c1.545-0.085,3.101-0.128,4.667-0.14c2.418-0.021,4.806,0.044,7.181,0.181
				C245.526,51.197,243.639,55.459,244.62,61.691z"/>
			<path fill="#C3B6B5" d="M244.65,54.564c0.406-2.38,1.104-4.065,1.387-4.923c-2.375-0.137-4.763-0.202-7.181-0.181
				c-1.566,0.012-3.122,0.054-4.667,0.14v0.01c0.232,0.703,0.751,1.983,1.155,3.751C238.571,52.956,241.719,53.264,244.65,54.564z"
				/>
			<path fill="#C3B6B5" d="M244.348,58.036c-2.823,0.792-5.645,1.137-8.468,0.728c-0.023,0.922-0.101,1.896-0.263,2.928v0.011
				c1.49-0.107,2.993-0.149,4.506-0.149s3.005,0.042,4.496,0.149v-0.011C244.414,60.381,244.339,59.165,244.348,58.036z"/>
			<path fill="#DBD6D5" d="M310.827,132.214H169.42c0.021-37.514,29.269-68.199,66.197-70.511c1.49-0.107,2.993-0.149,4.506-0.149
				s3.005,0.042,4.496,0.149C281.558,64.015,310.805,94.689,310.827,132.214z"/>
			<path fill="#CEC7C6" d="M310.827,132.214c-0.008-15.152-4.786-29.183-12.906-40.686c5.137,26.506-92.625,49.635-127.074,26.574
				c-0.927,4.56-1.423,9.278-1.426,14.112H310.827z"/>
		</g>
		<g>
			<path fill="none" stroke="#C3B6B5" stroke-width="4" stroke-miterlimit="10" d="M252.195,50.185
				c-2.035-0.234-4.08-0.415-6.158-0.544c-2.375-0.137-4.763-0.202-7.181-0.181c-1.566,0.012-3.122,0.054-4.667,0.14
				c-2.066,0.096-4.112,0.266-6.137,0.489"/>
		</g>
	</g>
	<g>
		<g>
			<path fill="#A41D5E" d="M47.908,4.977c-0.004,1.57,1.416,0.67,1.413,2.986c0,1.223,0.077,2.583,0.075,4.163
				c0.007,1.763-1.575,1.003-1.567,3.013c-0.003,1.278,0.564,23.756,0.766,36.378c0.045,2.773,0.081,5.061,0.075,6.555
				c-0.007,3.03-0.009,5.595,0.221,7.945l-27.404-0.004c0.292-3.125,0.628-8.95,0.949-15.541
				c0.716-14.591,1.371-32.958,1.369-34.321c0.006-1.992,0.052-2.097-0.529-2.319c-1.534-0.606-0.959-4.159-0.876-6.142
				c0.064-1.721,1.4-1.134,1.403-2.963c0-4.911,2.777-4.623,6.875-4.631C34.779,0.098,43.419-0.29,45.742,0.48
				C47.475,1.051,47.906,2.328,47.908,4.977z"/>
			<path fill="#911657" d="M48.669,58.073c0.006-1.494-0.029-3.782-0.075-6.555c-0.021-1.302-0.046-2.712-0.073-4.19
				c-6.367,8.719-15.899,14.678-26.63,13.169c-0.14,2.25-0.277,4.144-0.406,5.517l27.404,0.004
				C48.66,63.667,48.662,61.103,48.669,58.073z"/>
			<path fill="#D276A6" d="M55.075,79.921c5.864,7.427,17.868,21.387,17.141,41.379c-0.791,21.96-0.26,136.634-0.26,142.584
				c0.001,5.961-1.251,14.631-10.982,16.932c-9.243,2.192-42.957,1.743-51.068,0.414C0.202,279.642-0.008,268.384,0,263.092
				c-0.003-5.29,0.521-65.34,0.524-77.642c-0.004-12.301-0.968-60.155-0.134-70.894c1.02-13.054,6.165-22.962,13.108-30.278
				c0.301-0.313,0.603-0.626,0.917-0.94c5.289-5.281,6.241-8.533,7.071-17.324l27.404,0.004c0.401,4.116,1.515,7.609,4.653,11.903
				C53.984,78.524,54.502,79.19,55.075,79.921z"/>
			<path fill="#C16198" d="M48.89,66.018l-27.404-0.004c-0.685,7.251-1.458,10.734-4.675,14.696
				c10.991-2.625,22.99-5.91,34.316-6.709C49.784,71.331,49.163,68.816,48.89,66.018z"/>
			<path fill="#C16198" d="M22.62,272.759c-7.163-0.651-16.309-2.501-22.587-7.242c0.188,5.725,1.474,14.338,9.872,15.714
				c8.111,1.329,41.825,1.778,51.068-0.414c9.731-2.301,10.983-10.971,10.982-16.932c0-1.133-0.02-6.217-0.046-13.846
				C63.145,267.523,41.253,274.622,22.62,272.759z"/>
		</g>
	</g>
	<g>
		<polygon fill="#E7E2E1" points="244.222,233.028 244.222,274.677 192.176,274.677 192.176,233.028 200.188,233.028 
			236.079,233.028 		"/>
	</g>
	<g>
		<path fill="#DBD6D5" d="M244.222,233.028h-8.144h-35.891h-8.012v10.2c19.874,5.979,43.506,12.068,49.539,31.448h2.507V233.028z"/>
	</g>
	<g>
		<path fill="#C16198" d="M200.565,228.418c-1.222,2.785-1.994,4.61-1.994,4.61h36.875l0.372-5.815
			C224.123,230.119,212.235,230.76,200.565,228.418z"/>
		<path fill="#D276A6" d="M309.883,140.146c-21.126,0-33.862,20.787-52.521,37.577l7.948-37.577
			c-17.503,0-18.035,28.881-21.171,35.493c-0.532,1.132-2.786,2.934-5.774,5.106c-4.256,0.011-6.747-1.279-10.224-4.415
			c-3.486-3.125-5.128-10.326-7.562-21.455c-2.446-11.129-10.653-14.729-18.624-14.729c0,0,7.743,28.53,6.702,35.493
			c-1.042,6.951-7.789,25.134-1.982,39.342v0.013c-2.322,4.867-4.574,9.911-6.111,13.424c11.67,2.342,23.558,1.701,35.253-1.205
			l0.317-4.962L309.883,140.146z"/>
		<path fill="#C16198" d="M238.366,180.746c-2.391,0.007-4.222-0.417-5.985-1.328c-3.921,5.05-6.869,10.443-10.735,14.223
			c0,0,18.888-10.503,21.483-16.716c0.002-0.004,0.004-0.01,0.006-0.014C242.093,177.955,240.41,179.26,238.366,180.746z"/>
	</g>
	<polygon fill="#1F2937" points="180.662,168.596 141.979,168.596 141.979,129.914 124.849,129.914 124.849,168.596 86.168,168.596 
		86.168,185.725 124.849,185.725 124.849,224.407 141.979,224.407 141.979,185.725 180.662,185.725 	"/>
</g>
</svg>
