<?xml version="1.0" encoding="utf-8"?>
<!-- Generator: Adobe Illustrator 12.0.0, SVG Export Plug-In . SVG Version: 6.00 Build 51448)  -->
<!DOCTYPE svg PUBLIC "-//W3C//DTD SVG 1.1//EN" "http://www.w3.org/Graphics/SVG/1.1/DTD/svg11.dtd" [
	<!ENTITY ns_flows "http://ns.adobe.com/Flows/1.0/">
	<!ENTITY ns_extend "http://ns.adobe.com/Extensibility/1.0/">
	<!ENTITY ns_ai "http://ns.adobe.com/AdobeIllustrator/10.0/">
	<!ENTITY ns_graphs "http://ns.adobe.com/Graphs/1.0/">
	<!ENTITY ns_svg "http://www.w3.org/2000/svg">
	<!ENTITY ns_xlink "http://www.w3.org/1999/xlink">
]>
<svg  version="1.1" id="Layer_1" xmlns:x="&ns_extend;" xmlns:i="&ns_ai;" xmlns:graph="&ns_graphs;"
	 xmlns="&ns_svg;" xmlns:xlink="&ns_xlink;" xmlns:a="http://ns.adobe.com/AdobeSVGViewerExtensions/3.0/"
	 width="280.859" height="320" viewBox="0 0 280.859 320" overflow="visible" enable-background="new 0 0 280.859 320"
	 xml:space="preserve">
<g>
	<g>
		<path fill="#DBD6D5" d="M47.178,258.732l-20.329,4.514l7.404,39.318l14.973-4.098C51.053,285.222,50.211,271.977,47.178,258.732z"
			/>
		<path fill="#C3B6B5" d="M51.076,257.866l-3.897,0.866c3.033,13.244,3.875,26.489,2.048,39.734l8.818-2.411L51.076,257.866z"/>
		<polygon fill="#DBD6D5" points="77.402,290.585 78.35,295.581 58.865,300.527 58.045,296.056 51.076,257.866 50.678,255.712 
			70.164,252.484 70.573,254.636 		"/>
		<path fill="#D276A6" d="M200.441,293.955c0,0,17.667,0,24.01,0c9.493,0,17.254,4.842,10.234,7.917
			c-7.033,3.087-24.942,8.828-24.942,8.828s16.885,9.3,6.854,9.3c-7.047,0-43.649,0-59.677,0c-16.026,0-45.966-22.076-49.527-23.268
			c-1.922-0.64-29.248-6.276-29.992-6.147l-6.829-35.949l15.977-2.638c0,0,94.752-0.257,99.954-0.257
			c5.2,0-3.831,10.621-11.031,12.606c-7.201,2-32.079,6.046-32.079,6.046l12.401,12.403l20.523,7.892
			c0,0,28.273-17.769,34.705-21.959c9.52-6.188,18.975-4.331,13.081,1.563C219.363,275.032,207.54,286.857,200.441,293.955z"/>
		<path fill="#C16198" d="M186.451,303.793h15.076l12.824-9.838c-6.812,0-13.91,0-13.91,0c-3.356,3.356-5.648,5.65-5.648,5.65
			L186.451,303.793z"/>
	</g>
	<g>
		<g>
			<polygon fill="#DBD6D5" points="137.997,33.98 215.09,111.073 214.761,111.404 214.761,222.229 115.987,222.229 61.243,222.229 
				61.243,111.404 60.916,111.073 			"/>
		</g>
		<polygon fill="#C3B6B5" points="61.243,129.82 137.997,53.057 214.761,129.82 214.761,111.404 215.09,111.073 137.997,33.98 
			60.916,111.073 61.243,111.404 		"/>
		<path fill="#A41D5E" d="M173.41,116.622c-8.119-8.118-21.286-8.118-29.406,0l-6,6.003L132,116.622
			c-8.12-8.118-21.284-8.118-29.403,0c-8.12,8.122-8.12,21.286,0,29.407l35.408,35.407l35.406-35.407
			C181.53,137.908,181.53,124.744,173.41,116.622z"/>
		<g>
			<g>
				<polyline fill="none" stroke="#1F2937" stroke-width="4" stroke-linejoin="bevel" stroke-miterlimit="10" points="
					38.62,133.363 138.001,33.979 237.386,133.363 				"/>
				<g>
					<polyline fill="none" stroke="#1F2937" stroke-width="4" stroke-linejoin="bevel" stroke-miterlimit="10" points="
						115.983,222.227 115.983,198.104 95.731,177.852 					"/>
					<polyline fill="none" stroke="#1F2937" stroke-width="4" stroke-linejoin="bevel" stroke-miterlimit="10" points="
						162.671,222.227 162.671,199.899 184.165,178.404 					"/>
				</g>
			</g>
			<circle fill="none" stroke="#1F2937" stroke-width="4" stroke-miterlimit="10" cx="188.897" cy="173.314" r="6.909"/>
			<circle fill="none" stroke="#1F2937" stroke-width="4" stroke-miterlimit="10" cx="90.71" cy="172.937" r="6.91"/>
			
				<line fill="none" stroke="#1F2937" stroke-width="4" stroke-linejoin="bevel" stroke-miterlimit="10" x1="138.004" y1="181.436" x2="138.004" y2="222.229"/>
		</g>
	</g>
	<g>
		<path fill="#E7E2E1" d="M259.962,10.038c-2.865,0-5.595,0.578-8.079,1.62C247.246,4.637,239.287,0,230.244,0
			c-11.648,0-21.498,7.681-24.766,18.255c-1.101-0.223-2.237-0.34-3.404-0.34c-9.367,0-16.958,7.592-16.958,16.958
			c0,9.367,7.591,16.96,16.958,16.96c4.884,0,52.522,0,57.888,0c11.54,0,20.897-9.355,20.897-20.897
			C280.859,19.395,271.502,10.038,259.962,10.038z"/>
		<path fill="#DBD6D5" d="M232.583,29.401c-5.821,18.085-30.967,20.433-46.54,10.967c2.285,6.667,8.591,11.464,16.031,11.464
			c4.884,0,52.522,0,57.888,0c11.54,0,20.897-9.355,20.897-20.897c0-2.425-0.435-4.741-1.193-6.905
			C274.15,44.711,244.273,41.091,232.583,29.401z"/>
	</g>
	<g>
		<path fill="#E7E2E1" d="M55.902,53.792c-2.14,0-4.179,0.432-6.034,1.21c-3.463-5.245-9.408-8.708-16.163-8.708
			c-8.7,0-16.056,5.738-18.495,13.635c-0.823-0.166-1.673-0.255-2.544-0.255C5.671,59.675,0,65.346,0,72.342
			c0,6.995,5.671,12.667,12.667,12.667c3.649,0,39.228,0,43.235,0c8.621,0,15.607-6.988,15.607-15.609
			C71.509,60.78,64.523,53.792,55.902,53.792z"/>
		<path fill="#DBD6D5" d="M3.141,80.67c2.32,2.654,5.723,4.338,9.526,4.338c3.649,0,39.228,0,43.235,0
			c8.621,0,15.607-6.988,15.607-15.609c0-1.011-0.104-1.998-0.287-2.956C52.928,82.064,27.092,85.721,3.141,80.67z"/>
	</g>
</g>
</svg>
