<?xml version="1.0" encoding="utf-8"?>
<!-- Generator: Adobe Illustrator 12.0.0, SVG Export Plug-In . SVG Version: 6.00 Build 51448)  -->
<!DOCTYPE svg PUBLIC "-//W3C//DTD SVG 1.1//EN" "http://www.w3.org/Graphics/SVG/1.1/DTD/svg11.dtd" [
	<!ENTITY ns_flows "http://ns.adobe.com/Flows/1.0/">
	<!ENTITY ns_extend "http://ns.adobe.com/Extensibility/1.0/">
	<!ENTITY ns_ai "http://ns.adobe.com/AdobeIllustrator/10.0/">
	<!ENTITY ns_graphs "http://ns.adobe.com/Graphs/1.0/">
	<!ENTITY ns_svg "http://www.w3.org/2000/svg">
	<!ENTITY ns_xlink "http://www.w3.org/1999/xlink">
]>
<svg  version="1.1" id="Layer_1" xmlns:x="&ns_extend;" xmlns:i="&ns_ai;" xmlns:graph="&ns_graphs;"
	 xmlns="&ns_svg;" xmlns:xlink="&ns_xlink;" xmlns:a="http://ns.adobe.com/AdobeSVGViewerExtensions/3.0/" width="80" height="80"
	 viewBox="0 0 80 80" overflow="visible" enable-background="new 0 0 80 80" xml:space="preserve">
<g>
	<g>
		<path fill="#DBD6D5" d="M18.901,64.531l-5.132,1.141l1.869,9.926l3.781-1.034C19.88,71.219,19.667,67.875,18.901,64.531z"/>
		<path fill="#C3B6B5" d="M19.884,64.313l-0.983,0.219c0.766,3.344,0.979,6.688,0.519,10.032l2.226-0.609L19.884,64.313z"/>
		<polygon fill="#DBD6D5" points="26.532,72.574 26.771,73.835 21.852,75.084 21.645,73.954 19.884,64.313 19.785,63.77 
			24.705,62.954 24.807,63.498 		"/>
		<path fill="#D276A6" d="M57.596,73.424c0,0,4.459,0,6.061,0c2.396,0,4.355,1.223,2.584,2c-1.775,0.779-6.297,2.229-6.297,2.229
			S64.207,80,61.674,80c-1.779,0-11.02,0-15.066,0c-4.045,0-11.604-5.573-12.503-5.874c-0.485-0.162-7.384-1.585-7.572-1.552
			l-1.725-9.076l4.034-0.666c0,0,23.922-0.064,25.235-0.064s-0.967,2.681-2.785,3.182c-1.818,0.505-8.1,1.527-8.1,1.527l3.131,3.131
			l5.184,1.992c0,0,7.137-4.486,8.76-5.544c2.404-1.562,4.791-1.093,3.303,0.396C62.373,68.646,59.387,71.633,57.596,73.424z"/>
		<path fill="#C16198" d="M54.063,75.908h3.807l3.238-2.484c-1.721,0-3.512,0-3.512,0c-0.848,0.848-1.426,1.428-1.426,1.428
			L54.063,75.908z"/>
	</g>
	<g>
		<g>
			<polygon fill="#DBD6D5" points="41.83,5.134 61.293,24.598 61.209,24.681 61.209,52.661 36.273,52.661 22.453,52.661 
				22.453,24.681 22.37,24.598 			"/>
		</g>
		<polygon fill="#C3B6B5" points="22.453,29.331 41.83,9.951 61.209,29.331 61.209,24.681 61.293,24.598 41.83,5.134 22.37,24.598 
			22.453,24.681 		"/>
		<path fill="#A41D5E" d="M50.771,25.999c-2.051-2.049-5.375-2.049-7.424,0l-1.516,1.516l-1.516-1.516
			c-2.05-2.049-5.374-2.049-7.424,0c-2.05,2.051-2.05,5.375,0,7.424l8.94,8.939l8.939-8.939
			C52.82,31.373,52.82,28.049,50.771,25.999z"/>
		<g>
			<g>
				<polyline fill="none" stroke="#1F2937" stroke-linejoin="bevel" stroke-miterlimit="10" points="16.741,30.225 41.832,5.134 
					66.922,30.225 				"/>
				<g>
					<polyline fill="none" stroke="#1F2937" stroke-linejoin="bevel" stroke-miterlimit="10" points="36.272,52.66 36.272,46.569 
						31.16,41.457 					"/>
					<polyline fill="none" stroke="#1F2937" stroke-linejoin="bevel" stroke-miterlimit="10" points="48.061,52.66 48.061,47.023 
						53.484,41.597 					"/>
				</g>
			</g>
			<circle fill="none" stroke="#1F2937" stroke-miterlimit="10" cx="54.681" cy="40.312" r="1.745"/>
			<circle fill="none" stroke="#1F2937" stroke-miterlimit="10" cx="29.892" cy="40.216" r="1.745"/>
			
				<line fill="none" stroke="#1F2937" stroke-linejoin="bevel" stroke-miterlimit="10" x1="41.832" y1="42.361" x2="41.832" y2="52.661"/>
		</g>
	</g>
	<g>
		<path fill="#E7E2E1" d="M75.25,2.281c-0.65,0-1.271,0.131-1.836,0.368C72.361,1.054,70.553,0,68.496,0
			c-2.646,0-4.885,1.746-5.627,4.148c-0.25-0.05-0.51-0.077-0.773-0.077c-2.129,0-3.854,1.726-3.854,3.854
			c0,2.129,1.725,3.854,3.854,3.854c1.109,0,11.936,0,13.154,0c2.623,0,4.75-2.126,4.75-4.749S77.873,2.281,75.25,2.281z"/>
		<path fill="#DBD6D5" d="M69.027,6.682c-1.322,4.11-7.037,4.644-10.576,2.492c0.52,1.515,1.953,2.605,3.645,2.605
			c1.109,0,11.936,0,13.154,0c2.623,0,4.75-2.126,4.75-4.749c0-0.551-0.1-1.077-0.271-1.569
			C78.475,10.161,71.686,9.338,69.027,6.682z"/>
	</g>
	<g>
		<path fill="#E7E2E1" d="M12.704,11.822c-0.486,0-0.95,0.098-1.371,0.275c-0.787-1.192-2.138-1.979-3.673-1.979
			c-1.978,0-3.649,1.304-4.203,3.099c-0.188-0.038-0.381-0.058-0.578-0.058C1.289,13.159,0,14.447,0,16.037
			c0,1.59,1.289,2.879,2.879,2.879c0.829,0,8.914,0,9.825,0c1.959,0,3.547-1.588,3.547-3.547S14.663,11.822,12.704,11.822z"/>
		<path fill="#DBD6D5" d="M0.714,17.93c0.527,0.603,1.301,0.986,2.165,0.986c0.829,0,8.914,0,9.825,0
			c1.959,0,3.547-1.588,3.547-3.547c0-0.23-0.024-0.454-0.065-0.672C12.027,18.247,6.156,19.078,0.714,17.93z"/>
	</g>
</g>
</svg>
