<?xml version="1.0" encoding="UTF-8" standalone="no"?>
<!-- Created with Inkscape (http://www.inkscape.org/) -->

<svg
   width="100"
   height="100"
   viewBox="0 0 26.458334 26.458334"
   version="1.1"
   id="svg5423"
   xml:space="preserve"
   inkscape:version="1.2.1 (9c6d41e, 2022-07-14)"
   sodipodi:docname="logo_maroon.svg"
   inkscape:export-filename="socials_rose.svg"
   inkscape:export-xdpi="491.51999"
   inkscape:export-ydpi="491.51999"
   xmlns:inkscape="http://www.inkscape.org/namespaces/inkscape"
   xmlns:sodipodi="http://sodipodi.sourceforge.net/DTD/sodipodi-0.dtd"
   xmlns="http://www.w3.org/2000/svg"
   xmlns:svg="http://www.w3.org/2000/svg"><sodipodi:namedview
     id="namedview5425"
     pagecolor="#ffffff"
     bordercolor="#000000"
     borderopacity="0.25"
     inkscape:showpageshadow="2"
     inkscape:pageopacity="0.0"
     inkscape:pagecheckerboard="0"
     inkscape:deskcolor="#d1d1d1"
     inkscape:document-units="mm"
     showgrid="false"
     inkscape:zoom="8.0959377"
     inkscape:cx="45.887211"
     inkscape:cy="46.319526"
     inkscape:window-width="1728"
     inkscape:window-height="1080"
     inkscape:window-x="0"
     inkscape:window-y="25"
     inkscape:window-maximized="0"
     inkscape:current-layer="layer4"
     showguides="true" /><defs
     id="defs5420" /><g
     inkscape:groupmode="layer"
     id="layer4"
     inkscape:label="socials"><circle
       style="display:inline;fill:none;fill-opacity:1;stroke:#a51c5e;stroke-width:2.90709;stroke-dasharray:none;stroke-opacity:1"
       id="path256-7-3-4"
       cx="15.741108"
       cy="10.460455"
       r="8.9243984" /><path
       style="display:inline;fill:#85174c;fill-opacity:1;stroke:none;stroke-width:2.0756;stroke-dasharray:none;stroke-opacity:1"
       d="m 21.938726,10.407434 c 0,0 -0.02352,6.226774 -6.226768,6.226774 -6.2031552,0 -6.2267672,-6.226774 -6.2267672,-6.226774 0,0 2.5937492,-2.0975252 6.2267672,0 3.633015,2.097536 6.226768,0 6.226768,0 z"
       id="path1070-8-8-2-4"
       sodipodi:nodetypes="czczc" /><path
       style="display:inline;fill:#bf216d;fill-opacity:1;stroke:none;stroke-width:2.0756;stroke-dasharray:none;stroke-opacity:1"
       d="m 9.5143388,10.46042 c 0,0 0.02352,6.226768 6.2267652,6.226768 6.203158,0 6.226768,-6.226768 6.226768,-6.226768 0,0 -2.593738,-2.0975216 -6.226768,0 -3.633018,2.097522 -6.2267652,0 -6.2267652,0 z"
       id="path1070-4-6-4"
       sodipodi:nodetypes="czczc" /><rect
       style="display:inline;fill:#a51c5e;fill-opacity:1;stroke:none;stroke-width:17.8256;stroke-dasharray:none;stroke-opacity:1"
       id="rect2698-9-5"
       width="12.156425"
       height="3.1816461"
       x="-17.504333"
       y="17.520149"
       transform="rotate(-45)"
       ry="1.5908231" /><circle
       style="display:inline;fill:none;fill-opacity:1;stroke:#a51c5e;stroke-width:2.90709;stroke-dasharray:none;stroke-opacity:1"
       id="circle17473-7"
       cx="15.741108"
       cy="10.460455"
       r="8.9243984" /><path
       style="display:inline;fill:#85174c;fill-opacity:1;stroke:none;stroke-width:2.0756;stroke-dasharray:none;stroke-opacity:1"
       d="m 21.938726,10.407434 c 0,0 -0.02352,6.226774 -6.226768,6.226774 -6.2031552,0 -6.2267672,-6.226774 -6.2267672,-6.226774 0,0 2.5937492,-2.0975252 6.2267672,0 3.633015,2.097536 6.226768,0 6.226768,0 z"
       id="path17475-6"
       sodipodi:nodetypes="czczc" /><path
       style="display:inline;fill:#bf216d;fill-opacity:1;stroke:none;stroke-width:2.0756;stroke-dasharray:none;stroke-opacity:1"
       d="m 9.5143388,10.46042 c 0,0 0.02352,6.226768 6.2267652,6.226768 6.203158,0 6.226768,-6.226768 6.226768,-6.226768 0,0 -2.593738,-2.0975216 -6.226768,0 -3.633018,2.097522 -6.2267652,0 -6.2267652,0 z"
       id="path17477-7"
       sodipodi:nodetypes="czczc" /><rect
       style="display:inline;fill:#a51c5e;fill-opacity:1;stroke:none;stroke-width:17.8256;stroke-dasharray:none;stroke-opacity:1"
       id="rect17479-7"
       width="12.156425"
       height="3.1816461"
       x="-17.504333"
       y="17.520149"
       transform="rotate(-45)"
       ry="1.5908231" /></g></svg>
