<?xml version="1.0" encoding="UTF-8" standalone="no"?>
<!-- Created with Inkscape (http://www.inkscape.org/) -->

<svg
   width="194.03557"
   height="36.717083"
   viewBox="0 0 51.338579 9.7147284"
   version="1.1"
   id="svg5423"
   xml:space="preserve"
   xmlns="http://www.w3.org/2000/svg"
   xmlns:svg="http://www.w3.org/2000/svg"><defs
     id="defs5420" /><g
     id="g17483"
     transform="translate(49.494946,-20.30325)"><path
       d="m -46.657268,28.082882 c -0.398384,0 -0.76738,-0.03591 -1.110253,-0.111027 -0.342872,-0.07184 -0.643294,-0.182866 -0.901265,-0.323281 -0.257971,-0.143678 -0.460429,-0.320014 -0.607374,-0.532269 -0.146945,-0.212254 -0.218786,-0.460428 -0.218786,-0.737992 0,-0.02613 0,-0.05551 0.0066,-0.0849 0.0032,-0.02613 0.0098,-0.05224 0.01633,-0.07184 h 1.53803 c 0,0.0066 -0.0032,0.01959 -0.0066,0.04246 -0.0032,0.02285 -0.0066,0.03918 -0.0066,0.05225 0.0066,0.166538 0.07184,0.300422 0.192661,0.401651 0.120828,0.101228 0.284096,0.173069 0.480023,0.218786 0.199192,0.04571 0.411447,0.06857 0.633498,0.06857 0.202457,0 0.401651,-0.01305 0.600843,-0.04246 0.199193,-0.02613 0.362465,-0.08164 0.493084,-0.163272 0.130617,-0.08164 0.192661,-0.195927 0.192661,-0.349405 0,-0.166537 -0.07837,-0.293891 -0.235112,-0.375526 -0.156742,-0.0849 -0.372262,-0.150211 -0.643295,-0.199193 -0.271032,-0.04899 -0.581251,-0.104498 -0.930654,-0.166538 -0.280829,-0.04899 -0.548596,-0.111028 -0.809832,-0.189396 -0.261237,-0.0751 -0.493083,-0.176335 -0.695542,-0.297157 -0.202457,-0.120826 -0.362465,-0.277563 -0.480021,-0.470225 -0.117557,-0.192662 -0.176335,-0.43104 -0.176335,-0.718399 0,-0.300422 0.06857,-0.558393 0.205724,-0.773913 0.137148,-0.21552 0.326545,-0.39512 0.571454,-0.535534 0.24491,-0.140415 0.532269,-0.241643 0.868611,-0.310219 0.336341,-0.06531 0.702072,-0.09796 1.100457,-0.09796 0.362466,0 0.702073,0.03266 1.015557,0.09796 0.313483,0.06532 0.591045,0.166539 0.83269,0.297156 0.241644,0.133884 0.427774,0.293891 0.564922,0.486553 0.13715,0.192663 0.202459,0.414713 0.202459,0.666153 0,0.03592 -0.0032,0.06857 -0.0066,0.104498 -0.0032,0.03592 -0.0066,0.05879 -0.0066,0.07184 h -1.538029 v -0.06204 c 0,-0.133884 -0.04899,-0.241643 -0.146945,-0.32328 -0.09796,-0.0849 -0.228582,-0.146945 -0.391854,-0.192661 -0.163274,-0.04571 -0.349405,-0.06857 -0.558393,-0.06857 -0.111028,0 -0.235113,0.0066 -0.372262,0.01959 -0.137149,0.01305 -0.264501,0.03918 -0.388589,0.07184 -0.120826,0.03592 -0.222051,0.0849 -0.297156,0.146945 -0.07837,0.06204 -0.114286,0.14368 -0.114286,0.241643 0,0.133884 0.06857,0.235114 0.205723,0.303688 0.137149,0.06857 0.316749,0.124087 0.545332,0.166538 0.225316,0.04246 0.470225,0.09143 0.728195,0.146945 0.306953,0.04899 0.607374,0.107757 0.904531,0.17307 0.297156,0.06532 0.564923,0.156742 0.806567,0.271032 0.241643,0.114286 0.431039,0.277564 0.574719,0.486553 0.14368,0.208988 0.215521,0.486552 0.215521,0.826159 0,0.342873 -0.06857,0.630233 -0.205725,0.86861 -0.137148,0.238378 -0.333076,0.42451 -0.584515,0.564925 -0.254706,0.140413 -0.555128,0.241642 -0.904531,0.303686 -0.355935,0.06532 -0.737993,0.09796 -1.159236,0.09796 z"
       id="path17447"
       style="display:inline;fill:#ebebeb;fill-opacity:1;stroke-width:0.326545" /><path
       d="M -36.904003,27.986866 V 22.46825 h 1.266995 l 0.114286,0.849019 h 0.0849 c 0.153476,-0.222052 0.336342,-0.408182 0.545331,-0.548596 0.208989,-0.140415 0.434306,-0.248175 0.679214,-0.320015 0.244909,-0.06857 0.493083,-0.104498 0.744523,-0.104498 0.43104,0 0.800036,0.07837 1.100458,0.235112 0.300422,0.156742 0.522472,0.401651 0.669419,0.737994 h 0.0849 c 0.160007,-0.222052 0.346139,-0.408182 0.555127,-0.548597 0.208988,-0.140414 0.440837,-0.248175 0.692277,-0.320015 0.251439,-0.06857 0.506145,-0.104498 0.764115,-0.104498 0.417978,0 0.777178,0.07184 1.074334,0.218785 0.297157,0.146946 0.522472,0.372262 0.679214,0.679215 0.156742,0.306953 0.235113,0.702073 0.235113,1.182094 v 3.559345 h -1.538028 v -3.298109 c 0,-0.195927 -0.02613,-0.362466 -0.07184,-0.502879 -0.04899,-0.140415 -0.117556,-0.251441 -0.202457,-0.336342 -0.08817,-0.0849 -0.195927,-0.146946 -0.323281,-0.189397 -0.130618,-0.04245 -0.271032,-0.06204 -0.424508,-0.06204 -0.238379,0 -0.453899,0.05879 -0.649826,0.173069 -0.195927,0.114285 -0.352668,0.271033 -0.470225,0.46696 -0.117556,0.195927 -0.176335,0.424508 -0.176335,0.692276 v 3.056465 h -1.547819 v -3.298109 c 0,-0.195927 -0.02286,-0.362466 -0.06857,-0.502879 -0.04571,-0.140415 -0.114286,-0.251441 -0.202459,-0.336342 -0.09143,-0.0849 -0.199193,-0.146946 -0.32328,-0.189397 -0.124087,-0.04245 -0.267767,-0.06204 -0.427775,-0.06204 -0.238376,0 -0.453896,0.05879 -0.653089,0.173069 -0.199194,0.114285 -0.355935,0.271033 -0.470226,0.466959 -0.114286,0.195928 -0.173069,0.424509 -0.173069,0.692277 v 3.056465 h -1.567417 z"
       id="path17449"
       style="display:inline;fill:#ebebeb;fill-opacity:1;stroke-width:0.326545" /><path
       d="M -26.895389,27.986866 V 22.46825 h 1.266995 l 0.114286,0.849019 h 0.0849 c 0.153476,-0.222052 0.336342,-0.408182 0.545331,-0.548596 0.208988,-0.143681 0.434305,-0.248175 0.679214,-0.320015 0.244909,-0.06857 0.493083,-0.104498 0.744523,-0.104498 0.43104,0 0.800036,0.07837 1.100458,0.235112 0.30042,0.156742 0.522474,0.401651 0.669417,0.737994 h 0.08491 c 0.160012,-0.222052 0.346136,-0.408182 0.555117,-0.548597 0.208998,-0.14368 0.440853,-0.248175 0.692281,-0.320015 0.251441,-0.06857 0.506152,-0.104498 0.764122,-0.104498 0.417982,0 0.77718,0.07184 1.074335,0.218785 0.297156,0.146946 0.522469,0.372262 0.679211,0.679215 0.156741,0.306953 0.235112,0.702073 0.235112,1.182094 v 3.559345 h -1.538032 v -3.298109 c 0,-0.195927 -0.02616,-0.362466 -0.07183,-0.502879 -0.049,-0.140415 -0.117618,-0.251441 -0.202456,-0.336342 -0.08491,-0.0849 -0.195927,-0.146946 -0.323283,-0.189397 -0.127344,-0.04245 -0.271028,-0.06204 -0.424498,-0.06204 -0.238384,0 -0.453898,0.05879 -0.649837,0.173069 -0.195927,0.114285 -0.352669,0.271033 -0.470222,0.46696 -0.117618,0.195927 -0.176337,0.424508 -0.176337,0.692276 v 3.056465 h -1.547831 v -3.298109 c 0,-0.195927 -0.02286,-0.362466 -0.06857,-0.502879 -0.04571,-0.140415 -0.114285,-0.251441 -0.202458,-0.336342 -0.08817,-0.0849 -0.199194,-0.146946 -0.32328,-0.189397 -0.124088,-0.04245 -0.267768,-0.06204 -0.427775,-0.06204 -0.238377,0 -0.453897,0.05879 -0.65309,0.173069 -0.199193,0.114285 -0.355935,0.271033 -0.470225,0.466959 -0.114286,0.195928 -0.173069,0.424509 -0.173069,0.692277 v 3.056465 h -1.567418 z"
       id="path17451"
       style="display:inline;fill:#ebebeb;fill-opacity:1;stroke-width:0.326545" /><path
       d="m -16.88678,21.642091 v -1.234342 h 1.547831 v 1.234342 z m 0,6.344775 V 22.46825 h 1.547831 v 5.515352 h -1.547831 z"
       id="path17453"
       style="display:inline;fill:#ebebeb;fill-opacity:1;stroke-width:0.326545" /><path
       d="m -5.9181148,22.46825 -2.0833575,5.130027 c -0.1469547,0.355935 -0.2971675,0.68248 -0.4539093,0.973106 -0.1567417,0.293891 -0.3395989,0.548597 -0.5453256,0.764117 -0.2057265,0.218784 -0.4538969,0.385323 -0.7412529,0.502879 -0.2906259,0.120826 -0.6335079,0.1796 -1.0318909,0.1796 -0.238371,0 -0.440827,-0.01633 -0.613897,-0.05225 -0.169812,-0.03591 -0.300426,-0.07184 -0.391855,-0.104499 v -0.995963 h 0.711867 c 0.238371,0 0.437569,-0.03918 0.597581,-0.114298 0.16,-0.07837 0.293885,-0.182864 0.401642,-0.313483 0.1077439,-0.133883 0.1991969,-0.284094 0.2677689,-0.450633 L -11.71756,23.630741 h -0.70208 v 4.356114 h -1.547819 v -4.356109 h -0.963307 v -1.162501 h 0.963307 v -0.499614 c 0,-0.342873 0.06208,-0.64003 0.189399,-0.89147 0.124085,-0.251439 0.313483,-0.4441 0.568183,-0.57472 0.254711,-0.133883 0.577982,-0.199191 0.969836,-0.199191 0.124098,0 0.254712,0.0066 0.391855,0.01959 0.137155,0.01633 0.271039,0.03592 0.404924,0.06531 0.130614,0.02613 0.2449,0.05879 0.34287,0.09143 v 0.986165 h -0.617168 c -0.251441,0 -0.43104,0.04246 -0.538809,0.130619 -0.107745,0.0849 -0.163271,0.225316 -0.163271,0.411447 v 0.460428 h 1.854786 l 1.0351499,2.58624 c 0.05554,0.120826 0.117618,0.267766 0.1795986,0.4441 0.06208,0.179601 0.1273434,0.362467 0.1926566,0.545333 0.065288,0.18613 0.1208269,0.352669 0.1632707,0.496347 h 0.07183 c 0.022832,-0.06204 0.048998,-0.15021 0.084912,-0.271032 0.035914,-0.117556 0.075162,-0.251439 0.1240852,-0.398385 0.048998,-0.146945 0.1012033,-0.290625 0.1534835,-0.437571 0.052206,-0.146946 0.097994,-0.277563 0.1404134,-0.388588 l 0.9012651,-2.576444 z"
       id="path17455"
       style="display:inline;fill:#ebebeb;fill-opacity:1;stroke-width:0.326545" /><circle
       style="display:inline;fill:none;fill-opacity:1;stroke:#ebebeb;stroke-width:0.838574;stroke-dasharray:none;stroke-opacity:1"
       id="circle17465"
       cx="-40.475925"
       cy="25.242296"
       r="2.574317" /><path
       style="display:inline;fill:#b1b1b1;fill-opacity:1;stroke:none;stroke-width:0.598724;stroke-dasharray:none;stroke-opacity:1"
       d="m -38.688173,25.227003 c 0,0 -0.0067,1.796164 -1.796163,1.796164 -1.789352,0 -1.796164,-1.796164 -1.796164,-1.796164 0,0 0.74819,-0.605049 1.796164,0 1.047973,0.605052 1.796163,0 1.796163,0 z"
       id="path17467" /><path
       style="display:inline;fill:#ffffff;fill-opacity:1;stroke:none;stroke-width:0.598724;stroke-dasharray:none;stroke-opacity:1"
       d="m -42.272091,25.242289 c 0,0 0.0067,1.796162 1.796162,1.796162 1.789353,0 1.796163,-1.796162 1.796163,-1.796162 0,0 -0.748185,-0.605048 -1.796163,0 -1.047975,0.605048 -1.796162,0 -1.796162,0 z"
       id="path17469" /><rect
       style="opacity:1;fill:#ebebeb;fill-opacity:1;stroke:none;stroke-width:5.14192;stroke-dasharray:none;stroke-opacity:1"
       id="rect17471"
       width="3.5066221"
       height="0.91777223"
       x="-52.596172"
       y="-11.062326"
       transform="rotate(-45)"
       ry="0.45888612" /><path
       d="m -5.9587986,28.025767 h -0.5822708 l 2.9219403,-7.262503 h 0.8257649 l 2.92194158,7.262503 H -0.48545416 L -1.3323929,25.929594 h -3.7900538 z m 7.8024265,0 H 1.2719456 V 20.763264 H 1.8436279 Z M -3.8520363,22.78533 -4.910712,25.421429 h 3.3665833 l -1.0586721,-2.636099 -0.095279,-0.25408 a 64.452609,64.452609 0 0 0 -0.059599,-0.158379 q -0.030706,-0.0812 -0.065214,-0.171823 a 114.06864,114.06864 0 0 0 -0.0234,-0.06151 Q -2.9309828,21.917214 -3.020974,21.684308 -3.110959,21.4514 -3.1850678,21.25025 h -0.08469 a 26.920389,26.920389 0 0 1 -0.06003,0.161237 q -0.026893,0.07157 -0.056859,0.15033 a 50.172578,50.172578 0 0 1 -0.063091,0.164835 q -0.1058693,0.275256 -0.2117353,0.555804 -0.098883,0.261917 -0.1792349,0.473122 a 123.16943,123.16943 0 0 1 -0.011355,0.02975 z"
       vector-effect="non-scaling-stroke"
       id="path17481"
       style="font-size:12px;fill:#ebebeb;fill-opacity:1;fill-rule:evenodd;stroke-width:0.0264669mm;stroke-linecap:round" /></g></svg>
