<?xml version="1.0" encoding="UTF-8" standalone="no"?>
<!-- Created with Inkscape (http://www.inkscape.org/) -->

<svg
   width="157.2173"
   height="29.750017"
   viewBox="0 0 41.597078 7.8713589"
   version="1.1"
   id="svg5423"
   xml:space="preserve"
   xmlns="http://www.w3.org/2000/svg"
   xmlns:svg="http://www.w3.org/2000/svg"><defs
     id="defs5420" /><g
     id="g18456"
     transform="translate(44.500139,-20.281089)"><path
       d="m -42.20091,26.584537 c -0.322791,0 -0.62177,-0.0291 -0.899583,-0.08996 -0.277812,-0.05821 -0.521229,-0.148167 -0.73025,-0.261938 -0.209021,-0.116416 -0.373062,-0.259291 -0.492125,-0.431271 -0.119062,-0.171979 -0.177271,-0.373062 -0.177271,-0.597958 0,-0.02117 0,-0.04498 0.0053,-0.06879 0.0026,-0.02117 0.0079,-0.04233 0.01323,-0.05821 h 1.246188 c 0,0.0053 -0.0026,0.01588 -0.0053,0.0344 -0.0026,0.01852 -0.0053,0.03175 -0.0053,0.04233 0.0053,0.134938 0.05821,0.243417 0.156104,0.325438 0.0979,0.08202 0.230188,0.140229 0.388938,0.177271 0.161396,0.03704 0.333375,0.05556 0.513292,0.05556 0.164041,0 0.325437,-0.01058 0.486833,-0.0344 0.161396,-0.02117 0.293687,-0.06615 0.399521,-0.132291 0.105833,-0.06615 0.156104,-0.15875 0.156104,-0.283105 0,-0.134937 -0.0635,-0.238125 -0.1905,-0.30427 -0.127,-0.06879 -0.301625,-0.121709 -0.521229,-0.161396 -0.219604,-0.03969 -0.470959,-0.08467 -0.754063,-0.134938 -0.227541,-0.03969 -0.4445,-0.08996 -0.656166,-0.153458 -0.211667,-0.06085 -0.399521,-0.142875 -0.563563,-0.240771 -0.164041,-0.0979 -0.293687,-0.224896 -0.388937,-0.381 -0.09525,-0.156104 -0.142875,-0.34925 -0.142875,-0.582083 0,-0.243417 0.05556,-0.452438 0.166687,-0.627063 0.111125,-0.174625 0.264584,-0.320146 0.463021,-0.433916 0.198438,-0.113771 0.431271,-0.195792 0.703792,-0.251355 0.27252,-0.05292 0.568854,-0.07937 0.891645,-0.07937 0.293688,0 0.568855,0.02646 0.822855,0.07937 0.254,0.05292 0.478895,0.134938 0.674687,0.240771 0.195792,0.108479 0.346604,0.238125 0.457729,0.394229 0.111125,0.156105 0.164042,0.336021 0.164042,0.53975 0,0.02911 -0.0026,0.05556 -0.0053,0.08467 -0.0026,0.0291 -0.0053,0.04763 -0.0053,0.05821 h -1.246188 v -0.05027 c 0,-0.10848 -0.03969,-0.195792 -0.119062,-0.261938 -0.07937,-0.06879 -0.185209,-0.119062 -0.3175,-0.156104 -0.132292,-0.03704 -0.283105,-0.05556 -0.452438,-0.05556 -0.08996,0 -0.1905,0.0053 -0.301625,0.01588 -0.111125,0.01058 -0.214312,0.03175 -0.314854,0.05821 -0.0979,0.0291 -0.179917,0.06879 -0.240771,0.119062 -0.0635,0.05027 -0.0926,0.116417 -0.0926,0.195792 0,0.108479 0.05556,0.1905 0.166687,0.246062 0.111125,0.05556 0.256646,0.100542 0.441855,0.134938 0.182562,0.0344 0.381,0.07408 0.59002,0.119062 0.248709,0.03969 0.492125,0.08731 0.732896,0.14023 0.240771,0.05292 0.457729,0.127 0.653521,0.219604 0.195792,0.0926 0.34925,0.224896 0.465667,0.394229 0.116416,0.169333 0.174625,0.394229 0.174625,0.669396 0,0.277812 -0.05556,0.510646 -0.166688,0.703791 -0.111125,0.193146 -0.269875,0.343959 -0.473604,0.45773 -0.206375,0.11377 -0.449792,0.195791 -0.732896,0.246062 -0.288396,0.05292 -0.597958,0.07937 -0.939271,0.07937 z"
       id="path18436"
       style="display:inline;fill:#ffa9a9;fill-opacity:1;stroke-width:0.264583" /><path
       d="m -34.298328,26.50674 v -4.471458 h 1.026583 l 0.0926,0.687917 h 0.06879 c 0.124354,-0.179917 0.272521,-0.330729 0.441854,-0.4445 0.169333,-0.113771 0.351896,-0.201084 0.550333,-0.259292 0.198438,-0.05556 0.399521,-0.08467 0.60325,-0.08467 0.34925,0 0.648229,0.0635 0.891646,0.1905 0.243417,0.127 0.423333,0.325438 0.542396,0.597959 h 0.06879 c 0.129646,-0.179917 0.280459,-0.330729 0.449792,-0.4445 0.169333,-0.113771 0.357188,-0.201084 0.560917,-0.259292 0.203729,-0.05556 0.410104,-0.08467 0.619125,-0.08467 0.338666,0 0.629708,0.05821 0.870479,0.177271 0.240771,0.119063 0.423333,0.301625 0.550333,0.550334 0.127,0.248708 0.1905,0.568854 0.1905,0.957791 v 2.883959 h -1.246187 v -2.672292 c 0,-0.15875 -0.02117,-0.293688 -0.05821,-0.407458 -0.03969,-0.113771 -0.09525,-0.20373 -0.164041,-0.272521 -0.07144,-0.06879 -0.15875,-0.119063 -0.261938,-0.153459 -0.105833,-0.03439 -0.219604,-0.05027 -0.343958,-0.05027 -0.193146,0 -0.367771,0.04763 -0.526521,0.140229 -0.15875,0.0926 -0.28575,0.219604 -0.381,0.378354 -0.09525,0.15875 -0.142875,0.343958 -0.142875,0.560917 v 2.4765 h -1.254125 v -2.672292 c 0,-0.15875 -0.01852,-0.293688 -0.05556,-0.407458 -0.03704,-0.113771 -0.0926,-0.20373 -0.164042,-0.272521 -0.07408,-0.06879 -0.161396,-0.119063 -0.261937,-0.153459 -0.100542,-0.03439 -0.216959,-0.05027 -0.346605,-0.05027 -0.193145,0 -0.36777,0.04763 -0.529166,0.140229 -0.161396,0.0926 -0.288396,0.219604 -0.381,0.378354 -0.0926,0.15875 -0.140229,0.343958 -0.140229,0.560917 v 2.4765 h -1.27 z"
       id="path18438"
       style="display:inline;fill:#ffa9a9;fill-opacity:1;stroke-width:0.264583" /><path
       d="m -26.188849,26.50674 v -4.471458 h 1.026583 l 0.0926,0.687917 h 0.06879 c 0.124354,-0.179917 0.272521,-0.330729 0.441854,-0.4445 0.169333,-0.116417 0.351896,-0.201084 0.550333,-0.259292 0.198438,-0.05556 0.399521,-0.08467 0.60325,-0.08467 0.34925,0 0.648229,0.0635 0.891646,0.1905 0.243415,0.127 0.423335,0.325438 0.542395,0.597959 h 0.0688 c 0.12965,-0.179917 0.280457,-0.330729 0.449784,-0.4445 0.16934,-0.116417 0.3572,-0.201084 0.56092,-0.259292 0.20373,-0.05556 0.41011,-0.08467 0.61913,-0.08467 0.33867,0 0.62971,0.05821 0.87048,0.177271 0.24077,0.119063 0.42333,0.301625 0.55033,0.550334 0.127,0.248708 0.1905,0.568854 0.1905,0.957791 v 2.883959 h -1.24619 v -2.672292 c 0,-0.15875 -0.0212,-0.293688 -0.0582,-0.407458 -0.0397,-0.113771 -0.0953,-0.20373 -0.16404,-0.272521 -0.0688,-0.06879 -0.15875,-0.119063 -0.26194,-0.153459 -0.10318,-0.03439 -0.2196,-0.05027 -0.34395,-0.05027 -0.19315,0 -0.36777,0.04763 -0.52653,0.140229 -0.15875,0.0926 -0.28575,0.219604 -0.380997,0.378354 -0.0953,0.15875 -0.142877,0.343958 -0.142877,0.560917 v 2.4765 h -1.25413 v -2.672292 c 0,-0.15875 -0.01852,-0.293688 -0.05556,-0.407458 -0.03704,-0.113771 -0.0926,-0.20373 -0.164042,-0.272521 -0.07144,-0.06879 -0.161396,-0.119063 -0.261937,-0.153459 -0.100542,-0.03439 -0.216959,-0.05027 -0.346605,-0.05027 -0.193145,0 -0.36777,0.04763 -0.529166,0.140229 -0.161396,0.0926 -0.288396,0.219604 -0.381,0.378354 -0.0926,0.15875 -0.140229,0.343958 -0.140229,0.560917 v 2.4765 h -1.27 z"
       id="path18440"
       style="display:inline;fill:#ffa9a9;fill-opacity:1;stroke-width:0.264583" /><path
       d="m -18.079374,21.365886 v -1.000125 h 1.25413 v 1.000125 z m 0,5.140854 v -4.471458 h 1.25413 v 4.468813 h -1.25413 z"
       id="path18442"
       style="display:inline;fill:#ffa9a9;fill-opacity:1;stroke-width:0.264583" /><path
       d="m -9.1920137,22.035282 -1.6880403,4.156604 c -0.11907,0.288396 -0.24078,0.552979 -0.36778,0.788459 -0.127,0.238125 -0.27516,0.4445 -0.44185,0.619125 -0.16669,0.17727 -0.36777,0.312208 -0.6006,0.407458 -0.23548,0.0979 -0.5133,0.145521 -0.83609,0.145521 -0.19314,0 -0.35718,-0.01323 -0.49741,-0.04233 -0.13759,-0.0291 -0.24342,-0.05821 -0.3175,-0.08467 V 27.21847 h 0.57679 c 0.19314,0 0.35454,-0.03175 0.48419,-0.09261 0.12964,-0.0635 0.23812,-0.148166 0.32543,-0.254 0.0873,-0.108479 0.1614,-0.230187 0.21696,-0.365125 l -1.5531,-3.529541 h -0.56886 v 3.529541 h -1.25412 v -3.529541 h -0.78052 v -0.941917 h 0.78052 v -0.404812 c 0,-0.277813 0.0503,-0.518584 0.15346,-0.722313 0.10054,-0.203729 0.254,-0.359833 0.46037,-0.465667 0.20638,-0.108479 0.46831,-0.161395 0.78581,-0.161395 0.10055,0 0.20638,0.0053 0.3175,0.01588 0.11113,0.01323 0.21961,0.0291 0.32809,0.05292 0.10583,0.02117 0.19843,0.04763 0.27781,0.07408 v 0.799041 h -0.50006 c -0.20373,0 -0.34925,0.0344 -0.43657,0.105834 -0.0873,0.06879 -0.13229,0.182562 -0.13229,0.333375 v 0.373062 h 1.50284 l 0.83873,2.0955 c 0.045,0.0979 0.0953,0.216958 0.14552,0.359833 0.0503,0.145521 0.10318,0.293688 0.1561,0.441855 0.0529,0.150812 0.0979,0.28575 0.13229,0.402166 h 0.0582 c 0.0185,-0.05027 0.0397,-0.121708 0.0688,-0.219604 0.0291,-0.09525 0.0609,-0.203729 0.10054,-0.322792 0.0397,-0.119062 0.082,-0.235479 0.12436,-0.354541 0.0423,-0.119063 0.0794,-0.224896 0.11377,-0.314854 l 0.73025,-2.087563 z"
       id="path18444"
       style="display:inline;fill:#ffa9a9;fill-opacity:1;stroke-width:0.264583" /><circle
       style="display:inline;fill:none;fill-opacity:1;stroke:#ffa9a9;stroke-width:0.679455;stroke-dasharray:none;stroke-opacity:1"
       id="circle18446"
       cx="-37.192478"
       cy="24.282953"
       r="2.0858402" /><path
       style="display:inline;fill:#ff7b7b;fill-opacity:1;stroke:none;stroke-width:0.485116;stroke-dasharray:none;stroke-opacity:1"
       d="m -35.743952,24.270561 c 0,0 -0.0055,1.455342 -1.455341,1.455342 -1.449822,0 -1.455341,-1.455342 -1.455341,-1.455342 0,0 0.60622,-0.490241 1.455341,0 0.849121,0.490243 1.455341,0 1.455341,0 z"
       id="path18448" /><path
       style="display:inline;fill:#ffcece;fill-opacity:1;stroke:none;stroke-width:0.485116;stroke-dasharray:none;stroke-opacity:1"
       d="m -38.647821,24.282946 c 0,0 0.0055,1.455341 1.45534,1.455341 1.449823,0 1.455341,-1.455341 1.455341,-1.455341 0,0 -0.606217,-0.49024 -1.455341,0 -0.849121,0.49024 -1.45534,0 -1.45534,0 z"
       id="path18450" /><rect
       style="opacity:1;fill:#ffa9a9;fill-opacity:1;stroke:none;stroke-width:4.16624;stroke-dasharray:none;stroke-opacity:1"
       id="rect18452"
       width="2.8412404"
       height="0.74362493"
       x="-48.433586"
       y="-9.3638105"
       transform="rotate(-45)"
       ry="0.37181246" /><path
       d="m -9.2249777,26.53826 h -0.471785 l 2.367502,-5.884444 h 0.669076 l 2.367503,5.884444 h -0.497519 l -0.686232,-1.698425 h -3.070891 z m 6.321916,0 h -0.463206 v -5.884444 h 0.463206 z m -4.614912,-4.246064 -0.857792,2.135899 h 2.727774 l -0.857789,-2.135899 -0.0772,-0.205869 a 52.222724,52.222724 0 0 0 -0.04829,-0.128326 q -0.02488,-0.06579 -0.05284,-0.13922 a 92.42411,92.42411 0 0 0 -0.01896,-0.04984 q -0.06862,-0.180137 -0.141535,-0.36885 -0.07291,-0.188713 -0.132957,-0.351695 h -0.06862 a 21.812244,21.812244 0 0 1 -0.04864,0.130642 q -0.02179,0.05799 -0.04607,0.121805 a 40.652329,40.652329 0 0 1 -0.05112,0.133558 q -0.08578,0.223026 -0.171558,0.45034 -0.08012,0.212218 -0.145225,0.383347 a 99.798022,99.798022 0 0 1 -0.0092,0.02411 z"
       vector-effect="non-scaling-stroke"
       id="path18454"
       style="font-size:12px;fill:#ffa9a9;fill-opacity:1;fill-rule:evenodd;stroke-width:0.0214448mm;stroke-linecap:round" /></g></svg>
