<?xml version="1.0" encoding="UTF-8" standalone="no"?>
<!-- Created with Inkscape (http://www.inkscape.org/) -->

<svg
   width="100"
   height="100"
   viewBox="0 0 26.458334 26.458334"
   version="1.1"
   id="svg5423"
   xml:space="preserve"
   xmlns="http://www.w3.org/2000/svg"
   xmlns:svg="http://www.w3.org/2000/svg"><defs
     id="defs5420" /><g
     id="layer4"><path
       style="display:inline;fill:#85174c;fill-opacity:1;stroke:none;stroke-width:4.31806;stroke-dasharray:none;stroke-opacity:1"
       d="m 26.208213,9.0605452 c 0,0 -0.04894,12.9541188 -12.954107,12.9541188 C 0.3491232,22.014664 0.3,9.0605452 0.3,9.0605452 c 0,0 5.3960105,-4.363671 12.954106,0 7.55809,4.3636928 12.954107,0 12.954107,0 z"
       id="path1070-8-8-2-4" /><path
       style="display:inline;fill:#bf216d;fill-opacity:1;stroke:none;stroke-width:4.31806;stroke-dasharray:none;stroke-opacity:1"
       d="m 0.360641,9.1707752 c 0,0 0.048938,12.9541098 12.9541,12.9541098 12.904989,0 12.954107,-12.9541098 12.954107,-12.9541098 0,0 -5.395987,-4.363662 -12.954107,0 -7.5580954,4.3636658 -12.9541,0 -12.9541,0 z"
       id="path1070-4-6-4" /><path
       style="display:inline;fill:#bababa;fill-opacity:1;stroke:none;stroke-width:4.31806;stroke-dasharray:none;stroke-opacity:1"
       d="m 26.208213,9.0605452 c 0,0 -0.04894,12.9541188 -12.954107,12.9541188 C 0.3491232,22.014664 0.3,9.0605452 0.3,9.0605452 c 0,0 5.3960105,-4.363671 12.954106,0 7.55809,4.3636928 12.954107,0 12.954107,0 z"
       id="path17475-6" /><path
       style="display:inline;fill:#ededed;fill-opacity:1;stroke:none;stroke-width:4.31806;stroke-dasharray:none;stroke-opacity:1"
       d="m 0.360641,9.1707752 c 0,0 0.048938,12.9541098 12.9541,12.9541098 12.904989,0 12.954107,-12.9541098 12.954107,-12.9541098 0,0 -5.395987,-4.363662 -12.954107,0 -7.5580954,4.3636658 -12.9541,0 -12.9541,0 z"
       id="path17477-7" /></g></svg>
