<svg width="56.7" height="50.403" viewBox="0 0 56.7 50.403" xmlns="http://www.w3.org/2000/svg"><g id="svgGroup" stroke-linecap="round" fill-rule="evenodd" font-size="9pt" stroke="#ffffff" stroke-width="0.25mm" fill="#000" style="stroke:#ffffff;stroke-width:0.25mm;fill:#000"><path d="M 1.4 35 L 2.7 33.4 A 212.651 212.651 0 0 0 5.874 29.384 Q 8.862 25.501 10.739 22.607 A 57.531 57.531 0 0 0 11 22.2 A 62.792 62.792 0 0 0 12.121 20.197 Q 13.419 17.784 15 14.45 Q 17.3 9.6 19.5 4.4 Q 21.384 0.038 27.297 0 A 16.214 16.214 0 0 1 27.4 0 A 24.733 24.733 0 0 1 28.694 0.031 Q 29.862 0.093 30.619 0.275 A 3.822 3.822 0 0 1 31.3 0.5 A 2.248 2.248 0 0 1 31.856 0.85 A 1.583 1.583 0 0 1 32.4 2.099 Q 32.4 2.555 32.17 3.414 A 16.869 16.869 0 0 1 32 4 A 14.116 14.116 0 0 1 31.152 6.113 A 16.071 16.071 0 0 1 30.9 6.6 A 23.412 23.412 0 0 0 29.951 8.743 Q 29.1 10.981 29.1 12.7 A 5.085 5.085 0 0 0 29.316 14.121 Q 29.576 15.016 30.15 16 A 21.516 21.516 0 0 0 30.919 17.213 Q 31.823 18.549 33.202 20.255 A 73.042 73.042 0 0 0 33.4 20.5 A 96.454 96.454 0 0 1 35.417 23.24 Q 37.167 25.714 38.25 27.65 Q 39.9 30.6 39.9 34.1 Q 39.9 34.866 39.783 36.1 A 50.435 50.435 0 0 1 39.7 36.9 A 14.721 14.721 0 0 0 42.759 35.217 Q 45.691 33.171 49.123 29.272 A 73.384 73.384 0 0 0 51.2 26.8 A 4.764 4.764 0 0 1 52.04 26.017 A 3.137 3.137 0 0 1 53.9 25.4 A 2.225 2.225 0 0 1 55.649 26.192 A 3.165 3.165 0 0 1 55.95 26.6 A 4.376 4.376 0 0 1 56.443 27.748 Q 56.7 28.67 56.7 29.9 Q 56.7 33.627 54.873 36.007 A 7.94 7.94 0 0 1 54.8 36.1 A 48.689 48.689 0 0 1 51.719 39.589 Q 50.075 41.27 48.482 42.498 A 19.456 19.456 0 0 1 45.25 44.55 A 21.732 21.732 0 0 1 40.512 46.209 Q 38.298 46.723 35.742 46.911 A 39.966 39.966 0 0 1 34 47 Q 30 50.4 24.5 50.4 Q 19.3 50.4 16.55 48 A 9.419 9.419 0 0 1 14.984 46.279 A 6.34 6.34 0 0 1 13.8 42.6 A 6.138 6.138 0 0 1 15.641 38.16 A 7.796 7.796 0 0 1 15.7 38.1 Q 17.6 36.2 21.3 36.2 Q 22.6 36.2 24.35 36.45 Q 25.69 36.641 26.531 36.745 A 40.679 40.679 0 0 0 27 36.8 Q 26.9 34.2 25.85 31.9 Q 24.8 29.6 23.2 27.45 A 73.558 73.558 0 0 0 21.744 25.555 Q 20.944 24.55 20.2 23.7 Q 17.675 28.505 15.184 31.984 A 44.956 44.956 0 0 1 14.05 33.5 Q 11 37.4 7.4 40.9 A 7.358 7.358 0 0 1 6.146 41.92 Q 5.206 42.517 4.215 42.657 A 4.38 4.38 0 0 1 3.6 42.7 A 3.613 3.613 0 0 1 2.294 42.472 A 3.242 3.242 0 0 1 1 41.55 Q 0 40.4 0 38.7 A 5.553 5.553 0 0 1 1.034 35.484 A 7.179 7.179 0 0 1 1.4 35 Z" vector-effect="non-scaling-stroke"/></g></svg>