<?xml version="1.0" encoding="UTF-8" standalone="no"?>
<!-- Created with Inkscape (http://www.inkscape.org/) -->

<svg
   width="100"
   height="100"
   viewBox="0 0 26.458334 26.458334"
   version="1.1"
   id="svg5423"
   xml:space="preserve"
   xmlns="http://www.w3.org/2000/svg"
   xmlns:svg="http://www.w3.org/2000/svg"><defs
     id="defs5420" /><g
     id="layer4"><circle
       style="display:inline;fill:none;fill-opacity:1;stroke:#ebebeb;stroke-width:1.99954;stroke-dasharray:none;stroke-opacity:1"
       id="path256-7-3"
       cx="13.513306"
       cy="12.710953"
       r="6.138329" /><path
       style="display:inline;fill:#b1b1b1;fill-opacity:1;stroke:none;stroke-width:1.42763;stroke-dasharray:none;stroke-opacity:1"
       d="m 17.776117,12.674485 c 0,0 -0.01618,4.282864 -4.28286,4.282864 -4.2666181,0 -4.2896308,-4.243931 -4.2896308,-4.243931 0,0 1.7907888,-1.481642 4.2896308,-0.03893 2.49884,1.442715 4.28286,0 4.28286,0 z"
       id="path1070-8-8-2" /><path
       style="display:inline;fill:#ffffff;fill-opacity:1;stroke:none;stroke-width:1.42978;stroke-dasharray:none;stroke-opacity:1"
       d="m 9.200331,12.710929 c 0,0 0.020635,4.282861 4.300155,4.282861 4.279462,0 4.29575,-4.282861 4.29575,-4.282861 0,0 -1.789379,-1.442706 -4.29575,0 -2.506363,1.442706 -4.300155,0 -4.300155,0 z"
       id="path1070-4-6" /><rect
       style="display:inline;fill:#ebebeb;fill-opacity:1;stroke:none;stroke-width:12.2607;stroke-dasharray:none;stroke-opacity:1"
       id="rect2698-9"
       width="8.3613634"
       height="2.1883819"
       x="-14.040671"
       y="17.850616"
       transform="rotate(-45)"
       ry="1.094191" /></g></svg>
