<?xml version="1.0" encoding="UTF-8" standalone="no"?>
<!-- Created with Inkscape (http://www.inkscape.org/) -->

<svg
   width="100"
   height="100"
   viewBox="0 0 26.458334 26.458334"
   version="1.1"
   id="svg5423"
   xml:space="preserve"
   inkscape:version="1.2.1 (9c6d41e, 2022-07-14)"
   sodipodi:docname="socials.svg"
   inkscape:export-filename="socials_rose.svg"
   inkscape:export-xdpi="491.51999"
   inkscape:export-ydpi="491.51999"
   xmlns:inkscape="http://www.inkscape.org/namespaces/inkscape"
   xmlns:sodipodi="http://sodipodi.sourceforge.net/DTD/sodipodi-0.dtd"
   xmlns="http://www.w3.org/2000/svg"
   xmlns:svg="http://www.w3.org/2000/svg"><sodipodi:namedview
     id="namedview5425"
     pagecolor="#ffffff"
     bordercolor="#000000"
     borderopacity="0.25"
     inkscape:showpageshadow="2"
     inkscape:pageopacity="0.0"
     inkscape:pagecheckerboard="0"
     inkscape:deskcolor="#d1d1d1"
     inkscape:document-units="mm"
     showgrid="false"
     inkscape:zoom="3.5050814"
     inkscape:cx="108.84198"
     inkscape:cy="71.61032"
     inkscape:window-width="1728"
     inkscape:window-height="1080"
     inkscape:window-x="0"
     inkscape:window-y="37"
     inkscape:window-maximized="0"
     inkscape:current-layer="g2549"
     showguides="true" /><defs
     id="defs5420" /><g
     inkscape:groupmode="layer"
     id="layer4"
     inkscape:label="socials"><circle
       style="display:inline;fill:none;fill-opacity:1;stroke:#a51c5e;stroke-width:1.99954;stroke-dasharray:none;stroke-opacity:1"
       id="path256-7-3-4"
       cx="13.513196"
       cy="12.711018"
       r="6.138329" /><path
       style="display:inline;fill:#85174c;fill-opacity:1;stroke:none;stroke-width:1.42763;stroke-dasharray:none;stroke-opacity:1"
       d="m 17.776006,12.674549 c 0,0 -0.01618,4.282864 -4.28286,4.282864 -4.2666191,0 -4.2828601,-4.282864 -4.2828601,-4.282864 0,0 1.7840181,-1.442708 4.2828601,0 2.49884,1.442715 4.28286,0 4.28286,0 z"
       id="path1070-8-8-2-4"
       sodipodi:nodetypes="czczc" /><path
       style="display:inline;fill:#bf216d;fill-opacity:1;stroke:none;stroke-width:1.42763;stroke-dasharray:none;stroke-opacity:1"
       d="m 9.2303349,12.710993 c 0,0 0.01618,4.282861 4.2828581,4.282861 4.266621,0 4.28286,-4.282861 4.28286,-4.282861 0,0 -1.78401,-1.442705 -4.28286,0 -2.498842,1.442706 -4.2828581,0 -4.2828581,0 z"
       id="path1070-4-6-4"
       sodipodi:nodetypes="czczc" /><rect
       style="display:inline;fill:#a51c5e;fill-opacity:1;stroke:none;stroke-width:12.2607;stroke-dasharray:none;stroke-opacity:1"
       id="rect2698-9-5"
       width="8.3613634"
       height="2.1883819"
       x="-14.040795"
       y="17.850584"
       transform="rotate(-45)"
       ry="1.094191" /><circle
       style="display:inline;fill:none;fill-opacity:1;stroke:#a51c5e;stroke-width:1.99954;stroke-dasharray:none;stroke-opacity:1"
       id="circle17473-7"
       cx="13.513196"
       cy="12.711018"
       r="6.138329" /><path
       style="display:inline;fill:#85174c;fill-opacity:1;stroke:none;stroke-width:1.42763;stroke-dasharray:none;stroke-opacity:1"
       d="m 17.776006,12.674549 c 0,0 -0.01618,4.282864 -4.28286,4.282864 -4.2666191,0 -4.2828601,-4.282864 -4.2828601,-4.282864 0,0 1.7840181,-1.442708 4.2828601,0 2.49884,1.442715 4.28286,0 4.28286,0 z"
       id="path17475-6"
       sodipodi:nodetypes="czczc" /><path
       style="display:inline;fill:#bf216d;fill-opacity:1;stroke:none;stroke-width:1.42763;stroke-dasharray:none;stroke-opacity:1"
       d="m 9.2303349,12.710993 c 0,0 0.01618,4.282861 4.2828581,4.282861 4.266621,0 4.28286,-4.282861 4.28286,-4.282861 0,0 -1.78401,-1.442705 -4.28286,0 -2.498842,1.442706 -4.2828581,0 -4.2828581,0 z"
       id="path17477-7"
       sodipodi:nodetypes="czczc" /><rect
       style="display:inline;fill:#a51c5e;fill-opacity:1;stroke:none;stroke-width:12.2607;stroke-dasharray:none;stroke-opacity:1"
       id="rect17479-7"
       width="8.3613634"
       height="2.1883819"
       x="-14.040795"
       y="17.850584"
       transform="rotate(-45)"
       ry="1.094191" /></g></svg>
