<svg width="554" height="407" viewBox="0 0 554 407" fill="none" xmlns="http://www.w3.org/2000/svg">
<g opacity="0.7">
<mask id="mask0_4535_15146" style="mask-type:alpha" maskUnits="userSpaceOnUse" x="0" y="0" width="554" height="407">
<rect width="553.931" height="407" fill="#C4C4C4"/>
</mask>
<g mask="url(#mask0_4535_15146)">
<g opacity="0.6">
<path d="M119.935 151.128C94.3182 126.613 75.3311 95.5552 69.4664 60.9443C67.3063 48.0028 66.9303 34.7548 68.2318 21.7025C71.7022 -13.0368 86.8095 -46.1048 107.565 -74.5726C118.945 -90.2649 132.103 -104.858 146.202 -118.351L303.08 -268.478C318.967 -283.682 344.769 -283.76 360.557 -268.651L561.725 -76.1397L762.996 116.471C778.784 131.58 778.703 156.272 762.816 171.476L617.617 310.427C527.657 396.516 429.661 406.647 357.203 337.307C339.638 320.497 326.27 302.872 317.1 284.632C296.365 243.04 256.816 213.248 209.862 202.549C178.525 195.316 148.27 178.243 119.935 151.128Z" stroke="#011235" stroke-width="0.25"/>
<path d="M130.539 147.984C55.8887 75.5388 65.3393 -23.5571 156.141 -110.452C156.457 -110.754 306.284 -253.934 306.809 -254.036C322.17 -268.536 346.713 -268.61 361.979 -254.202C362.608 -254.204 554.89 -70.5991 555.413 -70.0988C555.831 -69.6986 715.697 83.6913 743.717 110.908C749.362 116.512 754.692 122.217 757.185 129.838C759.263 135.854 759.556 142.378 758.382 148.504C756.998 154.831 754.041 160.863 749.62 165.694C748.988 166.499 748.357 167.103 747.62 167.808C747.409 168.21 608.944 300.917 608.628 301.219C522.351 383.784 428.446 393.602 358.809 327.566C341.87 311.557 328.92 294.734 320.167 277.295C300.055 237.508 261.969 209.117 217.008 198.512C186.615 191.377 157.618 174.3 130.539 147.984Z" stroke="#011235" stroke-width="0.25"/>
<path d="M141.037 144.941C70.4682 75.1941 79.3788 -19.1827 166.182 -102.251C166.919 -102.956 309.696 -239.189 310.64 -239.293C325.265 -253.088 348.865 -253.259 363.399 -239.552C364.657 -239.555 547.947 -64.7563 548.888 -63.8558C549.725 -63.0554 694.952 76.5272 726.42 107.648C728.093 109.249 729.871 110.95 731.438 112.652C733.529 114.854 735.724 117.156 737.289 119.66C738.02 120.762 738.646 121.764 739.271 122.967C746.045 136.296 743.682 152.965 732.108 164.241C731.896 165.045 600.163 291.509 599.427 292.214C517.043 371.053 427.124 380.658 360.308 317.926C343.996 302.718 331.463 286.697 322.917 270.06C303.427 232.279 266.701 205.188 223.838 194.577C194.494 187.439 166.86 170.459 141.037 144.941Z" stroke="#011235" stroke-width="0.25"/>
<path d="M151.641 141.798C85.0491 74.8489 93.4205 -15.0096 176.226 -94.2518C177.804 -95.7621 179.382 -97.2725 180.855 -98.6821C184.853 -102.508 188.852 -106.334 192.85 -110.161C198.637 -115.699 204.424 -121.236 210.315 -126.674C217.154 -133.219 224.098 -139.865 231.042 -146.309C238.302 -153.257 245.772 -160.205 253.032 -167.153C260.081 -173.899 267.235 -180.545 274.285 -187.291C280.387 -193.131 286.699 -198.971 292.802 -204.811C298.589 -210.349 304.376 -215.887 310.477 -221.326C315.106 -225.555 320.153 -229.385 325.929 -231.711C332.336 -234.44 339.576 -235.164 346.39 -234.081C353.518 -232.898 359.694 -229.202 365.239 -224.903C369.947 -221.203 374.023 -216.9 378.311 -212.998C383.225 -208.496 388.035 -203.893 392.95 -199.392C399.119 -193.689 405.079 -187.986 411.249 -182.283C418.15 -175.88 425.051 -169.276 431.847 -162.772C439.061 -155.868 446.486 -148.965 453.7 -142.061C460.914 -135.157 468.339 -128.254 475.553 -121.35C482.454 -114.746 489.355 -108.343 496.256 -101.739C502.32 -95.9355 508.49 -90.2328 514.554 -84.4295C519.364 -79.8268 524.278 -75.1241 529.193 -70.6221C532.434 -67.5203 535.675 -64.4185 538.916 -61.3167C540.171 -60.116 541.321 -59.0154 542.576 -57.8147C543.831 -56.614 678.497 73.0635 710.382 105.187C715.922 110.691 721.987 116.494 724.795 123.813C726.459 128.024 727.284 132.438 727.164 136.955C727.044 141.472 725.981 145.891 724.184 150.012C722.176 154.535 718.912 158.459 715.439 161.983C701.864 175.775 591.385 282.1 590.438 283.006C511.841 358.221 426.12 367.412 362.124 308.184C346.439 293.778 334.322 278.558 326.088 262.824C307.222 226.847 271.96 201.157 230.984 190.741C202.583 183.5 176.313 166.616 151.641 141.798Z" stroke="#011235" stroke-width="0.25"/>
<path d="M162.244 138.855C99.6279 74.7051 107.67 -10.6356 186.266 -85.8502C187.739 -87.2599 189.212 -88.6695 190.685 -90.0792C194.368 -93.6033 198.156 -97.2281 201.838 -100.752C207.204 -105.887 212.57 -111.022 218.041 -116.058C224.459 -122.2 230.982 -128.242 237.4 -134.384C244.239 -140.928 251.183 -147.373 258.022 -153.918C264.65 -160.261 271.489 -166.605 278.118 -172.949C284.01 -178.587 290.006 -184.126 295.898 -189.564C301.053 -194.297 306.312 -198.93 311.153 -203.762C315.993 -208.394 321.147 -212.926 327.345 -215.855C334.803 -219.391 343.407 -220.22 351.476 -218.136C362.165 -215.358 370.005 -207.251 377.848 -200.149C382.449 -195.947 387.05 -191.745 391.546 -187.442C397.402 -182.04 403.258 -176.637 409.009 -171.134C415.701 -164.931 422.288 -158.628 428.98 -152.425C436.091 -145.822 443.096 -139.118 450.207 -132.515C457.317 -125.911 464.427 -119.107 471.538 -112.504C478.229 -106.101 484.921 -99.8976 491.613 -93.4939C497.468 -87.8907 503.429 -82.3881 509.284 -76.7849C513.989 -72.2823 518.694 -67.7797 523.4 -63.4778C526.536 -60.4761 529.568 -57.5744 532.705 -54.5727C533.751 -53.5721 534.901 -52.4715 535.946 -51.4709C536.26 -51.1707 536.574 -50.8705 536.783 -50.6704C537.515 -49.97 538.247 -49.2696 538.874 -48.6693C539.92 -47.6687 541.07 -46.5681 542.115 -45.5675C543.579 -44.1667 545.043 -42.7659 546.402 -41.4651C548.18 -39.7641 549.957 -38.0632 551.63 -36.4622C553.721 -34.4611 555.708 -32.56 557.799 -30.5588C560.099 -28.3576 562.399 -26.1563 564.7 -23.955C567.209 -21.5536 569.718 -19.1522 572.228 -16.7509C574.946 -14.1494 577.56 -11.6479 580.173 -8.94572C582.996 -6.24416 585.819 -3.54262 588.537 -0.740367C591.465 2.06125 594.392 4.86287 597.319 7.86524C600.351 10.7669 603.384 13.6686 606.31 16.671C609.343 19.5726 612.479 22.5744 615.406 25.5767C618.543 28.5785 621.47 31.5808 624.607 34.5826C627.639 37.4842 630.67 40.5866 633.702 43.4883C636.734 46.39 639.661 49.3924 642.694 52.294C645.621 55.0957 648.444 57.998 651.371 60.7996C654.194 63.5011 656.912 66.3034 659.735 69.005C662.349 71.5064 664.962 74.2086 667.576 76.71C670.085 79.1114 672.385 81.5134 674.894 83.9148C677.09 86.016 679.285 88.318 681.481 90.4192C683.467 92.3203 685.349 94.3221 687.335 96.2232C692.458 101.327 697.581 106.43 702.282 111.937C704.163 114.139 705.939 116.442 707.398 119.048C710.63 125.161 711.655 132.384 710.584 139.213C710.476 140.117 710.263 140.92 710.051 141.724C709.625 143.733 708.884 145.642 707.934 147.552C706.984 149.462 705.824 151.172 704.664 153.082C702.768 155.698 700.452 158.113 698.138 160.329C679.721 179.154 582.289 272.994 581.026 274.202C506.217 345.792 424.587 354.67 363.413 298.745C348.459 285.039 336.654 270.722 328.627 255.79C310.174 221.82 276.586 197.329 237.603 187.008C210.462 179.562 185.66 162.673 162.244 138.855Z" stroke="#011235" stroke-width="0.25"/>
<path d="M172.848 135.712C114.209 74.3598 121.816 -6.36246 196.414 -77.7509C197.151 -78.4557 197.992 -79.2612 198.729 -79.966C200.623 -81.7784 202.622 -83.6915 204.516 -85.5039C207.357 -88.2225 210.197 -90.9411 213.143 -93.7604C216.721 -97.1838 220.403 -100.708 224.085 -104.031C228.189 -107.958 232.397 -111.986 236.605 -115.813C241.13 -120.142 245.653 -124.271 250.178 -128.601C254.807 -133.031 259.541 -137.361 264.066 -141.691C268.59 -146.02 273.219 -150.25 277.743 -154.58C285.213 -161.528 292.682 -168.476 300.048 -175.524C307.307 -182.472 314.462 -189.319 322.559 -195.466C326.239 -198.388 330.339 -201.11 334.958 -202.529C339.053 -203.846 343.46 -204.462 347.655 -204.274L347.865 -204.274C355.31 -203.795 361.907 -200.502 367.767 -196.304C372.476 -193.006 376.554 -189.104 380.841 -185.202C392.551 -173.996 404.787 -163.092 416.603 -151.986C423.713 -145.383 430.824 -138.78 437.83 -132.277C445.149 -125.473 452.469 -118.67 459.788 -111.666C466.899 -105.063 473.904 -98.359 481.014 -91.7559C487.393 -85.8531 493.771 -79.7496 500.044 -73.7461C505.168 -68.8433 510.396 -64.0412 515.519 -59.1383C518.97 -55.8364 522.42 -52.5345 525.976 -49.3333C527.231 -48.1326 528.59 -46.8319 529.844 -45.6312C530.158 -45.331 530.367 -45.1309 530.681 -44.8307C531.308 -44.2303 531.936 -43.63 532.563 -43.0297C533.504 -42.1291 534.549 -41.1286 535.49 -40.228C536.745 -39.0274 538.104 -37.7266 539.359 -36.5259C540.927 -35.025 542.496 -33.5242 544.064 -32.0233C545.842 -30.3223 547.724 -28.5213 549.501 -26.8203C551.488 -24.9192 553.579 -22.918 555.565 -21.0169C557.761 -18.9157 560.061 -16.7145 562.152 -14.5126C564.557 -12.2112 566.961 -9.9099 569.261 -7.50788C571.77 -5.1065 574.28 -2.70509 576.788 -0.102955C579.402 2.39849 582.121 4.99997 584.63 7.6021C587.348 10.2036 589.961 12.9058 592.68 15.5073C595.503 18.2089 598.116 20.9111 600.939 23.6126C603.762 26.3142 606.48 29.1164 609.303 31.818C612.126 34.5195 614.844 37.3218 617.667 40.0234C620.49 42.7249 623.103 45.4271 625.926 48.1286C628.645 50.7301 631.258 53.4323 633.976 56.0338C636.59 58.5353 639.099 61.1374 641.817 63.7389C644.327 66.1403 646.731 68.6424 649.24 71.0438C651.645 73.3451 653.945 75.7471 656.245 77.9484C658.441 80.0496 660.531 82.2515 662.727 84.3527C664.713 86.2538 666.699 88.3557 668.686 90.2568C673.704 95.2603 678.827 100.364 683.739 105.669C684.052 105.969 684.471 106.369 684.679 106.77C686.874 109.273 688.858 111.776 690.632 114.481C692.302 117.085 693.97 120.092 694.694 123.201C694.694 123.402 694.798 123.502 694.797 123.703C696.04 128.517 696.024 133.535 694.854 138.457C693.685 143.178 691.572 147.601 688.309 151.324C687.045 152.733 685.782 154.143 684.624 155.451C670.205 170.65 574.14 263.382 572.562 264.893C501.646 332.757 424.107 341.321 365.649 288.802C351.322 275.897 340.038 262.481 332.218 248.352C314.389 216.186 282.265 193.096 245.274 182.869C218.552 175.623 194.903 158.831 172.848 135.712Z" stroke="#011235" stroke-width="0.25"/>
<path d="M183.451 132.568C128.788 74.0148 135.856 -2.18911 206.351 -69.6507C207.193 -70.4562 208.035 -71.2617 208.981 -72.1679C211.086 -74.1817 213.19 -76.1955 215.294 -78.2092C218.346 -81.1292 221.502 -84.1499 224.658 -86.9698C228.446 -90.5946 232.443 -94.22 236.231 -97.8448C240.545 -101.973 245.069 -106.102 249.383 -110.23C254.012 -114.66 258.746 -118.991 263.376 -123.421C270.635 -130.168 277.79 -137.015 285.049 -143.761C292.413 -150.609 299.883 -157.557 307.352 -164.305C310.088 -166.922 312.823 -169.34 315.558 -171.958C322.081 -178 328.921 -184.745 337.74 -187.582C342.78 -189.203 348.236 -189.621 353.477 -188.834C359.139 -188.048 364.897 -184.753 369.396 -181.655C374.42 -178.257 378.707 -174.155 383.099 -170.153C395.542 -158.648 407.986 -147.143 420.43 -135.838C422.312 -134.037 424.195 -132.437 426.077 -130.636C433.71 -123.532 441.239 -116.529 448.872 -109.425C456.401 -102.422 463.93 -95.4183 471.563 -88.3148C478.464 -81.9118 485.261 -75.408 492.162 -69.0049C497.809 -63.8025 503.35 -58.4995 508.787 -53.2965C512.447 -49.7945 516.211 -46.3931 519.871 -42.8911C521.021 -41.7905 522.171 -40.6899 523.321 -39.5892C523.635 -39.289 524.053 -38.8888 524.367 -38.5886C525.203 -37.7882 525.935 -37.0878 526.772 -36.2873C528.026 -35.0866 529.176 -33.986 530.431 -32.7853C531.999 -31.2844 533.568 -29.7836 535.136 -28.2827C537.018 -26.4816 539.005 -24.5805 540.781 -22.6788C542.977 -20.5776 545.173 -18.4764 547.263 -16.2745C549.668 -13.9731 552.178 -11.5718 554.477 -9.16976C557.091 -6.66832 559.704 -3.96611 562.318 -1.46467C565.141 1.23689 567.859 4.03914 570.682 6.7407C573.61 9.54232 576.432 12.4446 579.36 15.2463C582.392 18.1479 585.319 21.1503 588.351 24.052C591.383 26.9537 594.415 30.0561 597.447 32.9577C600.479 35.8594 603.51 38.9618 606.542 41.8635C609.575 44.7652 612.502 47.7676 615.534 50.6692C618.461 53.4708 621.284 56.3731 624.316 59.2748C627.034 62.0771 629.857 64.7786 632.574 67.5809C635.188 70.2831 637.802 72.7845 640.415 75.4867C642.819 77.9888 645.224 80.2901 647.628 82.7922C652.646 87.7957 657.663 93 662.576 98.1042C663.413 98.9047 664.249 99.9058 665.085 100.706C667.594 103.308 669.997 106.011 672.086 108.815C674.07 111.319 675.844 114.023 677.304 116.83C678.241 118.935 678.863 121.141 679.275 123.348C679.687 125.555 679.889 127.963 679.672 130.172C679.341 135.292 677.751 140.215 675.01 144.64C674.588 145.444 673.956 146.249 673.429 146.953C671.954 148.764 670.48 150.575 668.901 152.286C653.534 168.593 565.465 253.873 563.571 255.686C496.443 319.925 422.996 328.176 367.359 278.96C353.659 266.856 342.792 254.242 335.179 240.915C317.867 210.655 287.312 188.866 252.104 178.734C226.43 171.684 204.354 154.989 183.451 132.568Z" stroke="#011235" stroke-width="0.25"/>
<path d="M193.95 129.526C143.368 73.8708 149.896 2.18542 216.393 -61.4499C217.235 -62.2554 218.077 -63.0609 218.918 -63.8664C220.917 -65.7795 222.811 -67.5919 224.81 -69.505C227.651 -72.2236 230.597 -75.0429 233.543 -77.6615C237.12 -81.0849 240.802 -84.4082 244.379 -87.8316C248.377 -91.6578 252.585 -95.4846 256.584 -99.3108C260.898 -103.439 265.316 -107.467 269.63 -111.595C274.048 -115.624 278.467 -119.853 282.886 -123.881C287.199 -127.808 291.408 -131.836 295.616 -135.663C299.508 -139.187 303.296 -142.812 307.188 -146.337C314.447 -152.883 321.392 -159.729 329.278 -165.675C332.011 -167.69 334.64 -169.605 337.686 -171.12C343.569 -173.948 351.122 -174.373 357.517 -173.288C361.081 -172.696 364.849 -170.299 367.884 -168.401C371.234 -166.403 374.268 -164.104 377.302 -161.804C380.964 -158.905 384.415 -155.803 387.761 -152.602C400.414 -141.097 413.172 -129.492 425.825 -117.987C429.904 -114.286 433.877 -110.484 437.955 -106.782C445.693 -99.5786 453.431 -92.3751 461.17 -85.3723C468.385 -78.6691 475.6 -71.9659 482.815 -65.2626C488.775 -59.7601 494.735 -54.0568 500.695 -48.5542C504.668 -44.7521 508.747 -41.0505 512.72 -37.2483C514.079 -35.9476 515.438 -34.6468 516.693 -33.4461C517.111 -33.0459 517.53 -32.6457 517.948 -32.2455C518.889 -31.3449 519.83 -30.4444 520.771 -29.5439C522.13 -28.2432 523.594 -26.8423 524.953 -25.5416C526.731 -23.8406 528.508 -22.1397 530.18 -20.338C532.376 -18.2368 534.467 -16.2356 536.558 -14.0337C538.962 -11.7324 541.367 -9.2303 543.771 -6.92898C546.49 -4.32748 549.103 -1.62529 551.717 0.876157C554.645 3.67777 557.362 6.48003 560.29 9.28164C563.322 12.1833 566.249 15.1857 569.281 18.0873C572.418 21.0891 575.449 24.1915 578.586 27.1932C581.722 30.3957 584.859 33.3974 587.995 36.5999C591.026 39.7023 594.268 42.8041 597.299 45.9065C600.331 49.0089 603.467 52.0107 606.499 55.1131C609.426 58.1155 612.458 61.0172 615.385 64.0195C618.103 66.8218 621.03 69.6234 623.748 72.4256C626.152 74.9277 628.767 77.2284 631.066 79.8311C633.365 82.4339 635.874 84.8353 638.278 87.3374C642.251 91.3403 646.328 95.4433 650.09 99.6476C653.538 103.552 657.196 107.656 659.699 112.065C660.325 113.067 660.845 114.169 661.366 115.272C664.281 122.088 664.044 130.119 661.085 136.953C660.028 139.365 658.657 141.678 657.077 143.79C655.075 146.506 652.759 149.123 650.339 151.439C648.024 153.855 645.708 156.271 643.288 158.587C640.868 161.103 638.343 163.52 636.027 165.936C633.291 168.754 630.345 171.574 627.609 174.392C624.557 177.513 621.4 180.534 618.453 183.554C615.192 186.675 612.035 189.896 608.668 193.118C605.301 196.34 602.144 199.562 598.777 202.784C595.515 205.905 592.358 209.127 589.096 212.248C586.045 215.168 583.098 218.188 579.942 221.209C577.206 223.827 574.47 226.645 571.734 229.263C569.314 231.579 566.999 233.794 564.684 236.21C562.79 238.022 561.001 239.734 559.107 241.547C557.845 242.755 556.687 243.862 555.425 245.071C554.899 245.574 554.478 245.977 553.952 246.48C490.612 307.095 421.362 314.932 368.544 269.22C355.471 257.918 345.021 246.105 337.615 233.581C320.822 205.226 291.836 184.737 258.62 174.699C234.52 167.746 213.597 151.147 193.95 129.526Z" stroke="#011235" stroke-width="0.25"/>
<path d="M204.659 126.482C158.054 73.6256 164.043 6.45843 226.542 -53.3508C227.909 -54.6598 229.172 -55.8681 230.54 -57.177C233.591 -60.097 236.747 -62.9169 239.798 -65.8369C244.112 -69.9651 248.53 -73.9934 252.844 -78.1216C258.104 -82.9553 263.155 -87.7884 268.415 -92.6221C273.991 -97.7578 279.461 -102.793 284.933 -108.029C290.298 -112.963 295.663 -117.898 301.029 -122.832C309.445 -130.486 317.861 -138.34 326.591 -145.693C331.219 -149.521 335.848 -153.952 341.624 -156.278C345.721 -157.996 350.233 -158.713 354.743 -158.626C357.994 -158.535 361.243 -157.842 364.281 -156.747C367.738 -155.453 370.773 -153.354 373.598 -151.255C379.563 -147.158 384.791 -142.355 390.125 -137.654C394.204 -134.153 398.178 -130.552 402.152 -126.95C406.753 -122.749 411.459 -118.647 416.165 -114.346C421.184 -109.744 426.204 -105.142 431.328 -100.64C436.557 -95.838 441.681 -91.1359 446.909 -86.3338C452.033 -81.6317 457.157 -76.9296 462.281 -72.2275C467.092 -67.8256 471.902 -63.4237 476.607 -58.9211C480.894 -55.0195 485.077 -51.0172 489.364 -47.1155C492.814 -43.8136 496.265 -40.7125 499.716 -37.4106C502.121 -35.1092 504.631 -32.9086 507.035 -30.6072C508.186 -29.5066 509.336 -28.406 510.486 -27.3053L510.59 -27.2053C511.113 -26.705 511.741 -26.1046 512.263 -25.6043C513.518 -24.4036 514.773 -23.203 516.027 -22.0023C517.909 -20.2012 519.687 -18.5003 521.464 -16.5985C523.764 -14.3973 526.063 -11.9952 528.364 -9.79397C531.082 -7.19246 533.8 -4.3902 536.519 -1.78869C539.655 1.21304 542.582 4.21541 545.719 7.21714C548.959 10.5197 552.305 13.7215 555.546 17.0241C558.996 20.5267 562.446 23.8286 565.896 27.3313C569.345 30.8339 573.005 34.336 576.455 37.8386C579.904 41.3413 583.459 44.944 587.013 48.346C590.463 51.8486 593.808 55.2512 597.258 58.7539C600.499 62.0564 603.739 65.3589 606.98 68.6615C610.011 71.7639 612.938 74.7663 615.97 77.8687C618.688 80.6709 621.301 83.3732 624.019 86.1754C626.318 88.5774 628.513 90.8794 630.813 93.2814C634.366 97.0848 637.92 100.888 641.053 105.095C645.229 110.904 648.459 117.619 648.015 124.847C647.786 130.87 645.251 136.298 641.669 141.126C636.929 147.263 631.247 152.701 625.88 158.237C623.038 161.157 620.197 164.076 617.356 166.794C614.199 170.016 610.937 173.137 607.675 176.459C604.307 179.882 600.835 183.205 597.362 186.728C593.889 190.252 590.312 193.675 586.944 197.098C583.472 200.421 580.105 203.844 576.632 207.166C573.371 210.288 570.319 213.408 567.057 216.53C564.216 219.248 561.585 221.966 558.744 224.685C556.43 226.9 554.22 229.015 552.01 231.33C550.432 232.84 548.853 234.351 547.38 235.76C546.644 236.465 546.013 237.069 545.276 237.774C485.829 294.663 420.67 302.387 370.569 259.88C358.122 249.378 348.089 238.367 340.995 226.745C324.93 200.295 297.303 181.107 266.08 171.164C242.505 163.707 222.946 147.204 204.659 126.482Z" stroke="#011235" stroke-width="0.25"/>
<path d="M215.156 123.439C172.528 73.3813 178.082 10.8326 236.477 -45.0498C237.635 -46.1574 238.687 -47.1643 239.844 -48.2719C242.369 -50.6884 244.894 -52.9041 247.419 -55.3207C250.891 -58.6434 254.573 -61.9668 258.045 -65.2895C262.359 -69.217 266.567 -73.2446 270.88 -77.1721C275.614 -81.5023 280.139 -85.832 284.873 -90.1622C289.607 -94.4925 294.341 -98.8227 299.075 -103.153C306.649 -110.001 314.014 -116.849 321.693 -123.597C325.48 -127.021 329.266 -130.244 333.262 -133.267C337.048 -136.29 340.939 -139.614 345.665 -141.334C353.121 -144.268 361.826 -143.993 368.841 -140.3C374.6 -137.406 379.516 -133.306 384.433 -129.406C389.977 -124.906 395.311 -120.205 400.645 -115.503C404.724 -112.003 408.698 -108.401 412.671 -104.8C417.063 -100.798 421.456 -96.997 425.848 -92.9953C430.345 -88.8936 434.946 -84.6918 439.547 -80.49C444.148 -76.2882 448.645 -72.1864 453.246 -67.9846C457.638 -63.9829 462.03 -59.9813 466.422 -55.9796C470.501 -52.2781 474.369 -48.5759 478.448 -44.8744C481.899 -41.7733 485.349 -38.4714 488.8 -35.3702C491.518 -32.7687 494.238 -30.3679 496.956 -27.7664C498.734 -26.0655 500.511 -24.3645 502.394 -22.7642C503.021 -22.1638 503.753 -21.4634 504.38 -20.8631C505.008 -20.2627 505.739 -19.5623 506.367 -18.962C507.831 -17.5612 509.19 -16.2604 510.548 -14.7589C512.64 -12.7578 514.625 -10.6559 516.612 -8.7548C519.226 -6.25336 521.735 -3.65122 524.349 -1.14977C527.276 1.8526 530.308 4.75425 533.235 7.75662C536.475 11.0592 539.926 14.3611 543.166 17.6636C546.616 21.1663 550.275 24.6683 553.725 28.171C557.384 31.8737 560.938 35.4764 564.597 39.1792C568.256 42.882 571.81 46.4847 575.469 50.1875C579.023 53.7902 582.577 57.3929 586.027 60.8956C589.372 64.2982 592.718 67.7007 595.957 71.204C598.989 74.3065 602.02 77.4089 604.947 80.612C610.486 86.5173 616.236 92.2212 621.25 98.4292C623.862 101.533 626.159 104.738 628.246 108.144C630.228 111.451 631.475 114.86 631.778 118.572C631.777 118.773 631.776 118.974 631.881 119.074C632.084 121.081 631.973 122.988 631.756 124.996C631.542 126.402 631.222 127.909 630.694 129.215C629.212 133.235 626.893 136.855 624.155 140.276C619.942 145.508 614.997 150.24 610.366 155.072C607.104 158.394 603.841 161.716 600.579 165.038C596.896 168.763 593.212 172.488 589.529 176.213C585.635 180.139 581.847 183.965 577.849 187.791C574.06 191.616 570.167 195.342 566.379 199.168C562.906 202.691 559.329 206.114 555.856 209.638C552.805 212.558 549.858 215.578 546.912 218.397C544.702 220.512 542.492 222.827 540.283 224.941C539.02 226.15 537.863 227.257 536.6 228.465C536.495 228.566 536.39 228.667 536.284 228.768C480.625 282.032 419.557 289.443 372.278 250.239C360.458 240.538 350.842 230.329 343.955 219.51C328.408 194.965 302.245 176.977 273.014 167.329C250.384 159.768 232.292 143.462 215.156 123.439Z" stroke="#011235" stroke-width="0.25"/>
<path d="M225.761 120.296C187.003 73.1369 192.124 15.0058 246.52 -37.0503C248.73 -39.1648 250.939 -41.2793 253.254 -43.2937C258.093 -47.7246 262.933 -52.3563 267.772 -56.7873C277.556 -65.7498 287.235 -74.8125 297.019 -83.775C306.908 -92.8383 317.006 -101.701 327.104 -110.565C333.205 -115.802 339.098 -121.642 346.347 -125.377C347.713 -126.084 349.183 -126.691 350.653 -127.097C355.273 -128.516 360.308 -128.732 364.919 -127.742C370.998 -126.355 376.231 -122.757 381.044 -119.158C386.38 -115.26 391.506 -111.16 396.526 -106.759C401.441 -102.457 406.358 -98.3569 411.063 -93.8543C416.919 -88.6526 422.88 -83.3508 428.737 -78.149C434.907 -72.6471 440.972 -67.2453 447.037 -61.6427C452.789 -56.3402 458.75 -51.0384 464.501 -45.736C469.52 -41.134 474.644 -36.4319 479.664 -31.8299C483.533 -28.3285 487.192 -24.8264 491.062 -21.3251C493.048 -19.424 495.245 -17.5235 497.231 -15.6224C497.44 -15.4223 497.545 -15.3222 497.754 -15.1221C500.682 -12.3205 503.609 -9.31814 506.536 -6.51652C512.809 -0.31231 519.082 5.8919 525.249 12.1968C533.299 20.3027 541.348 28.4087 549.502 36.6147C557.866 45.0208 566.228 53.6277 574.486 62.1345C580.654 68.4394 586.716 74.845 592.673 81.3513C598.213 87.2566 603.962 93.1612 608.765 99.7713C612.837 105.48 616.485 112.395 616.147 119.522C615.81 126.248 611.909 132.383 607.697 137.615C603.8 142.344 599.381 146.774 595.065 151.304C592.013 154.424 589.067 157.444 586.015 160.565C582.647 163.988 579.28 167.411 576.017 170.733C572.545 174.256 569.072 177.78 565.494 181.203C562.127 184.626 558.549 188.049 555.182 191.472C552.025 194.694 548.763 197.815 545.606 201.036C542.87 203.654 540.134 206.473 537.398 209.091C535.294 211.105 533.294 213.218 531.19 215.232C530.032 216.34 528.77 217.548 527.613 218.656C527.402 218.857 527.297 218.958 527.086 219.159C475.215 268.799 418.344 275.795 373.78 239.996C362.692 230.996 353.492 221.789 346.918 211.671C331.889 189.032 307.295 172.344 280.056 162.79C258.473 155.829 241.535 139.62 225.761 120.296Z" stroke="#011235" stroke-width="0.25"/>
<path d="M236.259 117.253C201.477 73.0939 206.164 19.3807 256.457 -28.7486C258.877 -31.0644 261.402 -33.2802 263.822 -35.596C268.977 -40.3291 274.132 -45.062 279.287 -49.7951C285.809 -55.837 292.437 -61.7789 298.959 -67.8209C309.479 -77.2875 319.999 -86.7542 330.728 -96.0207C331.674 -96.9269 332.726 -97.733 333.568 -98.5385C339.353 -103.474 345.455 -109.113 353.014 -111.545C358.159 -113.267 364.663 -113.487 369.691 -111.495C376.081 -109.005 381.416 -104.906 386.857 -100.907C397.32 -92.9087 406.94 -84.1049 416.876 -75.6032C423.57 -69.8017 430.158 -63.8996 436.851 -57.8974C443.44 -51.9952 449.924 -46.1932 456.512 -40.291C462.264 -35.1893 467.911 -29.987 473.557 -24.7846C477.74 -20.983 481.819 -17.2815 485.896 -13.3793C487.674 -11.6783 489.452 -10.1781 491.229 -8.47709C494.471 -5.3753 497.502 -2.27288 500.638 0.929595C507.225 7.43398 513.706 14.039 520.187 20.6441C528.446 28.9502 536.495 37.2568 544.648 45.6636C552.697 53.9703 560.85 62.377 568.689 70.8851C575.169 77.8916 581.754 84.7975 587.918 92.1061C594.813 100.517 600.863 110.736 598.938 121.783C598.51 124.394 597.453 127.007 596.082 129.32C591.968 136.258 585.55 142.4 579.867 148.238C574.5 153.775 569.133 159.312 563.765 164.848C557.977 170.788 551.979 176.728 546.191 182.667C540.929 187.902 535.668 193.137 530.406 198.373C526.934 201.896 523.356 205.32 519.989 208.742C519.252 209.447 518.516 210.152 517.779 210.857C469.8 256.771 416.916 263.555 375.173 231.059C364.712 222.86 355.929 214.455 349.562 205.14C335.156 184.306 312.131 168.918 286.675 159.66C266.352 151.892 250.987 135.778 236.259 117.253Z" stroke="#011235" stroke-width="0.25"/>
<path d="M246.863 114.11C215.952 72.8492 220.31 23.453 266.5 -20.7494C269.551 -23.6694 272.812 -26.59 275.864 -29.51C282.176 -35.3506 288.593 -41.0911 294.905 -46.9317C302.374 -53.6791 309.843 -60.4265 317.417 -67.0739C323.939 -72.9151 330.565 -78.6563 337.297 -84.2974C344.343 -90.2405 351.81 -96.3857 361.464 -97.6192C368.599 -98.4437 374.883 -95.6522 380.64 -92.1564C387.131 -88.3618 392.988 -83.5616 398.636 -78.7607C404.912 -73.5602 411.084 -68.4598 417.255 -63.1586C424.471 -56.8569 431.792 -50.4551 439.008 -44.1534C445.91 -37.951 452.813 -31.9495 459.715 -25.7471C465.154 -20.9456 470.591 -15.9434 475.924 -11.0412C478.852 -8.44032 481.675 -5.73876 484.604 -3.13789C484.708 -3.03783 484.813 -2.93778 484.917 -2.83773C488.681 0.764351 492.34 4.46712 495.999 8.16988C503.421 15.6755 510.739 23.081 518.056 30.6873C526.732 39.5943 535.303 48.602 543.979 57.7098C550.041 64.1154 555.998 70.6217 561.955 77.128C567.599 83.3341 573.556 89.6396 578.253 96.7519C581.906 102.261 584.611 108.878 584.17 115.303C583.618 123.836 577.408 130.58 571.828 136.92C565.617 143.865 558.987 150.609 552.567 157.354C545.094 165.105 537.517 172.756 529.941 180.407C524.153 186.146 518.575 191.884 512.788 197.622C511.525 198.831 510.262 200.039 509 201.247C464.809 243.536 416.016 250.007 377.199 220.915C367.364 213.517 358.998 205.914 352.943 197.501C339.16 178.672 317.495 164.384 294.136 155.321C274.337 147.852 260.23 131.936 246.863 114.11Z" stroke="#011235" stroke-width="0.25"/>
<path d="M257.571 111.066C230.531 72.9059 234.56 27.8266 276.751 -12.5496C280.539 -16.1744 284.432 -19.6992 288.324 -23.2239C295.688 -29.8706 303.157 -36.6181 310.521 -43.2648C321.776 -53.2355 332.824 -63.8078 345.02 -72.6773C349.646 -76.1039 354.587 -79.6318 360.257 -81.4555C367.502 -83.7859 374.836 -81.5998 381.118 -78.206C387.819 -74.6128 393.991 -69.7131 399.849 -64.9128C406.649 -59.4128 413.343 -53.8122 420.142 -48.1114C427.463 -41.9103 434.68 -35.6086 442.001 -29.2068C448.59 -23.5054 455.074 -17.7033 461.558 -11.9012C466.054 -7.7995 470.656 -3.79846 475.048 0.203217C476.198 1.30385 477.453 2.30381 478.604 3.40444C482.368 7.00652 485.921 10.81 489.58 14.5127C496.689 21.7181 503.692 29.0243 510.695 36.3304C518.744 44.8378 526.896 53.4453 534.839 62.0534C541.737 69.4602 548.53 76.9677 555.008 84.7772C562.529 93.9888 571.821 106.909 566.747 119.17C563.046 128.114 554.63 135.968 547.894 143.015C540.104 151.469 532.001 159.825 523.898 167.979C517.268 174.724 510.638 181.469 503.903 188.114C502.43 189.523 501.167 190.932 499.694 192.342C459.291 231.006 414.59 237.163 378.594 211.376C369.385 204.779 361.437 197.977 355.588 190.367C342.428 173.343 322.228 160.456 300.756 151.386C282.321 143.814 269.576 128.194 257.571 111.066Z" stroke="#011235" stroke-width="0.25"/>
<path d="M268.07 108.024C244.796 72.8631 248.496 32.1007 286.584 -4.34863C291.108 -8.67825 295.842 -12.8077 300.471 -17.0373C308.676 -24.4895 316.986 -31.8417 325.296 -38.9932C332.869 -45.4398 340.442 -52.0871 348.433 -58.1335C352.534 -61.2574 356.949 -64.0811 361.884 -65.8023C367.239 -67.7255 372.274 -67.7406 377.617 -65.8496C386.417 -62.6642 394.054 -56.7652 401.272 -51.0657C408.804 -45.066 415.916 -38.8643 423.554 -32.9653C431.4 -26.8662 438.72 -20.0629 446.145 -13.5611C452.839 -7.7596 459.323 -1.95753 465.911 3.94461C468.003 5.74502 469.989 7.64613 471.976 9.54722C477.726 15.0504 483.266 20.9557 488.701 26.7609C498.422 36.8693 508.038 47.0784 517.444 57.4888C522.147 62.5936 526.744 67.7991 531.237 73.1054C537.924 80.9143 545.031 88.7219 549.51 98.0431C551.593 102.453 553.045 107.467 551.981 112.289C550.273 121.327 542.065 129.382 535.96 136.025C522.486 150.719 508.489 165.115 494.493 179.309C493.23 180.518 491.968 181.726 490.704 183.135C490.599 183.236 490.494 183.336 490.389 183.437C453.879 218.376 413.269 224.22 379.989 201.836C371.407 196.04 363.98 190.141 358.234 183.232C345.592 168.114 326.961 156.326 307.376 147.653C290.411 139.875 278.924 124.452 268.07 108.024Z" stroke="#011235" stroke-width="0.25"/>
<path d="M278.674 104.88C272.31 94.3603 267.943 82.7302 267.039 70.5879C266.031 58.3455 268.483 46.1931 273.66 34.8354C281.371 18.2507 294.629 5.16241 308.409 -7.02411C314.826 -12.7646 321.662 -18.3057 328.183 -23.9462C334.284 -29.1839 340.175 -34.421 346.484 -39.4586C352.583 -44.0941 359.208 -49.4337 366.975 -51.0631C373.063 -52.2858 379.353 -51.5018 384.799 -48.9085C396.528 -43.5237 406.672 -34.4203 416.505 -26.4201C424.978 -19.5199 433.451 -12.4189 441.818 -5.418C448.303 0.183352 454.683 5.68465 461.062 11.3867C462.631 12.8876 464.2 14.1877 465.768 15.6885C467.65 17.4896 469.531 19.4914 471.308 21.3931C474.653 24.7957 477.893 28.299 481.029 31.7022C485.21 36.106 489.181 40.5105 493.362 44.9143C497.751 49.719 502.14 54.5236 506.425 59.429C510.5 64.1342 514.575 68.8395 518.65 73.5447C524.71 80.7533 531.082 88.4628 534.725 97.1843C535.036 98.0867 535.453 98.8884 535.66 99.8915C536.698 103.1 537.106 106.512 536.361 109.826C535.616 113.141 533.928 116.157 532.031 118.973C528.236 124.806 523.499 129.939 518.972 135.072C514.445 140.205 509.709 145.137 505.183 150.069C500.763 154.7 496.342 159.33 491.817 164.061C488.87 167.081 485.818 170.202 482.871 173.222C482.45 173.625 482.029 174.027 481.609 174.43C448.886 205.744 412.368 211.274 381.909 192.195C373.954 187.2 366.944 182.102 361.509 176.096C349.49 162.984 332.325 152.195 314.731 143.817C298.395 135.836 288.167 120.61 278.674 104.88Z" stroke="#011235" stroke-width="0.25"/>
<path d="M289.172 101.837C273.324 72.9779 276.577 40.6482 306.564 11.9519C312.35 6.41399 318.556 1.27635 324.656 -3.96137C333.386 -11.5156 342.221 -18.9697 351.579 -25.9235C356.836 -29.9543 362.514 -34.187 369.128 -36.1139C376.477 -38.1435 383.601 -35.5553 390.093 -32.3629C398.679 -27.9723 406.211 -21.9726 413.744 -16.1737C421.59 -10.0746 429.332 -3.8748 436.968 2.42568C440.315 5.22604 443.977 7.92508 447.218 11.0269C451.297 14.5276 455.586 18.0278 459.454 21.7299C462.068 24.2313 464.576 27.0342 467.085 29.6364C471.371 34.1402 475.656 38.8448 479.836 43.4494C484.747 48.9551 489.659 54.4608 494.465 60.0671C498.958 65.3734 503.555 70.7796 507.732 76.3879C512.119 81.9956 516.295 87.8046 518.791 94.4217C520.247 98.0307 521.073 102.043 520.431 106.06C519.893 109.976 517.889 113.495 515.675 116.814C513.461 120.334 510.829 123.453 508.091 126.673C501.563 134.321 494.722 141.669 487.88 149.017C487.775 149.118 487.775 149.118 487.669 149.218C483.775 153.345 479.776 157.573 475.671 161.7C474.514 162.808 473.461 164.016 472.304 165.123C443.475 192.712 410.733 198.03 383.409 182.354C376.081 178.16 369.487 173.864 364.26 168.66C352.865 157.352 337.163 147.764 321.562 139.681C306.38 131.797 297.513 116.868 289.172 101.837Z" stroke="#011235" stroke-width="0.25"/>
<path d="M299.881 98.7939C287.588 73.3364 290.828 45.0217 316.816 20.1516C322.393 14.8151 328.282 9.97955 334.277 5.04328C342.165 -1.50464 350.158 -8.15323 358.778 -14.0007C366.872 -19.5456 375.485 -23.3856 385.44 -20.5048C392.985 -18.3193 399.578 -13.8224 405.961 -9.5256C414.857 -3.42966 423.226 3.16974 431.7 9.86917C438.29 15.1691 444.776 20.3689 450.945 26.0715C451.677 26.7719 452.304 27.3723 453.036 28.0727C457.219 32.075 461.085 36.3794 464.952 40.6837C471.013 47.4908 476.864 54.2985 482.61 61.2069C488.252 68.0152 493.998 74.9236 498.587 82.538C501.195 86.8462 503.488 91.4564 504.31 96.4726C505.238 101.388 504.489 106.108 502.166 110.531C499.528 115.658 495.842 120.186 492.156 124.714C492.051 124.814 491.945 124.915 491.945 124.915C486.786 131.053 481.416 137.192 475.838 143.131C471.838 147.358 468.049 151.586 463.84 155.613C463.735 155.714 463.524 155.915 463.419 156.016C438.378 179.98 409.728 184.984 385.225 172.612C378.524 169.219 372.347 165.725 367.431 161.424C356.554 152.021 342.527 143.632 328.708 135.845C314.365 127.758 306.756 113.227 299.881 98.7939Z" stroke="#011235" stroke-width="0.25"/>
<path d="M310.378 95.7513C301.536 73.5956 304.762 49.2958 326.752 28.2517C333.171 22.1097 363.981 -1.77125 371.961 -4.60569C382.252 -8.25006 392.729 -4.86889 401.732 0.323397C406.653 3.2194 411.257 6.41746 415.861 9.81627C419.837 12.8155 423.918 15.714 427.893 18.7132C431.765 21.6124 435.426 24.5122 439.087 27.6127C441.702 29.7127 444.212 31.9133 446.617 34.2147C451.113 38.5172 455.188 43.2224 459.053 47.9283C467.83 58.1399 476.502 68.4522 483.176 80.0753C483.906 81.3779 484.636 82.6806 485.261 84.0839C487.343 88.6948 488.69 93.8097 488.359 98.9297C488.028 103.648 486.126 108.07 483.7 112.193C479.587 118.93 474.01 124.668 469.059 131.007C465.583 135.534 461.689 139.661 457.795 143.788C456.742 144.995 455.584 146.103 454.532 147.11C433.278 167.449 408.615 172.241 387.144 162.971C381.069 160.379 375.413 157.787 370.6 154.188C360.451 146.69 347.784 139.401 335.957 131.909C322.349 123.519 315.892 109.486 310.378 95.7513Z" stroke="#011235" stroke-width="0.25"/>
<path d="M320.983 92.608C315.381 73.7548 318.908 53.5693 336.795 36.4521C343.634 29.9073 367.185 12.7731 375.794 10.1375C380.099 8.81974 384.819 8.70517 389.117 9.39484C400.543 11.2675 431.312 31.8517 440.095 40.2566C446.368 46.2601 451.799 53.2698 456.916 60.1801C459.735 64.0862 462.554 67.9922 465.058 72.2003C468.082 77.3102 470.898 82.4208 472.137 88.2387C472.964 92.0504 473.16 96.0647 472.414 99.7807C471.243 105.104 468.081 109.53 465.13 113.955C462.179 118.18 459.02 122.204 455.86 126.228C452.595 130.354 449.225 134.379 445.332 138.104C427.972 154.718 407.189 159.398 388.644 153.331C383.196 151.54 378.063 149.649 373.456 147.053C363.93 141.36 352.833 135.171 342.892 128.074C330.439 119.379 325.029 105.945 320.983 92.608Z" stroke="#011235" stroke-width="0.25"/>
<path d="M331.481 89.5646C328.805 74.1154 332.949 57.7423 346.733 44.5521C353.888 37.7053 370.389 27.1166 379.417 24.6805C383.091 23.7661 386.868 23.554 390.433 23.9447C402.596 25.1126 424.371 37.4932 433.572 46.2983C443.087 55.4035 455.918 76.7441 456.928 88.585C457.231 92.0971 457.009 95.9119 455.948 99.3278C453.404 107.566 442.867 122.252 436.028 128.797C422.455 141.786 405.764 146.352 390.04 143.389C385.114 142.5 380.503 141.31 376.209 139.415C367.306 135.528 357.778 130.437 349.514 123.737C338.634 115.138 333.747 102.405 331.481 89.5646Z" stroke="#011235" stroke-width="0.25"/>
<path d="M356.659 120.103C346.935 110.798 342.15 98.5668 342.19 86.522C342.229 74.4772 347.2 62.1164 356.879 52.853C376.344 34.2255 407.916 34.0302 427.363 52.6409C446.811 71.2517 446.712 101.364 427.141 120.092C417.356 129.456 404.545 134.112 391.959 134.15C379.372 134.187 366.278 129.309 356.659 120.103Z" stroke="#011235" stroke-width="0.25"/>
</g>
</g>
</g>
</svg>
