<svg id="SvgjsSvg1001" width="288" height="288" xmlns="http://www.w3.org/2000/svg" version="1.1" xmlns:xlink="http://www.w3.org/1999/xlink" xmlns:svgjs="http://svgjs.com/svgjs"><defs id="SvgjsDefs1002"></defs><g id="SvgjsG1008" transform="matrix(1,0,0,1,0,0)"><svg xmlns="http://www.w3.org/2000/svg" width="288" height="288" viewBox="0 0 400 150"><path fill-rule="evenodd" d="M198.150 50.676 C 197.875 51.141,195.569 51.540,190.750 51.957 C 186.900 52.290,182.906 52.782,181.875 53.051 L 180.000 53.539 180.000 57.532 C 180.000 61.312,180.066 61.550,181.228 61.992 C 182.659 62.536,191.497 63.500,195.053 63.500 L 197.500 63.500 197.500 70.500 C 197.500 74.350,197.645 77.500,197.823 77.500 C 198.000 77.500,199.125 76.881,200.322 76.125 L 202.498 74.750 202.499 69.125 L 202.500 63.500 205.270 63.500 C 208.893 63.500,217.286 62.557,218.806 61.979 C 219.927 61.553,220.000 61.280,220.000 57.542 C 220.000 52.693,220.706 53.111,210.878 52.151 C 205.800 51.655,202.454 51.102,201.961 50.678 C 200.944 49.805,198.666 49.803,198.150 50.676 M141.100 55.100 C 140.239 55.961,140.239 92.039,141.100 92.900 C 141.430 93.230,142.285 93.500,143.000 93.500 C 145.127 93.500,145.500 92.666,145.500 87.912 C 145.500 83.557,147.147 80.408,148.418 82.332 C 154.335 91.290,159.953 95.891,161.482 93.033 C 162.378 91.359,162.117 90.873,156.913 84.542 L 151.825 78.353 156.663 73.878 C 161.507 69.397,162.313 68.013,160.900 66.600 C 159.462 65.162,157.905 65.999,151.702 71.543 L 145.500 77.086 145.500 66.393 C 145.500 58.743,145.329 55.529,144.900 55.100 C 144.127 54.327,141.873 54.327,141.100 55.100 M57.000 67.039 C 49.910 70.245,49.011 72.829,49.005 90.025 C 49.000 104.727,49.046 105.007,51.475 104.992 C 54.079 104.977,54.231 104.567,54.500 96.894 C 54.652 92.553,54.921 90.015,55.186 90.426 C 57.748 94.398,67.700 94.401,72.210 90.431 C 83.929 80.115,71.240 60.601,57.000 67.039 M87.750 67.183 C 73.857 73.704,79.283 94.242,94.676 93.396 C 103.128 92.932,107.622 88.221,107.693 79.750 C 107.781 69.281,97.322 62.691,87.750 67.183 M119.877 66.758 C 108.944 70.774,108.540 87.235,119.250 92.306 C 124.868 94.967,135.000 92.727,135.000 88.825 C 135.000 86.355,132.473 85.751,129.949 87.617 C 126.602 90.091,120.088 88.550,118.159 84.827 C 113.351 75.551,122.751 66.306,130.425 72.763 C 132.812 74.772,135.500 74.203,135.500 71.689 C 135.500 67.688,125.736 64.607,119.877 66.758 M170.538 66.860 C 160.206 70.509,159.701 86.742,169.750 92.167 C 175.382 95.208,189.114 91.963,186.714 88.158 C 185.572 86.347,184.722 86.264,181.613 87.659 C 176.244 90.069,168.000 87.551,168.000 83.503 C 168.000 83.271,167.863 82.726,167.697 82.291 C 167.426 81.585,168.508 81.500,177.709 81.500 C 189.577 81.500,189.268 81.640,188.477 76.637 C 187.117 68.032,179.293 63.768,170.538 66.860 M218.584 67.211 C 209.373 70.219,211.641 79.635,222.027 81.499 C 228.738 82.704,231.321 84.810,230.000 88.001 C 228.387 91.894,220.208 92.442,215.860 88.947 C 212.846 86.525,210.649 88.285,213.270 91.021 C 217.712 95.657,229.093 95.284,232.580 90.388 C 235.972 85.624,232.273 80.347,224.605 79.012 C 220.542 78.304,217.607 77.133,216.985 75.973 C 214.086 70.554,223.468 67.429,228.740 72.058 C 231.678 74.638,234.270 73.250,231.972 70.328 C 229.547 67.245,223.086 65.741,218.584 67.211 M245.602 67.447 C 232.844 71.854,233.373 90.028,246.371 93.807 C 253.804 95.967,262.184 91.722,264.042 84.854 C 267.181 73.245,256.904 63.543,245.602 67.447 M275.024 67.152 C 269.595 68.883,267.917 73.288,268.113 85.296 L 268.250 93.750 269.750 93.750 L 271.250 93.750 271.504 84.500 C 271.713 76.891,271.917 74.958,272.653 73.603 C 274.901 69.467,280.491 68.759,283.911 72.176 L 285.750 74.014 286.000 83.882 L 286.250 93.750 288.000 93.750 L 289.750 93.750 290.000 83.882 L 290.250 74.014 292.089 72.176 C 295.509 68.759,301.099 69.467,303.347 73.603 C 304.083 74.958,304.287 76.891,304.496 84.500 L 304.750 93.750 306.250 93.750 L 307.750 93.750 307.750 84.250 C 307.750 75.286,307.684 74.615,306.574 72.361 C 303.478 66.075,295.081 64.609,289.978 69.463 L 288.000 71.345 286.056 69.496 C 283.211 66.790,278.980 65.891,275.024 67.152 M318.024 67.152 C 312.595 68.883,310.917 73.288,311.113 85.296 L 311.250 93.750 312.750 93.750 L 314.250 93.750 314.504 84.500 C 314.713 76.891,314.917 74.958,315.653 73.603 C 317.901 69.467,323.491 68.759,326.911 72.176 L 328.750 74.014 329.000 83.882 L 329.250 93.750 331.000 93.750 L 332.750 93.750 333.000 83.882 L 333.250 74.014 335.089 72.176 C 338.509 68.759,344.099 69.467,346.347 73.603 C 347.083 74.958,347.287 76.891,347.496 84.500 L 347.750 93.750 349.250 93.750 L 350.750 93.750 350.750 84.250 C 350.750 75.286,350.684 74.615,349.574 72.361 C 346.478 66.075,338.081 64.609,332.978 69.463 L 331.000 71.345 329.056 69.496 C 326.211 66.790,321.980 65.891,318.024 67.152 M255.177 70.823 C 265.257 75.914,261.748 91.199,250.500 91.199 C 244.432 91.199,239.844 86.593,239.840 80.500 C 239.835 72.517,248.148 67.272,255.177 70.823 M67.327 72.047 C 72.757 75.403,72.639 84.170,67.117 87.582 C 60.451 91.702,52.331 84.996,54.520 77.178 C 56.115 71.483,62.363 68.980,67.327 72.047 M96.873 71.269 C 101.752 73.308,103.822 78.822,101.560 83.750 C 98.570 90.260,89.613 90.602,86.413 84.330 C 82.542 76.741,89.418 68.154,96.873 71.269 M179.880 71.497 C 181.633 72.566,183.495 75.205,183.498 76.625 C 183.500 77.422,182.786 77.500,175.500 77.500 C 171.100 77.500,167.500 77.379,167.500 77.230 C 167.500 72.530,175.498 68.826,179.880 71.497 M198.625 79.137 C 194.170 82.093,194.000 82.275,194.000 84.067 C 194.000 85.969,195.718 88.000,197.327 88.000 C 199.154 88.000,203.151 84.529,201.375 84.484 C 201.031 84.476,201.588 83.954,202.612 83.324 C 206.483 80.943,207.434 79.022,205.804 76.875 C 204.751 75.488,203.557 75.863,198.625 79.137 M198.611 89.482 C 194.072 92.417,194.000 92.494,194.000 94.448 C 194.000 96.305,195.773 98.500,197.275 98.500 C 198.283 98.500,202.000 95.666,201.865 95.000 C 201.776 94.566,202.719 93.561,204.106 92.612 C 206.611 90.897,207.100 89.556,205.982 87.467 C 205.134 85.883,203.474 86.337,198.611 89.482 M199.477 99.293 C 192.613 103.515,192.009 105.555,196.744 108.527 C 199.439 110.220,199.487 110.292,199.494 112.625 C 199.502 115.720,200.406 115.711,201.875 112.601 C 203.177 109.845,203.321 107.181,202.250 105.652 C 201.542 104.641,201.604 104.518,203.375 103.437 C 205.749 101.987,206.464 101.076,206.484 99.475 C 206.523 96.333,204.379 96.277,199.477 99.293 " fill="#ffffff" class="color000 svgShape"></path></svg></g></svg>