<?xml version="1.0" encoding="UTF-8" standalone="no"?>
<svg
   id="svg"
   version="1.1"
   width="304"
   height="67"
   viewBox="0 0 304 67"
   sodipodi:docname="logo.svg"
   inkscape:version="1.1 (c68e22c387, 2021-05-23)"
   xmlns:inkscape="http://www.inkscape.org/namespaces/inkscape"
   xmlns:sodipodi="http://sodipodi.sourceforge.net/DTD/sodipodi-0.dtd"
   xmlns="http://www.w3.org/2000/svg"
   xmlns:svg="http://www.w3.org/2000/svg">
  <defs
     id="defs7" />
  <sodipodi:namedview
     id="namedview5"
     pagecolor="#ffffff"
     bordercolor="#666666"
     borderopacity="1.0"
     inkscape:pageshadow="2"
     inkscape:pageopacity="0.0"
     inkscape:pagecheckerboard="0"
     showgrid="false"
     height="149px"
     inkscape:zoom="2.645"
     inkscape:cx="160.49149"
     inkscape:cy="75.047259"
     inkscape:window-width="1920"
     inkscape:window-height="1027"
     inkscape:window-x="1072"
     inkscape:window-y="608"
     inkscape:window-maximized="1"
     inkscape:current-layer="svg" />
  <g
     id="svgg"
     transform="translate(-47.52741,-48.771266)">
    <path
       id="path0"
       d="m 198.15,50.676 c -0.275,0.465 -2.581,0.864 -7.4,1.281 -3.85,0.333 -7.844,0.825 -8.875,1.094 L 180,53.539 v 3.993 c 0,3.78 0.066,4.018 1.228,4.46 1.431,0.544 10.269,1.508 13.825,1.508 h 2.447 v 7 c 0,3.85 0.145,7 0.323,7 0.177,0 1.302,-0.619 2.499,-1.375 l 2.176,-1.375 0.001,-5.625 0.001,-5.625 h 2.77 c 3.623,0 12.016,-0.943 13.536,-1.521 1.121,-0.426 1.194,-0.699 1.194,-4.437 0,-4.849 0.706,-4.431 -9.122,-5.391 -5.078,-0.496 -8.424,-1.049 -8.917,-1.473 -1.017,-0.873 -3.295,-0.875 -3.811,-0.002 M 141.1,55.1 c -0.861,0.861 -0.861,36.939 0,37.8 0.33,0.33 1.185,0.6 1.9,0.6 2.127,0 2.5,-0.834 2.5,-5.588 0,-4.355 1.647,-7.504 2.918,-5.58 5.917,8.958 11.535,13.559 13.064,10.701 0.896,-1.674 0.635,-2.16 -4.569,-8.491 l -5.088,-6.189 4.838,-4.475 c 4.844,-4.481 5.65,-5.865 4.237,-7.278 -1.438,-1.438 -2.995,-0.601 -9.198,4.943 L 145.5,77.086 V 66.393 c 0,-7.65 -0.171,-10.864 -0.6,-11.293 -0.773,-0.773 -3.027,-0.773 -3.8,0 M 57,67.039 c -7.09,3.206 -7.989,5.79 -7.995,22.986 -0.005,14.702 0.041,14.982 2.47,14.967 2.604,-0.015 2.756,-0.425 3.025,-8.098 0.152,-4.341 0.421,-6.879 0.686,-6.468 2.562,3.972 12.514,3.975 17.024,0.005 C 83.929,80.115 71.24,60.601 57,67.039 m 30.75,0.144 c -13.893,6.521 -8.467,27.059 6.926,26.213 8.452,-0.464 12.946,-5.175 13.017,-13.646 C 107.781,69.281 97.322,62.691 87.75,67.183 m 32.127,-0.425 c -10.933,4.016 -11.337,20.477 -0.627,25.548 5.618,2.661 15.75,0.421 15.75,-3.481 0,-2.47 -2.527,-3.074 -5.051,-1.208 -3.347,2.474 -9.861,0.933 -11.79,-2.79 -4.808,-9.276 4.592,-18.521 12.266,-12.064 2.387,2.009 5.075,1.44 5.075,-1.074 0,-4.001 -9.764,-7.082 -15.623,-4.931 m 50.661,0.102 c -10.332,3.649 -10.837,19.882 -0.788,25.307 5.632,3.041 19.364,-0.204 16.964,-4.009 -1.142,-1.811 -1.992,-1.894 -5.101,-0.499 C 176.244,90.069 168,87.551 168,83.503 c 0,-0.232 -0.137,-0.777 -0.303,-1.212 -0.271,-0.706 0.811,-0.791 10.012,-0.791 11.868,0 11.559,0.14 10.768,-4.863 -1.36,-8.605 -9.184,-12.869 -17.939,-9.777 m 48.046,0.351 c -9.211,3.008 -6.943,12.424 3.443,14.288 6.711,1.205 9.294,3.311 7.973,6.502 -1.613,3.893 -9.792,4.441 -14.14,0.946 -3.014,-2.422 -5.211,-0.662 -2.59,2.074 4.442,4.636 15.823,4.263 19.31,-0.633 3.392,-4.764 -0.307,-10.041 -7.975,-11.376 -4.063,-0.708 -6.998,-1.879 -7.62,-3.039 -2.899,-5.419 6.483,-8.544 11.755,-3.915 2.938,2.58 5.53,1.192 3.232,-1.73 -2.425,-3.083 -8.886,-4.587 -13.388,-3.117 m 27.018,0.236 c -12.758,4.407 -12.229,22.581 0.769,26.36 7.433,2.16 15.813,-2.085 17.671,-8.953 3.139,-11.609 -7.138,-21.311 -18.44,-17.407 m 29.422,-0.295 c -5.429,1.731 -7.107,6.136 -6.911,18.144 l 0.137,8.454 h 1.5 1.5 l 0.254,-9.25 c 0.209,-7.609 0.413,-9.542 1.149,-10.897 2.248,-4.136 7.838,-4.844 11.258,-1.427 l 1.839,1.838 0.25,9.868 0.25,9.868 h 1.75 1.75 l 0.25,-9.868 0.25,-9.868 1.839,-1.838 c 3.42,-3.417 9.01,-2.709 11.258,1.427 0.736,1.355 0.94,3.288 1.149,10.897 l 0.254,9.25 h 1.5 1.5 v -9.5 c 0,-8.964 -0.066,-9.635 -1.176,-11.889 -3.096,-6.286 -11.493,-7.752 -16.596,-2.898 L 288,71.345 286.056,69.496 c -2.845,-2.706 -7.076,-3.605 -11.032,-2.344 m 43,0 c -5.429,1.731 -7.107,6.136 -6.911,18.144 l 0.137,8.454 h 1.5 1.5 l 0.254,-9.25 c 0.209,-7.609 0.413,-9.542 1.149,-10.897 2.248,-4.136 7.838,-4.844 11.258,-1.427 l 1.839,1.838 0.25,9.868 0.25,9.868 h 1.75 1.75 l 0.25,-9.868 0.25,-9.868 1.839,-1.838 c 3.42,-3.417 9.01,-2.709 11.258,1.427 0.736,1.355 0.94,3.288 1.149,10.897 l 0.254,9.25 h 1.5 1.5 v -9.5 c 0,-8.964 -0.066,-9.635 -1.176,-11.889 -3.096,-6.286 -11.493,-7.752 -16.596,-2.898 L 331,71.345 329.056,69.496 c -2.845,-2.706 -7.076,-3.605 -11.032,-2.344 m -62.847,3.671 c 10.08,5.091 6.571,20.376 -4.677,20.376 -6.068,0 -10.656,-4.606 -10.66,-10.699 -0.005,-7.983 8.308,-13.228 15.337,-9.677 m -187.85,1.224 c 5.43,3.356 5.312,12.123 -0.21,15.535 -6.666,4.12 -14.786,-2.586 -12.597,-10.404 1.595,-5.695 7.843,-8.198 12.807,-5.131 m 29.546,-0.778 c 4.879,2.039 6.949,7.553 4.687,12.481 -2.99,6.51 -11.947,6.852 -15.147,0.58 -3.871,-7.589 3.005,-16.176 10.46,-13.061 m 83.007,0.228 c 1.753,1.069 3.615,3.708 3.618,5.128 0.002,0.797 -0.712,0.875 -7.998,0.875 -4.4,0 -8,-0.121 -8,-0.27 0,-4.7 7.998,-8.404 12.38,-5.733 m 18.745,7.64 c -4.455,2.956 -4.625,3.138 -4.625,4.93 0,1.902 1.718,3.933 3.327,3.933 1.827,0 5.824,-3.471 4.048,-3.516 -0.344,-0.008 0.213,-0.53 1.237,-1.16 3.871,-2.381 4.822,-4.302 3.192,-6.449 -1.053,-1.387 -2.247,-1.012 -7.179,2.262 m -0.014,10.345 c -4.539,2.935 -4.611,3.012 -4.611,4.966 0,1.857 1.773,4.052 3.275,4.052 1.008,0 4.725,-2.834 4.59,-3.5 -0.089,-0.434 0.854,-1.439 2.241,-2.388 2.505,-1.715 2.994,-3.056 1.876,-5.145 -0.848,-1.584 -2.508,-1.13 -7.371,2.015 m 0.866,9.811 c -6.864,4.222 -7.468,6.262 -2.733,9.234 2.695,1.693 2.743,1.765 2.75,4.098 0.008,3.095 0.912,3.086 2.381,-0.024 1.302,-2.756 1.446,-5.42 0.375,-6.949 -0.708,-1.011 -0.646,-1.134 1.125,-2.215 2.374,-1.45 3.089,-2.361 3.109,-3.962 0.039,-3.142 -2.105,-3.198 -7.007,-0.182"
       stroke="none"
       fill="#000000"
       fill-rule="evenodd" />
  </g>
</svg>
