<svg xmlns="http://www.w3.org/2000/svg" width="870" height="177.9927" viewBox="0 0 870 177.9927"><defs><style>.a{fill:#3b3d3e;}.b{fill:#5a9b84;}.c{fill:#77ac9a;}</style></defs><title>Asset 19</title><path class="a" d="M76.9355,124.448c7.7532-.9864,9.23-2.7056,9.23-13.2912V53.06c0-6.3976-3.0776-8.37-8.6156-6.8936V44.6894l23.3865-7.5081v40.99c5.9072-5.9072,12.5528-11.6961,20.9232-11.6961,9.23,0,15.5093,6.1553,15.5093,16.8649v27.8169c0,10.3376,1.3528,12.4288,8.6156,13.2912v.9864H113.4892v-.9864c7.8772-.9864,8.9848-2.83,8.9848-13.2912V85.9215c0-7.508-2.83-11.076-8.9848-11.076-4.8,0-8.7368,2.83-12.5528,6.2792v30.0321c0,10.4616,1.3528,12.5528,8.3676,13.2912v.9864H76.9355Z"/><path class="a" d="M150.7084,124.448c7.9985-.9864,9.5993-2.9536,9.5993-13.2912v-30.77c0-5.6649-3.1988-6.77-9.1089-5.0448V73.859L175.2,65.9846v45.1722c0,10.2136,1.6008,12.4288,8.4944,13.2912v.9864H150.7084ZM158.8309,45.8c0-4.8024,3.94-8.1224,8.74-8.1224s8.6156,3.32,8.6156,8.1224c0,4.6784-3.816,8.1224-8.6156,8.1224S158.8309,50.4782,158.8309,45.8Z"/><path class="a" d="M190.3454,124.448c7.8772-.9864,9.2328-2.9536,9.2328-13.2912V53.3078c0-8.4944-3.816-8.37-9.354-6.8936V44.9374l24.122-7.7561v73.9755c0,10.2136,1.6009,12.3048,8.6157,13.2912v.9864H190.3454Z"/><path class="a" d="M230.1063,124.448c7.9984-.9864,9.5992-2.9536,9.5992-13.2912v-30.77c0-5.6649-3.1988-6.77-9.1088-5.0448V73.859l24.0009-7.8744v45.1722c0,10.2136,1.6008,12.4288,8.4944,13.2912v.9864H230.1063ZM238.2287,45.8c0-4.8024,3.94-8.1224,8.74-8.1224s8.6156,3.32,8.6156,8.1224c0,4.6784-3.816,8.1224-8.6156,8.1224S238.2287,50.4782,238.2287,45.8Z"/><path class="a" d="M265.1888,154.3561c8.1225-.9808,9.4781-3.0776,9.4781-13.4153V82.9679c0-8.4888-3.2016-9.3512-8.4945-7.9984V73.4927l23.3865-7.3841V79.1519c6.1552-7.75,9.9684-12.6769,18.9561-12.6769,15.0132,0,24.0008,12.4345,24.0008,28.8033,0,18.8321-14.1564,31.6329-29.2936,31.6329-6.8937,0-9.2329-2.2152-13.6633-6.0312v20.1848c.124,9.9713,2.7084,12.4289,10.2164,13.2913v.9864H265.1888Zm50.9554-55.51c0-12.0624-4.43-23.1384-14.5229-23.1384-5.538,0-8.74,3.444-12.0624,7.26v24.8632c0,10.0953,5.538,15.14,12.8008,15.14C312.083,122.9712,316.1442,111.5231,316.1442,98.8463Z"/><path class="a" d="M350.662,123.8336a3.7215,3.7215,0,0,0-1.9672-.372,2.438,2.438,0,0,0-2.5844,1.9728h-1.2316V105.25h1.1076c1.6008,9.9656,9.4781,18.336,18.5841,18.336,5.662,0,9.354-3.692,9.354-8.7368,0-5.2928-3.444-7.6321-13.66-12.5529-11.6933-5.4168-16.3689-9.2328-16.3689-18.708,0-10.3433,8.7368-17.3552,19.6917-17.3552A26.7989,26.7989,0,0,1,375.28,68.9382a4.1905,4.1905,0,0,0,1.97.3721,2.4993,2.4993,0,0,0,2.2152-1.6008h1.2288l.9864,18.0936h-1.3556c-1.9672-9.4808-8.7368-16.2505-16.9832-16.2505-5.1717,0-9.354,2.4633-9.354,7.3841,0,5.2928,3.8131,7.2656,14.3988,12.5584,12.1864,5.6592,17.6,9.7232,17.6,19.3225,0,11.69-10.7068,18.0936-21.2924,18.0936C358.9113,126.9112,355.4645,125.4344,350.662,123.8336Z"/><path class="a" d="M394.115,96.8791c0-17.6032,13.5392-30.4041,30.8945-30.4041s30.8916,11.9385,30.8916,30.0321c0,17.6033-13.66,30.4041-30.8916,30.4041C407.6542,126.9112,394.115,114.8488,394.115,96.8791Zm45.5413,4.0584c0-13.2912-4.8-31.0128-16.7409-31.0128-8.4916,0-12.5528,9.9656-12.5528,22.4,0,13.4152,4.8,31.1369,16.7381,31.1369C435.5951,123.4616,439.6563,113.248,439.6563,100.9375Z"/><path class="a" d="M460.0976,124.448c7.9984-.9864,9.23-3.2016,9.23-13.2912V81.8631c0-8.2464-3.0776-8.37-8.74-6.77V73.6167L484.22,66.1086V78.1711c6.0312-5.9072,12.5556-11.6961,20.926-11.6961,9.3541,0,15.5065,6.1553,15.5065,16.8649v27.8169c0,10.3376,1.3556,12.4288,8.74,13.2912v.9864H496.8993v-.9864c7.7532-.9864,8.8608-2.83,8.8608-13.2912V85.9215c0-7.508-2.83-11.076-8.9848-11.076-4.8,0-8.74,2.83-12.5556,6.2792v30.0321c0,10.2136,1.3556,12.4288,8.37,13.2912v.9864H460.0976Z"/><path class="a" d="M44.5593,86.7691a27.9381,27.9381,0,0,1-6.176,1.4141,1.7727,1.7727,0,0,0,.4041.0289,16.8247,16.8247,0,0,0,10.0431-3.3764A22.1231,22.1231,0,0,1,44.5593,86.7691Z"/><path class="a" d="M69.2054,53.4938a23.6424,23.6424,0,0,0-8.5425-7.9364,31.07,31.07,0,0,0-11.1974-3.9127,106.3657,106.3657,0,0,0-13.6507-.7793H0v1.229c.9524.1155,1.6276.2,2.6262.3459s1.9913.4045,2.9148.5778c4.6464,1.183,5.7719,3.6652,5.7719,11.89v56.2475c0,10.9668-1.9624,12.0638-11.1975,13.3046v.9815H40.4611v-1.1837a16.9678,16.9678,0,0,1-7.4745-1.7319,9.6626,9.6626,0,0,1-3.6075-3.0586,8.4923,8.4923,0,0,1-1.2987-4.4156c-.0578-1.79-.1443-3.9541-.2309-6.4357,0-1.3274,0-2.5393-.0576-3.6652-.0289-1.1259-.0578-2.3667-.0578-3.6941V90.29h6.32c2.3954,0,4.8772-.1156,7.4169-.2882,2.5108-.2022,5.0216-.4911,7.5323-.8948a37.7929,37.7929,0,0,0,7.0129-1.7319,32.6142,32.6142,0,0,0,6.176-3.1163,22.2634,22.2634,0,0,0,9.0042-10.7942,21.0823,21.0823,0,0,0,1.3852-7.8209A21.6366,21.6366,0,0,0,69.2054,53.4938Zm-13.1889,24.82a20.5582,20.5582,0,0,1-7.186,6.5223,16.8247,16.8247,0,0,1-10.0431,3.3764,1.7727,1.7727,0,0,1-.4041-.0289,15.9043,15.9043,0,0,1-1.645.1733c-2.7993.2022-5.8008.2889-9.0042.2889v-14.95c0-3.723.0289-7.532.0578-11.4283,0-.4615,0-.923.0289-1.3852V44.5153c.1607-.08.3276-.2006.5007-.278a3.8869,3.8869,0,0,1,.6244-.2123c9.4374-2.0844,22.0879.5806,27.59,9.0073A21.5251,21.5251,0,0,1,59.97,65.0666,23.2969,23.2969,0,0,1,56.0165,78.3134Z"/><path class="b" d="M759.7836,109.5233s-3.99,3.0211-6.48,2.1349c-2.6524-.9434-7.2159.969-7.8794,1.4842-3.104,1.5873-4.5606,2.7693-6.4282,3.5448a23.9381,23.9381,0,0,1-4.5756.6477s.8889-.3349,1.0056-.9759a3.5615,3.5615,0,0,1,.7435-1.3549s-4.3565-.6277-5.7554-.22-3.2935,1.7185-6.5716.6249a2.2593,2.2593,0,0,0,1.1951-1.1071c.3061-.7722,1.108-2.4476,1.108-2.4476-1.18-1.7051-4.4876-.8171-6.6147-1.8668a2.2086,2.2086,0,0,0,1.5013-1.8792,11.1293,11.1293,0,0,0-4.05-1.4c-2.1127-.2191-4.1374-2.74-4.9679-2.726a2.2589,2.2589,0,0,0,1.195-1.1071,15.6045,15.6045,0,0,1,4.4015-4.1661,9.1143,9.1143,0,0,0-2.71-1.4869c-1.4132-.4229-2.0687-1.37-2.8992-1.3558a4.5771,4.5771,0,0,0,1.5156-1.0487,4.4975,4.4975,0,0,1,1.1951-1.1071s-3.4092-1.2831-4.5163-2.4782a2.8934,2.8934,0,0,0,1.3846-1.2382,4.3821,4.3821,0,0,1-2.928-3.0169c-1.0047-2.6667-1.8936-2.3318-1.8936-2.3318a14.3279,14.3279,0,0,0,3.1624-1.9079,8.7727,8.7727,0,0,1,2.594-1.5147s-2.36-3.41-2.87-3.3375a12.2218,12.2218,0,0,0,2.4772-.8736c.5684-.3933-3.2341-2.2447-4.1517-3.5709s-2.6218-3.7891-3.1318-3.7164a8.007,8.007,0,0,0,3.2935-1.7185,4.0712,4.0712,0,0,1,3.1767-1.0774,5.3728,5.3728,0,0,0-1.6314-1.9529c-.9033-.4956-.7425-2.2878-1.3253-2.7251a3.8812,3.8812,0,0,0,2.04-.2909c1.0784-.4659,2.1567-.9319,2.6084-.6841a3.9888,3.9888,0,0,0-.7282-1.4573c-.6554-.9472-.2909-2.04-.932-2.1567a3.1866,3.1866,0,0,0,1.5884-.5387l.7578-.5243s-1.146-3.9084-.1005-5.8138a2.297,2.297,0,0,0-.3636-2.55,4.2152,4.2152,0,0,0,2.3749.598c1.34-.0871,7.3581.5119,8.3925,1.197a5.78,5.78,0,0,1-.1015-2.1711,2.9373,2.9373,0,0,0-.0287-1.661s1.7482,1.3118,2.3165.9185l-1.0487-1.5156c-.1311-.19,2.1567-.932,2.6667-1.0047a3.1891,3.1891,0,0,1-.3636-2.55,2.6244,2.6244,0,0,0-.1014-2.1711,6.3031,6.3031,0,0,0,1.4716.1024c.51-.0727,1.5884-.5387,2.04-.2909a3.9382,3.9382,0,0,1-.6258-2.9289c.4229-1.4132.54-2.0543.2775-2.4332a7.4094,7.4094,0,0,0,2.9432.2047,21.1454,21.1454,0,0,0,1.4-4.05c-.0144-.8305,1.7931-3.4819,1.5893-4.1814,0,0,4.2245,4.0809,5.8855,4.0522,0,0,1.0353-2.9576.7731-3.3365s5.26,1.1233,5.9736,1.75c0,0-.976-1.0057-.8592-1.6468s-.9177-1.3261-.9177-1.3261l2.0984-.6115s-.5818-4.08,1.2841-7.0519a2.8342,2.8342,0,0,0-.2766-1.2094,6.9531,6.9531,0,0,0,2.7682,1.1663,5.135,5.135,0,0,1,2.0543.54,5.1844,5.1844,0,0,1,.8458-2.8265c.8746-1.1654,2.1577-4.5747,1.9539-5.2741,0,0,1.5731,2.2734,3.613,1.9825,0,0,1.487-2.71,1.3415-3.73,0,0,.5971,1.2678,1.4276,1.2534,0,0,3.4255-5.1717,3.4121-9.645a3.9585,3.9585,0,0,0,1.4276,1.2535c.7722.3062,3.7288,4.9842,4.3843,5.9314S778,9.8576,779.3839,12.2621c0,0,.1167-.641,1.1951-1.107s1.0056-.976,1.0056-.976a7.14,7.14,0,0,0,.932,2.1567,5.7741,5.7741,0,0,1,1.2812,3.8762,5.56,5.56,0,0,1,2.2429,4.0512,2.6916,2.6916,0,0,1,1.705-1.18,3.1737,3.1737,0,0,0,2.084-1.4419,29.56,29.56,0,0,1,.7713,3.9488c.087,1.3406-.3072,4.4149.2172,5.1727l1.064-1.2965s-1.108,2.4476,1.1788,5.3478a22.5618,22.5618,0,0,1,2.9442-3.438c.9473-.6554,2.2151-1.2525,2.7107-2.1557a4.013,4.013,0,0,0,.99,1.8361,7.4252,7.4252,0,0,0,1.1654.8746s1.1808-1.9376,2.2007-2.0831c0,0,.5244.7579.7138.6268,0,0,2.7691-2.4763,5.2608-2.5194,1.02-.1455,1.2534-1.4276,1.2534-1.4276a9.3849,9.3849,0,0,0,1.4123,4.0656,13.2453,13.2453,0,0,1,1.6161,4.7651,14.1128,14.1128,0,0,1,3.5413-2.17,4.7065,4.7065,0,0,0,2.594-1.5147,4.1015,4.1015,0,0,0,.8736,2.4773,4.1015,4.1015,0,0,1,.8736,2.4773s.54-2.0544,1.618-2.52a3.9015,3.9015,0,0,0,1.5156-1.0487s-.044,1.1511.4077,1.3989.4076,1.3989.4076,1.3989a6.67,6.67,0,0,1,4.8378-1.1061,2.854,2.854,0,0,0,2.04-.2909s-.9186,2.3165-.511,3.7154a8.7206,8.7206,0,0,1,.0574,3.3222,19.86,19.86,0,0,0,3.3518-2.0391,2.4283,2.4283,0,0,0,.1015,2.1711,6.3763,6.3763,0,0,1,.8592,1.6467,14.56,14.56,0,0,1,4.7067-1.2955,3.89,3.89,0,0,0,1.7195-.3493,15.9728,15.9728,0,0,0-.511,3.7154c.1455,1.02.2182,1.53-.03,1.9816s2.6667-1.0046,2.6667-1.0046l.2038.6994a4.4807,4.4807,0,0,1,2.0256-1.1214c1.02-.1455,2.4333.2775,3.4389-.6985,0,0-.9913,1.8065-.4669,2.5643s4.7354.3655,5.4348.1617,2.8562-1.1358,3.7451-1.4707a6.0781,6.0781,0,0,1,2.4916-.043S859.31,48.01,858.0564,49.438a14.8523,14.8523,0,0,0-1.749,2.3309,3.2143,3.2143,0,0,1,1.4716.1024s-1.6467.8592-2.74,4.1374a1.4879,1.4879,0,0,1,1.3405-.0871c.7722.3062,1.2382,1.3845,1.9376,1.1807,0,0-1.53.2182-1.8945,1.3109a7.6864,7.6864,0,0,1-2.5509,4.0063s1.02-.1454,1.9376,1.1807c.3932.5684,1.4716.1024,1.4716.1024a12.6258,12.6258,0,0,1-1.7491,2.3309,14.3116,14.3116,0,0,0-1.5013,1.8792,1.1974,1.1974,0,0,1,1.2965,1.064,2.7969,2.7969,0,0,1-1.5012,1.8793,1.83,1.83,0,0,1,1.6754.8018c.6554.9473,1.0487,1.5156,1.5587,1.4429a11.3049,11.3049,0,0,0-1.37,2.0687,13.4534,13.4534,0,0,1-2.8858,3.1174,1.7986,1.7986,0,0,1,.6554.9473c.0728.51.1455,1.02.466,1.0783s-.8305.0144-1.5883.5387a8.7167,8.7167,0,0,0-1.3846,1.2382,3.29,3.29,0,0,1,1.486.9329c.8449.8162,3.1614,1.7348,3.8609,1.5309a3.5251,3.5251,0,0,0-1.6324,1.69c-.554,1.2238-4.46,4.4867-4.46,4.4867s4.9822,3.5565,6.0606,3.09a10.3791,10.3791,0,0,0-2.39,2.2142c-.4956.9032-3.5852,3.3212-3.5852,3.3212a2.0181,2.0181,0,0,1,1.1654.8745,2.5439,2.5439,0,0,0,1.486.933s-.2479.4516-1.8362.99a6.5817,6.5817,0,0,0-2.6524,1.8352s1.6755.8019,2.3749.598,2.2438.4086,2.1854.7292a1.4726,1.4726,0,0,0-1.5156,1.0487,3.4212,3.4212,0,0,1,1.8649.6707c.7138.6267,3.8168,2.682,5.0263,2.4055a2.1446,2.1446,0,0,1-1.1367.7865c-.8889.3349-.4813,1.7338-1.37,2.0687a7.5345,7.5345,0,0,1,2.7681,1.1664c1.1655.8745,1.8209,1.8218,2.8993,1.3558,0,0-1.2679.5971-1.443,1.5587s-.8161.8449-.8161.8449a4.82,4.82,0,0,1,2.3308,1.7491c.9176,1.3262,4.4293,1.1377,5.988,2.5806S869.49,123.0526,870,122.98a9.7724,9.7724,0,0,1-4.168,2.884c-4.634,1.8055-3.9642,3.5834-4.9842,3.7288a.9984.9984,0,0,1,.9033.4956,1.7625,1.7625,0,0,0,1.0343.6851,6.9609,6.9609,0,0,0-2.0983.6115,15.0184,15.0184,0,0,1-3.4245,1.529,1.6926,1.6926,0,0,1,.597,1.2678c.0144.8306,1.6315,1.9529,1.6315,1.9529a11.9485,11.9485,0,0,0-2.9289.6258c-1.0784.466-3.5557,1.34-4.1384.9023a1.1989,1.1989,0,0,1,.466,1.0784,2.7452,2.7452,0,0,0,.4076,1.3989s-.5243-.7578-1.0343-.6851a6.3031,6.3031,0,0,1-1.4716-.1024,9.3244,9.3244,0,0,0,1.0047,2.6667c.8592,1.6467-.0441,1.1511.7425,2.2878a18.7455,18.7455,0,0,0-3.3222.0575c-.6994.2038-3.6283.83-4.9832.0861,0,0,.5243.7578.0871,1.34a2.7087,2.7087,0,0,0-.1608,1.7922,4.36,4.36,0,0,0-1.6611.0287,4.6857,4.6857,0,0,1-2.4916.0431,5.009,5.009,0,0,1,.8736,2.4772c-.044,1.1511.83,3.6284,1.4707,3.7451a8.6974,8.6974,0,0,0-2.1711.1014c-.6994.2038-2.5059-.7874-3.147-.9042s-3.38.378-3.6427-.0009c0,0-.6851,1.0343-.4813,1.7338a3.2027,3.2027,0,0,0-1.8649-.6708,5.1333,5.1333,0,0,1-2.0543-.54,2.4126,2.4126,0,0,1-.54,2.0543,1.7183,1.7183,0,0,0-.4813,1.7338s-.7865-1.1367-1.617-1.1223a4.7128,4.7128,0,0,1-2.6371-.977c-.2622-.3789-.2334,1.2822-.2334,1.2822a2.0554,2.0554,0,0,0-1.6171-1.1224,17.5861,17.5861,0,0,1-.22,2.9438,3.5231,3.5231,0,0,0,.51,2.7389c.5244.7578.5091,3.57.5091,3.57a4.1239,4.1239,0,0,0-1.7338-.4813c-.8306.0143-4.9976-.7444-4.9976-.7444a4.36,4.36,0,0,1-1.5443-.6124s.5827.4373.087,1.3405-.2334,1.2822-.2334,1.2822-1.1071-1.1951-1.9376-1.1807a2.741,2.741,0,0,1-2.2-1.56s.5387,1.5884-.03,1.9817-.6123,1.5443-.6123,1.5443a11.6046,11.6046,0,0,0-2.9136-2.1864,14.0893,14.0893,0,0,1-2.8409-1.6763,6.7729,6.7729,0,0,1-.4669,2.5643c-.4373.5827-.2191,2.1127-.2191,2.1127a4.6524,4.6524,0,0,0-3.482-1.7931,3.412,3.412,0,0,1-3.03-1.5453l-.044,1.1511s-1.996-.86-2.0687-1.37a5.0472,5.0472,0,0,0-.2191,2.1127c.0287,1.6611-1.487,2.71-1.4726,3.54,0,0,.044-1.1511-.9176-1.3262l-.9616-.1751h0a7.65,7.65,0,0,1-.6421,3.526c-.8018,1.6754-1.4438,5.2014-.9051,6.79a2.85,2.85,0,0,0-2.8265-.8458c-2.04.2909-4.1231-1.91-4.1231-1.91s-.6267.7138-.3645,1.0927a4.3111,4.3111,0,0,1-1.9376-1.1808,5.6248,5.6248,0,0,0-1.1071-1.195,7.2263,7.2263,0,0,1-2.1424,1.7625.8519.8519,0,0,0-.3061.7721s-.466-1.0783-1.1071-1.1951a4.2947,4.2947,0,0,1-2.6074-2.9585,2.64,2.64,0,0,1-1.1367.7865,1.7986,1.7986,0,0,0-.9473.6555s.1751-.9617-.4076-1.3989a2.4337,2.4337,0,0,1-.7866-1.1368,4.5874,4.5874,0,0,1-2.5069,2.8553c-1.2678.597-1.1951,1.107-1.1951,1.107a5.2067,5.2067,0,0,0-1.2525-2.2151,11.2348,11.2348,0,0,1-2.2572-4.8817s-.6851,1.0343-1.6467.8592a1.3,1.3,0,0,0-1.1367.7865,1.83,1.83,0,0,0-.16-1.8505,7.0707,7.0707,0,0,1-1.1358-2.8562,4.0132,4.0132,0,0,0-1.8362.99,6.8382,6.8382,0,0,1-3.1623,1.9079l-.5684.3933h0a3.291,3.291,0,0,0-.3492-1.72c-.466-1.0783-1.1645-4.5172-.8584-5.2894l-1.53.2182a1.7832,1.7832,0,0,0-.7.2038s.554-1.2238.2918-1.6027a4.2879,4.2879,0,0,1,.2632-3.2638,4.7408,4.7408,0,0,1-2.3606.2325,1.793,1.793,0,0,0-1.53.2182,4.1007,4.1007,0,0,0,.0153-2.8122,5.411,5.411,0,0,1-.1157-3.0016,13.0078,13.0078,0,0,0-4.08.5818c-2.0256,1.1214-3.1911.2469-4.7067,1.2956a3.14,3.14,0,0,0-.2182-1.53c-.3349-.8889.2631-3.2638.5693-4.036a11.0292,11.0292,0,0,0,.0737-3.1327,3.2294,3.2294,0,0,0-1.8505.16c-.5684.3933.4618-1.6269,1.5135-2.4013s.7778-2.4526,2.14-3.1152a5.3843,5.3843,0,0,1-1.9961-.2531c-1.1777-.3524-1.5689.4319-1.5689.4319a16.8429,16.8429,0,0,1,3.16-3.8677,11.9476,11.9476,0,0,0,2.47-2.5031,10.7081,10.7081,0,0,0-2.0983.6114,7.9667,7.9667,0,0,1,2.213-2.6052c1.8776-1.6727,1.6738-2.3722,1.6738-2.3722s-.906.58-1.52.1648a2.3192,2.3192,0,0,0-1.253-.3937s3.9233-6.09,7.324-6.9938c1.6395-.4359,6.9088-.2864,8.8657-5.3032,1.21-3.1008,1.1621-4.8663,3.4524-6.0775Z"/><path class="c" d="M768.1641,135.2613l-.2838-20.1147.9426-10.7844-.1286-.6582-9.4477-4.9491s-3.7144-4.1536-6.65-5.7644a35.7783,35.7783,0,0,1-9.42-7.6763c-2.87-3.3374-3.44-3.69-4.0713-4.4669a21.7775,21.7775,0,0,1-3.3017-3.6921c-1.0753-1.824-2.0662-1.2317-4.2875-4.0371s-6.2462-8.285-6.2462-8.285,7.2127,8.13,9.138,9.8326,7.0793,7.802,7.81,8.1834,4.2607,4.3359,8.8229,7.6227,8.2817,6.5031,9.3378,7.22,8.4134,4.2641,8.4134,4.2641-2.0673-25.3242-.6805-35.0618-.1414-7.56.8336-12.1565l-.4125,17.4214s.0471,15.049.52,16.5426.56,13.2934.56,13.2934,10.4977-7.6371,13.33-9.55,10.67-6.3087,11.6972-7.2531,7.75-5.1293,9.1008-5.8769,14.1164-9.02,15.1608-9.6029-16.6863,11.3121-16.6863,11.3121l-12.47,8.1612s-8.518,5.707-8.9285,5.991-10.2085,7.11-10.4927,7.3069-.4372.5827.3057,1.0491,8.7021,5.5585,9.7851,5.9765,14.9644,7.3887,14.9644,7.3887-11.1087-4.92-12.3083-5.3044a27.8081,27.8081,0,0,1-3.5087-1.4944c-.6556-.34-6.23-3.6734-6.23-3.6734a32.32,32.32,0,0,0-3.659-2.1841c-.0608.1821-.441,5.3011-.5191,6.9427s-1.0262,5.3326-.4224,8.8369S768.1641,135.2613,768.1641,135.2613Z"/><path class="c" d="M768.18,115.345a52.4249,52.4249,0,0,1-7.8863,9.5635,99.484,99.484,0,0,0-8.33,8.9908q-3.9782,4.6954-7.7381,9.5695c-1.253,1.6228-2.4659,3.2757-3.6554,4.9427a60.1044,60.1044,0,0,0-3.6091,4.9848,60.6237,60.6237,0,0,1,3.0211-5.3991c1.1969-1.677,2.4157-3.3369,3.6729-4.9658q3.7611-4.8971,7.76-9.5975a99.7513,99.7513,0,0,1,8.4136-9.074,51.8761,51.8761,0,0,0,7.7509-9.4111l.0085-.013a.3595.3595,0,0,1,.5918.4082Z"/><path class="c" d="M760.6,124.58l-10.2164,1.98c-1.6689.316-3.4907.61-5.1558.7553a17.0645,17.0645,0,0,0-2.4876.5346,9.2815,9.2815,0,0,0-2.47.7051,8.07,8.07,0,0,1,2.2647-1.3942,17.9,17.9,0,0,1,2.5914-.5577c1.789-.1584,3.3906-.4282,5.129-.75l10.2023-1.9779a.36.36,0,0,1,.1484.7041Z"/><path class="c" d="M768.4864,135.1018c1.719,3.7261,2.3548,7.7,3.6566,11.4531a22.9042,22.9042,0,0,0,2.2768,5.4442l3.0425,5.1694,3.0423,5.1694c.9319,1.7693,1.808,3.5516,2.8043,5.2747.98,1.7312,2.0225,3.4262,3.1043,5.1.9621,1.7462,2.0373,3.45,2.8647,5.2777-1.0367-1.71-2.2982-3.2607-3.4691-4.8885-1.0864-1.681-2.1369-3.3891-3.125-5.1343-1.0034-1.7352-1.8912-3.5406-2.82-5.3028l-3.0355-5.1564-3.0353-5.1573a23.61,23.61,0,0,1-2.3343-5.5746c-1.31-3.7923-1.9687-7.7992-3.6174-11.3558l-.0078-.0171a.3593.3593,0,1,1,.652-.3019Z"/><path class="c" d="M752.6208,168.3348a22.3885,22.3885,0,0,0,1.69-4.2427l1.6805-4.26,3.2171-8.5936c.5716-1.4533.999-2.8214,1.7607-4.3379a20.56,20.56,0,0,0,2.2334-3.9087c.9534-2.9437,2.8726-5.5,4.6765-7.9506a.3594.3594,0,1,1,.5788.4262l-.01.0131c-1.7992,2.4543-3.64,4.8785-4.5865,7.7982a21.2963,21.2963,0,0,1-2.3108,4.044c-.5976,1.2247-1.1318,2.7743-1.6694,4.1684l-3.2188,8.5976-1.6876,4.2768A22.598,22.598,0,0,1,752.6208,168.3348Z"/><path class="c" d="M779.87,161.7883a7.4141,7.4141,0,0,0-1.822,3.1925c-.3977,1.1976-.5048,2.5275-.9107,3.8264a9.5966,9.5966,0,0,0-.67,3.7481c.0166.642.0636,1.29.13,1.9378l-.1256,1.9929c-.2278-.6328-.4046-1.2748-.59-1.9217-.0672-.66-.1159-1.3239-.1331-1.9959a10.3327,10.3327,0,0,1,.7-3.9648c.3848-1.2126.4887-2.5346.9148-3.84a7.9192,7.9192,0,0,1,2.08-3.5525.3577.3577,0,1,1,.48.53h-.0006Z"/><path class="c" d="M773.5258,150.8929a24.8365,24.8365,0,0,0-2.528,5.7591l-1.9186,6.1292c-.6481,2.03-1.2347,4.1444-1.8219,6.1824-.28,1.0311-.5351,2.0672-.7372,3.1093a23.4169,23.4169,0,0,0-.7438,3.1283,17.9292,17.9292,0,0,1,.038-3.2647c.2068-1.0672.4662-2.1183.7492-3.1614.6023-2.0922,1.1651-4.1193,1.8221-6.1834l1.9329-6.1754a24.6324,24.6324,0,0,1,2.6656-5.9959.3562.3562,0,0,1,.5934.3942Z"/><path class="c" d="M795.565,117.2056c.2-.22.0523-.0672.1124-.0081a1.5611,1.5611,0,0,0,.1.2929,5.1285,5.1285,0,0,0,.3576.6289,13.6973,13.6973,0,0,0,.9247,1.2106l2.0365,2.358q2.0711,2.3319,4.2671,4.5475a51.59,51.59,0,0,0,9.5308,7.9126l.03.02c2.4043,1.6629,4.9726,3.1614,7.4994,4.69l7.6125,4.5716c2.5277,1.5446,5.0543,3.09,7.4966,4.7993a18.0722,18.0722,0,0,1,3.3022,3.014,12.914,12.914,0,0,0,3.5151,2.6318,13.1159,13.1159,0,0,1-3.7977-2.3189c-.58-.4563-1.1235-1.024-1.6808-1.4463-.5639-.4363-1.1632-.8625-1.7549-1.2948-2.4074-1.6851-4.933-3.2307-7.4542-4.7712l-7.6084-4.5686c-2.5351-1.5356-5.0857-3.02-7.5506-4.7241l.03.0191a52.23,52.23,0,0,1-9.68-8.0269q-2.21-2.2312-4.2941-4.5767l-2.0524-2.377a14.2845,14.2845,0,0,1-.9719-1.2748,5.7853,5.7853,0,0,1-.4135-.73,2.23,2.23,0,0,1-.1489-.4473c.0178-.1846-.1744-.337.2215-.7473a.36.36,0,0,1,.3714.6159Z"/><path class="c" d="M869.9985,122.9778a27.3714,27.3714,0,0,1-4.669.67l-4.7071.3862-9.4318.2477c-3.143.0562-6.2913.1033-9.4346.0893-1.5778-.005-3.1107.0431-4.6956.15-1.5907.06-3.1508.0622-4.7409.0281-6.3488-.2617-12.518-1.689-18.6657-2.9157l-18.3648-4.388a.3594.3594,0,1,1,.1671-.6991l.0136.003,18.319,4.377c6.1584,1.2317,12.3163,2.6489,18.5527,2.9047,1.5517.0331,3.1366.0311,4.6865-.0281,1.5513-.1063,3.1611-.1575,4.7268-.15,3.1428.013,6.2805-.0341,9.4225-.09l9.42-.2467,4.7129-.0271A27.1894,27.1894,0,0,0,869.9985,122.9778Z"/><path class="c" d="M847.3793,123.8363a8.3493,8.3493,0,0,0,3.1416,2.6539,41.4433,41.4433,0,0,0,3.9834,1.7312c1.3555.5386,2.7141,1.07,4.0924,1.51a19.1742,19.1742,0,0,0,2.08.5586,6.8337,6.8337,0,0,0,2.1076.4815,5.9875,5.9875,0,0,1-2.2491.2226,19.49,19.49,0,0,1-2.1566-.5777c-1.41-.45-2.7783-.9849-4.141-1.5266a41.788,41.788,0,0,1-4.06-1.7682,8.7966,8.7966,0,0,1-3.45-2.9829.3573.3573,0,1,1,.6106-.3711h0Z"/><path class="c" d="M833.55,123.9928a24.5431,24.5431,0,0,0,5.7578,4.1784c2.1272,1.1384,4.3282,2.1685,6.542,3.1564,2.217.9819,4.4578,1.9137,6.7276,2.7552,1.1362.4152,2.2787.8154,3.4336,1.1474a10.169,10.169,0,0,0,3.4787.9027,9.4307,9.4307,0,0,1-3.6779-.2116c-1.1817-.34-2.3357-.7442-3.4833-1.1635-2.29-.85-4.5415-1.7863-6.77-2.7732-2.2271-.994-4.4336-2.0261-6.5946-3.1825a24.6857,24.6857,0,0,1-5.9868-4.376.3576.3576,0,1,1,.5223-.4885Z"/><path class="c" d="M815.0784,121.32a51.5749,51.5749,0,0,0,7.8673,7.7691,48.87,48.87,0,0,0,9.4658,5.7211,71.2153,71.2153,0,0,0,10.3293,4.1062,47.0006,47.0006,0,0,1,5.1843,2.1825,29.5343,29.5343,0,0,1,4.6123,3.2065,29.11,29.11,0,0,0-4.9311-2.5616,46.3484,46.3484,0,0,0-5.1024-2.1484A71.9777,71.9777,0,0,1,832.1,135.4579a49.4857,49.4857,0,0,1-9.605-5.8093,52.2162,52.2162,0,0,1-7.991-7.8965.3595.3595,0,0,1,.5613-.4493h0Z"/><path class="c" d="M781.265,110.7544a28.6145,28.6145,0,0,0,1.7836,8.417,62.2751,62.2751,0,0,0,3.4881,7.99,54.43,54.43,0,0,0,4.5155,7.4472,62.1548,62.1548,0,0,0,5.7022,6.5966c4.05,4.1955,8.3609,8.1613,12.7411,12.0168a24.1639,24.1639,0,0,0,3.4817,2.5857c1.2166.8194,2.43,1.65,3.601,2.5415a29.462,29.462,0,0,1,6.0843,6.3469,29.13,29.13,0,0,0-6.5171-5.7721q-1.7471-1.3044-3.5677-2.5185l-1.8318-1.2267c-.6239-.4493-1.1589-.9368-1.721-1.4132-4.4012-3.8745-8.711-7.8383-12.7886-12.0619a62.8476,62.8476,0,0,1-5.7645-6.6709,55.1048,55.1048,0,0,1-4.5748-7.5434,63.0083,63.0083,0,0,1-3.5276-8.0821,29.0543,29.0543,0,0,1-1.8226-8.6868.3586.3586,0,1,1,.717-.0151Z"/><path class="c" d="M789.6028,89.0136c5.4147,1.7623,10.705,3.7943,16.1832,5.1935,2.7371.7091,5.4958,1.349,8.28,1.7933a61.1265,61.1265,0,0,0,8.4377.6149,106.0734,106.0734,0,0,0,16.9476-.312c2.81-.2988,5.6063-.7361,8.39-1.2447,2.8085-.3711,5.6006-.9107,8.4243-1.24-2.78.5647-5.5148,1.337-8.2949,1.9468-2.7966.5116-5.6105.9509-8.443,1.2518a106.5472,106.5472,0,0,1-17.0528.3159,61.7957,61.7957,0,0,1-8.5223-.6228c-2.82-.45-5.595-1.0953-8.3493-1.8084-5.5253-1.4122-10.8506-3.4573-16.2234-5.2055a.3592.3592,0,1,1,.2224-.6831Z"/><path class="c" d="M807.4072,77.1965l12.5124.676a106.2729,106.2729,0,0,0,12.4933-.5105,92.16,92.16,0,0,0,12.32-2.07,41.99,41.99,0,0,1,6.2086-1.1735,16.052,16.052,0,0,0,6.1171-1.019,16.3417,16.3417,0,0,1-6.042,1.7341,41.0766,41.0766,0,0,0-6.1135,1.1575,92.8248,92.8248,0,0,1-12.4183,2.0862,106.84,106.84,0,0,1-12.5774.5145l-12.5574-.679a.3591.3591,0,1,1,.0388-.7171Z"/><path class="c" d="M818.727,69.3972l10.958-6.2385c3.7091-1.9839,7.1576-4.4071,10.7049-6.6649,3.5469-2.2667,6.9822-4.6659,10.4791-6.9928,3.5554-2.2176,6.7446-5.0209,10.4517-7.0861a48.4133,48.4133,0,0,0-4.8283,4.0491c-1.63,1.33-3.4662,2.3991-5.1893,3.6107-3.51,2.336-6.9763,4.7572-10.522,7.0229-3.5521,2.26-7.0019,4.684-10.7215,6.6749l-10.9842,6.2536a.3595.3595,0,1,1-.3557-.6248Z"/><path class="c" d="M838.5812,57.91a16.0623,16.0623,0,0,0,4.79,1.2859,21.8291,21.8291,0,0,0,5.0136.009,25.0435,25.0435,0,0,0,4.9073-1.0933c.7949-.2718,1.5691-.5807,2.4173-.8515a11.129,11.129,0,0,1,2.6058-.1585,14.2556,14.2556,0,0,0-2.3959.8466c-.775.2457-1.5856.5666-2.4024.8465a25.7785,25.7785,0,0,1-5.0508,1.1243,22.559,22.559,0,0,1-5.1826-.009,16.6392,16.6392,0,0,1-5.0368-1.3641.3587.3587,0,1,1,.3039-.65h0Z"/><path class="c" d="M839.6345,57.0866a19.9752,19.9752,0,0,1,2.7944-7.374,14.9382,14.9382,0,0,1,2.6433-2.9417,15.3711,15.3711,0,0,0,1.288-1.3942,5.4113,5.4113,0,0,0,.5145-.7472,1.7314,1.7314,0,0,0,.15-.3641c.0672-.0983-.0648-.2307.0946-.0672l-.06-.5647a11.8432,11.8432,0,0,1,1.4515-1.2958c.5329-.38,1.0569-.77,1.605-1.1344-.3878.5316-.8,1.0381-1.2028,1.5546a11.9066,11.9066,0,0,1-1.3564,1.3942l-.06-.5647a.7555.7555,0,0,1,.226.8475,2.3994,2.3994,0,0,1-.2156.5346,6.0478,6.0478,0,0,1-.5842.8536,16.0574,16.0574,0,0,1-1.349,1.4623,14.1885,14.1885,0,0,0-2.5462,2.8234,19.3114,19.3114,0,0,0-2.6824,7.08l-.0042.0241a.3593.3593,0,0,1-.7074-.1264Z"/><path class="c" d="M830.4016,62.9531a92.43,92.43,0,0,1,4.3495-13.46,54.12,54.12,0,0,1,3.0983-6.376,31.6409,31.6409,0,0,1,1.9275-2.9929,22.2971,22.2971,0,0,1,2.5451-2.4934,29.6413,29.6413,0,0,0-1.9634,2.9157,30.8754,30.8754,0,0,0-1.8864,2.93,53.454,53.454,0,0,0-3.0573,6.2937,91.7367,91.7367,0,0,0-4.3121,13.3417l-.0029.0121a.3594.3594,0,0,1-.6983-.1705Z"/><path class="c" d="M827.7087,64.4826a57.6305,57.6305,0,0,0,7.3621,1.3942,34.3854,34.3854,0,0,0,7.46.1875c2.5069-.2116,5.0123-.4232,7.4978-.74,1.2414-.1625,2.48-.347,3.6927-.61a8.6323,8.6323,0,0,0,3.5578-1.013,8.2243,8.2243,0,0,1-3.404,1.7151c-1.2472.27-2.5006.4574-3.7546.6208-2.5084.32-5.021.5316-7.53.7433a35.1312,35.1312,0,0,1-7.6068-.19,58.3081,58.3081,0,0,1-7.4652-1.4152.3595.3595,0,0,1,.18-.6961Z"/><path class="c" d="M807.5775,76.5265a103.8332,103.8332,0,0,1,3.6048-12.73,82.3365,82.3365,0,0,1,5.4019-12.073c2.0613-3.8916,4.21-7.74,6.6575-11.423,2.4029-3.8865,6.1762-6.2967,8.7953-9.8413a35.5411,35.5411,0,0,1-3.9645,5.2848l-2.29,2.381a22.0533,22.0533,0,0,0-1.9447,2.5777c-2.42,3.6409-4.5655,7.48-6.6176,11.3568a81.5283,81.5283,0,0,0-5.36,11.9767,103.2481,103.2481,0,0,0-3.5774,12.6306l-.0022.01a.3594.3594,0,1,1-.7029-.15Z"/><path class="c" d="M788.9945,88.451a61.2844,61.2844,0,0,0,1.2443-8.6057,58.8153,58.8153,0,0,1,.806-8.75,117.6121,117.6121,0,0,1,3.8311-17.139,139.8822,139.8822,0,0,1,6.7667-16.2053c1.2882-2.6288,2.6105-5.2406,4.1486-7.754A34.365,34.365,0,0,0,810.3,22.5277a34.6327,34.6327,0,0,1-3.8979,7.8484c-1.511,2.4693-2.8322,5.0751-4.1127,7.69a139.2769,139.2769,0,0,0-6.7282,16.1079,116.9492,116.9492,0,0,0-3.8054,17.0287,58.1132,58.1132,0,0,0-.7988,8.6809,61.9507,61.9507,0,0,1-1.26,8.7209.3595.3595,0,1,1-.7041-.1454Z"/><path class="c" d="M768.5861,54.7185l.7289-13.6355c.2814-4.5466.3961-9.0831.46-13.6336.0471-4.5456.0172-9.0941-.2043-13.63-.1073-2.2678-.27-4.5325-.5486-6.7772A22.2884,22.2884,0,0,0,767.8032.3838a22.59,22.59,0,0,1,1.9321,6.57c.2821,2.2727.4454,4.5515.5534,6.83.2225,4.5586.2523,9.1181.2051,13.6747-.0635,4.5515-.18,9.1191-.4608,13.6607l-.729,13.6376a.3595.3595,0,1,1-.7179-.0382Z"/><path class="c" d="M769.84,29.0221l-7.0542-8.52a32.2707,32.2707,0,0,1-2.9645-4.7271q-.6464-1.2351-1.199-2.5165a16.6279,16.6279,0,0,1-.6133-2.7351,23.6969,23.6969,0,0,0,1.2736,2.45q.5409,1.2547,1.1764,2.4693a31.6234,31.6234,0,0,0,2.8962,4.6208l7.037,8.4983a.36.36,0,0,1-.5506.4624Z"/><path class="c" d="M769.2026,45.799a67.1789,67.1789,0,0,1-10.9861-13.438,63.5273,63.5273,0,0,1-4.3453-7.5364l-.8439-1.99-.9855-1.9147-1.6547-4.0029,2.3026,3.691.9933,1.9318.8447,1.9919a63.0269,63.0269,0,0,0,4.2931,7.44,66.5139,66.5139,0,0,0,10.8515,13.2826l.0166.015a.36.36,0,0,1-.4863.53Z"/><path class="c" d="M767.8425,67.1325a99.6532,99.6532,0,0,1-7.0633-9.5795c-2.1775-3.3089-4.2264-6.709-6.0754-10.2174a109.2168,109.2168,0,0,1-4.9711-10.7781,39.21,39.21,0,0,0-2.8606-5.1223,13.0938,13.0938,0,0,0-3.7875-4.4231,13.4192,13.4192,0,0,1,4.3839,4.0219,39.8856,39.8856,0,0,1,2.9158,5.22A108.7461,108.7461,0,0,0,755.34,47c1.8369,3.4853,3.8731,6.8644,6.04,10.1582a99.115,99.115,0,0,0,7.0006,9.4973l.01.012a.3594.3594,0,0,1-.5477.4654Z"/><path class="c" d="M767.6772,87.9575a116.9171,116.9171,0,0,1-12.2964-12.7369,77.8439,77.8439,0,0,1-5.1566-7.21,69.83,69.83,0,0,1-4.3834-7.71,100.9413,100.9413,0,0,1-5.899-16.69q-1.1718-4.2683-2.0884-8.6006l-.6771-4.374a32.2754,32.2754,0,0,0-.75-4.34,32.2685,32.2685,0,0,1,1.1038,4.2758l1.027,4.29q.9141,4.3089,2.0783,8.5585a100.2388,100.2388,0,0,0,5.8533,16.5683,69.1149,69.1149,0,0,0,4.34,7.6318,77.1309,77.1309,0,0,0,5.1107,7.1462,116.2712,116.2712,0,0,0,12.2123,12.65.36.36,0,0,1-.4665.5476Z"/><path class="c" d="M725.2271,65.19c-1.4239-.1645-2.8553-.31-4.2841-.4273a36.3507,36.3507,0,0,0-4.2711-.1654,18.9783,18.9783,0,0,1-4.3716-.4935,19.5451,19.5451,0,0,1-2.1184-.5938,7.625,7.625,0,0,1-1.828-1.26,9.46,9.46,0,0,0,2.0642.5807,18.9412,18.9412,0,0,0,2.0381.5707,18.3926,18.3926,0,0,0,4.1907.4774,36.9507,36.9507,0,0,1,4.3547.1675c1.4407.1184,2.8742.2638,4.31.43a.3594.3594,0,0,1-.0825.7141Z"/><path class="c" d="M713.224,48.2342c.7207.49,1.4069,1.0221,2.0947,1.5617.6026.6228,1.1948,1.2587,1.7534,1.9267a27.7107,27.7107,0,0,1,2.9747,4.2878c.8807,1.5005,1.5717,3.0932,2.4223,4.5546a16.1844,16.1844,0,0,0,3.0147,3.98l.0449.0391a.3581.3581,0,1,1-.4733.5376h0a16.5115,16.5115,0,0,1-3.209-4.1975c-.8791-1.5135-1.5608-3.0882-2.4238-4.5565a26.94,26.94,0,0,0-2.9-4.1815c-.545-.6519-1.126-1.2758-1.72-1.89Z"/><path class="c" d="M731.0183,72.8114q-3.3208.2121-6.6407.2959a60.1015,60.1015,0,0,1-6.6726-.1264,41.0255,41.0255,0,0,1-6.5345-1.4122l-3.186-.9177a10.7868,10.7868,0,0,0-3.1441-.9278,9.63,9.63,0,0,1,3.3386.2357l3.187.9177a40.3524,40.3524,0,0,0,6.4135,1.3892,59.612,59.612,0,0,0,6.581.1223c2.2034-.0551,4.4108-.1544,6.6092-.2938a.3595.3595,0,0,1,.0514.7171Z"/><path class="c" d="M745.1343,87.6977c-2.3545.335-4.7081.6018-7.0758.7934a56.9793,56.9793,0,0,1-7.1362.2046c-4.7541-.2979-9.44-.9609-14.1289-1.666l-.0365-.008c-1.6587-.4313-3.3246-.8565-4.9983-1.2246l-2.4783-.7a9.8342,9.8342,0,0,0-2.52-.4524,9.9685,9.9685,0,0,1,2.591.0763c.8591.1043,1.7225.1986,2.57.363,1.68.3952,3.352.8034,5.0207,1.2427l-.0356-.007c4.6646.7021,9.3613,1.3651,14.0531,1.659a56.6472,56.6472,0,0,0,7.0417-.2036c2.3481-.1906,4.6979-.4574,7.0275-.7884a.3594.3594,0,1,1,.111.71Z"/><path class="c" d="M759.3955,99.0816a96.9456,96.9456,0,0,1-11.33,4.2356,43.7648,43.7648,0,0,1-5.917,1.3681,60.2882,60.2882,0,0,1-6.0519.3591,69.28,69.28,0,0,1-12.0942-.315,55.5365,55.5365,0,0,0-5.97-.4242q-2.9965-.2468-6.0174-.324,3.006-.2859,6.0349-.3952a56.43,56.43,0,0,1,6.0483.43,68.5051,68.5051,0,0,0,11.9737.31c2.0058-.0953,4.0308-.0612,5.9731-.352a43.1013,43.1013,0,0,0,5.8157-1.346,96.4123,96.4123,0,0,0,11.2373-4.2005.36.36,0,1,1,.3056.6509Z"/><path class="c" d="M740.13,104.7976a63.2374,63.2374,0,0,1-7.3349,6.6378,31.0772,31.0772,0,0,1-4.154,2.73,17.8521,17.8521,0,0,1-2.2826,1.0461l-1.2564.2006c-.4283.0091-.85.006-1.259-.005l1.1749-.3611,1.0987-.5115a17.2569,17.2569,0,0,0,2.1842-1.002,30.4663,30.4663,0,0,0,4.0589-2.6689,62.5947,62.5947,0,0,0,7.2425-6.5545l.0073-.007a.3592.3592,0,0,1,.52.4954Z"/><path class="c" d="M752.11,101.94c-2.5468,3.013-5.2145,5.9066-8.0441,8.6548q-2.1151,2.0671-4.432,3.9307c-.7692.6238-1.5831,1.1955-2.4084,1.7542a14.4715,14.4715,0,0,1-2.8042,1.0531l1.2519-.7763,1.163-.8816c.8013-.5426,1.5945-1.0993,2.3514-1.7131q2.2772-1.8264,4.3785-3.8836c2.8045-2.7241,5.4676-5.6127,7.9906-8.5975a.36.36,0,1,1,.5575.4543Z"/><path class="c" d="M768.1641,135.2633l-.2838-20.115.9426-10.7846-.1285-.6581-9.4479-4.9493s-3.7145-4.1536-6.65-5.7644a35.7809,35.7809,0,0,1-9.42-7.6764c-2.87-3.3375-3.44-3.69-4.0714-4.467a21.7815,21.7815,0,0,1-3.3017-3.6921c-1.0754-1.8241-2.0664-1.2318-4.2877-4.0372s-6.2463-8.2852-6.2463-8.2852,7.2129,8.13,9.1382,9.8328,7.0794,7.8021,7.81,8.1836,4.2608,4.3359,8.823,7.6228,8.2818,6.5031,9.338,7.22,8.4136,4.2641,8.4136,4.2641-2.0674-25.3245-.6806-35.0623-.1414-7.56.8336-12.1567L768.5325,72.16s.0471,15.0492.52,16.5428.56,13.2936.56,13.2936,10.4978-7.6372,13.33-9.55,10.67-6.3089,11.6974-7.2533,7.7506-5.1293,9.101-5.8769,14.1165-9.02,15.1609-9.6031-16.6864,11.3123-16.6864,11.3123l-12.47,8.1613s-8.5181,5.7071-8.9286,5.9911-10.2086,7.11-10.4928,7.307-.4373.5827.3057,1.0492,8.7022,5.5585,9.7851,5.9765S795.38,116.899,795.38,116.899s-11.109-4.9205-12.3086-5.3045a27.7934,27.7934,0,0,1-3.5087-1.4944c-.6556-.34-6.2305-3.6734-6.2305-3.6734a32.3132,32.3132,0,0,0-3.6591-2.1842c-.0608.1821-.4409,5.3012-.5191,6.9429s-1.0262,5.3326-.4224,8.837S768.1641,135.2633,768.1641,135.2633Z"/><path class="c" d="M768.18,115.346a52.4283,52.4283,0,0,1-7.8865,9.5645,99.5285,99.5285,0,0,0-8.33,8.9908q-3.9782,4.6954-7.7381,9.57c-1.253,1.6238-2.466,3.2757-3.6556,4.9427a60.4168,60.4168,0,0,0-3.609,4.9848,60.8561,60.8561,0,0,1,3.0212-5.3991c1.1968-1.677,2.4156-3.3369,3.6728-4.9657q3.7613-4.8972,7.7606-9.5976a99.7382,99.7382,0,0,1,8.4137-9.074,51.8519,51.8519,0,0,0,7.751-9.412l.0086-.0121a.3594.3594,0,0,1,.5917.4082Z"/><path class="c" d="M760.6,124.5815l-10.2165,1.98c-1.669.315-3.4908.61-5.1559.7553a17.1957,17.1957,0,0,0-2.4877.5336,9.3193,9.3193,0,0,0-2.47.7061,8.0707,8.0707,0,0,1,2.2646-1.3942,17.901,17.901,0,0,1,2.5915-.5577c1.789-.1594,3.3907-.4282,5.1291-.75l10.2024-1.9779a.36.36,0,0,1,.1485.7041Z"/><path class="c" d="M768.4864,135.1038c1.719,3.7261,2.3548,7.7,3.6567,11.4531a22.9011,22.9011,0,0,0,2.2769,5.4443l3.0424,5.1693,3.0424,5.17c.932,1.7693,1.808,3.5516,2.8044,5.2747.98,1.7312,2.0224,3.4262,3.1042,5.0992.9623,1.7462,2.0374,3.4513,2.8648,5.2777-1.0367-1.7091-2.2983-3.26-3.4691-4.8875-1.0864-1.681-2.137-3.39-3.1251-5.1343-1.0034-1.7352-1.8913-3.5416-2.8195-5.3028l-3.0356-5.1573-3.0354-5.1564a23.6269,23.6269,0,0,1-2.3342-5.5746c-1.31-3.7933-1.9688-7.8-3.6175-11.3568l-.0078-.0171a.3593.3593,0,1,1,.6521-.3019Z"/><path class="c" d="M752.6206,168.3378c1.5063-2.6589,2.132-5.714,3.3709-8.5033l3.2172-8.5926c.5716-1.4543.999-2.8214,1.7607-4.3389a20.5881,20.5881,0,0,0,2.2334-3.9077c.9534-2.9437,2.8725-5.5013,4.6765-7.9516l-.0746.2106.3232-13.7269a.3595.3595,0,1,1,.7187.0171l-.3232,13.7268a.387.387,0,0,1-.0748.2117c-1.7993,2.4553-3.64,4.88-4.5865,7.7992a21.2992,21.2992,0,0,1-2.3108,4.043c-.5977,1.2247-1.1319,2.7743-1.6694,4.1684l-3.2189,8.5976a41.3522,41.3522,0,0,1-1.7779,4.2407A22.583,22.583,0,0,1,752.6206,168.3378Z"/><path class="c" d="M779.87,161.79a7.4169,7.4169,0,0,0-1.8221,3.1935c-.3977,1.1976-.5048,2.5265-.9107,3.8264a9.592,9.592,0,0,0-.67,3.7471c.0166.643.0637,1.29.13,1.9378l-.1257,1.994c-.2277-.6329-.4046-1.2748-.59-1.9228-.0671-.6589-.1159-1.3239-.133-1.9949a10.3376,10.3376,0,0,1,.7-3.9658c.3848-1.2126.4888-2.5336.9149-3.8394a7.9219,7.9219,0,0,1,2.08-3.5536.3578.3578,0,1,1,.48.5306l-.0006.001Z"/><path class="c" d="M773.5259,150.8959a24.81,24.81,0,0,0-2.5281,5.7581l-1.9185,6.1292c-.6482,2.0311-1.2348,4.1454-1.822,6.1835-.28,1.03-.5351,2.0661-.7372,3.1092a23.4587,23.4587,0,0,0-.7439,3.1273,17.9272,17.9272,0,0,1,.038-3.2637c.2069-1.0672.4663-2.1193.7493-3.1614.6023-2.0922,1.1651-4.12,1.8221-6.1844l1.933-6.1754a24.63,24.63,0,0,1,2.6656-5.9958.3565.3565,0,0,1,.5934.3951Z"/><path class="c" d="M795.5655,117.2066c.2-.22.0523-.0662.1123-.0071a1.5611,1.5611,0,0,0,.1.2929,5.1311,5.1311,0,0,0,.3576.6279,13.5833,13.5833,0,0,0,.9247,1.2116l2.0366,2.358q2.0711,2.3319,4.2671,4.5476a51.5947,51.5947,0,0,0,9.531,7.9125l.03.02c2.4044,1.6629,4.9726,3.1614,7.5,4.69l7.6126,4.5716c2.5277,1.5446,5.0543,3.09,7.4967,4.7993a18.0761,18.0761,0,0,1,3.3023,3.014,12.9364,12.9364,0,0,0,3.5151,2.6328,13.1208,13.1208,0,0,1-3.7978-2.32c-.58-.4563-1.1235-1.024-1.6807-1.4463-.564-.4363-1.1633-.8625-1.755-1.2948-2.4075-1.684-4.933-3.2306-7.4542-4.7712l-7.6087-4.5686c-2.535-1.5346-5.0857-3.02-7.5506-4.7241l.03.0191a52.1986,52.1986,0,0,1-9.68-8.0279q-2.21-2.23-4.2942-4.5757l-2.0525-2.377a14.4494,14.4494,0,0,1-.9719-1.2748,5.7987,5.7987,0,0,1-.4135-.7312,2.2266,2.2266,0,0,1-.1489-.4463c.0179-.1846-.1744-.337.2216-.7473a.3592.3592,0,1,1,.3714.6149Z"/><path class="c" d="M870,122.98a27.3815,27.3815,0,0,1-4.669.67l-4.7072.3861-9.432.2477c-3.143.0562-6.2913.1033-9.4348.0893-1.5777-.005-3.1106.0431-4.6956.15-1.5907.06-3.1508.0621-4.741.028-6.3488-.2617-12.5181-1.689-18.6659-2.9166l-18.3651-4.3881a.3594.3594,0,0,1,.1671-.6991l.0136.003,18.3193,4.3781c6.1584,1.2316,12.3165,2.6488,18.553,2.9046,1.5517.0331,3.1366.0311,4.6866-.0291,1.5512-.1053,3.1611-.1565,4.7268-.15,3.1429.014,6.2806-.0331,9.4226-.0893l9.42-.2467,4.7129-.0271A27.29,27.29,0,0,0,870,122.98Z"/><path class="c" d="M847.3805,123.8383a8.3377,8.3377,0,0,0,3.1417,2.6529,41.189,41.189,0,0,0,3.9834,1.7322c1.3556.5386,2.7141,1.0691,4.0925,1.51a19.1786,19.1786,0,0,0,2.08.5586,6.8342,6.8342,0,0,0,2.1078.4815,5.988,5.988,0,0,1-2.2492.2226,19.713,19.713,0,0,1-2.1566-.5777c-1.41-.45-2.7784-.9859-4.1411-1.5275a41.5724,41.5724,0,0,1-4.06-1.7673,8.7966,8.7966,0,0,1-3.45-2.9829.3575.3575,0,0,1,.6106-.3721l0,.001Z"/><path class="c" d="M833.5509,123.9948a24.5124,24.5124,0,0,0,5.758,4.1774c2.1272,1.1394,4.3282,2.1695,6.5421,3.1564,2.217.9829,4.4578,1.9147,6.7276,2.7562,1.1364.4153,2.2788.8154,3.4338,1.1474a10.1685,10.1685,0,0,0,3.4786.9027,9.4307,9.4307,0,0,1-3.6779-.2116c-1.1818-.34-2.3358-.7442-3.4833-1.1635-2.29-.85-4.5416-1.7863-6.7706-2.7732-2.227-.994-4.4336-2.0261-6.5946-3.1825a24.6842,24.6842,0,0,1-5.9869-4.376.3575.3575,0,1,1,.5222-.4885h0Z"/><path class="c" d="M815.0791,121.3218a51.58,51.58,0,0,0,7.8674,7.7691,48.8635,48.8635,0,0,0,9.466,5.7211,71.2165,71.2165,0,0,0,10.3294,4.1062,46.994,46.994,0,0,1,5.1844,2.1825,29.53,29.53,0,0,1,4.6123,3.2065,29.1065,29.1065,0,0,0-4.9311-2.5616,46.3611,46.3611,0,0,0-5.1025-2.1484,71.9789,71.9789,0,0,1-10.4044-4.1373,49.5367,49.5367,0,0,1-9.6052-5.8093,52.1733,52.1733,0,0,1-7.9911-7.8975.3592.3592,0,0,1,.5614-.4483Z"/><path class="c" d="M781.2652,110.7564a28.6013,28.6013,0,0,0,1.7836,8.416,62.2887,62.2887,0,0,0,3.4882,7.9908,54.42,54.42,0,0,0,4.5156,7.4472,62.1433,62.1433,0,0,0,5.7022,6.5966c4.05,4.1965,8.361,8.1613,12.7413,12.0168a24.0853,24.0853,0,0,0,3.4818,2.5857c1.2166.8194,2.43,1.6509,3.601,2.5426a29.4755,29.4755,0,0,1,6.0844,6.3458,29.1279,29.1279,0,0,0-6.5172-5.7721q-1.7471-1.3044-3.5677-2.5185l-1.8319-1.2267c-.6238-.4493-1.1588-.9358-1.721-1.4132-4.4012-3.8735-8.7111-7.8383-12.7888-12.0619a62.85,62.85,0,0,1-5.7646-6.6709,55.0948,55.0948,0,0,1-4.5748-7.5434,63.022,63.022,0,0,1-3.5277-8.0831,29.0414,29.0414,0,0,1-1.8226-8.6858.3586.3586,0,0,1,.7171-.0161Z"/><path class="c" d="M789.6031,89.0146c5.4148,1.7623,10.7052,3.7943,16.1834,5.1935,2.7372.7091,5.4959,1.349,8.28,1.7933a60.9741,60.9741,0,0,0,8.4379.6149,105.8426,105.8426,0,0,0,16.9478-.312c2.81-.2978,5.6064-.7351,8.39-1.2447,2.8086-.3711,5.6008-.91,8.4244-1.24-2.78.5657-5.5148,1.337-8.295,1.9468-2.7967.5116-5.6106.9519-8.4431,1.2528a106.7847,106.7847,0,0,1-17.0531.3159,61.9564,61.9564,0,0,1-8.5224-.6238c-2.82-.45-5.5951-1.0943-8.35-1.8074-5.5254-1.4132-10.8508-3.4583-16.2236-5.2055a.36.36,0,0,1,.2225-.6841Z"/><path class="c" d="M807.4078,77.1975l12.5126.676a106.0616,106.0616,0,0,0,12.4935-.5105,92.0043,92.0043,0,0,0,12.32-2.07,41.9908,41.9908,0,0,1,6.2087-1.1735A16.033,16.033,0,0,0,857.06,73.1a16.3412,16.3412,0,0,1-6.042,1.7341,41.0792,41.0792,0,0,0-6.1137,1.1575,92.8251,92.8251,0,0,1-12.4185,2.0862,106.82,106.82,0,0,1-12.5775.5145l-12.5576-.679a.3591.3591,0,1,1,.0387-.7171h0Z"/><path class="c" d="M861.5025,42.7268a48.2339,48.2339,0,0,0-5.0088,3.7382c-1.63,1.3289-3.4662,2.3981-5.1894,3.6107-3.51,2.336-6.9762,4.7572-10.522,7.0219-3.5522,2.2608-7.002,4.685-10.7217,6.6759l-10.9843,6.2536.022-.013-6.9367,4.5234-7.1283,4.2306,6.74-4.8253,6.9318-4.5305.0227-.0141L829.6861,63.16c3.7091-1.9849,7.1576-4.4081,10.7049-6.6649,3.547-2.2667,6.9823-4.6669,10.4794-6.9928,1.7165-1.2066,3.5378-2.2647,5.1686-3.5937a48.4346,48.4346,0,0,1,5.1028-3.8033.3591.3591,0,1,1,.3746.6128l0,.001Z"/><path class="c" d="M838.5823,57.9111a16.0651,16.0651,0,0,0,4.79,1.2858,21.8252,21.8252,0,0,0,5.0138.009,25.1234,25.1234,0,0,0,4.9072-1.0932c.7949-.2719,1.5692-.5808,2.4174-.8516a11.0754,11.0754,0,0,1,2.6058-.1585,14.2559,14.2559,0,0,0-2.3959.8456c-.775.2467-1.5856.5677-2.4024.8475a25.8518,25.8518,0,0,1-5.0509,1.1243,22.6162,22.6162,0,0,1-5.1827-.009,16.6413,16.6413,0,0,1-5.0369-1.3641.3587.3587,0,1,1,.3039-.65h0Z"/><path class="c" d="M839.6356,57.0866a19.99,19.99,0,0,1,2.7945-7.374,14.9291,14.9291,0,0,1,2.6433-2.9407,15.3856,15.3856,0,0,0,1.288-1.3942,5.42,5.42,0,0,0,.5145-.7482,1.7037,1.7037,0,0,0,.15-.3631c.0672-.0983-.0648-.2307.0946-.0672l-.06-.5657a11.8279,11.8279,0,0,1,1.4515-1.2948c.533-.3811,1.0569-.77,1.605-1.1354-.3878.5326-.8,1.0391-1.2028,1.5546a11.8379,11.8379,0,0,1-1.3564,1.3952l-.06-.5657a.757.757,0,0,1,.226.8485,2.4022,2.4022,0,0,1-.2156.5346,6.1,6.1,0,0,1-.5842.8536,16.1907,16.1907,0,0,1-1.349,1.4623A14.1921,14.1921,0,0,0,843.03,50.11a19.303,19.303,0,0,0-2.6824,7.08l-.0042.0231a.3592.3592,0,0,1-.7074-.1254Z"/><path class="c" d="M830.4026,62.9541a92.4175,92.4175,0,0,1,4.35-13.46,54.21,54.21,0,0,1,3.0983-6.377,31.6271,31.6271,0,0,1,1.9276-2.9919,22.213,22.213,0,0,1,2.545-2.4934,29.5394,29.5394,0,0,0-1.9633,2.9157,30.9681,30.9681,0,0,0-1.8864,2.9287,53.4389,53.4389,0,0,0-3.0574,6.2937,91.7884,91.7884,0,0,0-4.3121,13.3427l-.0029.0121a.3594.3594,0,0,1-.6983-.1705Z"/><path class="c" d="M827.71,64.4836a57.632,57.632,0,0,0,7.3622,1.3942,34.3863,34.3863,0,0,0,7.46.1875c2.507-.2116,5.0124-.4232,7.498-.74,1.2414-.1625,2.48-.347,3.6927-.6108a8.6156,8.6156,0,0,0,3.5578-1.012,8.2243,8.2243,0,0,1-3.404,1.7151c-1.2473.27-2.5008.4564-3.7547.6208-2.5084.32-5.021.5316-7.53.7433a35.1322,35.1322,0,0,1-7.6069-.19,58.31,58.31,0,0,1-7.4653-1.4152.3595.3595,0,0,1,.18-.6961Z"/><path class="c" d="M807.578,76.5275a103.87,103.87,0,0,1,3.605-12.73,82.3207,82.3207,0,0,1,5.402-12.073c2.0612-3.8916,4.21-7.74,6.6576-11.423,2.4029-3.8865,6.1762-6.2967,8.7953-9.8413a35.5257,35.5257,0,0,1-3.9645,5.2838l-2.29,2.3821a22.1249,22.1249,0,0,0-1.9448,2.5766c-2.42,3.6419-4.5656,7.4813-6.6177,11.3568a81.54,81.54,0,0,0-5.36,11.9777,103.2315,103.2315,0,0,0-3.5776,12.6316l-.0021.01a.3595.3595,0,0,1-.703-.15Z"/><path class="c" d="M788.9949,88.452a61.3,61.3,0,0,0,1.2443-8.6056,58.802,58.802,0,0,1,.8059-8.75,117.6127,117.6127,0,0,1,3.8313-17.139,139.8647,139.8647,0,0,1,6.7667-16.2053c1.2882-2.6288,2.6106-5.2406,4.1486-7.755A34.3378,34.3378,0,0,0,810.3,22.5277a34.6327,34.6327,0,0,1-3.8979,7.8484c-1.5111,2.4693-2.8322,5.0761-4.1128,7.69a139.2182,139.2182,0,0,0-6.7282,16.1089,116.91,116.91,0,0,0-3.8055,17.0287,58.1,58.1,0,0,0-.7989,8.6809,61.9419,61.9419,0,0,1-1.26,8.7209.3594.3594,0,1,1-.7041-.1444Z"/><path class="c" d="M768.12.2143c1.2722,2.8936,1.5169,5.9306,1.8564,8.9256.2668,3.0059.3915,6.0159.4755,9.0258.127,6.02.0461,12.0369-.1736,18.0508l-.9462,18.0126-.432,8.99-.7888,9.0017.07-9.0108.4329-9.0208.9455-18.0006c.2193-5.9989.3-12.0068.1734-18.0056-.0837-2.9979-.2081-5.9959-.4728-8.9777-.3222-2.9458-.6132-6.017-1.7743-8.6518l-.0221-.05A.3584.3584,0,1,1,768.12.2143Z"/><path class="c" d="M769.84,29.0231l-7.0544-8.52a32.3419,32.3419,0,0,1-2.9645-4.7281q-.6464-1.2351-1.199-2.5165a16.6282,16.6282,0,0,1-.6134-2.7351,23.6976,23.6976,0,0,0,1.2737,2.45q.5409,1.2547,1.1763,2.4693a31.6325,31.6325,0,0,0,2.8963,4.6208l7.0371,8.4983a.3595.3595,0,1,1-.55.4624Z"/><path class="c" d="M769.2026,45.799a67.1454,67.1454,0,0,1-10.9862-13.437,63.5287,63.5287,0,0,1-4.3455-7.5364l-.8439-1.991-.9854-1.9147-1.6548-4.0029,2.3027,3.691.9933,1.9328.8448,1.9919a63,63,0,0,0,4.293,7.4391,66.5209,66.5209,0,0,0,10.8517,13.2836l.0166.015a.3591.3591,0,1,1-.4863.5286Z"/><path class="c" d="M767.8425,67.1335a99.6373,99.6373,0,0,1-7.0634-9.5795c-2.1775-3.31-4.2265-6.71-6.0755-10.2174a109.2168,109.2168,0,0,1-4.9711-10.7781,39.1036,39.1036,0,0,0-2.8607-5.1223,13.0751,13.0751,0,0,0-3.7876-4.4231,13.4164,13.4164,0,0,1,4.384,4.0209,39.8325,39.8325,0,0,1,2.9158,5.2206,108.8528,108.8528,0,0,0,4.9553,10.746c1.837,3.4853,3.8732,6.8644,6.04,10.1582a99.098,99.098,0,0,0,7.0006,9.4973l.01.012a.3594.3594,0,0,1-.5477.4654Z"/><path class="c" d="M767.6772,87.9585a116.9086,116.9086,0,0,1-12.2965-12.7369,77.7307,77.7307,0,0,1-5.1568-7.2095,69.847,69.847,0,0,1-4.3835-7.71,100.9381,100.9381,0,0,1-5.899-16.69q-1.1718-4.2682-2.0884-8.6006l-.6772-4.374a32.3171,32.3171,0,0,0-.75-4.341,32.3239,32.3239,0,0,1,1.1038,4.2758l1.027,4.2907q.9141,4.3074,2.0783,8.5585A100.2391,100.2391,0,0,0,746.4881,59.99a69.2067,69.2067,0,0,0,4.34,7.6318,77.1319,77.1319,0,0,0,5.1108,7.1462,116.2824,116.2824,0,0,0,12.2125,12.65.36.36,0,1,1-.4665.5476Z"/><path class="c" d="M725.2265,65.1907c-1.424-.1645-2.8554-.31-4.2842-.4272a36.33,36.33,0,0,0-4.2711-.1655,18.973,18.973,0,0,1-4.3717-.4935,19.5468,19.5468,0,0,1-2.1185-.5938,7.6276,7.6276,0,0,1-1.8281-1.26,9.4635,9.4635,0,0,0,2.0643.5807,18.9494,18.9494,0,0,0,2.0382.5707,18.3926,18.3926,0,0,0,4.1907.4774,36.737,36.737,0,0,1,4.3548.1675c1.4407.1184,2.8742.2638,4.31.4293a.36.36,0,0,1-.0824.7151Z"/><path class="c" d="M713.2232,48.2352a18.7089,18.7089,0,0,1,3.8481,3.4884,27.656,27.656,0,0,1,2.9747,4.2878c.8808,1.5,1.5717,3.0922,2.4223,4.5546a16.1847,16.1847,0,0,0,3.0148,3.98l.0371.0321.0186.0191,3.0772,3.4913a.3595.3595,0,1,1-.5393.4755l-3.0773-3.4914.0551.05a16.5308,16.5308,0,0,1-3.2089-4.1975c-.879-1.5135-1.5607-3.0892-2.4237-4.5575a26.9733,26.9733,0,0,0-2.9-4.1805C715.3773,50.9343,714.3125,49.5883,713.2232,48.2352Z"/><path class="c" d="M731.0177,72.8124q-3.3208.2121-6.6408.2959a60.1015,60.1015,0,0,1-6.6726-.1264A41.0243,41.0243,0,0,1,711.17,71.57l-3.1861-.9167a10.7593,10.7593,0,0,0-3.1441-.9288,9.63,9.63,0,0,1,3.3386.2357l3.1871.9178a40.3631,40.3631,0,0,0,6.4135,1.3891,59.3949,59.3949,0,0,0,6.5812.1224c2.2033-.0552,4.4108-.1545,6.6093-.2939a.3595.3595,0,0,1,.0513.7171Z"/><path class="c" d="M745.1339,87.6987c-2.3545.335-4.7081.6018-7.0758.7944a57.1731,57.1731,0,0,1-7.1363.2046c-4.7542-.2979-9.44-.9619-14.1292-1.667l-.0364-.007c-1.6587-.4323-3.3247-.8575-4.9984-1.2256l-2.4784-.7a9.8342,9.8342,0,0,0-2.52-.4524,9.97,9.97,0,0,1,2.5912.0763c.859.1053,1.7225.1986,2.57.364,1.68.3942,3.3519.8024,5.0207,1.2427l-.0356-.008c4.6647.7021,9.3615,1.3651,14.0534,1.659A56.4573,56.4573,0,0,0,738,87.776c2.3481-.1906,4.6979-.4574,7.0275-.7884a.36.36,0,0,1,.1111.7111Z"/><path class="c" d="M759.3954,99.0836a96.9549,96.9549,0,0,1-11.3306,4.2346,43.62,43.62,0,0,1-5.9172,1.3691,60.5871,60.5871,0,0,1-6.0519.3591,69.2838,69.2838,0,0,1-12.0945-.316,55.7967,55.7967,0,0,0-5.97-.4242q-2.9967-.2452-6.0176-.324,3.0062-.2859,6.0351-.3942a56.43,56.43,0,0,1,6.0483.43,68.6054,68.6054,0,0,0,11.9739.3089,59.7064,59.7064,0,0,0,5.9732-.352,42.9314,42.9314,0,0,0,5.8157-1.346,96.2294,96.2294,0,0,0,11.2376-4.2.36.36,0,0,1,.3056.6509Z"/><path class="c" d="M740.13,104.8a63.329,63.329,0,0,1-7.335,6.6378,31.0685,31.0685,0,0,1-4.1541,2.73,17.9855,17.9855,0,0,1-2.2827,1.0461l-1.2564.2c-.4283.01-.8494.0071-1.259-.004l1.175-.3621,1.0987-.51a17.1118,17.1118,0,0,0,2.1843-1.003,30.3651,30.3651,0,0,0,4.0589-2.6689,62.5788,62.5788,0,0,0,7.2426-6.5535l.0073-.008a.36.36,0,0,1,.5205.4964Z"/><path class="c" d="M752.1092,101.9411c-2.5467,3.013-5.2146,5.9066-8.0442,8.6558q-2.115,2.0671-4.432,3.9307c-.7692.6239-1.5832,1.1956-2.4085,1.7532a14.4173,14.4173,0,0,1-2.8042,1.0542l1.2519-.7764,1.1631-.8816c.8013-.5436,1.5945-1.0993,2.3514-1.7131q2.2772-1.8264,4.3785-3.8835c2.8046-2.7242,5.4678-5.6128,7.9908-8.5986a.36.36,0,0,1,.5574.4543Z"/><polygon class="c" points="754.387 100.767 760.157 98.307 760.366 99.032 754.387 100.767"/><path class="c" d="M754.3879,101.0244a.257.257,0,0,1-.1-.4935l5.7692-2.4613a.2649.2649,0,0,1,.2106.004.257.257,0,0,1,.1364.1625l.21.7242a.2582.2582,0,0,1-.1755.3189l-5.9788,1.7352A.2845.2845,0,0,1,754.3879,101.0244Zm5.6027-2.367-1.5968.68,1.6549-.48Z"/><path class="c" d="M763.6786,120.8233a28.4008,28.4008,0,0,0,2.2943-4.07c.0484-.6042.3854.58.3854.58Z"/><path class="c" d="M763.6786,121.08a.2694.2694,0,0,1-.1485-.0461.2589.2589,0,0,1-.0672-.3511,24.9514,24.9514,0,0,0,2.2547-3.95c.02-.2528.1174-.3892.2879-.4073.2146-.0341.3681.12.6.9368a.2582.2582,0,0,1-.0432.2267l-2.68,3.49A.2541.2541,0,0,1,763.6786,121.08Zm2.3891-3.8234c-.0111.0261-.0241.0542-.0361.08l.0431-.0562Z"/><path class="c" d="M790.67,77.4817s-.054,9.2028-.379,10.0159a1.5011,1.5011,0,0,0,.1925,1.4443s6.26,2.8678,8.0841,3.4791-9.0758-3.0659-9.0758-3.0659Z"/><path class="c" d="M798.8031,92.7417a.498.498,0,0,1-.1153-.016l-.002.004c-.0081-.002-.0371-.012-.0863-.0281-.0371-.012-.0742-.0241-.1133-.0381-.0562-.018-.1164-.0381-.18-.0622-1.3811-.4674-6.1874-2.0882-8.8975-3.0029a.2558.2558,0,0,1-.1735-.2688l1.1785-11.8734a.2613.2613,0,0,1,.2688-.2307.2573.2573,0,0,1,.2438.2588c-.0061.9468-.0642,9.2736-.3972,10.1081a1.24,1.24,0,0,0,.1213,1.1454c.653.2969,6.3028,2.8706,7.9979,3.44l.2006.0662-.0191.06c.2357.1184.2166.1766.1865.2668A.2119.2119,0,0,1,798.8031,92.7417Zm-9.0359-3.5646,2.4022.81c-.989-.4433-1.7081-.7723-1.7934-.8124a.258.258,0,0,1-.0912-.07,1.7567,1.7567,0,0,1-.2327-1.7031,24.6993,24.6993,0,0,0,.25-3.6087Z"/><path class="c" d="M804.7338,119.55a.2757.2757,0,0,1-.0562-.006c-9.2746-2.0882-20.9092-7.7089-21.0256-7.7651a.2562.2562,0,0,1-.1183-.343.25.25,0,0,1,.343-.1184c.1153.0562,11.6978,5.6489,20.9132,7.725a.2568.2568,0,0,1-.0561.5075Z"/><path class="a" d="M536.5447,51.583c-2.83-7.26-6.1524-8.7368-12.6768-9.4752v-.9864h37.7853v.9864c-5.7832.6144-8.2464,1.9672-8.2464,5.5352a26.1046,26.1046,0,0,0,2.3392,9.6048l16.986,42.8329,12.922-34.0961-6.5216-16.6168c-2.094-5.6592-5.91-6.77-10.8308-7.26v-.9864h37.0469v.9864c-6.0312.49-9.1088,1.9672-9.1088,5.9072,0,2.83,1.6008,6.8936,2.7084,9.5992l16.738,42.8329L632.303,57.3662a30.7636,30.7636,0,0,0,2.0912-9.1032c0-3.816-2.3364-5.5408-8.7368-6.1552v-.9864h24.7392v.9864c-6.6484.7384-8.0012,2.83-10.5856,9.5992l-29.4177,76.681L588.3625,72.7543c.124,0-21.2925,55.6337-21.2925,55.6337Z"/><path class="a" d="M649.6723,124.448c7.9984-.9864,9.5992-2.9536,9.5992-13.2912v-30.77c0-5.6649-3.1988-6.77-9.1088-5.0448V73.859l24.0037-7.8744v45.1722c0,10.2136,1.598,12.4288,8.4916,13.2912v.9864H649.6723ZM657.7947,45.8c0-4.8024,3.94-8.1224,8.74-8.1224s8.6156,3.32,8.6156,8.1224c0,4.6784-3.816,8.1224-8.6156,8.1224S657.7947,50.4782,657.7947,45.8Z"/><path class="a" d="M686.2316,124.448c7.9984-.9864,9.23-3.2016,9.23-13.2912V81.8631c0-8.2464-3.0777-8.37-8.74-6.77V73.6167l23.6317-7.5081V78.1711c6.0312-5.9072,12.5556-11.6961,20.9261-11.6961,9.354,0,15.5064,6.1553,15.5064,16.8649v27.8169c0,10.3376,1.3556,12.4288,8.74,13.2912v.9864H723.0333v-.9864c7.7533-.9864,8.8609-2.83,8.8609-13.2912V85.9215c0-7.508-2.83-11.076-8.9849-11.076-4.8,0-8.74,2.83-12.5556,6.2792v30.0321c0,10.2136,1.3556,12.4288,8.37,13.2912v.9864H686.2316Z"/><path class="a" d="M758.8571,97.37c0-14.52,9.9712-30.8945,27.0785-30.8945,16.738,0,25.3536,11.4481,25.3536,23.1385H772.6415c0,15.512,8.37,26.96,20.4329,26.96,6.1552,0,13.294-1.8488,18.9532-11.4481l.9864.49c-3.692,10.5857-12.9248,21.2953-26.7092,21.2953C770.7955,126.9112,758.8571,114.11,758.8571,97.37ZM795.904,85.5551c-.9836-7.88-3.9372-15.2641-11.076-15.2641-6.77,0-11.2,7.0177-11.9385,15.2641Z"/></svg>