<svg width="850" height="650" viewBox="0 0 850 650" fill="none" xmlns="http://www.w3.org/2000/svg">
<rect width="850" height="650" fill="white"/>
<path d="M84 488C84 482.477 88.4772 478 94 478H413C418.523 478 423 482.477 423 488V550C423 555.523 418.523 560 413 560H94C88.4772 560 84 555.523 84 550V488Z" fill="#F3F5F8"/>
<rect x="95" y="489" width="64" height="60" rx="10" fill="#E5E8EC"/>
<rect x="177" y="492" width="214" height="23" rx="10" fill="#E5E8EC"/>
<rect x="177" y="522" width="173" height="10" rx="5" fill="#E5E8EC"/>
<rect x="177" y="537" width="202" height="10" rx="5" fill="#E5E8EC"/>
<path d="M95.3395 166.453C95.2732 165.833 94.9938 165.35 94.5014 165.004C94.0137 164.659 93.3793 164.486 92.598 164.486C92.0488 164.486 91.5777 164.569 91.1847 164.734C90.7917 164.9 90.491 165.125 90.2827 165.409C90.0743 165.693 89.9678 166.018 89.9631 166.382C89.9631 166.685 90.0317 166.948 90.169 167.17C90.3111 167.393 90.5028 167.582 90.7443 167.739C90.9858 167.89 91.2533 168.018 91.5469 168.122C91.8404 168.226 92.1364 168.314 92.4347 168.385L93.7983 168.726C94.3475 168.854 94.8755 169.027 95.3821 169.244C95.8935 169.462 96.3504 169.737 96.7528 170.068C97.16 170.4 97.482 170.8 97.7188 171.268C97.9555 171.737 98.0739 172.286 98.0739 172.916C98.0739 173.768 97.8561 174.519 97.4205 175.168C96.9848 175.812 96.3551 176.316 95.5312 176.68C94.7121 177.04 93.7202 177.22 92.5554 177.22C91.4238 177.22 90.4413 177.045 89.608 176.695C88.7794 176.344 88.1307 175.833 87.6619 175.161C87.1979 174.488 86.947 173.669 86.9091 172.703H89.5014C89.5393 173.21 89.6955 173.631 89.9702 173.967C90.2448 174.304 90.6023 174.554 91.0426 174.72C91.4877 174.886 91.9848 174.969 92.5341 174.969C93.107 174.969 93.6089 174.884 94.0398 174.713C94.4754 174.538 94.8163 174.296 95.0625 173.989C95.3087 173.676 95.4342 173.312 95.4389 172.895C95.4342 172.516 95.3229 172.204 95.1051 171.957C94.8873 171.706 94.5819 171.498 94.1889 171.332C93.8007 171.162 93.3461 171.01 92.8253 170.878L91.1705 170.452C89.9725 170.144 89.0256 169.678 88.3295 169.053C87.6383 168.423 87.2926 167.587 87.2926 166.545C87.2926 165.688 87.5246 164.938 87.9886 164.294C88.4574 163.65 89.0942 163.151 89.8991 162.795C90.7041 162.436 91.6155 162.256 92.6335 162.256C93.6657 162.256 94.5701 162.436 95.3466 162.795C96.1278 163.151 96.741 163.645 97.1861 164.28C97.6312 164.91 97.8608 165.634 97.875 166.453H95.3395ZM102.88 170.608V177H100.309V162.455H102.824V167.945H102.951C103.207 167.329 103.602 166.844 104.137 166.489C104.677 166.129 105.364 165.949 106.197 165.949C106.955 165.949 107.615 166.107 108.179 166.425C108.742 166.742 109.178 167.206 109.485 167.817C109.798 168.428 109.954 169.173 109.954 170.054V177H107.383V170.452C107.383 169.718 107.194 169.147 106.815 168.74C106.441 168.328 105.915 168.122 105.238 168.122C104.784 168.122 104.377 168.222 104.017 168.42C103.662 168.615 103.382 168.896 103.179 169.266C102.98 169.635 102.88 170.082 102.88 170.608ZM117.333 177.213C116.268 177.213 115.345 176.979 114.564 176.51C113.782 176.041 113.176 175.385 112.745 174.543C112.319 173.7 112.106 172.715 112.106 171.588C112.106 170.461 112.319 169.474 112.745 168.626C113.176 167.779 113.782 167.121 114.564 166.652C115.345 166.183 116.268 165.949 117.333 165.949C118.399 165.949 119.322 166.183 120.103 166.652C120.885 167.121 121.488 167.779 121.914 168.626C122.345 169.474 122.561 170.461 122.561 171.588C122.561 172.715 122.345 173.7 121.914 174.543C121.488 175.385 120.885 176.041 120.103 176.51C119.322 176.979 118.399 177.213 117.333 177.213ZM117.348 175.153C117.925 175.153 118.408 174.995 118.797 174.678C119.185 174.356 119.474 173.925 119.663 173.385C119.857 172.845 119.954 172.244 119.954 171.581C119.954 170.913 119.857 170.31 119.663 169.77C119.474 169.225 119.185 168.792 118.797 168.47C118.408 168.148 117.925 167.987 117.348 167.987C116.756 167.987 116.263 168.148 115.87 168.47C115.482 168.792 115.191 169.225 114.997 169.77C114.807 170.31 114.713 170.913 114.713 171.581C114.713 172.244 114.807 172.845 114.997 173.385C115.191 173.925 115.482 174.356 115.87 174.678C116.263 174.995 116.756 175.153 117.348 175.153ZM124.743 181.091V166.091H127.271V167.895H127.42C127.553 167.63 127.74 167.348 127.982 167.05C128.223 166.747 128.55 166.489 128.962 166.276C129.374 166.058 129.899 165.949 130.538 165.949C131.381 165.949 132.141 166.164 132.818 166.595C133.5 167.021 134.04 167.653 134.438 168.491C134.84 169.325 135.041 170.348 135.041 171.56C135.041 172.758 134.845 173.776 134.452 174.614C134.059 175.452 133.524 176.091 132.847 176.531C132.17 176.972 131.402 177.192 130.545 177.192C129.92 177.192 129.402 177.088 128.99 176.879C128.578 176.671 128.247 176.42 127.996 176.126C127.75 175.828 127.558 175.546 127.42 175.281H127.314V181.091H124.743ZM127.264 171.545C127.264 172.251 127.364 172.869 127.562 173.399C127.766 173.929 128.057 174.344 128.436 174.642C128.82 174.936 129.284 175.082 129.828 175.082C130.396 175.082 130.872 174.931 131.256 174.628C131.639 174.32 131.928 173.901 132.122 173.371C132.321 172.836 132.42 172.227 132.42 171.545C132.42 170.868 132.323 170.267 132.129 169.741C131.935 169.216 131.646 168.804 131.263 168.506C130.879 168.207 130.401 168.058 129.828 168.058C129.279 168.058 128.812 168.203 128.429 168.491C128.045 168.78 127.754 169.185 127.555 169.706C127.361 170.227 127.264 170.84 127.264 171.545ZM137.243 181.091V166.091H139.771V167.895H139.92C140.053 167.63 140.24 167.348 140.482 167.05C140.723 166.747 141.05 166.489 141.462 166.276C141.874 166.058 142.399 165.949 143.038 165.949C143.881 165.949 144.641 166.164 145.318 166.595C146 167.021 146.54 167.653 146.938 168.491C147.34 169.325 147.541 170.348 147.541 171.56C147.541 172.758 147.345 173.776 146.952 174.614C146.559 175.452 146.024 176.091 145.347 176.531C144.67 176.972 143.902 177.192 143.045 177.192C142.42 177.192 141.902 177.088 141.49 176.879C141.078 176.671 140.747 176.42 140.496 176.126C140.25 175.828 140.058 175.546 139.92 175.281H139.814V181.091H137.243ZM139.764 171.545C139.764 172.251 139.864 172.869 140.062 173.399C140.266 173.929 140.557 174.344 140.936 174.642C141.32 174.936 141.784 175.082 142.328 175.082C142.896 175.082 143.372 174.931 143.756 174.628C144.139 174.32 144.428 173.901 144.622 173.371C144.821 172.836 144.92 172.227 144.92 171.545C144.92 170.868 144.823 170.267 144.629 169.741C144.435 169.216 144.146 168.804 143.763 168.506C143.379 168.207 142.901 168.058 142.328 168.058C141.779 168.058 141.312 168.203 140.929 168.491C140.545 168.78 140.254 169.185 140.055 169.706C139.861 170.227 139.764 170.84 139.764 171.545ZM149.743 177V166.091H152.314V177H149.743ZM151.036 164.543C150.628 164.543 150.278 164.408 149.984 164.138C149.691 163.863 149.544 163.534 149.544 163.151C149.544 162.762 149.691 162.433 149.984 162.163C150.278 161.889 150.628 161.751 151.036 161.751C151.447 161.751 151.798 161.889 152.087 162.163C152.38 162.433 152.527 162.762 152.527 163.151C152.527 163.534 152.38 163.863 152.087 164.138C151.798 164.408 151.447 164.543 151.036 164.543ZM157.529 170.608V177H154.958V166.091H157.415V167.945H157.543C157.794 167.334 158.194 166.848 158.743 166.489C159.297 166.129 159.981 165.949 160.796 165.949C161.549 165.949 162.204 166.11 162.763 166.432C163.327 166.754 163.762 167.22 164.07 167.831C164.382 168.442 164.536 169.183 164.532 170.054V177H161.961V170.452C161.961 169.723 161.771 169.152 161.392 168.74C161.018 168.328 160.5 168.122 159.837 168.122C159.387 168.122 158.987 168.222 158.637 168.42C158.291 168.615 158.019 168.896 157.82 169.266C157.626 169.635 157.529 170.082 157.529 170.608ZM171.89 181.318C170.966 181.318 170.173 181.193 169.51 180.942C168.847 180.696 168.315 180.364 167.912 179.947C167.51 179.531 167.23 179.069 167.074 178.562L169.39 178.001C169.494 178.214 169.645 178.425 169.844 178.634C170.043 178.847 170.31 179.022 170.647 179.159C170.988 179.301 171.416 179.372 171.932 179.372C172.661 179.372 173.265 179.195 173.743 178.839C174.221 178.489 174.461 177.911 174.461 177.107V175.04H174.333C174.2 175.305 174.006 175.577 173.75 175.857C173.499 176.136 173.166 176.37 172.749 176.56C172.337 176.749 171.819 176.844 171.194 176.844C170.355 176.844 169.596 176.647 168.914 176.254C168.237 175.857 167.697 175.265 167.294 174.479C166.897 173.688 166.698 172.698 166.698 171.51C166.698 170.312 166.897 169.301 167.294 168.477C167.697 167.649 168.239 167.021 168.921 166.595C169.603 166.164 170.363 165.949 171.201 165.949C171.84 165.949 172.365 166.058 172.777 166.276C173.194 166.489 173.525 166.747 173.772 167.05C174.018 167.348 174.205 167.63 174.333 167.895H174.475V166.091H177.01V177.178C177.01 178.11 176.788 178.882 176.343 179.493C175.898 180.104 175.289 180.561 174.517 180.864C173.746 181.167 172.87 181.318 171.89 181.318ZM171.911 174.827C172.455 174.827 172.919 174.694 173.303 174.429C173.686 174.164 173.978 173.783 174.176 173.286C174.375 172.788 174.475 172.192 174.475 171.496C174.475 170.809 174.375 170.208 174.176 169.692C173.982 169.176 173.694 168.776 173.31 168.491C172.931 168.203 172.465 168.058 171.911 168.058C171.338 168.058 170.86 168.207 170.476 168.506C170.093 168.804 169.804 169.214 169.61 169.734C169.416 170.25 169.319 170.838 169.319 171.496C169.319 172.163 169.416 172.748 169.61 173.25C169.809 173.747 170.1 174.135 170.483 174.415C170.872 174.689 171.347 174.827 171.911 174.827ZM189.365 177.213C188.276 177.213 187.341 176.974 186.559 176.496C185.783 176.018 185.184 175.357 184.762 174.514C184.346 173.667 184.137 172.691 184.137 171.588C184.137 170.48 184.35 169.502 184.777 168.655C185.203 167.803 185.804 167.14 186.581 166.666C187.362 166.188 188.285 165.949 189.35 165.949C190.236 165.949 191.02 166.112 191.701 166.439C192.388 166.761 192.935 167.218 193.342 167.81C193.749 168.397 193.981 169.083 194.038 169.869H191.581C191.481 169.344 191.244 168.906 190.87 168.555C190.501 168.2 190.006 168.023 189.386 168.023C188.86 168.023 188.399 168.165 188.001 168.449C187.603 168.728 187.293 169.131 187.071 169.656C186.853 170.182 186.744 170.812 186.744 171.545C186.744 172.289 186.853 172.928 187.071 173.463C187.288 173.993 187.594 174.403 187.987 174.692C188.385 174.976 188.851 175.118 189.386 175.118C189.765 175.118 190.103 175.047 190.402 174.905C190.705 174.758 190.958 174.547 191.162 174.273C191.365 173.998 191.505 173.664 191.581 173.271H194.038C193.976 174.043 193.749 174.727 193.356 175.324C192.963 175.916 192.428 176.38 191.751 176.716C191.074 177.047 190.279 177.213 189.365 177.213ZM199.288 177.22C198.597 177.22 197.974 177.097 197.42 176.851C196.871 176.6 196.436 176.231 196.114 175.743C195.796 175.255 195.638 174.654 195.638 173.939C195.638 173.323 195.751 172.814 195.979 172.412C196.206 172.009 196.516 171.688 196.909 171.446C197.302 171.205 197.745 171.022 198.237 170.899C198.734 170.771 199.248 170.679 199.778 170.622C200.418 170.556 200.936 170.497 201.334 170.445C201.732 170.388 202.02 170.303 202.2 170.189C202.385 170.071 202.477 169.888 202.477 169.642V169.599C202.477 169.064 202.319 168.65 202.001 168.357C201.684 168.063 201.227 167.916 200.631 167.916C200.001 167.916 199.501 168.054 199.132 168.328C198.768 168.603 198.521 168.927 198.393 169.301L195.993 168.96C196.182 168.297 196.495 167.743 196.93 167.298C197.366 166.848 197.899 166.512 198.528 166.29C199.158 166.062 199.854 165.949 200.616 165.949C201.142 165.949 201.665 166.01 202.186 166.134C202.707 166.257 203.183 166.46 203.614 166.744C204.045 167.024 204.39 167.405 204.651 167.888C204.916 168.371 205.048 168.974 205.048 169.699V177H202.577V175.501H202.491C202.335 175.804 202.115 176.089 201.831 176.354C201.552 176.614 201.199 176.825 200.773 176.986C200.351 177.142 199.857 177.22 199.288 177.22ZM199.956 175.331C200.472 175.331 200.92 175.229 201.298 175.026C201.677 174.817 201.968 174.543 202.172 174.202C202.38 173.861 202.484 173.489 202.484 173.087V171.801C202.404 171.867 202.267 171.929 202.072 171.986C201.883 172.043 201.67 172.092 201.433 172.135C201.196 172.178 200.962 172.215 200.73 172.249C200.498 172.282 200.297 172.31 200.126 172.334C199.743 172.386 199.4 172.471 199.097 172.589C198.794 172.708 198.554 172.874 198.379 173.087C198.204 173.295 198.116 173.565 198.116 173.896C198.116 174.37 198.289 174.727 198.635 174.969C198.981 175.21 199.421 175.331 199.956 175.331ZM207.634 177V166.091H210.126V167.909H210.24C210.439 167.279 210.78 166.794 211.263 166.453C211.75 166.107 212.307 165.935 212.932 165.935C213.074 165.935 213.232 165.942 213.408 165.956C213.588 165.965 213.737 165.982 213.855 166.006V168.371C213.746 168.333 213.573 168.3 213.337 168.271C213.105 168.238 212.88 168.222 212.662 168.222C212.193 168.222 211.772 168.323 211.398 168.527C211.028 168.726 210.737 169.003 210.524 169.358C210.311 169.713 210.205 170.123 210.205 170.587V177H207.634ZM221.597 166.091V168.08H215.325V166.091H221.597ZM216.874 163.477H219.445V173.719C219.445 174.064 219.497 174.33 219.601 174.514C219.71 174.694 219.852 174.817 220.027 174.884C220.202 174.95 220.396 174.983 220.609 174.983C220.77 174.983 220.917 174.971 221.05 174.947C221.187 174.924 221.291 174.902 221.362 174.884L221.795 176.893C221.658 176.941 221.462 176.993 221.206 177.05C220.955 177.107 220.647 177.14 220.283 177.149C219.639 177.168 219.059 177.071 218.543 176.858C218.027 176.64 217.617 176.304 217.314 175.849C217.016 175.395 216.869 174.827 216.874 174.145V163.477Z" fill="black" fill-opacity="0.66"/>
<path d="M487 291H754C758.971 291 763 295.029 763 300V362C763 366.971 758.971 371 754 371H487C482.029 371 478 366.971 478 362V300C478 295.029 482.029 291 487 291Z" fill="#FFF9FC" stroke="#A51C5E" stroke-width="2"/>
<rect x="570" y="307" width="153" height="17" rx="8.5" fill="#A51C5E"/>
<rect x="570" y="329" width="133" height="13" rx="6.5" fill="#A51C5E"/>
<path d="M527 320.838H510V356.132H527V320.838Z" fill="#A51C5E"/>
<path d="M523.6 353.795H513.4C511.522 353.795 510 354.468 510 355.298V358.498C510 359.327 511.522 360 513.4 360H523.6C525.478 360 527 359.327 527 358.498V355.298C527 354.468 525.478 353.795 523.6 353.795Z" fill="#A51C5E"/>
<path d="M527 320.717C527 321.357 526.781 321.991 526.354 322.583C525.927 323.174 525.3 323.712 524.511 324.165C523.722 324.618 522.785 324.977 521.753 325.222C520.722 325.467 519.616 325.593 518.5 325.593C517.384 325.593 516.278 325.467 515.247 325.222C514.215 324.977 513.278 324.618 512.489 324.165C511.7 323.712 511.073 323.174 510.646 322.583C510.219 321.991 510 321.357 510 320.717C510 320.076 510.219 319.442 510.646 318.851C511.073 318.259 511.7 317.721 512.489 317.269C513.278 316.816 514.215 316.457 515.247 316.212C516.278 315.966 517.384 315.84 518.5 315.84C519.616 315.84 520.722 315.966 521.753 316.212C522.785 316.457 523.722 316.816 524.511 317.269C525.3 317.721 525.927 318.259 526.354 318.851C526.781 319.442 527 320.076 527 320.717Z" fill="#A51C5E"/>
<path d="M520.037 299H516.963C516.024 299 515.263 299.336 515.263 299.751V317.427C515.263 317.842 516.024 318.178 516.963 318.178H520.037C520.976 318.178 521.737 317.842 521.737 317.427V299.751C521.737 299.336 520.976 299 520.037 299Z" fill="#A51C5E"/>
<path d="M521.186 300.259H515.814C515.345 300.259 514.964 300.595 514.964 301.01V303.006C514.964 303.42 515.345 303.757 515.814 303.757H521.186C521.655 303.757 522.036 303.42 522.036 303.006V301.01C522.036 300.595 521.655 300.259 521.186 300.259Z" fill="#A51C5E"/>
<path d="M105.76 73.1818H109.68V88.5227C109.673 89.929 109.375 91.1399 108.786 92.1555C108.196 93.1641 107.372 93.9418 106.314 94.4886C105.263 95.0284 104.038 95.2983 102.638 95.2983C101.36 95.2983 100.21 95.071 99.1868 94.6165C98.1712 94.1548 97.3651 93.473 96.7685 92.571C96.1719 91.669 95.8736 90.5469 95.8736 89.2045H99.8047C99.8118 89.794 99.9396 90.3018 100.188 90.728C100.444 91.1541 100.795 91.4808 101.243 91.7081C101.69 91.9354 102.205 92.049 102.788 92.049C103.42 92.049 103.956 91.9176 104.396 91.6548C104.837 91.3849 105.17 90.9872 105.398 90.4616C105.632 89.9361 105.753 89.2898 105.76 88.5227V73.1818ZM121.042 95.3196C119.402 95.3196 117.985 94.9787 116.792 94.2969C115.605 93.608 114.693 92.6349 114.054 91.3778C113.414 90.1136 113.095 88.6257 113.095 86.9141C113.095 85.2308 113.414 83.7536 114.054 82.4822C114.7 81.2038 115.602 80.2095 116.76 79.4993C117.917 78.782 119.277 78.4233 120.84 78.4233C121.848 78.4233 122.8 78.5866 123.695 78.9134C124.597 79.233 125.392 79.7301 126.081 80.4048C126.777 81.0795 127.324 81.9389 127.722 82.983C128.12 84.0199 128.319 85.2557 128.319 86.6903V87.8729H114.906V85.2734H124.622C124.615 84.5348 124.455 83.8778 124.142 83.3026C123.83 82.7202 123.393 82.2621 122.832 81.9283C122.278 81.5945 121.632 81.4276 120.893 81.4276C120.105 81.4276 119.412 81.6193 118.816 82.0028C118.219 82.3793 117.754 82.8764 117.42 83.4943C117.093 84.1051 116.926 84.7763 116.919 85.5078V87.777C116.919 88.7287 117.093 89.5455 117.441 90.2273C117.789 90.902 118.276 91.4205 118.901 91.7827C119.526 92.1378 120.257 92.3153 121.096 92.3153C121.657 92.3153 122.164 92.2372 122.619 92.081C123.074 91.9176 123.468 91.6797 123.801 91.3672C124.135 91.0547 124.387 90.6676 124.558 90.206L128.159 90.6108C127.931 91.5625 127.498 92.3935 126.859 93.1037C126.227 93.8068 125.417 94.3537 124.43 94.7443C123.443 95.1278 122.314 95.3196 121.042 95.3196ZM139.869 78.6364V81.6193H130.196V78.6364H139.869ZM132.615 95V77.0916C132.615 75.9908 132.842 75.0746 133.296 74.343C133.758 73.6115 134.376 73.0646 135.15 72.7024C135.924 72.3402 136.784 72.1591 137.728 72.1591C138.396 72.1591 138.989 72.2124 139.507 72.3189C140.026 72.4254 140.409 72.5213 140.658 72.6065L139.891 75.5895C139.727 75.5398 139.521 75.4901 139.273 75.4403C139.024 75.3835 138.747 75.3551 138.442 75.3551C137.725 75.3551 137.217 75.5291 136.919 75.8771C136.627 76.218 136.482 76.7081 136.482 77.3473V95H132.615ZM151.178 78.6364V81.6193H141.505V78.6364H151.178ZM143.923 95V77.0916C143.923 75.9908 144.15 75.0746 144.605 74.343C145.067 73.6115 145.684 73.0646 146.459 72.7024C147.233 72.3402 148.092 72.1591 149.037 72.1591C149.704 72.1591 150.297 72.2124 150.816 72.3189C151.334 72.4254 151.718 72.5213 151.966 72.6065L151.199 75.5895C151.036 75.5398 150.83 75.4901 150.581 75.4403C150.333 75.3835 150.056 75.3551 149.751 75.3551C149.033 75.3551 148.525 75.5291 148.227 75.8771C147.936 76.218 147.79 76.7081 147.79 77.3473V95H143.923ZM160.721 95.3196C159.087 95.3196 157.685 94.9609 156.513 94.2436C155.348 93.5263 154.45 92.5355 153.817 91.2713C153.192 90 152.88 88.5369 152.88 86.8821C152.88 85.2202 153.2 83.7536 153.839 82.4822C154.478 81.2038 155.38 80.2095 156.545 79.4993C157.717 78.782 159.102 78.4233 160.7 78.4233C162.028 78.4233 163.203 78.6683 164.226 79.1584C165.256 79.6413 166.076 80.3267 166.687 81.2145C167.298 82.0952 167.646 83.125 167.731 84.304H164.045C163.896 83.5156 163.54 82.8587 162.979 82.3331C162.425 81.8004 161.683 81.5341 160.753 81.5341C159.964 81.5341 159.272 81.7472 158.675 82.1733C158.079 82.5923 157.614 83.196 157.28 83.9844C156.953 84.7727 156.79 85.7173 156.79 86.8182C156.79 87.9332 156.953 88.892 157.28 89.6946C157.607 90.4901 158.065 91.1044 158.654 91.5376C159.251 91.9638 159.95 92.1768 160.753 92.1768C161.321 92.1768 161.829 92.0703 162.276 91.8572C162.731 91.6371 163.111 91.321 163.416 90.9091C163.722 90.4972 163.931 89.9964 164.045 89.407H167.731C167.638 90.5646 167.298 91.5909 166.708 92.4858C166.119 93.3736 165.316 94.0696 164.3 94.5739C163.285 95.071 162.092 95.3196 160.721 95.3196ZM178.035 95.3196C176.437 95.3196 175.052 94.968 173.881 94.2649C172.709 93.5618 171.8 92.5781 171.153 91.3139C170.514 90.0497 170.194 88.5724 170.194 86.8821C170.194 85.1918 170.514 83.7109 171.153 82.4396C171.8 81.1683 172.709 80.1811 173.881 79.478C175.052 78.7749 176.437 78.4233 178.035 78.4233C179.633 78.4233 181.018 78.7749 182.19 79.478C183.362 80.1811 184.268 81.1683 184.907 82.4396C185.553 83.7109 185.876 85.1918 185.876 86.8821C185.876 88.5724 185.553 90.0497 184.907 91.3139C184.268 92.5781 183.362 93.5618 182.19 94.2649C181.018 94.968 179.633 95.3196 178.035 95.3196ZM178.057 92.2301C178.923 92.2301 179.648 91.9922 180.23 91.5163C180.812 91.0334 181.246 90.3871 181.53 89.5774C181.821 88.7678 181.966 87.8658 181.966 86.8714C181.966 85.87 181.821 84.9645 181.53 84.1548C181.246 83.3381 180.812 82.6882 180.23 82.2053C179.648 81.7223 178.923 81.4808 178.057 81.4808C177.169 81.4808 176.43 81.7223 175.841 82.2053C175.258 82.6882 174.822 83.3381 174.53 84.1548C174.246 84.9645 174.104 85.87 174.104 86.8714C174.104 87.8658 174.246 88.7678 174.53 89.5774C174.822 90.3871 175.258 91.0334 175.841 91.5163C176.43 91.9922 177.169 92.2301 178.057 92.2301ZM203.707 101.477C202.322 101.477 201.133 101.289 200.138 100.913C199.144 100.543 198.345 100.046 197.741 99.4212C197.138 98.7962 196.719 98.1037 196.484 97.3438L199.957 96.5021C200.114 96.8217 200.341 97.1378 200.639 97.4503C200.938 97.7699 201.339 98.0327 201.843 98.2386C202.354 98.4517 202.997 98.5582 203.771 98.5582C204.865 98.5582 205.771 98.2919 206.488 97.7592C207.205 97.2337 207.564 96.3672 207.564 95.1598V92.0597H207.372C207.173 92.4574 206.882 92.8658 206.499 93.2848C206.122 93.7038 205.621 94.0554 204.996 94.3395C204.379 94.6236 203.601 94.7656 202.663 94.7656C201.406 94.7656 200.266 94.4709 199.244 93.8814C198.228 93.2848 197.418 92.397 196.815 91.218C196.218 90.032 195.92 88.5476 195.92 86.7649C195.92 84.968 196.218 83.4517 196.815 82.2159C197.418 80.973 198.232 80.032 199.254 79.3928C200.277 78.7464 201.417 78.4233 202.674 78.4233C203.633 78.4233 204.421 78.5866 205.039 78.9134C205.664 79.233 206.161 79.62 206.531 80.0746C206.9 80.522 207.18 80.9446 207.372 81.3423H207.585V78.6364H211.388V95.2663C211.388 96.6655 211.055 97.8232 210.387 98.7393C209.719 99.6555 208.807 100.341 207.649 100.795C206.491 101.25 205.178 101.477 203.707 101.477ZM203.739 91.7401C204.556 91.7401 205.252 91.5412 205.827 91.1435C206.403 90.7457 206.839 90.174 207.138 89.4283C207.436 88.6825 207.585 87.7876 207.585 86.7436C207.585 85.7138 207.436 84.8118 207.138 84.0376C206.847 83.2635 206.413 82.6634 205.838 82.2372C205.27 81.804 204.57 81.5874 203.739 81.5874C202.88 81.5874 202.163 81.8111 201.587 82.2585C201.012 82.706 200.579 83.3203 200.288 84.1016C199.996 84.8757 199.851 85.7564 199.851 86.7436C199.851 87.745 199.996 88.6222 200.288 89.375C200.586 90.1207 201.023 90.7031 201.598 91.1222C202.18 91.5341 202.894 91.7401 203.739 91.7401ZM215.341 95V78.6364H219.08V81.3636H219.251C219.549 80.419 220.06 79.6911 220.785 79.1797C221.516 78.6612 222.351 78.402 223.288 78.402C223.501 78.402 223.739 78.4126 224.002 78.4339C224.272 78.4482 224.496 78.473 224.673 78.5085V82.0561C224.51 81.9993 224.251 81.9496 223.896 81.907C223.548 81.8572 223.21 81.8324 222.884 81.8324C222.18 81.8324 221.548 81.9851 220.987 82.2905C220.433 82.5888 219.996 83.0043 219.677 83.5369C219.357 84.0696 219.197 84.6839 219.197 85.38V95H215.341ZM233.699 95.3196C232.101 95.3196 230.716 94.968 229.545 94.2649C228.373 93.5618 227.464 92.5781 226.817 91.3139C226.178 90.0497 225.858 88.5724 225.858 86.8821C225.858 85.1918 226.178 83.7109 226.817 82.4396C227.464 81.1683 228.373 80.1811 229.545 79.478C230.716 78.7749 232.101 78.4233 233.699 78.4233C235.297 78.4233 236.682 78.7749 237.854 79.478C239.026 80.1811 239.932 81.1683 240.571 82.4396C241.217 83.7109 241.54 85.1918 241.54 86.8821C241.54 88.5724 241.217 90.0497 240.571 91.3139C239.932 92.5781 239.026 93.5618 237.854 94.2649C236.682 94.968 235.297 95.3196 233.699 95.3196ZM233.721 92.2301C234.587 92.2301 235.312 91.9922 235.894 91.5163C236.476 91.0334 236.91 90.3871 237.194 89.5774C237.485 88.7678 237.631 87.8658 237.631 86.8714C237.631 85.87 237.485 84.9645 237.194 84.1548C236.91 83.3381 236.476 82.6882 235.894 82.2053C235.312 81.7223 234.587 81.4808 233.721 81.4808C232.833 81.4808 232.094 81.7223 231.505 82.2053C230.922 82.6882 230.486 83.3381 230.194 84.1548C229.91 84.9645 229.768 85.87 229.768 86.8714C229.768 87.8658 229.91 88.7678 230.194 89.5774C230.486 90.3871 230.922 91.0334 231.505 91.5163C232.094 91.9922 232.833 92.2301 233.721 92.2301ZM251.951 95.3196C250.318 95.3196 248.915 94.9609 247.743 94.2436C246.578 93.5263 245.68 92.5355 245.048 91.2713C244.423 90 244.11 88.5369 244.11 86.8821C244.11 85.2202 244.43 83.7536 245.069 82.4822C245.708 81.2038 246.61 80.2095 247.775 79.4993C248.947 78.782 250.332 78.4233 251.93 78.4233C253.258 78.4233 254.434 78.6683 255.456 79.1584C256.486 79.6413 257.306 80.3267 257.917 81.2145C258.528 82.0952 258.876 83.125 258.961 84.304H255.275C255.126 83.5156 254.771 82.8587 254.21 82.3331C253.656 81.8004 252.914 81.5341 251.983 81.5341C251.195 81.5341 250.502 81.7472 249.906 82.1733C249.309 82.5923 248.844 83.196 248.51 83.9844C248.184 84.7727 248.02 85.7173 248.02 86.8182C248.02 87.9332 248.184 88.892 248.51 89.6946C248.837 90.4901 249.295 91.1044 249.885 91.5376C250.481 91.9638 251.181 92.1768 251.983 92.1768C252.551 92.1768 253.059 92.0703 253.507 91.8572C253.961 91.6371 254.341 91.321 254.647 90.9091C254.952 90.4972 255.162 89.9964 255.275 89.407H258.961C258.869 90.5646 258.528 91.5909 257.939 92.4858C257.349 93.3736 256.547 94.0696 255.531 94.5739C254.515 95.071 253.322 95.3196 251.951 95.3196ZM269.372 95.3196C267.732 95.3196 266.315 94.9787 265.122 94.2969C263.936 93.608 263.023 92.6349 262.384 91.3778C261.744 90.1136 261.425 88.6257 261.425 86.9141C261.425 85.2308 261.744 83.7536 262.384 82.4822C263.03 81.2038 263.932 80.2095 265.09 79.4993C266.247 78.782 267.607 78.4233 269.17 78.4233C270.178 78.4233 271.13 78.5866 272.025 78.9134C272.927 79.233 273.722 79.7301 274.411 80.4048C275.107 81.0795 275.654 81.9389 276.052 82.983C276.45 84.0199 276.649 85.2557 276.649 86.6903V87.8729H263.236V85.2734H272.952C272.945 84.5348 272.785 83.8778 272.472 83.3026C272.16 82.7202 271.723 82.2621 271.162 81.9283C270.608 81.5945 269.962 81.4276 269.223 81.4276C268.435 81.4276 267.742 81.6193 267.146 82.0028C266.549 82.3793 266.084 82.8764 265.75 83.4943C265.423 84.1051 265.257 84.7763 265.249 85.5078V87.777C265.249 88.7287 265.423 89.5455 265.771 90.2273C266.119 90.902 266.606 91.4205 267.231 91.7827C267.856 92.1378 268.588 92.3153 269.426 92.3153C269.987 92.3153 270.494 92.2372 270.949 92.081C271.404 91.9176 271.798 91.6797 272.132 91.3672C272.465 91.0547 272.718 90.6676 272.888 90.206L276.489 90.6108C276.262 91.5625 275.828 92.3935 275.189 93.1037C274.557 93.8068 273.747 94.3537 272.76 94.7443C271.773 95.1278 270.644 95.3196 269.372 95.3196ZM279.911 95V78.6364H283.651V81.3636H283.821C284.119 80.419 284.631 79.6911 285.355 79.1797C286.087 78.6612 286.921 78.402 287.859 78.402C288.072 78.402 288.31 78.4126 288.572 78.4339C288.842 78.4482 289.066 78.473 289.244 78.5085V82.0561C289.08 81.9993 288.821 81.9496 288.466 81.907C288.118 81.8572 287.781 81.8324 287.454 81.8324C286.751 81.8324 286.119 81.9851 285.558 82.2905C285.004 82.5888 284.567 83.0043 284.247 83.5369C283.928 84.0696 283.768 84.6839 283.768 85.38V95H279.911ZM291.806 95V78.6364H295.662V95H291.806ZM293.745 76.3139C293.134 76.3139 292.608 76.1115 292.168 75.7067C291.728 75.2947 291.507 74.8011 291.507 74.2259C291.507 73.6435 291.728 73.1499 292.168 72.745C292.608 72.3331 293.134 72.1271 293.745 72.1271C294.363 72.1271 294.888 72.3331 295.321 72.745C295.762 73.1499 295.982 73.6435 295.982 74.2259C295.982 74.8011 295.762 75.2947 295.321 75.7067C294.888 76.1115 294.363 76.3139 293.745 76.3139ZM306.872 95.3196C305.232 95.3196 303.815 94.9787 302.622 94.2969C301.436 93.608 300.523 92.6349 299.884 91.3778C299.244 90.1136 298.925 88.6257 298.925 86.9141C298.925 85.2308 299.244 83.7536 299.884 82.4822C300.53 81.2038 301.432 80.2095 302.59 79.4993C303.747 78.782 305.107 78.4233 306.67 78.4233C307.678 78.4233 308.63 78.5866 309.525 78.9134C310.427 79.233 311.222 79.7301 311.911 80.4048C312.607 81.0795 313.154 81.9389 313.552 82.983C313.95 84.0199 314.149 85.2557 314.149 86.6903V87.8729H300.736V85.2734H310.452C310.445 84.5348 310.285 83.8778 309.972 83.3026C309.66 82.7202 309.223 82.2621 308.662 81.9283C308.108 81.5945 307.462 81.4276 306.723 81.4276C305.935 81.4276 305.242 81.6193 304.646 82.0028C304.049 82.3793 303.584 82.8764 303.25 83.4943C302.923 84.1051 302.757 84.7763 302.749 85.5078V87.777C302.749 88.7287 302.923 89.5455 303.271 90.2273C303.619 90.902 304.106 91.4205 304.731 91.7827C305.356 92.1378 306.088 92.3153 306.926 92.3153C307.487 92.3153 307.994 92.2372 308.449 92.081C308.904 91.9176 309.298 91.6797 309.632 91.3672C309.965 91.0547 310.218 90.6676 310.388 90.206L313.989 90.6108C313.762 91.5625 313.328 92.3935 312.689 93.1037C312.057 93.8068 311.247 94.3537 310.26 94.7443C309.273 95.1278 308.144 95.3196 306.872 95.3196ZM330.344 82.9616L326.829 83.3452C326.729 82.9901 326.555 82.6562 326.307 82.3438C326.065 82.0312 325.739 81.7791 325.327 81.5874C324.915 81.3956 324.411 81.2997 323.814 81.2997C323.011 81.2997 322.337 81.4737 321.79 81.8217C321.25 82.1697 320.984 82.6207 320.991 83.1747C320.984 83.6506 321.158 84.0376 321.513 84.3359C321.875 84.6342 322.472 84.8793 323.303 85.071L326.094 85.6676C327.642 86.0014 328.793 86.5305 329.545 87.255C330.305 87.9794 330.689 88.9276 330.696 90.0994C330.689 91.1293 330.387 92.0384 329.79 92.8267C329.201 93.608 328.381 94.2187 327.33 94.6591C326.278 95.0994 325.071 95.3196 323.707 95.3196C321.705 95.3196 320.092 94.9006 318.871 94.0625C317.649 93.2173 316.921 92.0419 316.687 90.5362L320.447 90.174C320.618 90.9126 320.98 91.4702 321.534 91.8466C322.088 92.223 322.809 92.4112 323.697 92.4112C324.613 92.4112 325.348 92.223 325.902 91.8466C326.463 91.4702 326.744 91.005 326.744 90.451C326.744 89.9822 326.563 89.5952 326.2 89.2898C325.845 88.9844 325.291 88.75 324.538 88.5866L321.747 88.0007C320.178 87.674 319.016 87.1236 318.263 86.3494C317.511 85.5682 317.138 84.581 317.145 83.3878C317.138 82.3793 317.411 81.5057 317.965 80.767C318.526 80.0213 319.304 79.446 320.298 79.0412C321.3 78.6293 322.454 78.4233 323.761 78.4233C325.678 78.4233 327.188 78.8317 328.288 79.6484C329.396 80.4652 330.082 81.5696 330.344 82.9616Z" fill="black"/>
<path d="M84 206C84 200.477 88.4772 196 94 196H413C418.523 196 423 200.477 423 206V268C423 273.523 418.523 278 413 278H94C88.4772 278 84 273.523 84 268V206Z" fill="#F3F5F8"/>
<rect x="95" y="207" width="64" height="60" rx="10" fill="#E5E8EC"/>
<rect x="177" y="210" width="197" height="23" rx="10" fill="#E5E8EC"/>
<rect x="177" y="240" width="161" height="10" rx="5" fill="#E5E8EC"/>
<rect x="177" y="255" width="161" height="10" rx="5" fill="#E5E8EC"/>
<path d="M84 300C84 294.477 88.4772 290 94 290H413C418.523 290 423 294.477 423 300V362C423 367.523 418.523 372 413 372H94C88.4772 372 84 367.523 84 362V300Z" fill="#F3F5F8"/>
<rect x="95" y="301" width="64" height="60" rx="10" fill="#E5E8EC"/>
<rect x="177" y="304" width="173" height="23" rx="10" fill="#E5E8EC"/>
<rect x="177" y="334" width="161" height="10" rx="5" fill="#E5E8EC"/>
<rect x="177" y="349" width="134" height="10" rx="5" fill="#E5E8EC"/>
<path d="M84 394C84 388.477 88.4772 384 94 384H413C418.523 384 423 388.477 423 394V456C423 461.523 418.523 466 413 466H94C88.4772 466 84 461.523 84 456V394Z" fill="#F3F5F8"/>
<rect x="95" y="395" width="64" height="60" rx="10" fill="#E5E8EC"/>
<rect x="177" y="398" width="214" height="23" rx="10" fill="#E5E8EC"/>
<rect x="177" y="428" width="173" height="10" rx="5" fill="#E5E8EC"/>
<rect x="177" y="443" width="202" height="10" rx="5" fill="#E5E8EC"/>
<path d="M486 197H754C758.971 197 763 201.029 763 206V268C763 272.971 758.971 277 754 277H486C481.029 277 477 272.971 477 268V206C477 201.029 481.029 197 486 197Z" fill="#FFF9FC" stroke="#A51C5E" stroke-width="2"/>
<rect x="569" y="215" width="176" height="17" rx="8.5" fill="#A51C5E"/>
<rect x="569" y="237" width="154" height="13" rx="6.5" fill="#A51C5E"/>
<path d="M526 226.838H509V262.132H526V226.838Z" fill="#A51C5E"/>
<path d="M522.6 259.795H512.4C510.522 259.795 509 260.468 509 261.298V264.498C509 265.327 510.522 266 512.4 266H522.6C524.478 266 526 265.327 526 264.498V261.298C526 260.468 524.478 259.795 522.6 259.795Z" fill="#A51C5E"/>
<path d="M526 226.717C526 227.357 525.781 227.991 525.354 228.583C524.927 229.174 524.3 229.712 523.511 230.165C522.722 230.618 521.785 230.977 520.753 231.222C519.722 231.467 518.616 231.593 517.5 231.593C516.384 231.593 515.278 231.467 514.247 231.222C513.215 230.977 512.278 230.618 511.489 230.165C510.7 229.712 510.073 229.174 509.646 228.583C509.219 227.991 509 227.357 509 226.717C509 226.076 509.219 225.442 509.646 224.851C510.073 224.259 510.7 223.721 511.489 223.269C512.278 222.816 513.215 222.457 514.247 222.212C515.278 221.966 516.384 221.84 517.5 221.84C518.616 221.84 519.722 221.966 520.753 222.212C521.785 222.457 522.722 222.816 523.511 223.269C524.3 223.721 524.927 224.259 525.354 224.851C525.781 225.442 526 226.076 526 226.717Z" fill="#A51C5E"/>
<path d="M519.037 205H515.963C515.024 205 514.263 205.336 514.263 205.751V223.427C514.263 223.842 515.024 224.178 515.963 224.178H519.037C519.976 224.178 520.737 223.842 520.737 223.427V205.751C520.737 205.336 519.976 205 519.037 205Z" fill="#A51C5E"/>
<path d="M520.186 206.259H514.814C514.345 206.259 513.964 206.595 513.964 207.01V209.006C513.964 209.42 514.345 209.757 514.814 209.757H520.186C520.655 209.757 521.036 209.42 521.036 209.006V207.01C521.036 206.595 520.655 206.259 520.186 206.259Z" fill="#A51C5E"/>
<path d="M478.435 177V162.455H483.889C485.007 162.455 485.944 162.649 486.702 163.037C487.464 163.425 488.039 163.97 488.428 164.67C488.821 165.366 489.017 166.179 489.017 167.107C489.017 168.039 488.818 168.849 488.42 169.536C488.027 170.217 487.447 170.745 486.68 171.119C485.913 171.489 484.971 171.673 483.854 171.673H479.969V169.486H483.499C484.152 169.486 484.687 169.396 485.104 169.216C485.52 169.031 485.828 168.764 486.027 168.413C486.231 168.058 486.332 167.623 486.332 167.107C486.332 166.59 486.231 166.15 486.027 165.786C485.823 165.416 485.513 165.137 485.097 164.947C484.68 164.753 484.143 164.656 483.484 164.656H481.07V177H478.435ZM485.949 170.409L489.55 177H486.609L483.072 170.409H485.949ZM496.002 177.213C494.908 177.213 493.964 176.986 493.168 176.531C492.378 176.072 491.769 175.423 491.343 174.585C490.917 173.742 490.704 172.75 490.704 171.609C490.704 170.487 490.917 169.502 491.343 168.655C491.774 167.803 492.375 167.14 493.147 166.666C493.919 166.188 494.826 165.949 495.867 165.949C496.54 165.949 497.174 166.058 497.771 166.276C498.372 166.489 498.902 166.82 499.362 167.27C499.826 167.72 500.19 168.293 500.455 168.989C500.72 169.68 500.853 170.504 500.853 171.46V172.249H491.911V170.516H498.388C498.384 170.023 498.277 169.585 498.069 169.202C497.861 168.813 497.569 168.508 497.195 168.286C496.826 168.063 496.395 167.952 495.903 167.952C495.377 167.952 494.915 168.08 494.518 168.335C494.12 168.586 493.81 168.918 493.587 169.33C493.37 169.737 493.258 170.184 493.254 170.672V172.185C493.254 172.819 493.37 173.364 493.602 173.818C493.834 174.268 494.158 174.614 494.575 174.855C494.991 175.092 495.479 175.21 496.038 175.21C496.412 175.21 496.75 175.158 497.053 175.054C497.356 174.945 497.619 174.786 497.842 174.578C498.064 174.37 498.232 174.112 498.346 173.804L500.746 174.074C500.595 174.708 500.306 175.262 499.88 175.736C499.459 176.205 498.919 176.569 498.261 176.83C497.603 177.085 496.85 177.213 496.002 177.213ZM507.787 177.213C506.698 177.213 505.762 176.974 504.981 176.496C504.205 176.018 503.606 175.357 503.184 174.514C502.768 173.667 502.559 172.691 502.559 171.588C502.559 170.48 502.772 169.502 503.199 168.655C503.625 167.803 504.226 167.14 505.002 166.666C505.784 166.188 506.707 165.949 507.772 165.949C508.658 165.949 509.441 166.112 510.123 166.439C510.81 166.761 511.357 167.218 511.764 167.81C512.171 168.397 512.403 169.083 512.46 169.869H510.002C509.903 169.344 509.666 168.906 509.292 168.555C508.923 168.2 508.428 168.023 507.808 168.023C507.282 168.023 506.821 168.165 506.423 168.449C506.025 168.728 505.715 169.131 505.493 169.656C505.275 170.182 505.166 170.812 505.166 171.545C505.166 172.289 505.275 172.928 505.493 173.463C505.71 173.993 506.016 174.403 506.409 174.692C506.806 174.976 507.273 175.118 507.808 175.118C508.187 175.118 508.525 175.047 508.824 174.905C509.127 174.758 509.38 174.547 509.583 174.273C509.787 173.998 509.927 173.664 510.002 173.271H512.46C512.398 174.043 512.171 174.727 511.778 175.324C511.385 175.916 510.85 176.38 510.173 176.716C509.496 177.047 508.7 177.213 507.787 177.213ZM519.33 177.213C518.264 177.213 517.341 176.979 516.56 176.51C515.778 176.041 515.172 175.385 514.741 174.543C514.315 173.7 514.102 172.715 514.102 171.588C514.102 170.461 514.315 169.474 514.741 168.626C515.172 167.779 515.778 167.121 516.56 166.652C517.341 166.183 518.264 165.949 519.33 165.949C520.395 165.949 521.318 166.183 522.099 166.652C522.881 167.121 523.484 167.779 523.911 168.626C524.341 169.474 524.557 170.461 524.557 171.588C524.557 172.715 524.341 173.7 523.911 174.543C523.484 175.385 522.881 176.041 522.099 176.51C521.318 176.979 520.395 177.213 519.33 177.213ZM519.344 175.153C519.921 175.153 520.404 174.995 520.793 174.678C521.181 174.356 521.47 173.925 521.659 173.385C521.853 172.845 521.95 172.244 521.95 171.581C521.95 170.913 521.853 170.31 521.659 169.77C521.47 169.225 521.181 168.792 520.793 168.47C520.404 168.148 519.921 167.987 519.344 167.987C518.752 167.987 518.259 168.148 517.866 168.47C517.478 168.792 517.187 169.225 516.993 169.77C516.804 170.31 516.709 170.913 516.709 171.581C516.709 172.244 516.804 172.845 516.993 173.385C517.187 173.925 517.478 174.356 517.866 174.678C518.259 174.995 518.752 175.153 519.344 175.153ZM526.739 177V166.091H529.196V167.945H529.324C529.551 167.32 529.928 166.832 530.453 166.482C530.979 166.126 531.606 165.949 532.336 165.949C533.074 165.949 533.697 166.129 534.203 166.489C534.715 166.844 535.075 167.329 535.283 167.945H535.397C535.638 167.339 536.045 166.856 536.618 166.496C537.196 166.131 537.88 165.949 538.671 165.949C539.675 165.949 540.494 166.266 541.128 166.901C541.763 167.535 542.08 168.461 542.08 169.678V177H539.502V170.075C539.502 169.398 539.322 168.903 538.962 168.591C538.602 168.274 538.162 168.115 537.641 168.115C537.021 168.115 536.535 168.309 536.185 168.697C535.839 169.081 535.667 169.58 535.667 170.196V177H533.145V169.969C533.145 169.405 532.975 168.955 532.634 168.619C532.298 168.283 531.857 168.115 531.313 168.115C530.944 168.115 530.607 168.21 530.304 168.399C530.001 168.584 529.76 168.847 529.58 169.188C529.4 169.524 529.31 169.917 529.31 170.366V177H526.739ZM544.688 177V166.091H547.146V167.945H547.273C547.501 167.32 547.877 166.832 548.403 166.482C548.928 166.126 549.556 165.949 550.285 165.949C551.023 165.949 551.646 166.129 552.153 166.489C552.664 166.844 553.024 167.329 553.232 167.945H553.346C553.587 167.339 553.995 166.856 554.567 166.496C555.145 166.131 555.829 165.949 556.62 165.949C557.624 165.949 558.443 166.266 559.077 166.901C559.712 167.535 560.029 168.461 560.029 169.678V177H557.451V170.075C557.451 169.398 557.271 168.903 556.911 168.591C556.551 168.274 556.111 168.115 555.59 168.115C554.97 168.115 554.485 168.309 554.134 168.697C553.789 169.081 553.616 169.58 553.616 170.196V177H551.094V169.969C551.094 169.405 550.924 168.955 550.583 168.619C550.247 168.283 549.807 168.115 549.262 168.115C548.893 168.115 548.557 168.21 548.254 168.399C547.951 168.584 547.709 168.847 547.529 169.188C547.349 169.524 547.259 169.917 547.259 170.366V177H544.688ZM567.467 177.213C566.373 177.213 565.429 176.986 564.633 176.531C563.842 176.072 563.234 175.423 562.808 174.585C562.382 173.742 562.169 172.75 562.169 171.609C562.169 170.487 562.382 169.502 562.808 168.655C563.239 167.803 563.84 167.14 564.612 166.666C565.384 166.188 566.29 165.949 567.332 165.949C568.004 165.949 568.639 166.058 569.235 166.276C569.837 166.489 570.367 166.82 570.826 167.27C571.29 167.72 571.655 168.293 571.92 168.989C572.185 169.68 572.318 170.504 572.318 171.46V172.249H563.376V170.516H569.853C569.849 170.023 569.742 169.585 569.534 169.202C569.325 168.813 569.034 168.508 568.66 168.286C568.291 168.063 567.86 167.952 567.368 167.952C566.842 167.952 566.38 168.08 565.983 168.335C565.585 168.586 565.275 168.918 565.052 169.33C564.834 169.737 564.723 170.184 564.718 170.672V172.185C564.718 172.819 564.834 173.364 565.066 173.818C565.298 174.268 565.623 174.614 566.039 174.855C566.456 175.092 566.944 175.21 567.502 175.21C567.877 175.21 568.215 175.158 568.518 175.054C568.821 174.945 569.084 174.786 569.306 174.578C569.529 174.37 569.697 174.112 569.811 173.804L572.211 174.074C572.06 174.708 571.771 175.262 571.345 175.736C570.923 176.205 570.384 176.569 569.725 176.83C569.067 177.085 568.315 177.213 567.467 177.213ZM577.064 170.608V177H574.493V166.091H576.95V167.945H577.078C577.329 167.334 577.729 166.848 578.278 166.489C578.832 166.129 579.517 165.949 580.331 165.949C581.084 165.949 581.74 166.11 582.298 166.432C582.862 166.754 583.297 167.22 583.605 167.831C583.918 168.442 584.071 169.183 584.067 170.054V177H581.496V170.452C581.496 169.723 581.306 169.152 580.928 168.74C580.554 168.328 580.035 168.122 579.372 168.122C578.922 168.122 578.522 168.222 578.172 168.42C577.826 168.615 577.554 168.896 577.355 169.266C577.161 169.635 577.064 170.082 577.064 170.608ZM590.729 177.192C589.872 177.192 589.105 176.972 588.428 176.531C587.75 176.091 587.215 175.452 586.822 174.614C586.429 173.776 586.233 172.758 586.233 171.56C586.233 170.348 586.432 169.325 586.83 168.491C587.232 167.653 587.774 167.021 588.456 166.595C589.138 166.164 589.898 165.949 590.736 165.949C591.375 165.949 591.901 166.058 592.312 166.276C592.724 166.489 593.051 166.747 593.293 167.05C593.534 167.348 593.721 167.63 593.854 167.895H593.96V162.455H596.538V177H594.01V175.281H593.854C593.721 175.546 593.529 175.828 593.278 176.126C593.027 176.42 592.696 176.671 592.284 176.879C591.872 177.088 591.354 177.192 590.729 177.192ZM591.446 175.082C591.991 175.082 592.455 174.936 592.838 174.642C593.222 174.344 593.513 173.929 593.712 173.399C593.911 172.869 594.01 172.251 594.01 171.545C594.01 170.84 593.911 170.227 593.712 169.706C593.518 169.185 593.229 168.78 592.845 168.491C592.466 168.203 592 168.058 591.446 168.058C590.873 168.058 590.395 168.207 590.011 168.506C589.628 168.804 589.339 169.216 589.145 169.741C588.951 170.267 588.854 170.868 588.854 171.545C588.854 172.227 588.951 172.836 589.145 173.371C589.344 173.901 589.635 174.32 590.018 174.628C590.407 174.931 590.883 175.082 591.446 175.082ZM604.108 177.213C603.014 177.213 602.069 176.986 601.274 176.531C600.483 176.072 599.875 175.423 599.449 174.585C599.022 173.742 598.809 172.75 598.809 171.609C598.809 170.487 599.022 169.502 599.449 168.655C599.879 167.803 600.481 167.14 601.252 166.666C602.024 166.188 602.931 165.949 603.973 165.949C604.645 165.949 605.279 166.058 605.876 166.276C606.477 166.489 607.008 166.82 607.467 167.27C607.931 167.72 608.296 168.293 608.561 168.989C608.826 169.68 608.958 170.504 608.958 171.46V172.249H600.017V170.516H606.494C606.489 170.023 606.383 169.585 606.174 169.202C605.966 168.813 605.675 168.508 605.301 168.286C604.931 168.063 604.501 167.952 604.008 167.952C603.483 167.952 603.021 168.08 602.623 168.335C602.225 168.586 601.915 168.918 601.693 169.33C601.475 169.737 601.364 170.184 601.359 170.672V172.185C601.359 172.819 601.475 173.364 601.707 173.818C601.939 174.268 602.263 174.614 602.68 174.855C603.097 175.092 603.584 175.21 604.143 175.21C604.517 175.21 604.856 175.158 605.159 175.054C605.462 174.945 605.725 174.786 605.947 174.578C606.17 174.37 606.338 174.112 606.451 173.804L608.852 174.074C608.7 174.708 608.412 175.262 607.985 175.736C607.564 176.205 607.024 176.569 606.366 176.83C605.708 177.085 604.955 177.213 604.108 177.213ZM615.182 177.192C614.325 177.192 613.558 176.972 612.881 176.531C612.204 176.091 611.669 175.452 611.276 174.614C610.883 173.776 610.686 172.758 610.686 171.56C610.686 170.348 610.885 169.325 611.283 168.491C611.685 167.653 612.227 167.021 612.909 166.595C613.591 166.164 614.351 165.949 615.189 165.949C615.828 165.949 616.354 166.058 616.766 166.276C617.178 166.489 617.504 166.747 617.746 167.05C617.987 167.348 618.174 167.63 618.307 167.895H618.413V162.455H620.991V177H618.463V175.281H618.307C618.174 175.546 617.982 175.828 617.732 176.126C617.481 176.42 617.149 176.671 616.737 176.879C616.325 177.088 615.807 177.192 615.182 177.192ZM615.899 175.082C616.444 175.082 616.908 174.936 617.291 174.642C617.675 174.344 617.966 173.929 618.165 173.399C618.364 172.869 618.463 172.251 618.463 171.545C618.463 170.84 618.364 170.227 618.165 169.706C617.971 169.185 617.682 168.78 617.298 168.491C616.92 168.203 616.453 168.058 615.899 168.058C615.326 168.058 614.848 168.207 614.464 168.506C614.081 168.804 613.792 169.216 613.598 169.741C613.404 170.267 613.307 170.868 613.307 171.545C613.307 172.227 613.404 172.836 613.598 173.371C613.797 173.901 614.088 174.32 614.472 174.628C614.86 174.931 615.336 175.082 615.899 175.082Z" fill="black" fill-opacity="0.66"/>
</svg>
