<svg width="1000" height="657" viewBox="0 0 1000 657" fill="none" xmlns="http://www.w3.org/2000/svg">
<g filter="url(#filter0_d_2_64)">
<rect x="20" y="10" width="960" height="617" rx="20" fill="#F8F8F8"/>
</g>
<path d="M20 46H279V627H40C28.9543 627 20 618.046 20 607V46Z" fill="#D0D0D0"/>
<rect x="336" y="121" width="261" height="26" rx="10" fill="#F0F0F0"/>
<rect x="336" y="121" width="261" height="26" rx="10" fill="#F0F0F0"/>
<rect x="336" y="121" width="261" height="26" rx="10" fill="#F0F0F0"/>
<rect x="56" y="311.999" width="142" height="22" rx="10" fill="#B7B7B7"/>
<rect x="56" y="342.999" width="142" height="22" rx="10" fill="#B7B7B7"/>
<rect x="56" y="374" width="142" height="22" rx="10" fill="#B7B7B7"/>
<rect x="56" y="405" width="142" height="22" rx="10" fill="#B7B7B7"/>
<rect x="56" y="270.999" width="162" height="32" rx="10" fill="#B7B7B7"/>
<g filter="url(#filter1_d_2_64)">
<rect x="663.999" y="202.999" width="136" height="170" rx="20" fill="white"/>
</g>
<rect x="688.999" y="328.999" width="86" height="13" fill="#F0F0F0"/>
<rect x="688.999" y="328.999" width="86" height="13" fill="#F0F0F0"/>
<rect x="688.999" y="328.999" width="86" height="13" fill="#F0F0F0"/>
<rect x="753.999" y="218.999" width="28" height="30" rx="7" fill="#F0F0F0"/>
<rect x="753.999" y="218.999" width="28" height="30" rx="7" fill="#F0F0F0"/>
<rect x="753.999" y="218.999" width="28" height="30" rx="7" fill="#F0F0F0"/>
<rect x="688.999" y="348.999" width="86" height="8" fill="#F0F0F0"/>
<rect x="688.999" y="348.999" width="86" height="8" fill="#F0F0F0"/>
<rect x="688.999" y="348.999" width="86" height="8" fill="#F0F0F0"/>
<path d="M743.905 258.56H719.999V314.42H743.905V258.56Z" fill="#E0E0E0"/>
<path d="M739.124 310.721H724.78C722.14 310.721 719.999 311.786 719.999 313.099V318.164C719.999 319.477 722.14 320.541 724.78 320.541H739.124C741.764 320.541 743.905 319.477 743.905 318.164V313.099C743.905 311.786 741.764 310.721 739.124 310.721Z" fill="#E0E0E0"/>
<path d="M743.905 258.369C743.905 259.383 743.597 260.386 742.996 261.322C742.395 262.259 741.515 263.11 740.405 263.826C739.295 264.543 737.977 265.111 736.527 265.499C735.077 265.887 733.522 266.087 731.952 266.087C730.382 266.087 728.828 265.887 727.377 265.499C725.927 265.111 724.609 264.543 723.499 263.826C722.389 263.11 721.509 262.259 720.908 261.322C720.308 260.386 719.999 259.383 719.999 258.369C719.999 257.356 720.308 256.352 720.908 255.416C721.509 254.48 722.389 253.629 723.499 252.912C724.609 252.195 725.927 251.627 727.377 251.239C728.828 250.851 730.382 250.652 731.952 250.652C733.522 250.652 735.077 250.851 736.527 251.239C737.977 251.627 739.295 252.195 740.405 252.912C741.515 253.629 742.395 254.48 742.996 255.416C743.597 256.352 743.905 257.356 743.905 258.369Z" fill="#E0E0E0"/>
<path d="M734.113 223.999H729.791C728.471 223.999 727.4 224.531 727.4 225.188V253.163C727.4 253.82 728.471 254.352 729.791 254.352H734.113C735.434 254.352 736.504 253.82 736.504 253.163V225.188C736.504 224.531 735.434 223.999 734.113 223.999Z" fill="#E0E0E0"/>
<path d="M735.729 225.991H728.175C727.515 225.991 726.98 226.523 726.98 227.18V230.338C726.98 230.995 727.515 231.527 728.175 231.527H735.729C736.389 231.527 736.924 230.995 736.924 230.338V227.18C736.924 226.523 736.389 225.991 735.729 225.991Z" fill="#E0E0E0"/>
<g filter="url(#filter2_d_2_64)">
<rect x="499.999" y="202.999" width="136" height="170" rx="20" fill="white"/>
</g>
<rect x="524.999" y="328.999" width="86" height="13" fill="#F0F0F0"/>
<rect x="524.999" y="328.999" width="86" height="13" fill="#F0F0F0"/>
<rect x="524.999" y="328.999" width="86" height="13" fill="#F0F0F0"/>
<rect x="589.999" y="218.999" width="28" height="30" rx="7" fill="#F0F0F0"/>
<rect x="589.999" y="218.999" width="28" height="30" rx="7" fill="#F0F0F0"/>
<rect x="589.999" y="218.999" width="28" height="30" rx="7" fill="#F0F0F0"/>
<rect x="524.999" y="348.999" width="86" height="8" fill="#F0F0F0"/>
<rect x="524.999" y="348.999" width="86" height="8" fill="#F0F0F0"/>
<rect x="524.999" y="348.999" width="86" height="8" fill="#F0F0F0"/>
<path d="M579.905 258.56H555.999V314.42H579.905V258.56Z" fill="#E0E0E0"/>
<path d="M575.124 310.721H560.78C558.14 310.721 555.999 311.786 555.999 313.099V318.164C555.999 319.477 558.14 320.541 560.78 320.541H575.124C577.764 320.541 579.905 319.477 579.905 318.164V313.099C579.905 311.786 577.764 310.721 575.124 310.721Z" fill="#E0E0E0"/>
<path d="M579.905 258.369C579.905 259.383 579.597 260.386 578.996 261.322C578.395 262.259 577.515 263.11 576.405 263.826C575.295 264.543 573.977 265.111 572.527 265.499C571.077 265.887 569.522 266.087 567.952 266.087C566.382 266.087 564.828 265.887 563.377 265.499C561.927 265.111 560.609 264.543 559.499 263.826C558.389 263.11 557.509 262.259 556.908 261.322C556.308 260.386 555.999 259.383 555.999 258.369C555.999 257.356 556.308 256.352 556.908 255.416C557.509 254.48 558.389 253.629 559.499 252.912C560.609 252.195 561.927 251.627 563.377 251.239C564.828 250.851 566.382 250.652 567.952 250.652C569.522 250.652 571.077 250.851 572.527 251.239C573.977 251.627 575.295 252.195 576.405 252.912C577.515 253.629 578.395 254.48 578.996 255.416C579.597 256.352 579.905 257.356 579.905 258.369Z" fill="#E0E0E0"/>
<path d="M570.113 223.999H565.791C564.471 223.999 563.4 224.531 563.4 225.188V253.163C563.4 253.82 564.471 254.352 565.791 254.352H570.113C571.434 254.352 572.504 253.82 572.504 253.163V225.188C572.504 224.531 571.434 223.999 570.113 223.999Z" fill="#E0E0E0"/>
<path d="M571.729 225.991H564.175C563.515 225.991 562.98 226.523 562.98 227.18V230.338C562.98 230.995 563.515 231.527 564.175 231.527H571.729C572.389 231.527 572.924 230.995 572.924 230.338V227.18C572.924 226.523 572.389 225.991 571.729 225.991Z" fill="#E0E0E0"/>
<g filter="url(#filter3_d_2_64)">
<rect x="335.999" y="202.999" width="136" height="170" rx="20" fill="white"/>
</g>
<rect x="360.999" y="328.999" width="86" height="13" fill="#F0F0F0"/>
<rect x="360.999" y="328.999" width="86" height="13" fill="#F0F0F0"/>
<rect x="360.999" y="328.999" width="86" height="13" fill="#F0F0F0"/>
<rect x="425.999" y="218.999" width="28" height="30" rx="7" fill="#F0F0F0"/>
<rect x="425.999" y="218.999" width="28" height="30" rx="7" fill="#F0F0F0"/>
<rect x="425.999" y="218.999" width="28" height="30" rx="7" fill="#F0F0F0"/>
<rect x="360.999" y="348.999" width="86" height="8" fill="#F0F0F0"/>
<rect x="360.999" y="348.999" width="86" height="8" fill="#F0F0F0"/>
<rect x="360.999" y="348.999" width="86" height="8" fill="#F0F0F0"/>
<path d="M415.905 258.56H391.999V314.42H415.905V258.56Z" fill="#E0E0E0"/>
<path d="M411.124 310.721H396.78C394.14 310.721 391.999 311.786 391.999 313.099V318.164C391.999 319.477 394.14 320.541 396.78 320.541H411.124C413.764 320.541 415.905 319.477 415.905 318.164V313.099C415.905 311.786 413.764 310.721 411.124 310.721Z" fill="#E0E0E0"/>
<path d="M415.905 258.369C415.905 259.383 415.597 260.386 414.996 261.322C414.395 262.259 413.515 263.11 412.405 263.826C411.295 264.543 409.977 265.111 408.527 265.499C407.077 265.887 405.522 266.087 403.952 266.087C402.382 266.087 400.828 265.887 399.377 265.499C397.927 265.111 396.609 264.543 395.499 263.826C394.389 263.11 393.509 262.259 392.908 261.322C392.308 260.386 391.999 259.383 391.999 258.369C391.999 257.356 392.308 256.352 392.908 255.416C393.509 254.48 394.389 253.629 395.499 252.912C396.609 252.195 397.927 251.627 399.377 251.239C400.828 250.851 402.382 250.652 403.952 250.652C405.522 250.652 407.077 250.851 408.527 251.239C409.977 251.627 411.295 252.195 412.405 252.912C413.515 253.629 414.395 254.48 414.996 255.416C415.597 256.352 415.905 257.356 415.905 258.369Z" fill="#E0E0E0"/>
<path d="M406.113 223.999H401.791C400.471 223.999 399.4 224.531 399.4 225.188V253.163C399.4 253.82 400.471 254.352 401.791 254.352H406.113C407.434 254.352 408.504 253.82 408.504 253.163V225.188C408.504 224.531 407.434 223.999 406.113 223.999Z" fill="#E0E0E0"/>
<path d="M407.729 225.991H400.175C399.515 225.991 398.98 226.523 398.98 227.18V230.338C398.98 230.995 399.515 231.527 400.175 231.527H407.729C408.389 231.527 408.924 230.995 408.924 230.338V227.18C408.924 226.523 408.389 225.991 407.729 225.991Z" fill="#E0E0E0"/>
<path d="M20 30C20 18.9543 28.9543 10 40 10H960C971.046 10 980 18.9543 980 30V59H20V30Z" fill="#343434"/>
<g filter="url(#filter4_d_2_64)">
<rect x="663.999" y="394.999" width="136" height="170" rx="20" fill="white"/>
</g>
<rect x="688.999" y="520.999" width="86" height="13" fill="#F0F0F0"/>
<rect x="688.999" y="520.999" width="86" height="13" fill="#F0F0F0"/>
<rect x="688.999" y="520.999" width="86" height="13" fill="#F0F0F0"/>
<rect x="753.999" y="410.999" width="28" height="30" rx="7" fill="#F0F0F0"/>
<rect x="753.999" y="410.999" width="28" height="30" rx="7" fill="#F0F0F0"/>
<rect x="753.999" y="410.999" width="28" height="30" rx="7" fill="#F0F0F0"/>
<rect x="688.999" y="540.999" width="86" height="8" fill="#F0F0F0"/>
<rect x="688.999" y="540.999" width="86" height="8" fill="#F0F0F0"/>
<rect x="688.999" y="540.999" width="86" height="8" fill="#F0F0F0"/>
<path d="M743.905 450.56H719.999V506.42H743.905V450.56Z" fill="#E0E0E0"/>
<path d="M739.124 502.721H724.78C722.14 502.721 719.999 503.786 719.999 505.099V510.164C719.999 511.477 722.14 512.541 724.78 512.541H739.124C741.764 512.541 743.905 511.477 743.905 510.164V505.099C743.905 503.786 741.764 502.721 739.124 502.721Z" fill="#E0E0E0"/>
<path d="M743.905 450.369C743.905 451.383 743.597 452.386 742.996 453.322C742.395 454.259 741.515 455.11 740.405 455.826C739.295 456.543 737.977 457.111 736.527 457.499C735.077 457.887 733.522 458.087 731.952 458.087C730.382 458.087 728.828 457.887 727.377 457.499C725.927 457.111 724.609 456.543 723.499 455.826C722.389 455.11 721.509 454.259 720.908 453.322C720.308 452.386 719.999 451.383 719.999 450.369C719.999 449.356 720.308 448.352 720.908 447.416C721.509 446.48 722.389 445.629 723.499 444.912C724.609 444.195 725.927 443.627 727.377 443.239C728.828 442.851 730.382 442.652 731.952 442.652C733.522 442.652 735.077 442.851 736.527 443.239C737.977 443.627 739.295 444.195 740.405 444.912C741.515 445.629 742.395 446.48 742.996 447.416C743.597 448.352 743.905 449.356 743.905 450.369Z" fill="#E0E0E0"/>
<path d="M734.113 415.999H729.791C728.471 415.999 727.4 416.531 727.4 417.188V445.163C727.4 445.82 728.471 446.352 729.791 446.352H734.113C735.434 446.352 736.504 445.82 736.504 445.163V417.188C736.504 416.531 735.434 415.999 734.113 415.999Z" fill="#E0E0E0"/>
<path d="M735.729 417.991H728.175C727.515 417.991 726.98 418.523 726.98 419.18V422.338C726.98 422.995 727.515 423.527 728.175 423.527H735.729C736.389 423.527 736.924 422.995 736.924 422.338V419.18C736.924 418.523 736.389 417.991 735.729 417.991Z" fill="#E0E0E0"/>
<g filter="url(#filter5_d_2_64)">
<rect x="499.999" y="394.999" width="136" height="170" rx="20" fill="white"/>
</g>
<rect x="524.999" y="520.999" width="86" height="13" fill="#F0F0F0"/>
<rect x="524.999" y="520.999" width="86" height="13" fill="#F0F0F0"/>
<rect x="524.999" y="520.999" width="86" height="13" fill="#F0F0F0"/>
<rect x="589.999" y="410.999" width="28" height="30" rx="7" fill="#F0F0F0"/>
<rect x="589.999" y="410.999" width="28" height="30" rx="7" fill="#F0F0F0"/>
<rect x="589.999" y="410.999" width="28" height="30" rx="7" fill="#F0F0F0"/>
<rect x="524.999" y="540.999" width="86" height="8" fill="#F0F0F0"/>
<rect x="524.999" y="540.999" width="86" height="8" fill="#F0F0F0"/>
<rect x="524.999" y="540.999" width="86" height="8" fill="#F0F0F0"/>
<path d="M579.905 450.56H555.999V506.42H579.905V450.56Z" fill="#E0E0E0"/>
<path d="M575.124 502.721H560.78C558.14 502.721 555.999 503.786 555.999 505.099V510.164C555.999 511.477 558.14 512.541 560.78 512.541H575.124C577.764 512.541 579.905 511.477 579.905 510.164V505.099C579.905 503.786 577.764 502.721 575.124 502.721Z" fill="#E0E0E0"/>
<path d="M579.905 450.369C579.905 451.383 579.597 452.386 578.996 453.322C578.395 454.259 577.515 455.11 576.405 455.826C575.295 456.543 573.977 457.111 572.527 457.499C571.077 457.887 569.522 458.087 567.952 458.087C566.382 458.087 564.828 457.887 563.377 457.499C561.927 457.111 560.609 456.543 559.499 455.826C558.389 455.11 557.509 454.259 556.908 453.322C556.308 452.386 555.999 451.383 555.999 450.369C555.999 449.356 556.308 448.352 556.908 447.416C557.509 446.48 558.389 445.629 559.499 444.912C560.609 444.195 561.927 443.627 563.377 443.239C564.828 442.851 566.382 442.652 567.952 442.652C569.522 442.652 571.077 442.851 572.527 443.239C573.977 443.627 575.295 444.195 576.405 444.912C577.515 445.629 578.395 446.48 578.996 447.416C579.597 448.352 579.905 449.356 579.905 450.369Z" fill="#E0E0E0"/>
<path d="M570.113 415.999H565.791C564.471 415.999 563.4 416.531 563.4 417.188V445.163C563.4 445.82 564.471 446.352 565.791 446.352H570.113C571.434 446.352 572.504 445.82 572.504 445.163V417.188C572.504 416.531 571.434 415.999 570.113 415.999Z" fill="#E0E0E0"/>
<path d="M571.729 417.991H564.175C563.515 417.991 562.98 418.523 562.98 419.18V422.338C562.98 422.995 563.515 423.527 564.175 423.527H571.729C572.389 423.527 572.924 422.995 572.924 422.338V419.18C572.924 418.523 572.389 417.991 571.729 417.991Z" fill="#E0E0E0"/>
<g filter="url(#filter6_d_2_64)">
<rect x="335.999" y="394.999" width="136" height="170" rx="20" fill="white"/>
</g>
<rect x="360.999" y="520.999" width="86" height="13" fill="#F0F0F0"/>
<rect x="360.999" y="520.999" width="86" height="13" fill="#F0F0F0"/>
<rect x="360.999" y="520.999" width="86" height="13" fill="#F0F0F0"/>
<rect x="425.999" y="410.999" width="28" height="30" rx="7" fill="#F0F0F0"/>
<rect x="425.999" y="410.999" width="28" height="30" rx="7" fill="#F0F0F0"/>
<rect x="425.999" y="410.999" width="28" height="30" rx="7" fill="#F0F0F0"/>
<rect x="360.999" y="540.999" width="86" height="8" fill="#F0F0F0"/>
<rect x="360.999" y="540.999" width="86" height="8" fill="#F0F0F0"/>
<rect x="360.999" y="540.999" width="86" height="8" fill="#F0F0F0"/>
<path d="M415.905 450.56H391.999V506.42H415.905V450.56Z" fill="#E0E0E0"/>
<path d="M411.124 502.721H396.78C394.14 502.721 391.999 503.786 391.999 505.099V510.164C391.999 511.477 394.14 512.541 396.78 512.541H411.124C413.764 512.541 415.905 511.477 415.905 510.164V505.099C415.905 503.786 413.764 502.721 411.124 502.721Z" fill="#E0E0E0"/>
<path d="M415.905 450.369C415.905 451.383 415.597 452.386 414.996 453.322C414.395 454.259 413.515 455.11 412.405 455.826C411.295 456.543 409.977 457.111 408.527 457.499C407.077 457.887 405.522 458.087 403.952 458.087C402.382 458.087 400.828 457.887 399.377 457.499C397.927 457.111 396.609 456.543 395.499 455.826C394.389 455.11 393.509 454.259 392.908 453.322C392.308 452.386 391.999 451.383 391.999 450.369C391.999 449.356 392.308 448.352 392.908 447.416C393.509 446.48 394.389 445.629 395.499 444.912C396.609 444.195 397.927 443.627 399.377 443.239C400.828 442.851 402.382 442.652 403.952 442.652C405.522 442.652 407.077 442.851 408.527 443.239C409.977 443.627 411.295 444.195 412.405 444.912C413.515 445.629 414.395 446.48 414.996 447.416C415.597 448.352 415.905 449.356 415.905 450.369Z" fill="#E0E0E0"/>
<path d="M406.113 415.999H401.791C400.471 415.999 399.4 416.531 399.4 417.188V445.163C399.4 445.82 400.471 446.352 401.791 446.352H406.113C407.434 446.352 408.504 445.82 408.504 445.163V417.188C408.504 416.531 407.434 415.999 406.113 415.999Z" fill="#E0E0E0"/>
<path d="M407.729 417.991H400.175C399.515 417.991 398.98 418.523 398.98 419.18V422.338C398.98 422.995 399.515 423.527 400.175 423.527H407.729C408.389 423.527 408.924 422.995 408.924 422.338V419.18C408.924 418.523 408.389 417.991 407.729 417.991Z" fill="#E0E0E0"/>
<circle cx="57.4999" cy="34.5" r="7.5" fill="#D9D9D9" fill-opacity="0.2"/>
<circle cx="81.5" cy="34.5" r="7.5" fill="#D9D9D9" fill-opacity="0.2"/>
<circle cx="105.5" cy="34.5" r="7.5" fill="#D9D9D9" fill-opacity="0.2"/>
<path d="M350.173 94.4545H352.787V104.682C352.782 105.619 352.583 106.427 352.19 107.104C351.797 107.776 351.248 108.295 350.543 108.659C349.842 109.019 349.025 109.199 348.092 109.199C347.24 109.199 346.473 109.047 345.791 108.744C345.114 108.437 344.577 107.982 344.179 107.381C343.781 106.779 343.582 106.031 343.582 105.136H346.203C346.208 105.529 346.293 105.868 346.459 106.152C346.629 106.436 346.864 106.654 347.162 106.805C347.46 106.957 347.804 107.033 348.192 107.033C348.613 107.033 348.971 106.945 349.264 106.77C349.558 106.59 349.78 106.325 349.932 105.974C350.088 105.624 350.169 105.193 350.173 104.682V94.4545ZM355.646 109V94.4545H365.106V96.6634H358.281V100.612H364.616V102.821H358.281V106.791H365.163V109H355.646ZM367.794 109V94.4545H377.112V96.6634H370.429V100.612H376.473V102.821H370.429V109H367.794ZM379.513 109V94.4545H388.831V96.6634H382.148V100.612H388.192V102.821H382.148V109H379.513ZM393.298 94.4545V95.9034C393.298 96.3201 393.218 96.7533 393.057 97.2031C392.901 97.6482 392.685 98.0743 392.411 98.4815C392.136 98.884 391.823 99.2296 391.473 99.5185L390.28 98.7443C390.54 98.3513 390.768 97.9276 390.962 97.473C391.156 97.0137 391.253 96.4953 391.253 95.9176V94.4545H393.298ZM403.414 98.4531C403.347 97.8329 403.068 97.3499 402.576 97.0043C402.088 96.6586 401.453 96.4858 400.672 96.4858C400.123 96.4858 399.652 96.5687 399.259 96.7344C398.866 96.9001 398.565 97.125 398.357 97.4091C398.149 97.6932 398.042 98.0175 398.037 98.3821C398.037 98.6851 398.106 98.9479 398.243 99.1705C398.385 99.393 398.577 99.5824 398.819 99.7386C399.06 99.8902 399.328 100.018 399.621 100.122C399.915 100.226 400.211 100.314 400.509 100.385L401.873 100.726C402.422 100.854 402.95 101.027 403.456 101.244C403.968 101.462 404.425 101.737 404.827 102.068C405.234 102.4 405.556 102.8 405.793 103.268C406.03 103.737 406.148 104.286 406.148 104.916C406.148 105.768 405.93 106.519 405.495 107.168C405.059 107.812 404.429 108.316 403.605 108.68C402.786 109.04 401.794 109.22 400.63 109.22C399.498 109.22 398.516 109.045 397.682 108.695C396.854 108.344 396.205 107.833 395.736 107.161C395.272 106.488 395.021 105.669 394.983 104.703H397.576C397.614 105.21 397.77 105.631 398.044 105.967C398.319 106.304 398.676 106.554 399.117 106.72C399.562 106.886 400.059 106.969 400.608 106.969C401.181 106.969 401.683 106.884 402.114 106.713C402.55 106.538 402.891 106.296 403.137 105.989C403.383 105.676 403.508 105.312 403.513 104.895C403.508 104.516 403.397 104.204 403.179 103.957C402.962 103.706 402.656 103.498 402.263 103.332C401.875 103.162 401.42 103.01 400.9 102.878L399.245 102.452C398.047 102.144 397.1 101.678 396.404 101.053C395.712 100.423 395.367 99.5871 395.367 98.5455C395.367 97.6884 395.599 96.938 396.063 96.294C396.532 95.6501 397.168 95.1506 397.973 94.7955C398.778 94.4356 399.69 94.2557 400.708 94.2557C401.74 94.2557 402.644 94.4356 403.421 94.7955C404.202 95.1506 404.815 95.6454 405.26 96.2798C405.705 96.9096 405.935 97.634 405.949 98.4531H403.414ZM416.519 109L412.414 94.4545H415.248L417.869 105.143H418.004L420.802 94.4545H423.38L426.185 105.151H426.313L428.934 94.4545H431.768L427.663 109H425.063L422.151 98.794H422.038L419.119 109H416.519ZM436.23 94.4545V109H433.595V94.4545H436.23ZM451.036 94.4545V109H448.692L441.839 99.0923H441.718V109H439.083V94.4545H441.441L448.288 104.369H448.415V94.4545H451.036ZM453.907 109V94.4545H463.368V96.6634H456.542V100.612H462.877V102.821H456.542V106.791H463.424V109H453.907ZM478.922 98.4531C478.855 97.8329 478.576 97.3499 478.083 97.0043C477.596 96.6586 476.961 96.4858 476.18 96.4858C475.631 96.4858 475.16 96.5687 474.767 96.7344C474.374 96.9001 474.073 97.125 473.865 97.4091C473.656 97.6932 473.55 98.0175 473.545 98.3821C473.545 98.6851 473.614 98.9479 473.751 99.1705C473.893 99.393 474.085 99.5824 474.326 99.7386C474.568 99.8902 474.835 100.018 475.129 100.122C475.422 100.226 475.718 100.314 476.017 100.385L477.38 100.726C477.93 100.854 478.458 101.027 478.964 101.244C479.475 101.462 479.932 101.737 480.335 102.068C480.742 102.4 481.064 102.8 481.301 103.268C481.538 103.737 481.656 104.286 481.656 104.916C481.656 105.768 481.438 106.519 481.002 107.168C480.567 107.812 479.937 108.316 479.113 108.68C478.294 109.04 477.302 109.22 476.137 109.22C475.006 109.22 474.023 109.045 473.19 108.695C472.361 108.344 471.713 107.833 471.244 107.161C470.78 106.488 470.529 105.669 470.491 104.703H473.083C473.121 105.21 473.278 105.631 473.552 105.967C473.827 106.304 474.184 106.554 474.625 106.72C475.07 106.886 475.567 106.969 476.116 106.969C476.689 106.969 477.191 106.884 477.622 106.713C478.057 106.538 478.398 106.296 478.645 105.989C478.891 105.676 479.016 105.312 479.021 104.895C479.016 104.516 478.905 104.204 478.687 103.957C478.469 103.706 478.164 103.498 477.771 103.332C477.383 103.162 476.928 103.01 476.407 102.878L474.752 102.452C473.555 102.144 472.608 101.678 471.912 101.053C471.22 100.423 470.875 99.5871 470.875 98.5455C470.875 97.6884 471.107 96.938 471.571 96.294C472.039 95.6501 472.676 95.1506 473.481 94.7955C474.286 94.4356 475.198 94.2557 476.216 94.2557C477.248 94.2557 478.152 94.4356 478.929 94.7955C479.71 95.1506 480.323 95.6454 480.768 96.2798C481.213 96.9096 481.443 97.634 481.457 98.4531H478.922ZM483.366 96.6634V94.4545H494.971V96.6634H490.475V109H487.862V96.6634H483.366ZM509.561 101.727C509.561 103.295 509.267 104.637 508.68 105.754C508.098 106.867 507.302 107.719 506.294 108.311C505.29 108.903 504.151 109.199 502.877 109.199C501.604 109.199 500.463 108.903 499.454 108.311C498.45 107.714 497.655 106.86 497.068 105.747C496.485 104.63 496.194 103.29 496.194 101.727C496.194 100.16 496.485 98.8201 497.068 97.7074C497.655 96.59 498.45 95.7353 499.454 95.1435C500.463 94.5516 501.604 94.2557 502.877 94.2557C504.151 94.2557 505.29 94.5516 506.294 95.1435C507.302 95.7353 508.098 96.59 508.68 97.7074C509.267 98.8201 509.561 100.16 509.561 101.727ZM506.912 101.727C506.912 100.624 506.739 99.6937 506.393 98.9361C506.052 98.1738 505.579 97.5985 504.973 97.2102C504.367 96.8172 503.668 96.6207 502.877 96.6207C502.087 96.6207 501.388 96.8172 500.782 97.2102C500.176 97.5985 499.7 98.1738 499.355 98.9361C499.014 99.6937 498.843 100.624 498.843 101.727C498.843 102.83 499.014 103.763 499.355 104.526C499.7 105.283 500.176 105.858 500.782 106.251C501.388 106.64 502.087 106.834 502.877 106.834C503.668 106.834 504.367 106.64 504.973 106.251C505.579 105.858 506.052 105.283 506.393 104.526C506.739 103.763 506.912 102.83 506.912 101.727ZM512.052 109V94.4545H517.506C518.624 94.4545 519.561 94.6487 520.319 95.0369C521.081 95.4252 521.656 95.9697 522.045 96.6705C522.438 97.3665 522.634 98.1785 522.634 99.1065C522.634 100.039 522.435 100.849 522.038 101.536C521.645 102.217 521.065 102.745 520.298 103.119C519.531 103.489 518.588 103.673 517.471 103.673H513.586V101.486H517.116C517.769 101.486 518.304 101.396 518.721 101.216C519.138 101.031 519.445 100.764 519.644 100.413C519.848 100.058 519.95 99.6226 519.95 99.1065C519.95 98.5904 519.848 98.1501 519.644 97.7855C519.441 97.4162 519.13 97.1368 518.714 96.9474C518.297 96.7533 517.76 96.6562 517.102 96.6562H514.687V109H512.052ZM519.566 102.409L523.167 109H520.227L516.69 102.409H519.566ZM525.06 109V94.4545H534.52V96.6634H527.695V100.612H534.03V102.821H527.695V106.791H534.577V109H525.06Z" fill="black"/>
<defs>
<filter id="filter0_d_2_64" x="0" y="0" width="1000" height="657" filterUnits="userSpaceOnUse" color-interpolation-filters="sRGB">
<feFlood flood-opacity="0" result="BackgroundImageFix"/>
<feColorMatrix in="SourceAlpha" type="matrix" values="0 0 0 0 0 0 0 0 0 0 0 0 0 0 0 0 0 0 127 0" result="hardAlpha"/>
<feMorphology radius="10" operator="erode" in="SourceAlpha" result="effect1_dropShadow_2_64"/>
<feOffset dy="10"/>
<feGaussianBlur stdDeviation="15"/>
<feComposite in2="hardAlpha" operator="out"/>
<feColorMatrix type="matrix" values="0 0 0 0 0 0 0 0 0 0 0 0 0 0 0 0 0 0 0.25 0"/>
<feBlend mode="normal" in2="BackgroundImageFix" result="effect1_dropShadow_2_64"/>
<feBlend mode="normal" in="SourceGraphic" in2="effect1_dropShadow_2_64" result="shape"/>
</filter>
<filter id="filter1_d_2_64" x="660.999" y="199.999" width="146" height="180" filterUnits="userSpaceOnUse" color-interpolation-filters="sRGB">
<feFlood flood-opacity="0" result="BackgroundImageFix"/>
<feColorMatrix in="SourceAlpha" type="matrix" values="0 0 0 0 0 0 0 0 0 0 0 0 0 0 0 0 0 0 127 0" result="hardAlpha"/>
<feMorphology radius="5" operator="erode" in="SourceAlpha" result="effect1_dropShadow_2_64"/>
<feOffset dx="2" dy="2"/>
<feGaussianBlur stdDeviation="5"/>
<feComposite in2="hardAlpha" operator="out"/>
<feColorMatrix type="matrix" values="0 0 0 0 0 0 0 0 0 0 0 0 0 0 0 0 0 0 0.25 0"/>
<feBlend mode="normal" in2="BackgroundImageFix" result="effect1_dropShadow_2_64"/>
<feBlend mode="normal" in="SourceGraphic" in2="effect1_dropShadow_2_64" result="shape"/>
</filter>
<filter id="filter2_d_2_64" x="496.999" y="199.999" width="146" height="180" filterUnits="userSpaceOnUse" color-interpolation-filters="sRGB">
<feFlood flood-opacity="0" result="BackgroundImageFix"/>
<feColorMatrix in="SourceAlpha" type="matrix" values="0 0 0 0 0 0 0 0 0 0 0 0 0 0 0 0 0 0 127 0" result="hardAlpha"/>
<feMorphology radius="5" operator="erode" in="SourceAlpha" result="effect1_dropShadow_2_64"/>
<feOffset dx="2" dy="2"/>
<feGaussianBlur stdDeviation="5"/>
<feComposite in2="hardAlpha" operator="out"/>
<feColorMatrix type="matrix" values="0 0 0 0 0 0 0 0 0 0 0 0 0 0 0 0 0 0 0.25 0"/>
<feBlend mode="normal" in2="BackgroundImageFix" result="effect1_dropShadow_2_64"/>
<feBlend mode="normal" in="SourceGraphic" in2="effect1_dropShadow_2_64" result="shape"/>
</filter>
<filter id="filter3_d_2_64" x="332.999" y="199.999" width="146" height="180" filterUnits="userSpaceOnUse" color-interpolation-filters="sRGB">
<feFlood flood-opacity="0" result="BackgroundImageFix"/>
<feColorMatrix in="SourceAlpha" type="matrix" values="0 0 0 0 0 0 0 0 0 0 0 0 0 0 0 0 0 0 127 0" result="hardAlpha"/>
<feMorphology radius="5" operator="erode" in="SourceAlpha" result="effect1_dropShadow_2_64"/>
<feOffset dx="2" dy="2"/>
<feGaussianBlur stdDeviation="5"/>
<feComposite in2="hardAlpha" operator="out"/>
<feColorMatrix type="matrix" values="0 0 0 0 0 0 0 0 0 0 0 0 0 0 0 0 0 0 0.25 0"/>
<feBlend mode="normal" in2="BackgroundImageFix" result="effect1_dropShadow_2_64"/>
<feBlend mode="normal" in="SourceGraphic" in2="effect1_dropShadow_2_64" result="shape"/>
</filter>
<filter id="filter4_d_2_64" x="660.999" y="391.999" width="146" height="180" filterUnits="userSpaceOnUse" color-interpolation-filters="sRGB">
<feFlood flood-opacity="0" result="BackgroundImageFix"/>
<feColorMatrix in="SourceAlpha" type="matrix" values="0 0 0 0 0 0 0 0 0 0 0 0 0 0 0 0 0 0 127 0" result="hardAlpha"/>
<feMorphology radius="5" operator="erode" in="SourceAlpha" result="effect1_dropShadow_2_64"/>
<feOffset dx="2" dy="2"/>
<feGaussianBlur stdDeviation="5"/>
<feComposite in2="hardAlpha" operator="out"/>
<feColorMatrix type="matrix" values="0 0 0 0 0 0 0 0 0 0 0 0 0 0 0 0 0 0 0.25 0"/>
<feBlend mode="normal" in2="BackgroundImageFix" result="effect1_dropShadow_2_64"/>
<feBlend mode="normal" in="SourceGraphic" in2="effect1_dropShadow_2_64" result="shape"/>
</filter>
<filter id="filter5_d_2_64" x="496.999" y="391.999" width="146" height="180" filterUnits="userSpaceOnUse" color-interpolation-filters="sRGB">
<feFlood flood-opacity="0" result="BackgroundImageFix"/>
<feColorMatrix in="SourceAlpha" type="matrix" values="0 0 0 0 0 0 0 0 0 0 0 0 0 0 0 0 0 0 127 0" result="hardAlpha"/>
<feMorphology radius="5" operator="erode" in="SourceAlpha" result="effect1_dropShadow_2_64"/>
<feOffset dx="2" dy="2"/>
<feGaussianBlur stdDeviation="5"/>
<feComposite in2="hardAlpha" operator="out"/>
<feColorMatrix type="matrix" values="0 0 0 0 0 0 0 0 0 0 0 0 0 0 0 0 0 0 0.25 0"/>
<feBlend mode="normal" in2="BackgroundImageFix" result="effect1_dropShadow_2_64"/>
<feBlend mode="normal" in="SourceGraphic" in2="effect1_dropShadow_2_64" result="shape"/>
</filter>
<filter id="filter6_d_2_64" x="332.999" y="391.999" width="146" height="180" filterUnits="userSpaceOnUse" color-interpolation-filters="sRGB">
<feFlood flood-opacity="0" result="BackgroundImageFix"/>
<feColorMatrix in="SourceAlpha" type="matrix" values="0 0 0 0 0 0 0 0 0 0 0 0 0 0 0 0 0 0 127 0" result="hardAlpha"/>
<feMorphology radius="5" operator="erode" in="SourceAlpha" result="effect1_dropShadow_2_64"/>
<feOffset dx="2" dy="2"/>
<feGaussianBlur stdDeviation="5"/>
<feComposite in2="hardAlpha" operator="out"/>
<feColorMatrix type="matrix" values="0 0 0 0 0 0 0 0 0 0 0 0 0 0 0 0 0 0 0.25 0"/>
<feBlend mode="normal" in2="BackgroundImageFix" result="effect1_dropShadow_2_64"/>
<feBlend mode="normal" in="SourceGraphic" in2="effect1_dropShadow_2_64" result="shape"/>
</filter>
</defs>
</svg>
