<svg xmlns="http://www.w3.org/2000/svg"  viewBox="0 0 68 68" width="272px" height="272px"><path d="M 51.798828 5.8671875 C 49.568769 5.9251307 47.11972 6.6894226 44.589844 8.1464844 C 39.875925 10.867791 35.638307 15.62128 32.648438 21.015625 C 32.372491 20.823319 32.095809 20.630072 31.816406 20.451172 C 28.517578 18.333496 24.867188 16.875487 21.339844 15.466797 C 21.061901 15.3541 20.729383 15.238644 20.419922 15.121094 C 20.048882 13.828667 19.35267 12.858853 18.376953 12.292969 L 18.375 12.291016 C 18.371991 12.289273 18.368248 12.288844 18.365234 12.287109 L 15.087891 10.375 C 13.556152 9.4833984 11.539551 9.6650391 9.40625 10.888672 C 5.2109375 13.310547 1.8081055 19.207031 1.8203125 24.03125 C 1.8203125 26.444336 2.6586953 28.259766 4.1835938 29.142578 L 7.4667969 31.044922 L 7.4746094 31.050781 C 7.4857609 31.057265 7.4982847 31.055274 7.5097656 31.060547 C 8.0394302 31.364942 8.6432861 31.546013 9.3105469 31.589844 C 9.3952547 31.719224 9.4902418 31.840413 9.5683594 31.972656 C 9.8442383 32.429689 10.035156 32.839355 10.167969 33.253906 C 10.474121 34.257813 10.368652 35.325195 10.257812 36.455078 C 10.174805 37.298828 10.088867 38.170898 10.181641 39.039062 C 10.326172 40.394043 10.932129 41.692871 11.445312 42.673828 C 14.084646 47.68233 18.40473 51.832756 23.601562 54.367188 C 23.6176 54.37834 23.630475 54.393438 23.648438 54.402344 C 24.162662 54.65735 24.68413 54.894215 25.212891 55.115234 C 25.225285 55.120453 25.23751 55.129615 25.25 55.134766 C 25.251953 55.135254 25.352051 55.179199 25.353516 55.179688 L 25.623047 55.285156 C 25.971191 55.423828 26.325684 55.564941 26.748047 55.710938 C 26.76709 55.717285 26.803711 55.725586 26.841797 55.732422 C 26.861272 55.739107 26.880901 55.745313 26.900391 55.751953 C 27.273643 55.884157 27.654581 56.008733 28.037109 56.111328 C 28.072182 56.121567 28.115073 56.128542 28.150391 56.138672 C 28.771271 56.316651 29.396041 56.479498 30.027344 56.611328 C 30.258301 56.665042 30.489258 56.70117 30.720703 56.71875 C 30.730953 56.719238 30.741703 56.71875 30.751953 56.71875 C 30.768415 56.71875 30.782814 56.712907 30.798828 56.710938 C 31.627375 56.815919 32.710099 56.772448 33.445312 56.027344 C 38.260254 57.845215 43.085449 59.663574 47.917969 61.470703 C 48.742188 61.78418 49.666992 62.136719 50.640625 62.136719 C 50.733887 62.136719 50.827149 62.133789 50.921875 62.126953 C 52.046875 62.063965 53.140625 61.410645 53.847656 60.380859 C 54.35791 59.637695 54.616211 58.778809 54.59375 57.951172 C 54.625712 57.971399 54.659284 57.989699 54.691406 58.009766 C 54.764724 58.055556 54.839896 58.097758 54.914062 58.142578 C 55.134303 58.275703 55.357898 58.402194 55.585938 58.523438 C 55.683056 58.575079 55.780314 58.624979 55.878906 58.673828 C 56.097598 58.782176 56.320647 58.879123 56.546875 58.970703 C 56.646609 59.011095 56.744451 59.055248 56.845703 59.091797 C 57.168654 59.208322 57.498772 59.309079 57.837891 59.378906 C 58.046979 59.422979 58.256289 59.45392 58.464844 59.474609 C 58.489119 59.477008 58.512861 59.476429 58.537109 59.478516 C 58.701522 59.492726 58.864952 59.503906 59.027344 59.503906 C 59.034659 59.503906 59.041518 59.501982 59.048828 59.501953 C 59.324417 59.500832 59.594506 59.474422 59.859375 59.433594 C 59.924707 59.423522 59.988291 59.410873 60.052734 59.398438 C 60.296657 59.351395 60.535639 59.291056 60.763672 59.210938 C 60.784751 59.20353 60.807205 59.199091 60.828125 59.191406 C 61.072025 59.101851 61.298749 58.987748 61.517578 58.861328 C 61.569433 58.831376 61.619693 58.801503 61.669922 58.769531 C 61.883753 58.633501 62.087198 58.486121 62.267578 58.314453 C 63.096191 57.511719 63.456055 56.316895 63.271484 55.253906 C 63.63623 55.341309 64.035156 55.346191 64.433594 55.257812 C 65.221191 55.083496 65.828613 54.57373 66.058594 53.894531 C 66.058594 53.894531 66.058594 53.892578 66.058594 53.892578 C 66.416023 52.820313 65.980469 51.607422 64.759766 50.28125 C 63.678711 49.142578 62.401856 48.135254 61.023438 47.328125 C 61.206543 47.237793 61.385742 47.121582 61.554688 46.982422 C 62.141602 46.498535 62.505859 45.810059 62.529297 45.140625 C 62.589355 43.459473 61.323242 42.126953 60.365234 41.269531 C 59.839839 40.800428 59.257703 40.339413 58.621094 39.871094 C 62.903065 33.98203 65.707567 26.663418 65.689453 20.224609 C 65.67488 15.135441 63.931166 11.322579 60.777344 9.4785156 C 60.770241 9.4737643 60.765306 9.467241 60.757812 9.4628906 L 60.751953 9.4589844 C 60.748513 9.4570344 60.745587 9.455075 60.742188 9.453125 L 56.539062 7.0195312 C 55.134918 6.2039184 53.533319 5.8221205 51.798828 5.8671875 z M 52.068359 6.6640625 C 53.55957 6.6640625 54.93213 7.0107423 56.136719 7.7109375 L 57.248047 8.3554688 C 57.18905 8.3498543 57.127723 8.3521998 57.068359 8.3476562 C 56.860767 8.3315218 56.65139 8.3213661 56.439453 8.3183594 C 56.349675 8.3171767 56.260446 8.3152435 56.169922 8.3164062 C 55.829502 8.3204623 55.483169 8.3416446 55.132812 8.3789062 C 54.733661 8.4216152 54.326709 8.4905878 53.916016 8.5761719 C 53.777106 8.6050684 53.638157 8.6361206 53.498047 8.6699219 C 53.075541 8.771961 52.649289 8.890639 52.216797 9.0371094 C 52.125812 9.0679182 52.034739 9.1039437 51.943359 9.1367188 C 51.528798 9.2853977 51.109504 9.4574747 50.6875 9.6464844 C 50.54834 9.7088643 50.409384 9.7730787 50.269531 9.8398438 C 49.80382 10.061931 49.335758 10.299788 48.863281 10.570312 C 48.844805 10.580909 48.825126 10.588939 48.806641 10.599609 C 45.40802 12.561768 42.250752 15.57819 39.632812 19.130859 C 38.760007 20.315122 37.946823 21.559433 37.205078 22.84375 C 36.834259 23.485901 36.482355 24.13689 36.148438 24.796875 C 35.576041 25.927896 35.074056 27.083736 34.621094 28.248047 C 34.545314 28.442871 34.456975 28.634716 34.384766 28.830078 C 34.384766 28.830078 34.384766 28.832031 34.384766 28.832031 C 34.321642 29.00284 34.271285 29.174564 34.210938 29.345703 C 33.067616 32.587428 32.414697 35.880601 32.423828 38.970703 C 32.425986 39.546311 32.457927 40.098562 32.503906 40.640625 C 32.514093 40.762053 32.524747 40.882274 32.537109 41.001953 C 32.591805 41.52717 32.659916 42.04084 32.755859 42.53125 C 32.767149 42.589149 32.783062 42.64182 32.794922 42.699219 C 32.882391 43.12142 32.9876 43.527455 33.105469 43.921875 C 33.146271 44.058518 33.189959 44.19297 33.234375 44.326172 C 33.375896 44.750454 33.527532 45.164436 33.705078 45.552734 C 33.840472 45.848702 33.986572 46.132066 34.142578 46.40625 C 34.154334 46.426936 34.167816 46.446237 34.179688 46.466797 C 34.315369 46.701493 34.458662 46.928502 34.609375 47.146484 C 34.628465 47.174131 34.644733 47.205048 34.664062 47.232422 L 33.542969 46.582031 C 33.542969 46.582031 33.541016 46.582031 33.541016 46.582031 C 33.424364 46.513849 33.313636 46.437445 33.201172 46.363281 C 33.139013 46.322394 33.072588 46.28294 33.011719 46.240234 C 32.840815 46.119987 32.674316 45.993659 32.513672 45.859375 C 32.513672 45.859375 32.511719 45.857422 32.511719 45.857422 C 32.351824 45.723666 32.196459 45.582901 32.046875 45.435547 C 32.046875 45.435547 32.044922 45.433594 32.044922 45.433594 C 32.044922 45.433594 32.042969 45.431641 32.042969 45.431641 C 32.024036 45.412964 32.007047 45.391939 31.988281 45.373047 C 31.857997 45.241873 31.729602 45.106342 31.607422 44.964844 C 31.328594 44.642019 31.069854 44.292377 30.833984 43.917969 C 30.833984 43.917969 30.832031 43.916016 30.832031 43.916016 C 30.737524 43.765898 30.663649 43.593666 30.576172 43.435547 C 30.443854 43.195903 30.303476 42.964661 30.1875 42.707031 C 30.169703 42.667586 30.158035 42.621889 30.140625 42.582031 C 29.407483 40.899733 29.013196 38.855057 29.003906 36.513672 C 29.002082 35.891893 29.029173 35.261538 29.080078 34.625 C 29.088454 34.521232 29.105485 34.414814 29.115234 34.310547 C 29.163311 33.792768 29.223724 33.272441 29.304688 32.748047 C 29.336969 32.539343 29.380549 32.327307 29.417969 32.117188 C 29.493496 31.693014 29.572231 31.268284 29.667969 30.841797 C 29.722366 30.599159 29.788685 30.355197 29.849609 30.111328 C 29.953279 29.69722 30.06002 29.28363 30.181641 28.869141 C 30.245698 28.650288 30.315653 28.430291 30.384766 28.210938 C 30.526717 27.761631 30.676013 27.312924 30.837891 26.865234 C 30.907441 26.672416 30.981352 26.479943 31.054688 26.287109 C 31.229847 25.827615 31.412424 25.369664 31.607422 24.914062 C 31.690141 24.720441 31.776834 24.527248 31.863281 24.333984 C 32.068819 23.875254 32.281334 23.417316 32.505859 22.964844 C 32.592921 22.789201 32.681388 22.614488 32.771484 22.439453 C 35.704234 16.747381 40.087755 11.669873 44.990234 8.8398438 C 47.498047 7.3945312 49.906738 6.6640625 52.068359 6.6640625 z M 56.628906 9.1171875 C 57.977818 9.1653185 59.224487 9.5061035 60.330078 10.142578 C 63.257324 11.827148 64.876955 15.408693 64.890625 20.226562 C 64.908449 26.620495 62.072726 33.904769 57.767578 39.701172 C 57.761788 39.707946 57.753438 39.711507 57.748047 39.71875 C 57.265548 40.370226 56.771049 40.986185 56.271484 41.576172 C 56.15416 41.714273 56.033069 41.846631 55.914062 41.982422 C 55.50701 42.447433 55.097644 42.896781 54.683594 43.316406 C 54.494521 43.510143 54.303805 43.701115 54.111328 43.888672 C 53.864238 44.130225 53.615669 44.36692 53.363281 44.597656 C 53.029744 44.901667 52.693689 45.198282 52.351562 45.482422 C 52.224432 45.588528 52.096846 45.693641 51.96875 45.796875 C 51.964095 45.800626 51.959734 45.804846 51.955078 45.808594 C 50.969808 46.596579 49.952721 47.30543 48.912109 47.90625 C 48.412197 48.194814 47.916906 48.45013 47.425781 48.681641 C 47.354715 48.715137 47.283825 48.745037 47.212891 48.777344 C 46.803333 48.964043 46.399656 49.128803 45.998047 49.275391 C 45.897869 49.311734 45.797054 49.350907 45.697266 49.384766 C 45.256087 49.535585 44.819855 49.663992 44.390625 49.765625 C 44.379008 49.768334 44.367079 49.772718 44.355469 49.775391 C 44.350409 49.776297 44.344451 49.776269 44.339844 49.777344 C 44.241122 49.80003 44.144886 49.811949 44.046875 49.832031 C 43.753699 49.892844 43.464233 49.941144 43.177734 49.978516 C 42.998582 50.001569 42.820733 50.023127 42.644531 50.037109 C 42.330775 50.062354 42.020989 50.074225 41.716797 50.070312 C 40.842271 50.059366 40.012356 49.930445 39.240234 49.683594 C 39.203161 49.671642 39.165747 49.660936 39.128906 49.648438 C 38.63941 49.483601 38.172849 49.271691 37.734375 49.011719 C 37.73008 49.009186 37.718751 49.004379 37.710938 49 C 37.370417 48.798223 37.046204 48.572825 36.742188 48.320312 C 34.803068 46.706852 33.615155 44.079479 33.304688 40.714844 C 33.304515 40.712962 33.304859 40.710867 33.304688 40.708984 C 33.298446 40.641094 33.300449 40.566534 33.294922 40.498047 C 33.255272 40.001413 33.226106 39.495838 33.224609 38.96875 C 33.222809 38.334015 33.247691 37.689116 33.300781 37.039062 C 33.353826 36.38904 33.433811 35.732934 33.539062 35.072266 C 34.591891 28.465286 38.188621 21.443115 42.976562 16.341797 C 43.455142 15.832026 43.946198 15.340165 44.447266 14.871094 C 45.951177 13.462973 47.549103 12.250153 49.207031 11.292969 C 49.207031 11.292969 49.208984 11.292969 49.208984 11.292969 C 50.265647 10.684204 51.302567 10.200233 52.3125 9.8457031 C 52.315115 9.8447851 52.317698 9.8446663 52.320312 9.84375 C 53.332535 9.488983 54.317075 9.2630621 55.259766 9.1660156 C 55.725913 9.1184072 56.183709 9.1013023 56.628906 9.1171875 z M 12.939453 10.617188 C 13.582031 10.617188 14.171387 10.766602 14.685547 11.066406 L 15.851562 11.746094 C 15.767983 11.752155 15.680374 11.773092 15.595703 11.783203 C 15.514069 11.793024 15.432164 11.802884 15.349609 11.816406 C 15.19017 11.842456 15.029905 11.875983 14.867188 11.916016 C 14.801303 11.932186 14.734298 11.950328 14.667969 11.96875 C 14.497464 12.016276 14.327745 12.068267 14.154297 12.130859 C 14.079882 12.157578 14.004498 12.189303 13.929688 12.21875 C 13.759975 12.285844 13.589876 12.352317 13.417969 12.433594 C 13.367591 12.457354 13.316117 12.486754 13.265625 12.511719 C 13.075987 12.605642 12.886948 12.697588 12.695312 12.808594 C 12.433544 12.960117 12.176838 13.127277 11.921875 13.304688 C 11.41058 13.660462 10.913726 14.063226 10.4375 14.509766 C 10.198815 14.73298 9.9661963 14.966388 9.7382812 15.208984 C 7.2345008 17.874049 5.4197329 21.640793 5.1464844 25.033203 C 5.1463797 25.034475 5.1465886 25.035838 5.1464844 25.037109 C 5.121861 25.344129 5.1080987 25.647494 5.109375 25.947266 C 5.109377 25.947943 5.1093729 25.948541 5.109375 25.949219 C 5.1093765 25.949861 5.1093734 25.95053 5.109375 25.951172 C 5.109375 26.359431 5.1418449 26.742843 5.1894531 27.115234 C 5.1939377 27.148809 5.20021 27.181574 5.2050781 27.214844 C 5.3041776 27.92018 5.477285 28.565171 5.7421875 29.121094 L 4.5859375 28.449219 C 3.3183594 27.715332 2.6191406 26.145508 2.6191406 24.029297 C 2.6079102 19.459473 5.8310547 13.875488 9.8046875 11.582031 C 10.921387 10.940918 11.989746 10.617188 12.939453 10.617188 z M 16.251953 12.539062 C 16.490716 12.54044 16.724483 12.561002 16.947266 12.603516 C 17.159184 12.643956 17.359473 12.709057 17.554688 12.787109 C 17.615424 12.811578 17.673336 12.842995 17.732422 12.871094 C 18.495721 13.232987 19.087399 13.873383 19.458984 14.769531 C 19.314915 14.725153 19.18468 14.700574 19.046875 14.664062 C 18.889945 14.622218 18.735921 14.576903 18.576172 14.542969 C 18.252351 14.47463 17.941214 14.423475 17.638672 14.398438 C 17.623535 14.394531 17.608398 14.392578 17.595703 14.390625 C 17.4375 14.368164 17.269531 14.347656 17.052734 14.347656 L 17.050781 14.347656 C 16.172852 14.368652 15.13623 14.691895 14.046875 15.291016 C 10.26123 17.508788 7.1831055 22.702148 7.0390625 27.126953 C 7.0390625 27.288574 7.0507812 27.437012 7.0742188 27.589844 C 7.1176757 27.860352 7.1948242 28.128906 7.296875 28.378906 C 7.3718262 28.575684 7.4620361 28.773315 7.5703125 28.976562 C 7.6784668 29.179565 7.8034668 29.388184 7.9511719 29.609375 C 7.9511719 29.609375 7.953125 29.611328 7.953125 29.611328 C 8.1837005 29.977694 8.4370542 30.330327 8.6914062 30.683594 L 8.6992188 30.695312 C 8.3003347 30.592672 7.9430114 30.413441 7.6210938 30.179688 C 7.5823229 30.151925 7.5414367 30.127141 7.5039062 30.097656 C 7.0053658 29.700326 6.6089822 29.147502 6.3378906 28.457031 C 6.2461594 28.223392 6.1704316 27.974569 6.1074219 27.710938 C 6.1067879 27.708285 6.1060997 27.70578 6.1054688 27.703125 C 6.0447367 27.447542 5.9973778 27.176556 5.9648438 26.894531 C 5.9632498 26.880714 5.9624622 26.867394 5.9609375 26.853516 C 5.9291014 26.563728 5.9111184 26.260949 5.9101562 25.945312 C 5.9090347 25.683348 5.9215976 25.418264 5.9414062 25.150391 C 5.9430604 25.128021 5.9415628 25.106389 5.9433594 25.083984 C 5.9434637 25.082713 5.9432546 25.081349 5.9433594 25.080078 C 5.9667818 24.789308 6.0040291 24.494765 6.0507812 24.199219 C 6.0509801 24.197974 6.050582 24.196558 6.0507812 24.195312 C 6.5257831 21.226734 8.1431144 18.070418 10.294922 15.775391 C 10.941073 15.087837 11.63468 14.475103 12.361328 13.970703 C 12.361785 13.970385 12.362824 13.971021 12.363281 13.970703 C 12.60577 13.802431 12.850586 13.647583 13.099609 13.503906 C 13.366629 13.349111 13.632385 13.213595 13.894531 13.095703 C 13.926109 13.081463 13.956813 13.070337 13.988281 13.056641 C 14.223789 12.954446 14.458045 12.866836 14.6875 12.794922 C 14.714496 12.78644 14.740689 12.777586 14.767578 12.769531 C 14.995704 12.701355 15.219317 12.649051 15.439453 12.611328 C 15.470679 12.605997 15.502165 12.60041 15.533203 12.595703 C 15.747163 12.563082 15.955728 12.54619 16.160156 12.542969 C 16.190508 12.542568 16.221831 12.538805 16.251953 12.539062 z M 17.109375 15.146484 C 17.217773 15.146484 17.333496 15.161133 17.484375 15.179688 C 17.51123 15.187988 17.538086 15.193359 17.566406 15.195312 C 17.566406 15.195312 17.568359 15.195312 17.568359 15.195312 C 17.893648 15.222273 18.236424 15.284702 18.595703 15.369141 C 18.694334 15.392413 18.790828 15.422638 18.888672 15.449219 C 19.134548 15.515534 19.396728 15.597268 19.667969 15.691406 C 20.139766 15.855561 20.607709 16.033304 21.041016 16.208984 C 24.535645 17.604492 28.150391 19.046387 31.384766 21.123047 C 31.671875 21.306641 31.957031 21.503418 32.240234 21.701172 C 31.430839 23.234056 30.751034 24.794364 30.175781 26.355469 C 30.169254 26.373091 30.162748 26.390577 30.15625 26.408203 C 29.929971 27.025199 29.723169 27.640529 29.535156 28.255859 C 29.503064 28.360227 29.470463 28.463967 29.439453 28.568359 C 29.280936 29.105425 29.138277 29.638941 29.009766 30.171875 C 28.96927 30.338694 28.928188 30.50527 28.890625 30.671875 C 28.782261 31.15558 28.690243 31.635377 28.607422 32.113281 C 28.575316 32.297543 28.538044 32.482359 28.509766 32.666016 C 28.430288 33.184389 28.372495 33.696509 28.324219 34.205078 C 28.311644 34.337531 28.291677 34.471573 28.28125 34.603516 C 28.229892 35.251695 28.197891 35.890604 28.199219 36.517578 C 28.21048 39.378418 28.771184 41.83926 29.822266 43.773438 C 29.823363 43.775461 29.825073 43.777275 29.826172 43.779297 C 29.941944 43.991999 30.063813 44.19864 30.191406 44.398438 C 30.321134 44.601871 30.455845 44.798641 30.597656 44.988281 C 30.737607 45.1753 30.883608 45.354001 31.035156 45.527344 C 31.036086 45.528408 31.036179 45.530187 31.037109 45.53125 C 31.188736 45.704518 31.346695 45.870045 31.509766 46.029297 C 31.673961 46.189615 31.845831 46.344572 32.021484 46.490234 C 32.062613 46.524318 32.106686 46.554622 32.148438 46.587891 C 32.284189 46.696209 32.420217 46.804635 32.5625 46.904297 C 32.5625 46.904297 32.564453 46.904297 32.564453 46.904297 C 32.750793 47.034764 32.941271 47.158115 33.138672 47.273438 C 33.138672 47.273438 33.140625 47.273438 33.140625 47.273438 L 33.673828 47.583984 L 37.359375 49.726562 C 37.361274 49.727672 37.363326 49.727441 37.365234 49.728516 C 37.373868 49.733526 37.38197 49.739159 37.390625 49.744141 C 37.479598 49.795353 37.575481 49.831158 37.666016 49.878906 C 37.856643 49.979802 38.049399 50.076614 38.248047 50.162109 C 38.386804 50.221994 38.52799 50.275809 38.669922 50.328125 C 38.844896 50.392225 39.022747 50.449244 39.203125 50.501953 C 39.361531 50.548699 39.519778 50.594984 39.681641 50.632812 C 39.846194 50.670792 40.01514 50.697649 40.183594 50.726562 C 40.583785 50.796243 40.991938 50.841786 41.410156 50.859375 C 41.474385 50.862042 41.536894 50.86963 41.601562 50.871094 C 41.679374 50.87287 41.753654 50.884766 41.832031 50.884766 C 42.65173 50.884766 43.504909 50.781422 44.378906 50.587891 C 45.262503 51.03245 46.078995 51.468369 46.8125 51.888672 C 46.813661 51.889337 46.815246 51.88996 46.816406 51.890625 C 46.816406 51.890625 46.818359 51.892578 46.818359 51.892578 C 46.820681 51.893909 46.823852 51.895154 46.826172 51.896484 C 47.177991 52.098256 47.458028 52.283641 47.777344 52.478516 C 48.153561 52.707987 48.565453 52.947554 48.898438 53.166016 C 48.898438 53.166016 48.900391 53.166016 48.900391 53.166016 C 49.126511 53.314405 49.294926 53.445127 49.501953 53.587891 C 49.85642 53.83257 50.231574 54.085717 50.533203 54.3125 C 50.535543 54.314259 50.538679 54.316601 50.541016 54.318359 C 51.978254 55.399858 52.834738 56.264796 53.298828 56.796875 C 53.298828 56.796875 53.300781 56.798828 53.300781 56.798828 C 53.300781 56.798828 53.302734 56.800781 53.302734 56.800781 C 53.342878 56.84749 53.329966 56.838468 53.363281 56.878906 C 53.543314 57.093911 53.638635 57.222255 53.679688 57.28125 C 53.930992 58.123291 53.753223 59.108918 53.189453 59.929688 C 52.621582 60.756348 51.757324 61.27832 50.871094 61.328125 C 49.969727 61.393555 49.027344 61.038086 48.199219 60.722656 C 43.377923 58.919652 38.565648 57.106069 33.763672 55.292969 C 33.792695 55.09374 33.8289 54.898192 33.839844 54.6875 C 33.893562 53.69841 33.749145 52.607788 33.419922 51.617188 C 32.988769 50.419434 32.258301 49.282227 31.251953 48.242188 C 31.251953 48.242188 31.25 48.242188 31.25 48.242188 C 31.008873 47.987551 30.75774 47.748477 30.5 47.523438 C 30.496822 47.520671 30.493414 47.518388 30.490234 47.515625 C 30.450574 47.481068 30.40907 47.451878 30.369141 47.417969 C 30.150534 47.232872 29.929932 47.050917 29.705078 46.882812 C 29.164845 46.478011 28.618042 46.122174 28.101562 45.800781 C 28.100253 45.800125 28.098965 45.799484 28.097656 45.798828 C 27.858398 45.679199 27.624023 45.552245 27.388672 45.425781 C 27.050293 45.24414 26.712403 45.063477 26.357422 44.898438 L 26.21875 44.839844 C 26.21875 44.839844 26.216797 44.837891 26.216797 44.837891 C 26.216797 44.837891 26.214844 44.837891 26.214844 44.837891 C 25.887594 44.695296 25.578948 44.527958 25.292969 44.339844 C 25.291755 44.339046 25.290276 44.33869 25.289062 44.337891 C 24.428101 43.770653 23.766602 43.006104 23.376953 42.107422 C 23.268061 41.866389 23.142072 41.517854 23.085938 41.138672 C 23.068103 41.014903 23.073604 40.883525 23.074219 40.753906 C 23.076365 40.468636 23.114715 40.181517 23.263672 39.916016 C 23.34617 39.7696 23.323843 39.592254 23.224609 39.46875 C 23.217852 39.460157 23.206725 39.455331 23.199219 39.447266 C 23.172465 39.419314 23.14686 39.390974 23.111328 39.371094 C 23.109471 39.370033 23.107335 39.370168 23.105469 39.369141 C 23.105469 39.369141 23.103516 39.367188 23.103516 39.367188 C 22.90918 39.259765 22.666504 39.330078 22.560547 39.523438 C 21.972169 40.589844 22.359863 41.80957 22.644531 42.441406 C 22.647481 42.448736 22.65235 42.456091 22.65625 42.462891 C 22.826999 42.853174 23.049395 43.218219 23.308594 43.5625 C 23.608949 43.962588 23.960129 44.331043 24.365234 44.654297 C 24.367067 44.65576 24.369259 44.656742 24.371094 44.658203 C 24.520456 44.77712 24.677768 44.892933 24.839844 45 C 24.841054 45.0008 24.842539 45.001154 24.84375 45.001953 C 25.006014 45.108901 25.175436 45.210368 25.349609 45.304688 C 25.351689 45.305817 25.353387 45.307466 25.355469 45.308594 C 25.529825 45.402788 25.709069 45.489527 25.894531 45.570312 C 25.897229 45.571493 25.899644 45.573041 25.902344 45.574219 L 25.951172 45.59375 L 26.029297 45.628906 L 26.03125 45.628906 C 26.361328 45.782714 26.685059 45.956542 27.009766 46.130859 C 27.013106 46.132654 27.016191 46.134924 27.019531 46.136719 C 27.258228 46.264734 27.496734 46.393111 27.707031 46.496094 C 27.707031 46.496094 27.708984 46.498047 27.708984 46.498047 C 28.208269 46.810613 28.719035 47.143867 29.216797 47.515625 C 29.719818 47.892591 30.217362 48.314997 30.671875 48.794922 C 31.595215 49.749024 32.266113 50.789551 32.660156 51.873047 C 32.941043 52.723023 33.074677 53.679505 33.044922 54.541016 C 33.034225 54.828476 33.004761 55.106201 32.957031 55.365234 C 32.936523 55.391602 32.915527 55.41748 32.894531 55.441406 C 32.89191 55.444407 32.891188 55.448115 32.888672 55.451172 C 32.453548 55.916973 31.738692 55.979105 31.167969 55.943359 C 31.186833 55.50331 31.17516 55.067112 31.150391 54.636719 L 31.142578 54.503906 C 31.130855 54.270996 31.116206 54.007813 31.035156 53.763672 C 30.85205 53.167969 30.42041 52.755859 30.083984 52.511719 C 29.660644 52.216797 29.209473 52.040039 28.783203 51.892578 C 27.339844 51.396976 26.106445 51.362793 25.105469 51.794922 C 24.878906 51.898926 24.616211 52.035156 24.398438 52.253906 C 24.165528 52.469727 23.971191 52.751953 23.787109 53.142578 L 23.697266 53.330078 C 23.673405 53.378288 23.655974 53.430075 23.632812 53.478516 C 18.728302 51.00169 14.658076 47.052677 12.154297 42.300781 C 11.674805 41.383789 11.108398 40.17627 10.978516 38.955078 C 10.894043 38.167969 10.975586 37.336914 11.054688 36.533203 C 11.168457 35.375 11.285645 34.177734 10.931641 33.015625 C 10.777832 32.534668 10.561035 32.070803 10.253906 31.5625 C 10.136937 31.364598 10.010134 31.173274 9.8828125 30.984375 C 9.8815021 30.982431 9.8802176 30.980459 9.8789062 30.978516 C 9.6989228 30.711807 9.5151884 30.450671 9.3320312 30.197266 C 9.0898438 29.861816 8.8476563 29.52832 8.6230469 29.175781 C 8.489502 28.975586 8.3771362 28.788452 8.28125 28.609375 C 8.1854248 28.430298 8.1066895 28.258301 8.0410156 28.085938 C 7.9584961 27.883789 7.8984375 27.674805 7.8652344 27.466797 C 7.8481446 27.355957 7.8398438 27.246094 7.8398438 27.140625 C 7.9755858 22.976562 10.880859 18.075194 14.443359 15.988281 C 15.411133 15.456055 16.318359 15.164551 17.109375 15.146484 z M 56.818359 17.320312 C 56.711449 17.331237 56.595407 17.373314 56.470703 17.445312 C 56.221355 17.589273 56.013141 17.810329 55.84375 18.111328 C 55.672213 18.416115 55.589032 18.709522 55.589844 18.996094 L 55.628906 32.962891 C 55.629719 33.249463 55.714039 33.442576 55.886719 33.541016 C 56.057236 33.638155 56.268231 33.616615 56.517578 33.472656 C 56.766987 33.328659 56.980255 33.105793 57.15625 32.808594 C 57.334454 32.507572 57.420734 32.216263 57.419922 31.929688 L 57.380859 17.960938 C 57.380047 17.674365 57.290672 17.481111 57.111328 17.378906 C 57.022764 17.328438 56.92527 17.309388 56.818359 17.320312 z M 47.494141 22.714844 C 47.377321 22.739109 47.251217 22.789503 47.113281 22.869141 L 46.916016 22.982422 C 46.64021 23.141659 46.406086 23.364469 46.216797 23.646484 C 46.025238 23.932356 45.878373 24.241013 45.775391 24.572266 L 40.791016 41.097656 C 40.725386 41.318443 40.693012 41.487644 40.693359 41.609375 C 40.694172 41.895943 40.777324 42.089127 40.943359 42.191406 C 41.107234 42.29238 41.321338 42.266872 41.583984 42.115234 C 41.767177 42.009464 41.934212 41.85448 42.083984 41.65625 C 42.235962 41.454208 42.350797 41.233317 42.429688 40.992188 L 43.699219 36.720703 L 50.396484 32.853516 L 51.6875 35.646484 C 51.767494 35.795887 51.88279 35.884649 52.033203 35.912109 C 52.183605 35.93703 52.351696 35.898064 52.537109 35.791016 C 52.799747 35.639382 53.010799 35.419743 53.175781 35.128906 C 53.338484 34.83683 53.418781 34.548283 53.417969 34.261719 C 53.417619 34.139984 53.387042 34.007644 53.320312 33.863281 L 48.257812 23.138672 C 48.151077 22.928499 48.002835 22.789999 47.8125 22.724609 C 47.717365 22.69317 47.61096 22.690579 47.494141 22.714844 z M 47.021484 25.552734 L 49.701172 31.373047 L 44.382812 34.443359 L 47.021484 25.552734 z M 58.154297 40.511719 C 58.773437 40.966309 59.325684 41.412109 59.833984 41.865234 C 61.164551 43.056641 61.76709 44.089355 61.730469 45.113281 C 61.714844 45.557617 61.459473 46.025391 61.046875 46.365234 C 60.776611 46.587891 60.473511 46.724297 60.193359 46.755859 C 60.138943 46.76199 60.087421 46.755848 60.035156 46.753906 C 59.730487 46.426609 58.582997 45.342626 55.476562 43.646484 C 55.70379 43.40874 55.924473 43.162011 56.146484 42.916016 C 56.411714 42.623187 56.675822 42.330145 56.9375 42.019531 C 57.174647 41.738487 57.402722 41.447979 57.632812 41.158203 C 57.805968 40.939432 57.983406 40.737733 58.154297 40.511719 z M 54.896484 44.240234 C 58.498814 46.182816 59.543582 47.391333 59.587891 47.439453 C 59.618164 47.470215 59.652832 47.496094 59.691406 47.515625 C 61.358887 48.349609 62.911133 49.496094 64.175781 50.828125 C 65.179688 51.918457 65.557617 52.864258 65.300781 53.638672 C 65.161621 54.050781 64.771973 54.363281 64.259766 54.476562 C 63.702148 54.598633 63.133301 54.461426 62.808594 54.121094 C 62.806258 54.118662 62.803165 54.117595 62.800781 54.115234 C 62.636693 53.900341 60.36611 51.118853 51.638672 47.0625 C 51.928795 46.845754 52.216417 46.623329 52.501953 46.392578 C 52.586882 46.324202 52.671408 46.255155 52.755859 46.185547 C 53.232619 45.791457 53.703688 45.38367 54.164062 44.953125 C 54.208236 44.911846 54.250909 44.867776 54.294922 44.826172 C 54.497313 44.6347 54.69785 44.438316 54.896484 44.240234 z M 50.896484 47.59375 C 59.889311 51.713645 62.159124 54.5864 62.193359 54.630859 C 62.768473 55.532706 62.555471 56.923389 61.714844 57.738281 C 60.844727 58.567383 59.420898 58.895508 58 58.595703 C 57.685568 58.53092 57.377098 58.440579 57.074219 58.330078 C 56.874562 58.257293 56.677785 58.1628 56.480469 58.072266 C 56.383512 58.027655 56.286523 57.994081 56.189453 57.945312 C 56.189453 57.945312 56.1875 57.945312 56.1875 57.945312 C 55.591608 57.645811 54.991169 57.268439 54.347656 56.832031 C 54.328534 56.804127 54.232048 56.695016 54.199219 56.650391 C 54.112728 56.529292 54.042444 56.429186 53.796875 56.152344 C 53.715399 56.060264 53.62766 55.971132 53.525391 55.863281 C 53.421571 55.753583 53.32817 55.652518 53.201172 55.527344 C 53.05146 55.379838 52.863948 55.212462 52.679688 55.044922 C 52.550914 54.927751 52.443661 54.823608 52.296875 54.697266 C 51.943134 54.392792 51.541209 54.065261 51.074219 53.712891 C 51.070541 53.710116 51.066185 53.705902 51.0625 53.703125 C 51.007759 53.661878 50.931387 53.61411 50.875 53.572266 C 50.454846 53.260471 49.996538 52.935795 49.480469 52.59375 C 49.279008 52.460235 49.039232 52.317297 48.822266 52.179688 C 48.400271 51.91197 47.971601 51.644798 47.488281 51.363281 C 47.200831 51.195853 46.878539 51.02328 46.568359 50.851562 C 46.225104 50.6615 45.916973 50.4779 45.544922 50.283203 C 45.579744 50.272459 45.615524 50.25908 45.650391 50.248047 C 45.727574 50.223632 45.805423 50.193799 45.882812 50.167969 C 46.161685 50.074871 46.441427 49.972652 46.722656 49.861328 C 46.848783 49.811394 46.975038 49.758654 47.101562 49.705078 C 47.364828 49.593615 47.627892 49.472804 47.892578 49.345703 C 47.992181 49.297869 48.091643 49.253157 48.191406 49.203125 C 48.563047 49.016765 48.93545 48.82013 49.308594 48.603516 C 49.810162 48.314251 50.339801 47.971184 50.896484 47.59375 z M 26.810547 52.296875 C 27.327209 52.317566 27.900146 52.435791 28.523438 52.650391 C 28.894532 52.778809 29.284668 52.9292 29.621094 53.164062 C 29.947754 53.401368 30.178227 53.698242 30.273438 54.007812 C 30.323238 54.157715 30.3335 54.345215 30.34375 54.544922 L 30.351562 54.693359 C 30.375135 55.092098 30.397644 55.474308 30.384766 55.851562 C 30.324448 55.840827 30.264727 55.840685 30.203125 55.826172 C 29.535725 55.684505 28.941695 55.531699 28.367188 55.367188 C 28.151867 55.305442 27.938262 55.239206 27.724609 55.171875 C 27.511243 55.104781 27.293335 55.045441 27.085938 54.970703 C 26.492964 54.766787 25.909144 54.533849 25.332031 54.287109 C 24.996276 54.148365 24.670878 53.991159 24.341797 53.832031 C 24.36536 53.782733 24.389773 53.732608 24.414062 53.683594 L 24.511719 53.482422 C 24.650391 53.188477 24.786621 52.985351 24.953125 52.830078 C 25.092285 52.69043 25.268555 52.599611 25.429688 52.525391 C 25.832031 52.352539 26.293884 52.276184 26.810547 52.296875 z"/></svg>