<?xml version="1.0" encoding="utf-8"?>
<!-- Generator: Adobe Illustrator 22.0.1, SVG Export Plug-In . SVG Version: 6.00 Build 0)  -->
<svg version="1.1" id="Layer_1" xmlns="http://www.w3.org/2000/svg" xmlns:xlink="http://www.w3.org/1999/xlink" x="0px" y="0px"
	 viewBox="0 0 68 68" style="enable-background:new 0 0 68 68;" xml:space="preserve">
<style type="text/css">
	.st0{enable-background:new    ;}
</style>
<g>
	<g>
		<path d="M42.5981979,12.501977c-0.0947266,0-0.1845703-0.0097656-0.2734375-0.0302734
			c-0.0566406-0.0029297-0.1113281-0.0151367-0.1591797-0.0380859c0.0058594,0.0048828-0.0224609,0.0004883-0.0654297-0.0175781
			c-0.1181641-0.0258789-0.2333984-0.0791016-0.3447266-0.1586914c-0.3330078-0.2348633-0.5546875-0.6137695-0.6416016-1.0942383
			l-0.5205078-3.0336914c-0.0175781-0.105957,0.0078125-0.2148438,0.0703125-0.3017578l3.1396484-4.3398438
			c0.3681641-0.5087891,0.7998047-0.9111328,1.2480469-1.1640625c0.6445313-0.3779296,1.2783203-0.4277343,1.7763672-0.1376953
			l3.9667969,2.2382815l4.3544922,2.5322266c0.1904297,0.1103516,0.2548828,0.3535156,0.1455078,0.5444336
			c-0.1083984,0.1918945-0.3544922,0.2578125-0.5429688,0.1494141l-3.9697266-2.2402344
			c-0.2070313-0.1171875-0.4414063-0.0795898-0.5996094-0.0273438c-0.1201172,0.0327148-0.2363281,0.0820313-0.3857422,0.1621094
			c-0.0683594,0.0415039-0.1435547,0.0913086-0.2275391,0.1586914c-0.2861328,0.2172852-0.5439453,0.4848633-0.7558594,0.78125
			l-3.2207031,4.4516602c-0.2011719,0.2719727-0.4013672,0.4975586-0.5976563,0.6733398
			c-0.1542969,0.1420898-0.2382813,0.2172852-0.3271484,0.2797852c-0.0957031,0.0771484-0.1982422,0.1459961-0.3134766,0.215332
			c-0.0947266,0.0488281-0.1621094,0.0820313-0.2402344,0.1152344c-0.1044922,0.0463867-0.171875,0.0751953-0.2470703,0.0966797
			c-0.1552734,0.0571289-0.3076172,0.0917969-0.4677734,0.1044922c-0.1923828,0.0092773-0.3808594,0.0361328-0.5771484,0.0629883
			l-0.1201172,0.0112305C42.6880417,12.4970942,42.6118698,12.501977,42.5981979,12.501977z M42.4048386,11.6733637
			c0.0273438,0.0019531,0.0546875,0.0063477,0.0820313,0.0141602c0.0361328,0.0102539,0.0693359,0.0146484,0.1113281,0.0146484
			c0.0595703-0.0063477,0.0996094-0.0097656,0.1396484-0.0097656c0.1953125-0.0307617,0.4082031-0.0595703,0.6103516-0.0693359
			c0.0751953-0.0063477,0.1601563-0.0263672,0.2734375-0.0673828c0.0644531-0.019043,0.0976563-0.0351563,0.1328125-0.0512695
			c0.109375-0.046875,0.1611328-0.0732422,0.2148438-0.1000977c0.0566406-0.0356445,0.1337891-0.0869141,0.2197266-0.1552734
			c0.0810547-0.0576172,0.1367188-0.1108398,0.1962891-0.1650391c0.0009766-0.0014648,0.0742188-0.0683594,0.0751953-0.0693359
			c0.15625-0.1401367,0.3193359-0.3251953,0.4863281-0.550293l3.2167969-4.4462891
			c0.2568359-0.359375,0.5722656-0.6865234,0.9121094-0.9443359c0.1064453-0.0859375,0.2109375-0.1552734,0.3271484-0.2246094
			c0.1015625-0.0546875,0.1923828-0.0996094,0.2763672-0.1357422l-3.2480469-1.8330081
			c-0.328125-0.1899414-0.7558594,0.0043945-0.9804688,0.1367188c-0.3554688,0.2001953-0.6982422,0.5239258-0.9990234,0.9394531
			l-3.0410156,4.2036133l0.4912109,2.8647461c0.0488281,0.2700195,0.1552734,0.4663086,0.3173828,0.5805664
			C42.2681198,11.6108637,42.3462448,11.6421137,42.4048386,11.6733637z"/>
	</g>
	<g>
		<path d="M17.388237,63.6020737c-0.0683594,0-0.1376953-0.0175781-0.2011719-0.0541992l-4.3603516-2.5400391
			c-0.8447266-0.4858398-0.9990234-1.8134766-0.375-3.2270508l2.1416016-4.7524414
			c0.0429688-0.0966797,0.1533203-0.2324219,0.2529297-0.2700195l2.8701172-1.0898438
			c0.4707031-0.1665039,0.9208984-0.1640625,1.2792969,0.0004883c0.3115234,0.1420898,0.5644531,0.4116211,0.7109375,0.7578125
			c0.0488281,0.1289063,0.0996094,0.237793,0.1494141,0.3442383l0.1103516,0.2460938
			c0.2832031,0.527832,0.2851563,1.315918-0.0078125,2.1875c-0.0449219,0.1455078-0.1005859,0.2900391-0.1669922,0.4345703
			l-2.2480469,4.9970703c-0.4375,0.9902344-0.4169922,1.9462891,0.0478516,2.2216797
			c0.1904297,0.1118164,0.2539063,0.3564453,0.1416016,0.546875C17.6587448,63.5312729,17.5249557,63.6020737,17.388237,63.6020737z
			 M15.2837448,53.4477768l-2.1015625,4.6586914c-0.4306641,0.9750977-0.4111328,1.9462891,0.0449219,2.2089844l3.2148438,1.8725586
			c-0.0458984-0.5541992,0.0742188-1.2070313,0.3701172-1.8774414l2.2529297-5.0058594
			c0.0517578-0.112793,0.0957031-0.2260742,0.1298828-0.340332c0.0019531-0.003418,0.0029297-0.0068359,0.0039063-0.0102539
			c0.2177734-0.644043,0.234375-1.2397461,0.0458984-1.59375l-0.1142578-0.2519531
			c-0.0566406-0.1230469-0.1152344-0.25-0.1669922-0.3842773c-0.0634766-0.1499023-0.1689453-0.2675781-0.3017578-0.328125
			c-0.1689453-0.0776367-0.4072266-0.0693359-0.6708984,0.0239258L15.2837448,53.4477768z"/>
	</g>
	<g>
		<path d="M31.8276901,65.6020737c-0.0693359,0-0.1396484-0.0180664-0.2021484-0.0546875l-4.3496094-2.5400391
			c-0.1015625-0.0595703-0.171875-0.1611328-0.1923828-0.277832l-0.4707031-2.71875
			c-0.0185547-0.1103516,0.0097656-0.2241211,0.078125-0.3125l0.1005859-0.1303711
			c0.3330078-0.4799805,0.7558594-0.8774414,1.2089844-1.1337891c0.3085938-0.1831055,0.640625-0.2954102,0.9550781-0.3208008
			c0.2158203-0.0097656,0.4091797-0.0375977,0.6015625-0.0649414c0.3681641-0.0458984,0.6835938,0.0126953,0.9511719,0.1669922
			c0.0927734,0.0541992,0.1884766,0.1298828,0.2832031,0.2250977c0.078125,0.0771484,0.1337891,0.1616211,0.1796875,0.2299805
			c0.0986328,0.15625,0.1660156,0.3105469,0.2050781,0.4643555c0.0390625,0.0874023,0.0537109,0.1708984,0.0644531,0.2299805
			l0.9824219,5.7758789c0.0234375,0.1523438-0.0429688,0.3051758-0.1699219,0.3920898
			C31.9849167,65.5786362,31.9067917,65.6020737,31.8276901,65.6020737z M27.841362,62.4106674l3.4599609,2.0209961
			l-0.8476563-4.9213867c-0.0234375-0.0385742-0.0380859-0.1113281-0.0478516-0.1557617
			c-0.0166016-0.0786133-0.0527344-0.1650391-0.1064453-0.2495117c-0.0214844-0.0327148-0.0507813-0.0756836-0.0732422-0.0986328
			c-0.0449219-0.0449219-0.0878906-0.0805664-0.1181641-0.0981445c-0.1132813-0.065918-0.2607422-0.0874023-0.4345703-0.0683594
			c-0.2216797,0.03125-0.4394531,0.0620117-0.6679688,0.0717773c-0.1787109,0.0146484-0.3925781,0.0893555-0.6035156,0.2143555
			c-0.3574219,0.2021484-0.6884766,0.5170898-0.9658451,0.9145508l-0.004858,0.0063477L27.841362,62.4106674z"/>
	</g>
	<g>
		<path d="M53.9282761,18.9922104c-0.1533203,0-0.2822266-0.019043-0.40625-0.0600586v-0.0004883
			c-0.0048828-0.0014648-0.0097656-0.0029297-0.0146484-0.0043945c-0.0527344-0.0136719-0.1171875-0.03125-0.1884766-0.0668945
			c-0.0214844-0.0107422-0.1103516-0.0532227-0.1289063-0.0673828c-0.25-0.168457-0.4238281-0.3823242-0.5400391-0.6533203
			c-0.0576172-0.1367188-0.1210938-0.2734375-0.1855469-0.4130859l-0.1005859-0.2192383
			c-0.3222656-0.6201172-0.2558594-1.5947256,0.1884766-2.588378l0.1054688-0.2197266
			c0.0439453-0.0927734,0.1220703-0.1645508,0.21875-0.2011719l1-0.3798828
			c0.6503906-0.2543945,1.1201172-0.1069336,1.3994141,0.0625l4.3125,2.4956045l-0.0009766,0.0019531
			c0.0292969,0.0161133,0.0556641,0.034668,0.0771484,0.0546875c0.1464844,0.1401367,0.1650391,0.3671875,0.0439453,0.5292969
			c-0.1044922,0.1391602-0.2802734,0.1918945-0.4414063,0.1416016c-0.0332031-0.0068359-0.0654297-0.0175781-0.0957031-0.0327148
			c-0.015625-0.0024414-0.1035156-0.0288086-0.1191406-0.0332031c-0.140625-0.0390625-0.3310547-0.0185547-0.5322266,0.0585938
			l-3.9013672,1.4702148C54.3931198,18.9492416,54.1558151,18.9922104,53.9282761,18.9922104z M53.7495651,18.1655502
			c0.0087891,0.0019531,0.0166016,0.0043945,0.0244141,0.0068359c0.1279297,0.043457,0.3652344,0.0180664,0.5664063-0.0556641
			l3.7177734-1.4013672l-3.1904297-1.8466787c-0.1875-0.1142578-0.4228516-0.1132813-0.7041016-0.0039063l-0.8535156,0.3242188
			l-0.0322266,0.065918c-0.3300781,0.7402344-0.4082031,1.49121-0.1943359,1.9033194l0.1074219,0.2333984
			c0.0673828,0.1464844,0.1337891,0.2900391,0.1953125,0.4335938c0.0537109,0.1254883,0.1289063,0.2211914,0.2236328,0.2841797
			l0.1015625,0.0439453C53.7241745,18.1567612,53.7368698,18.1606674,53.7495651,18.1655502z"/>
	</g>
	<g>
		<path d="M12.9341354,53.8828354c-0.0673828,0-0.1357422-0.0170898-0.1982422-0.0527344
			c-0.0058594-0.0029297-0.0107422-0.0058594-0.0166016-0.0092773l-4.3447266-2.5273438
			c-0.4941406-0.2910156-0.765625-0.8564453-0.765625-1.5922852L7.5874557,43.283226
			c-0.0107422-1.1987305,0.7304688-2.6547852,1.7626953-3.4599609l3.8740234-3.019043
			c0.6015625-0.4702148,1.0927734-1.2138672,1.3144531-1.9892578c0.09375-0.3344727,0.1884766-0.659668,0.3037109-1.0058594
			c0.2099609-0.6870117,0.1630859-1.3173828-0.1230469-1.6362305l-2.2705078-2.3930664
			c-0.6669922-0.7172852-0.5996094-2.144043,0.1591797-3.4726563l3.9267578-6.8120117
			c0.4052734-0.6914063,0.9433594-1.2548828,1.515625-1.5883789c0.4804688-0.2788086,0.9648438-0.3769531,1.4072266-0.2827148
			l3.2490234,0.7114258c0.2285156,0.0551758,0.5253906-0.012207,0.8349609-0.1923828
			c0.25-0.1499023,0.4814453-0.3374023,0.6806641-0.5537109l0.2001953-0.2148438
			c0.1259766-0.137207,0.2519531-0.2739258,0.3857422-0.4042969l0.015625-0.0302734
			c0.4111328-0.8134766,0.7451172-1.4731436,1.1503906-2.2802725l0.6601563-4.777832
			c0.1933594-1.2836914,1.0800781-2.6474609,2.1113281-3.2485352l5.5751953-3.2158206
			c0.6396484-0.3691406,1.2919922-0.418457,1.7900391-0.1347656l4.3613281,2.5366213
			c0.1904297,0.1108398,0.2558594,0.3544922,0.1455078,0.5454102s-0.3544922,0.2568359-0.5449219,0.1474609
			c-0.2441406-0.1391602-0.6044922-0.090332-0.9921875,0.1333008l-5.5751953,3.215332
			c-0.8232422,0.4790039-1.5644531,1.6274414-1.7216797,2.6699219l-0.6679688,4.838378
			c-0.0058594,0.0429688-0.0195313,0.0849609-0.0390625,0.1240234c-0.4326172,0.8671875-0.7841797,1.5585938-1.2275391,2.425293
			c-0.0195313,0.0366211-0.0439453,0.0703125-0.0732422,0.0996094c-0.2109375,0.2124023-0.4033203,0.4243164-0.6035156,0.6459961
			c-0.2568359,0.2773438-0.546875,0.5126953-0.8652344,0.703125c-0.5185547,0.293457-0.9921875,0.3857422-1.4228516,0.2827148
			l-3.2373047-0.7089844c-0.2304688-0.0556641-0.5244141,0.012207-0.8369141,0.1923828
			c-0.453125,0.2646484-0.8896484,0.7260742-1.2255859,1.2988281l-3.9238281,6.7988281
			c-0.5732422,0.9951172-0.6894531,2.0854492-0.2705078,2.5361328l2.2636719,2.3876953
			c0.4960938,0.5336914,0.6103516,1.4414063,0.3095703,2.4316406c-0.1142578,0.3442383-0.2050781,0.6577148-0.296875,0.9814453
			c-0.2685547,0.940918-0.8642578,1.8354492-1.5947266,2.394043l-3.8818359,3.0268555
			c-0.8310547,0.65625-1.4521484,1.8710938-1.4423828,2.8237305l0.0097656,6.4125977
			c0.0078125,0.4462891,0.1386719,0.7700195,0.3681641,0.90625l0.0097656,0.0058594
			c0.1904297,0.1108398,0.2558594,0.3544922,0.1455078,0.5454102C13.2065964,53.811058,13.0718307,53.8828354,12.9341354,53.8828354
			z M19.1284714,18.3896713c-0.2050781,0-0.4394531,0.0717773-0.6767578,0.2089844
			c-0.4472656,0.2607422-0.8945313,0.734375-1.2255859,1.2983398l-3.9238281,6.8085938
			c-0.5683594,0.9936523-0.6845703,2.0805664-0.2705078,2.5263672l2.2744141,2.3979492
			c0.4882813,0.5415039,0.5966797,1.4443359,0.2988281,2.4223633c-0.1142578,0.3432617-0.2050781,0.6567383-0.296875,0.980957
			c-0.2666016,0.9335938-0.8613281,1.8310547-1.5917969,2.4013672l-3.8740234,3.0195313
			c-0.8378906,0.6538086-1.4628906,1.8676758-1.4541016,2.8242188l0.0214844,6.4213867
			c0,0.4365234,0.1347656,0.7651367,0.3691406,0.9033203l3.1904297,1.855957
			c-0.0068359-0.0732422-0.0107422-0.1489258-0.0126953-0.2265625l-0.0097656-6.4155273
			c-0.0117188-1.1923828,0.7236328-2.6479492,1.7490234-3.4575195l3.8867188-3.0307617
			c0.6015625-0.4599609,1.0917969-1.1992188,1.3144531-1.9790039c0.09375-0.3339844,0.1884766-0.6591797,0.3037109-1.0058594
			c0.2080078-0.6831055,0.1582031-1.331543-0.1298828-1.6411133l-2.2636719-2.3876953
			c-0.671875-0.7231445-0.6044922-2.1542969,0.1601563-3.4838867l3.9257813-6.8017578
			c0.40625-0.6914063,0.9433594-1.2548828,1.515625-1.5878906c0.4970703-0.2875977,0.9863281-0.3842773,1.4189453-0.2797852
			l3.2373047,0.7089844c0.234375,0.0576172,0.5136719-0.0102539,0.8398438-0.1948242
			c0.2451172-0.1464844,0.4755859-0.3334961,0.6767578-0.5517578c0.1923828-0.2128906,0.3798828-0.4194336,0.5830078-0.6254883
			c0.4199219-0.8188477,0.7578125-1.4853516,1.1669922-2.3041992l0.6601563-4.7778311
			c0.1943111-1.2841797,1.0820313-2.6479492,2.1123047-3.2480469l5.5761719-3.2158203
			c0.0761719-0.043457,0.1523438-0.0830078,0.2275391-0.1176758l-3.1962891-1.858887
			c-0.2402344-0.1376953-0.6035156-0.0883789-0.9902344,0.1347659l-5.5742188,3.2148438
			c-0.8242188,0.4799805-1.5644531,1.628418-1.7207031,2.6704102l-0.6689453,4.8383789
			c-0.0058594,0.043457-0.0195313,0.0854492-0.0390625,0.1245117c-0.4189453,0.8354492-0.7587891,1.5082998-1.1806641,2.3422842
			l-0.046875,0.0908203c-0.0205078,0.0410156-0.0478516,0.0776367-0.0810547,0.109375
			c-0.1386719,0.1323242-0.2685547,0.2734375-0.3984375,0.4145508l-0.2050781,0.2202148
			c-0.2470703,0.2680664-0.5371094,0.5039063-0.8574219,0.6958008c-0.5019531,0.2910156-0.9902344,0.3876953-1.4228516,0.2827148
			l-3.2373047-0.7089844C19.2378464,18.3950424,19.1841354,18.3896713,19.1284714,18.3896713z"/>
	</g>
	<g>
		<path d="M21.8735886,66.0005112c-0.2509766,0-0.4863281-0.0600586-0.6972656-0.1801758l-3.9667969-2.2602539
			c-0.8710938-0.4780273-1.0380859-1.8144531-0.3984623-3.2470703l2.2431889-5.0009766
			c0.3447266-0.7705078,0.4160156-1.5185547,0.1904297-1.9584961l-0.1044922-0.2270508
			c-0.0585938-0.1264648-0.1181641-0.2543945-0.1748047-0.390625c-0.2011719-0.4824219-0.640625-0.4394531-0.9716797-0.3188477
			l-3.8720703,1.4643555c-0.5566406,0.2045898-1.0810547,0.1635742-1.4833984-0.1166992
			c-0.4345703-0.3022461-0.6748047-0.8466797-0.6767578-1.5332031l-0.0185547-6.4179688
			c-0.0029297-1.2036133,0.7373047-2.6567383,1.7607422-3.4545898l3.8789063-3.0273438
			c0.5957031-0.4609375,1.0976563-1.2182617,1.3115234-1.9780273c0.0917969-0.3364258,0.1923828-0.6640625,0.3046875-1.0073242
			c0.2099609-0.6796875,0.1611328-1.3271484-0.1259766-1.6430664l-2.2675781-2.3911133
			c-0.6640625-0.7211914-0.5976563-2.1484375,0.1582031-3.4755859l3.9287109-6.8056641
			c0.4072266-0.6958008,0.9462891-1.2602539,1.5195313-1.5908203c0.4912109-0.2836914,0.9794922-0.3793945,1.4101563-0.2802734
			l3.2460938,0.7119141c0.2314453,0.0512695,0.5224609-0.0180664,0.8300781-0.1953125
			c0.2304688-0.1328125,0.4648438-0.3251953,0.6787109-0.5566406l0.2421875-0.2568359
			c0.1132813-0.121582,0.2255859-0.2416992,0.3408203-0.3598633l0.0410156-0.0791016
			c0.4033203-0.7885742,0.7363281-1.4370117,1.1328125-2.2270508l0.6621094-4.7822256
			c0.1845703-1.2817383,1.0732422-2.6459961,2.1123047-3.2456055l5.5712891-3.2167969
			c0.6025391-0.3476563,1.1982422-0.4130859,1.6806641-0.1899414c0.4394531,0.2041016,0.7373047,0.6303711,0.8398438,1.2006836
			l0.6972656,4.0605469c0.0615234,0.3413086,0.2568359,0.7397461,0.7802734,0.6660156
			c0.2636719-0.0366211,0.4736328-0.0654297,0.6845703-0.0732422c0.1669922-0.0131836,0.3759766-0.0849609,0.5869141-0.2070313
			c0.3515625-0.2026367,0.6962891-0.5288086,0.9990234-0.9428711l3.2148438-4.4443359
			c0.3613281-0.5024414,0.7929688-0.9072266,1.2460938-1.1689453c0.6474609-0.3740234,1.2763672-0.4228516,1.7705078-0.1420898
			l3.9658203,2.2446289c0.8574219,0.5078125,1.0136719,1.8476563,0.3867188,3.2617188l-2.2460938,5.0229492
			c-0.3369141,0.7495117-0.4150391,1.5043936-0.2001953,1.9233389l0.0947266,0.2026367
			c0.0703125,0.1518555,0.140625,0.3012695,0.2070313,0.453125c0.2080078,0.4892578,0.6845703,0.394043,0.9501953,0.2929688
			l3.8974609-1.4633789l0,0c0.5517578-0.2080078,1.0751953-0.1669922,1.4765625,0.1103516
			c0.4384766,0.3027344,0.6806641,0.8500977,0.6826172,1.5405273l0.0185547,6.4179688
			c0.0029297,1.1933594-0.7421875,2.6489258-1.7714844,3.4604492l-3.8759766,3.0107422
			c-0.6025391,0.4785156-1.1132813,1.2587891-1.3300781,2.0336914c-0.0791016,0.2915039-0.1650391,0.5888672-0.265625,0.8950195
			c-0.2285156,0.7177734-0.1884766,1.3847656,0.1025391,1.6943359l2.2666016,2.4091797
			c0.6738281,0.7211914,0.6132813,2.1435547-0.1464844,3.4604492l-3.9414063,6.8261719
			c-0.3984375,0.6889648-0.9375,1.253418-1.5175781,1.5883789c-0.4882813,0.28125-0.9697266,0.3847656-1.4042969,0.2924805
			l-3.2441406-0.7373047c-0.21875-0.0488281-0.5126953,0.0209961-0.8173828,0.1967773
			c-0.2392578,0.1381836-0.4746094,0.3320313-0.7011719,0.5776367c-0.2304688,0.2485352-0.4228516,0.4560547-0.6289063,0.6630859
			c-0.5791016,0.5874023-0.9931641,1.4013672-1.1064453,2.1757813l-0.6767578,4.8637695
			c-0.1806641,1.2822266-1.0664063,2.6484375-2.1054688,3.2485352l-7.2167969,4.1669922
			c-0.1142578,0.0654297-0.2519531,0.0717773-0.3720703,0.0146484c-0.1191406-0.0566406-0.2021484-0.1679688-0.2236576-0.2983398
			l-0.121069-0.7631836l-0.8701172-4.9882813c-0.0458984-0.2851563-0.2128906-0.7446289-0.7666016-0.6669922
			c-0.2167969,0.03125-0.4365234,0.0561523-0.6572266,0.0722656c-0.1904297,0.0131836-0.4052734,0.0859375-0.6220703,0.2114258
			c-0.3466797,0.2001953-0.6816406,0.5175781-0.96875,0.9174805l-3.25,4.4819336
			c-0.3642578,0.4975586-0.7919922,0.8964844-1.2382813,1.1547852
			C22.5728073,65.8930893,22.2095261,66.0005112,21.8735886,66.0005112z M18.3921432,51.5405502
			c0.5888672,0,1.0712891,0.3134766,1.3115234,0.8867188c0.0527344,0.1259766,0.1083984,0.2456055,0.1621094,0.362793
			l0.0996094,0.2172852c0.3300781,0.6411133,0.2675781,1.6293945-0.1777344,2.6245117l-0.1083984,0.2548828l-2.1376953,4.753418
			c-0.4404297,0.9858398-0.4150391,1.9619141,0.0585938,2.2216797l3.9726563,2.2631836
			c0.2333984,0.1333008,0.5878906,0.0834961,0.96875-0.1376953c0.3505859-0.203125,0.6933594-0.5258789,0.9912109-0.9331055
			l3.2480469-4.4794922c0.3525391-0.4897461,0.7734375-0.8852539,1.2177734-1.1420898
			c0.3271484-0.1884766,0.6513672-0.2949219,0.9658203-0.3164063c0.1992188-0.0151367,0.4013672-0.0371094,0.6025391-0.0668945
			c0.8466797-0.1147461,1.5214844,0.418457,1.6669922,1.3271484l0.9013672,5.184082l6.7128906-3.8759766
			c0.8300781-0.4794922,1.5673828-1.6259766,1.7128906-2.6669922l0.6777344-4.8657227
			c0.1376953-0.9399414,0.6347656-1.9204102,1.3300781-2.6259766c0.2011719-0.2016602,0.3867188-0.4023438,0.5849609-0.6162109
			c0.3046875-0.3310547,0.6044922-0.5761719,0.9140625-0.7543945c0.4824219-0.2788086,0.9658203-0.3774414,1.3916016-0.284668
			l3.2402344,0.7363281c0.2216797,0.0444336,0.5224609-0.0249023,0.8330078-0.2041016
			c0.4541016-0.2617188,0.9003906-0.7338867,1.2246094-1.2954102l3.9414063-6.8261719
			c0.6230469-1.078125,0.6191406-2.1245117,0.2568359-2.5131836l-2.2666016-2.4082031
			c-0.5019531-0.5341797-0.6064453-1.4643555-0.2802734-2.4887695c0.0976563-0.2958984,0.1796875-0.5805664,0.2558594-0.8613281
			c0.2636719-0.9453125,0.8642578-1.8603516,1.6064453-2.449707l3.8769531-3.0117188
			c0.8359375-0.6591797,1.4667969-1.8759766,1.4638672-2.8286133l-0.0185547-6.4179688
			c-0.0009766-0.4145508-0.1240234-0.7368164-0.3369141-0.8842773c-0.2314453-0.1591797-0.5302734-0.0981445-0.7402344-0.0195313
			l-3.8964844,1.4628906c-0.8671875,0.3266602-1.640625,0.043457-1.9667969-0.7246094
			c-0.0625-0.1411133-0.1298828-0.2851563-0.1972656-0.4311523l-0.0898438-0.1914063
			c-0.3232422-0.6313477-0.2548828-1.6088858,0.1894531-2.6000967l2.2460938-5.0214844
			c0.4423828-0.9975586,0.4179688-1.9628906-0.0576172-2.2441406l-3.9599609-2.2412109
			c-0.2333984-0.1342773-0.5898438-0.0834961-0.9746094,0.1386719c-0.3564453,0.2060547-0.7011719,0.5327148-0.9970703,0.9443359
			l-3.2167969,4.4472656c-0.3691406,0.5048828-0.7998047,0.9072266-1.2460938,1.1650391
			c-0.3183594,0.184082-0.6357422,0.2895508-0.9423828,0.3129883c-0.2001953,0.0078125-0.3837891,0.0341797-0.578125,0.0610352
			c-0.8925781,0.1196289-1.5527344-0.3964844-1.7197266-1.3134766l-0.6972656-4.0610352
			c-0.0380859-0.2138672-0.1376953-0.4970703-0.3886719-0.6137695c-0.2382813-0.1108398-0.5820313-0.0522461-0.9433594,0.1567383
			L33.5083542,9.861352c-0.8310547,0.4799805-1.5703125,1.6254883-1.7207031,2.6650391l-0.6708984,4.8452139
			c-0.0058594,0.043457-0.0195313,0.0854492-0.0390625,0.1245117c-0.4111328,0.8193359-0.75,1.4824219-1.1650391,2.2924805
			l-0.0683594,0.1337891c-0.0195313,0.0361328-0.0429688,0.0698242-0.0722656,0.0991211
			c-0.1259766,0.1264648-0.2460938,0.2563477-0.3681641,0.3867188l-0.2441406,0.2592773
			c-0.2666016,0.2885742-0.5585938,0.5263672-0.8613281,0.7016602c-0.4902344,0.2832031-0.9755859,0.3818359-1.40625,0.2827148
			l-3.2460938-0.7119141c-0.2275391-0.0522461-0.5253906,0.0151367-0.8339844,0.1928711
			c-0.4550781,0.262207-0.890625,0.7241211-1.2275391,1.300293l-3.9267578,6.8017578
			c-0.5664063,0.9931641-0.6816406,2.0820313-0.2685547,2.5307617l2.2695313,2.3930664
			c0.4941406,0.543457,0.6044922,1.449707,0.3017578,2.4301758c-0.1103516,0.3369141-0.2070313,0.6518555-0.2958984,0.9785156
			c-0.2617188,0.9331055-0.8564453,1.828125-1.5908203,2.3959961l-3.8779297,3.0263672
			c-0.8310547,0.6479492-1.4550781,1.8608398-1.4521484,2.8217773l0.0185547,6.4179688
			c0.0009766,0.4174805,0.1191406,0.7299805,0.3330078,0.8789063c0.2324219,0.1621094,0.5341797,0.1010742,0.7470703,0.0234375
			l3.8730469-1.4648438C17.950737,51.5815659,18.1782761,51.5405502,18.3921432,51.5405502z"/>
	</g>
	<g>
		<path d="M31.7075729,64.8320541c-0.1914063,0-0.3603516-0.1367188-0.3945313-0.3310547l-0.8701172-4.9897461
			c-0.0791016-0.1933594-0.0048828-0.4580078,0.1816406-0.5527344c0.1864986-0.09375,0.4052734-0.0732422,0.5146484,0.105957
			c0.0683594,0.1118164,0.0878906,0.2250977,0.1015625,0.300293c0,0.0004883,0.0019531,0.0087891,0.0019531,0.0097656
			l0.859375,4.9897461c0.0371094,0.2172852-0.1083984,0.4243164-0.3261719,0.4619141
			C31.7524948,64.830101,31.7300339,64.8320541,31.7075729,64.8320541z M19.3081589,56.1323471
			c-0.0537109,0-0.1083984-0.0107422-0.1611328-0.0336914c-0.2001953-0.0883789-0.2919922-0.3198242-0.2080078-0.5209961
			l0.109375-0.2602539c0.0019531-0.0048828,0.0048828-0.0097656,0.0068359-0.0141602
			c0.0566406-0.1210938,0.1025391-0.2421875,0.1484375-0.3637695c0.0771484-0.2016602,0.2998047-0.3056641,0.5039063-0.2358398
			c0.2041016,0.0703125,0.3154297,0.2895508,0.2529297,0.4956055c-0.0458984,0.1469727-0.1015625,0.293457-0.1689453,0.4399414
			l-0.1201172,0.2607422C19.6040573,56.0459213,19.4595261,56.1323471,19.3081589,56.1323471z M53.9282761,18.9922104
			c-0.1113281,0-0.2119141-0.0454102-0.2841797-0.1181641c-0.0742188,0.0302734-0.15625,0.0375977-0.2460938,0.0161133
			c-0.1142578-0.0292969-0.2158203-0.0874023-0.2949219-0.1674805c-0.1464844-0.1489258-0.1533203-0.3852539-0.0166016-0.5429688
			s0.3730469-0.1831055,0.5400391-0.0581055l0.0400391,0.0297852c0.0380859,0.0200195,0.0722656,0.0449219,0.1015625,0.0742188
			c0.0498047-0.0219727,0.0820313-0.0268555,0.1621094-0.0332031c0.1162109-0.0004883,0.2578125-0.0297852,0.4091797-0.0854492
			l3.8974609-1.4589844c0.2099609-0.0776367,0.4375,0.0268555,0.5146484,0.2338867
			c0.078125,0.206543-0.0263672,0.4370117-0.2333984,0.5151367h-0.0009766l-3.8984375,1.4697266
			C54.3931198,18.9492416,54.1558151,18.9922104,53.9282761,18.9922104z M53.5972214,18.114769l-0.0419922,0.1635742
			l0.1181641-0.1162109C53.6567917,18.1450424,53.6304245,18.123558,53.5972214,18.114769z M42.5981979,12.501977
			c-0.1064453,0-0.2285156-0.0517578-0.3037109-0.1269531c-0.1142578-0.1142578-0.1484375-0.2861328-0.0859375-0.4355469
			c0.0615234-0.1499023,0.2070313-0.2470703,0.3691406-0.2470703l0.1777344-0.0170898
			c0.2080078-0.0273438,0.4013672-0.0522461,0.5947266-0.0620117c0.0791016-0.0073242,0.1757813-0.0283203,0.2890625-0.0634766
			c0.0253906-0.0078125,0.0498047-0.0126953,0.0751953-0.015625c0.0205078-0.015625,0.0429688-0.0292969,0.0664063-0.0410156
			c0.0527344-0.0258789,0.1044922-0.0517578,0.1650391-0.0859375c0.0898438-0.0546875,0.171875-0.109375,0.2626953-0.1728516
			c0.1777344-0.125,0.4208984-0.0844727,0.5498047,0.0883789c0.1298828,0.1733398,0.0976563,0.4174805-0.0712891,0.5522461
			c-0.1152344,0.0917969-0.2177734,0.1606445-0.3330078,0.2299805c-0.0947266,0.0488281-0.1621094,0.0820313-0.2402344,0.1152344
			c-0.0371094,0.015625-0.0751953,0.0253906-0.1132813,0.0297852c-0.0322266,0.0244141-0.0683594,0.0439453-0.1074219,0.0585938
			c-0.1816406,0.0654297-0.3339844,0.1000977-0.4941406,0.112793c-0.1923828,0.0092773-0.3808594,0.0361328-0.5771484,0.0629883
			l-0.1201172,0.0112305C42.6880417,12.4970942,42.6118698,12.501977,42.5981979,12.501977z"/>
	</g>
	<g>
		<path d="M30.5581589,44.6924057c-0.2207031,0-0.3994141-0.1782227-0.4003906-0.3989258l-0.0205078-9.0800781
			c0-0.2211914,0.1787109-0.4003906,0.3994141-0.4008789h0.0009766c0.2207031,0,0.3994141,0.1782227,0.4003906,0.3989258
			l0.0205078,9.0800781c0,0.2211914-0.1787109,0.4003906-0.3994141,0.4008789H30.5581589z"/>
	</g>
	<g>
		<path d="M29.8013229,35.8340073c-0.2275391,0-0.4404297-0.0546875-0.6318359-0.1650391
			c-0.4394531-0.253418-0.6855469-0.7548828-0.6923828-1.4125977c0-1.2070313,0.8173828-2.6196289,1.8613281-3.2207031
			c0.5742188-0.3310547,1.1347656-0.3730469,1.5751953-0.1210938c0.4414063,0.2524414,0.6875,0.7543945,0.6943359,1.4135742
			c0,0.0014648,0,0.0024414,0,0.0039063c0,1.1879883-0.7968998,2.5805664-1.8212891,3.1938477
			c-0.0166016,0.0126953-0.0341797,0.0244141-0.0517578,0.034668
			C30.4126511,35.7426987,30.0952682,35.8340073,29.8013229,35.8340073z M31.2856979,31.5537338
			c-0.1582031,0-0.3466797,0.059082-0.5478516,0.175293c-0.7919922,0.4555664-1.4599609,1.6113281-1.4599609,2.5234375
			c0.0029297,0.3535156,0.109375,0.6191406,0.2910156,0.7236328c0.1738281,0.1020508,0.4433594,0.0664063,0.7412109-0.0952148
			c0.0126953-0.0087891,0.0253906-0.0170898,0.0380859-0.0244141v-0.0009766
			c0.7900391-0.4555664,1.4589844-1.6098633,1.4589844-2.5219727c-0.0029297-0.3569336-0.109375-0.6206055-0.2900391-0.7241211
			C31.4517136,31.5718002,31.3735886,31.5537338,31.2856979,31.5537338z"/>
	</g>
	<g>
		<path d="M36.1675339,41.4624252c-0.2197266,0-0.3994141-0.1777344-0.4003906-0.3984375l-0.0195313-4.8203125
			c-0.0009766-0.2211914,0.140625-0.3852539,0.4003906-0.4013672c0.2197266,0,0.3994141,0.1777344,0.4003906,0.3984375
			l0.0195313,4.8203125c0.0009766,0.2207031-0.1777344,0.4003906-0.3984375,0.4013672
			C36.1685104,41.4624252,36.1685104,41.4624252,36.1675339,41.4624252z"/>
	</g>
	<g>
		<path d="M36.1372604,32.842308c-0.2207031,0-0.3994141-0.1782227-0.4003906-0.3984375l-0.0097656-3.0400391
			c0-0.2211914,0.1777344-0.4008789,0.3994141-0.4013672h0.0009766c0.2207031,0,0.3994141,0.1782227,0.4003906,0.3984375
			l0.0097656,3.0400391c0,0.2211914-0.1777344,0.4008789-0.3994141,0.4013672H36.1372604z"/>
	</g>
	<g>
		<path d="M35.4067917,36.873558c-0.2265625,0-0.4404297-0.0546875-0.6318359-0.1650391
			c-0.4414063-0.2539063-0.6855469-0.7548828-0.6875-1.4106445c-0.0029297-1.2001953,0.8125-2.612793,1.8564453-3.2158203
			c0.5742188-0.3300781,1.1337891-0.3735352,1.5791016-0.1181641c0.4414063,0.2539063,0.6855469,0.7558594,0.6875,1.4130859
			c0.0029297,1.1992188-0.8115234,2.6108398-1.8554688,3.2128906v0.0004883
			C36.0278854,36.7788315,35.7056198,36.873558,35.4067917,36.873558z M36.1548386,36.2436752h0.0097656H36.1548386z
			 M36.8901901,32.6006088c-0.1582031,0-0.3466797,0.059082-0.5458984,0.1743164
			c-0.7919922,0.4570313-1.4589844,1.6113281-1.4560547,2.5209961c0.0009766,0.3530273,0.1044922,0.6152344,0.2851563,0.7192383
			c0.1835938,0.1049805,0.4677734,0.0639648,0.78125-0.1181641c0.7919922-0.456543,1.4580078-1.6098633,1.4550781-2.5180664
			c-0.0009766-0.3544922-0.1054688-0.6171875-0.2861328-0.7216797
			C37.0571823,32.6191635,36.9780807,32.6006088,36.8901901,32.6006088z"/>
	</g>
	<g>
		<path d="M41.7681198,35.7319565c-0.2207031,0-0.3994141-0.1782227-0.4003906-0.3984375l-0.0302734-9.159668
			c0-0.2211914,0.1777344-0.4008789,0.3994141-0.4013672h0.0009766c0.2207031,0,0.3994141,0.1782227,0.4003906,0.3984375
			l0.0302734,9.159668c0,0.2211914-0.1777344,0.4008789-0.3994141,0.4013672H41.7681198z"/>
	</g>
	<g>
		<path d="M41.013237,39.7837143c-0.2265625,0-0.4404297-0.0546875-0.6318359-0.1650391
			c-0.4414063-0.2539063-0.6855469-0.7548828-0.6875-1.4106445c-0.0029297-1.2001953,0.8125-2.612793,1.8564453-3.2158203
			c0.5732422-0.3300781,1.1357422-0.3735352,1.578125-0.1176758c0.4423828,0.2539063,0.6865234,0.7558594,0.6884766,1.4130859
			c0.0029297,1.1982422-0.8115234,2.609375-1.8554688,3.2124023c0,0,0,0,0,0.0004883
			C41.6343307,39.6889877,41.3120651,39.7837143,41.013237,39.7837143z M41.7612839,39.1538315h0.0097656H41.7612839z
			 M42.4956589,35.5112534c-0.1572266,0-0.3457031,0.0585938-0.5449219,0.1738281
			c-0.7919922,0.4570313-1.4589844,1.6113281-1.4560547,2.5209961c0.0009766,0.3530273,0.1044922,0.6152344,0.2851563,0.7192383
			c0.1855469,0.1064453,0.46875,0.0634766,0.78125-0.1181641c0.7919922-0.4570313,1.4580078-1.6098633,1.4550781-2.5175781
			c-0.0009766-0.3544922-0.1054688-0.6176758-0.2861328-0.7216797
			C42.6636276,35.529808,42.5845261,35.5112534,42.4956589,35.5112534z"/>
	</g>
	<g>
		<path d="M30.669487,51.4282455c-1.2412109,0-2.390625-0.2900391-3.40625-0.875
			c-2.4384766-1.402832-3.7871094-4.3217773-3.7988281-8.2197266c-0.0214844-7.9106445,5.5625-17.5810547,12.4482422-21.5566406
			c3.421875-1.9760742,6.6591797-2.2841797,9.1171875-0.8710938c2.4414063,1.4047852,3.7919922,4.3305664,3.8037109,8.2387695
			c0.0224609,7.9003906-5.5585938,17.5610352-12.4404297,21.5351563l0,0
			C34.3814011,50.8418198,32.4331589,51.4282455,30.669487,51.4282455z M41.6245651,19.8325424
			c-1.6201172,0-3.4287109,0.5498047-5.3115234,1.6367188c-6.6650391,3.8481445-12.0693359,13.2070313-12.0478516,20.8623047
			c0.0097656,3.6000977,1.2167969,6.2739258,3.3974609,7.5283203c2.2011719,1.2675781,5.1611328,0.956543,8.3300781-0.8725586l0,0
			c6.6611328-3.8466797,12.0625-13.1953125,12.0400391-20.8408203c-0.0097656-3.6103516-1.2177734-6.2910156-3.4013672-7.546875
			C43.7407761,20.086937,42.7261276,19.8325424,41.6245651,19.8325424z M36.1929245,49.333519h0.0097656H36.1929245z"/>
	</g>
</g>
</svg>