<?xml version="1.0" encoding="utf-8"?>
<!-- Generator: Adobe Illustrator 22.0.1, SVG Export Plug-In . SVG Version: 6.00 Build 0)  -->
<svg version="1.1" id="Layer_1" xmlns="http://www.w3.org/2000/svg" xmlns:xlink="http://www.w3.org/1999/xlink" x="0px" y="0px"
	 viewBox="0 0 68 68" style="enable-background:new 0 0 68 68;" xml:space="preserve">
<style type="text/css">
	.st0{enable-background:new    ;}
</style>
<g>
	<g>
		<path d="M7.5229607,29.468771c-0.0683594,0-0.1367188-0.0170898-0.2001953-0.0532227
			c-0.0029297-0.0019531-0.0058594-0.003418-0.0087891-0.0053711l-3.0800781-1.7792969
			c-1.4404297-0.8295898-2.234375-2.534668-2.234375-4.8012695C1.988781,18.3100796,5.1909294,12.7871313,9.138195,10.5190649
			c2.0097656-1.1499023,3.9130859-1.3188477,5.3574219-0.4814453l3.0898438,1.7958984
			c0.1904297,0.1108398,0.2558594,0.3554688,0.1445313,0.5463867c-0.1113281,0.1914063-0.3574219,0.2563477-0.5458984,0.1455078
			c-1.1992188-0.6953125-2.8183594-0.5234375-4.5576172,0.4814453c-3.7265625,2.1474609-6.7480469,7.3583975-6.7363281,11.6171865
			c0,1.9580078,0.6474609,3.4111328,1.8251953,4.0942383l0.0078125,0.0043945
			c0.1914063,0.1103516,0.2568359,0.3549805,0.1464844,0.5458984C7.7954216,29.3969936,7.660656,29.468771,7.5229607,29.468771z
			 M12.46632,10.3134985c-0.8876953,0-1.8857422,0.3022461-2.9306641,0.8994141
			c-3.7236328,2.1401367-6.7460938,7.3510733-6.7353516,11.6157217c0,1.9692383,0.6503906,3.4282227,1.8330078,4.109375
			l1.0195313,0.5888672c-0.3691406-0.8061523-0.5634766-1.7856445-0.5634766-2.9018555
			C5.0776482,20.1118374,8.27882,14.5884008,12.2260857,12.3139868c1.0029297-0.5786133,1.9804688-0.909668,2.890625-0.9902344
			l-1.0224609-0.5942383C13.6147575,10.4516821,13.0659294,10.3134985,12.46632,10.3134985z"/>
	</g>
	<g>
		<path d="M9.2915154,29.9394741c-0.0019531,0-0.0039063,0-0.0048828,0
			c-2.5380859-0.0336914-4.1845703-2.1210938-4.1953125-5.3183594c-0.0205078-4.5141602,3.1826172-10.0361319,7.140625-12.3081045
			c1.7929688-1.0288086,3.5429688-1.2744141,4.9238281-0.6933594c1.1914063,0.5,2.0253906,1.5512695,2.4121094,3.0395508
			c0.0380859,0.1430664-0.0068359,0.2954102-0.1162109,0.3955078s-0.2636719,0.1318359-0.4042969,0.0820313
			c-0.6152344-0.21875-1.4238281-0.4770508-2.2265625-0.5380859c-0.0390625-0.0029297-0.0761719-0.0117188-0.1123047-0.0249023
			l-0.0966797-0.0078125c-0.0751953-0.0078125-0.1503906-0.0161133-0.2304688-0.0161133
			c-0.7480469,0.0180664-1.5976563,0.2875977-2.4863281,0.7797852c-3.34375,1.9487295-6.0683594,6.5200186-6.1943359,10.4033194
			c0.0009766,0.1020508,0.0078125,0.2006836,0.0253906,0.2993164c0.0390625,0.2241211,0.0927734,0.4140625,0.1601563,0.5639648
			c0.1582031,0.4082031,0.3769531,0.7670898,0.5507813,1.0361328c0.2109375,0.3256836,0.4423828,0.6445313,0.6748047,0.9643555
			c0.171875,0.2373047,0.34375,0.4750977,0.5097656,0.7167969c0.0839844,0.1230469,0.0927734,0.2832031,0.0224609,0.4150391
			C9.5747185,29.8584194,9.4389763,29.9394741,9.2915154,29.9394741z M15.5581169,12.1103735
			c-0.8925781,0-1.8945313,0.3027344-2.9277344,0.8959961c-3.7353516,2.1445313-6.7587891,7.3535147-6.7382813,11.6113272
			c0.0068359,2.3574219,0.9589844,3.9648438,2.5380859,4.4023438c-0.2285156-0.315918-0.4560547-0.6313477-0.6650391-0.9526367
			c-0.1953125-0.3022461-0.4414063-0.706543-0.6171875-1.1635742c-0.0859375-0.1904297-0.1601563-0.4448242-0.2109375-0.7353516
			c-0.0234375-0.1430664-0.0361328-0.2836914-0.0361328-0.4487305c0.1347656-4.144043,3.0332031-9.0078125,6.5996094-11.0859365
			c1.0078125-0.5581055,1.984375-0.8623047,2.8310547-0.8837891c0.0009766,0,0.0019531,0,0.0029297,0
			c0.1552734,0,0.2568359,0.0097656,0.3574219,0.0195313l0.1191406,0.0112305
			c0.0322266,0.0024414,0.0712891,0.0107422,0.1113281,0.0234375c0.5673828,0.046875,1.1240234,0.1767578,1.6220703,0.3251953
			c-0.3681641-0.8505859-0.9462891-1.456543-1.6982422-1.7724609C16.4536247,12.1924047,16.020031,12.1103735,15.5581169,12.1103735
			z"/>
	</g>
	<g>
		<path d="M47.8921013,58.4868393c-0.9238281,0-1.8066406-0.3349609-2.5927734-0.6333008
			c-4.53125-1.6870117-9.0458984-3.375-13.5703125-5.081543c-0.5380859,0.5698242-1.4394531,0.793457-2.5830078,0.6337891
			c-0.2011719-0.0083008-0.4306641-0.0424805-0.6464844-0.0986328c-0.6464844-0.1333008-1.2617188-0.2866211-1.8613281-0.4638672
			c-0.3808594-0.097168-0.7539215-0.2177734-1.1279297-0.3486328c-0.0439453-0.0087891-0.0869141-0.019043-0.1083984-0.0273438
			c-0.4619141-0.1635742-0.8896484-0.3266602-1.296875-0.4995117C23.9604607,51.911644,23.87257,51.876976,23.770031,51.821312
			c-0.4013672-0.1665039-0.8300781-0.3598633-1.2578125-0.5737305c-4.8964844-2.3657227-8.9697266-6.2626953-11.4648438-10.9702148
			c-0.5175781-0.9873047-1.0625-2.1630859-1.1933594-3.4160156c-0.0839844-0.8071289-0.0048828-1.6176758,0.0722656-2.4013672
			c0.1044922-1.0605469,0.203125-2.0625-0.0869141-3.001955c-0.1240234-0.3803711-0.3027344-0.7612305-0.5605469-1.1928711
			c-0.2539063-0.4243164-0.5537109-0.8388672-0.8447266-1.2402344c-0.2294922-0.3173828-0.4580078-0.6337891-0.6689453-0.9575195
			c-0.1953125-0.3022461-0.4414063-0.706543-0.6171875-1.1635742c-0.0859375-0.1904297-0.1601563-0.4448242-0.2109375-0.7353516
			c-0.0234375-0.1430664-0.0361328-0.2836914-0.0361328-0.4487305c0.1347656-4.144043,3.0332031-9.0078125,6.5996094-11.0859365
			c1.0078125-0.5581055,1.984375-0.8623047,2.8310547-0.8837891c0.0009766,0,0.0019531,0,0.0029297,0
			c0.1552734,0,0.2568359,0.0097656,0.3574219,0.0195313l0.1191406,0.0112305
			c0.0322266,0.0024414,0.0712891,0.0107422,0.1113281,0.0234375c1.2118988,0.1015625,2.3476563,0.5498047,3.4453125,0.9833984
			c3.3417969,1.3359365,6.7734375,2.7084951,9.8398438,4.675292c2.5839844,1.6552734,4.8916016,3.737793,7.1230469,5.7514648
			c0.0947266,0.0859375,0.1474609,0.2158203,0.1347656,0.3427734c-0.0136719,0.1269531-0.0820313,0.2441406-0.1923828,0.3085938
			L26.6020622,32.055687c-0.9414063,0.5512695-1.4599609,1.2636719-1.4599609,2.0039063l-0.0107422,4.3710938
			c-0.0087891,0.7490234,0.5371094,1.487793,1.4970703,2.0307617c2.1396484,1.2368164,5.6074219,1.2363281,7.7314453,0.0024414
			l12.8398438-7.4599609c0.1230469-0.0717773,0.2734375-0.0727539,0.3964844-0.003418
			c0.5664063,0.3164063,1.1357422,0.6269531,1.7050781,0.9375c2.6572266,1.4501953,5.4052734,2.9492188,7.7148438,4.9916992
			c1.4208984,1.2485352,2.0908203,2.4379883,2.0449219,3.6352539c-0.0234375,0.6450195-0.3779297,1.3046875-0.9472656,1.7636719
			c-0.1386719,0.1118164-0.2841797,0.2070313-0.4326172,0.2841797c1.2841797,0.7485352,2.4472656,1.6708984,3.4707031,2.7519531
			c1.1386719,1.2124023,1.5595703,2.3886719,1.21875,3.4023438c0,0.0014648-0.0009766,0.0029297-0.0009766,0.0039063
			c-0.2236328,0.6425781-0.8056641,1.1235352-1.5556641,1.2856445c-0.3613281,0.0795898-0.7255859,0.0771484-1.0615234,0.0004883
			c0.1552734,0.9956055-0.1835938,2.1162109-0.9423828,2.8500977c-1.0224609,0.9589844-2.5830078,1.3286133-4.1806641,0.9941406
			c-1.109375-0.2250977-2.1054688-0.7338867-3.0224609-1.3125c0.0107422,0.7573242-0.2285156,1.5429688-0.6933594,2.2246094
			c-0.6679688,0.9790039-1.7070313,1.6015625-2.7793121,1.6655273
			C48.0532341,58.4843979,47.9721794,58.4868393,47.8921013,58.4868393z M31.6010857,51.8999252
			c0.0478516,0,0.1054688,0.0087891,0.1513672,0.0258789c4.609375,1.7392578,9.2089844,3.4594727,13.828125,5.1787109
			c0.78125,0.2963867,1.6601563,0.6313477,2.5039063,0.5761719c0.8291016-0.0493164,1.6386719-0.5419922,2.1679688-1.3178711
			c0.5273438-0.7729492,0.6914063-1.699707,0.4384766-2.4794922c-0.0498047-0.1533203-0.0019531-0.3217773,0.1201172-0.4267578
			c0.1210938-0.1049805,0.2939453-0.1279297,0.4394531-0.0546875c1.1162109,0.7558594,2.2626953,1.456543,3.5400391,1.7158203
			c1.3261719,0.2783203,2.6513672-0.0239258,3.4677734-0.7895508c0.7822266-0.7568359,0.9765625-2.0541992,0.4287109-2.8886719
			c-0.1142578-0.1733398-0.0771484-0.4042969,0.0849609-0.5327148c0.1601563-0.1289063,0.3945313-0.1137695,0.5380859,0.0371094
			c0.2988281,0.3125,0.8222656,0.4423828,1.3349609,0.3310547c0.4746094-0.1025391,0.8359375-0.3886719,0.96875-0.7651367
			c0.3017578-0.9047852-0.4013672-1.9111328-1.0449219-2.5961914c-1.2138672-1.2832031-2.6386719-2.331543-4.234375-3.1152344
			c-0.1787109-0.0878906-0.265625-0.2939453-0.203125-0.4833984c0.0615234-0.1889648,0.2363281-0.3056641,0.4501953-0.2695313
			c0.3125,0.0581055,0.6982422-0.0722656,1.0302734-0.3393555c0.3857422-0.3110352,0.6347656-0.7597656,0.6503906-1.1713867
			c0.0351563-0.9414063-0.5449219-1.9243164-1.7744141-3.0048828c-2.2441406-1.9833984-4.9511719-3.4609375-7.5703125-4.8896484
			c-0.5048828-0.2753906-1.0097656-0.5507813-1.5126953-0.8305664l-12.6425781,7.3457031
			c-2.3466797,1.3623047-6.1728516,1.362793-8.53125,0.0004883c-1.2177734-0.6884766-1.9121094-1.6845703-1.9003906-2.7304688
			l0.0107422-4.3666992c0-1.0351563,0.6601563-1.9921875,1.8574219-2.6943378l10.1972656-5.9155273
			c-2.0888672-1.8828125-4.2460938-3.7915039-6.6201172-5.3120117c-3.0019531-1.9257813-6.3984375-3.2841797-9.6835938-4.5976553
			c-1.0732422-0.4238281-2.1650391-0.8549805-3.2724609-0.9404297c-0.0380859-0.0029297-0.0751953-0.0117188-0.1113281-0.0249023
			l-0.0966797-0.0078125c-0.0751953-0.0078125-0.1503906-0.0161133-0.2304688-0.0161133
			c-0.7480469,0.0180664-1.5976563,0.2875977-2.4863281,0.7797852c-3.34375,1.9487295-6.0683594,6.5200186-6.1943359,10.4033194
			c0.0009766,0.1020508,0.0078125,0.2006836,0.0253906,0.2993164c0.0390625,0.2241211,0.0927734,0.4140625,0.1601563,0.5639648
			c0.1582031,0.4082031,0.3769531,0.7670898,0.5507813,1.0361328c0.2021484,0.3120117,0.4238281,0.6171875,0.6455078,0.9238281
			c0.3007813,0.4150391,0.6113281,0.8442383,0.8828125,1.2983398c0.2851563,0.4780273,0.4941406,0.9233398,0.6367188,1.3618164
			c0.3388672,1.099123,0.2275391,2.2290058,0.1201172,3.3217793c-0.0732422,0.7441406-0.1484375,1.5136719-0.0732422,2.2402344
			c0.1171875,1.1181641,0.625,2.2075195,1.1064453,3.1259766c2.4150391,4.5566406,6.3613281,8.3305664,11.109375,10.625
			c0.4169922,0.2084961,0.8300781,0.3950195,1.2509766,0.5717773c0.1054688,0.0546875,0.1640625,0.0766602,0.2236328,0.0996094
			c0.4716797,0.1977539,0.8837891,0.3549805,1.296875,0.5019531c0.0449219,0,0.0751953,0.0146484,0.1181641,0.0297852
			c0.3583984,0.1259766,0.7167969,0.2426758,1.0957031,0.3393555c0.5927734,0.1748047,1.1875,0.3232422,1.8320313,0.456543
			c0.1826172,0.046875,0.3564453,0.0732422,0.5390625,0.0820313c0.6630707,0.0922852,1.5087891,0.0864258,1.9707031-0.4355469
			l0.3671875,0.1806641l-0.2695313-0.3061523C31.3657341,51.9546127,31.4799919,51.8999252,31.6010857,51.8999252z
			 M61.9917107,50.6396713h0.0097656H61.9917107z"/>
	</g>
	<g>
		<path d="M59.0229607,51.6191635c-0.1210938,0-0.2402344-0.0546875-0.3193359-0.1582031
			c-0.0322266-0.0415039-3.3583984-4.2475586-18.3779297-9.7529297c-0.2070313-0.0761719-0.3134766-0.3056641-0.2382813-0.5131836
			c0.0761719-0.2080078,0.3046875-0.3149414,0.5136719-0.237793c15.3203125,5.6152344,18.609375,9.8461914,18.7421875,10.0239258
			c0.1318359,0.1762695,0.0957031,0.425293-0.0800781,0.5581055C59.1909294,51.5932846,59.106945,51.6191635,59.0229607,51.6191635z
			"/>
	</g>
	<g>
		<path d="M51.0786247,54.1645737c-0.1328125,0-0.2626953-0.0664063-0.3388672-0.1865234
			c-0.0283203-0.0454102-3.0351563-4.609375-15.7705078-9.277832c-0.2070313-0.0761719-0.3134766-0.3056641-0.2382813-0.5131836
			c0.0761719-0.2084961,0.3027344-0.3149414,0.5136719-0.237793c13.0517578,4.7841797,16.0517578,9.409668,16.1738281,9.6044922
			c0.1162109,0.1865234,0.0595703,0.4321289-0.1269531,0.5493164
			C51.2251091,54.1445541,51.1518669,54.1645737,51.0786247,54.1645737z"/>
	</g>
	<g>
		<path d="M56.5385857,44.8530502c-0.0878906,0-0.1767578-0.0288086-0.2509766-0.0883789
			c-0.0625-0.0507813-6.3671875-5.0849609-12.9912109-6.7285156c-0.2138672-0.0532227-0.3447266-0.2700195-0.2919922-0.484375
			c0.0537109-0.2138672,0.2685547-0.3481445,0.4853516-0.2919922c6.7978516,1.6870117,13.2353516,6.8300781,13.2998047,6.8818359
			c0.171875,0.1386719,0.1992188,0.390625,0.0605469,0.5625C56.7710075,44.802269,56.6547966,44.8530502,56.5385857,44.8530502z"/>
	</g>
	<g>
		<path d="M31.488781,52.8442612c-0.0947266,0-0.1894531-0.0332031-0.265625-0.1010742
			c-0.1650391-0.1464844-0.1796875-0.3994141-0.0332031-0.5644531c0.0175781-0.0195313,0.0341797-0.0405273,0.0507813-0.0620117
			c0.1777344-0.9633789,0.0751953-2.1938477-0.2753906-3.2412109c-0.3642578-1.0068359-0.9912109-1.9765625-1.8623047-2.8720703
			c-0.8427734-0.8881836-1.8330078-1.5551758-2.7792969-2.1445313c-0.1962891-0.0961914-0.4199219-0.2158203-0.6435547-0.3349609
			c-0.3076172-0.1645508-0.6142578-0.3286133-0.9316406-0.4760742l-0.125-0.0546875
			c-1.4160156-0.6137695-2.5-1.6523438-3.0537109-2.9243164c-0.2783203-0.6147461-0.6484375-1.765625-0.0839844-2.7666016
			c0.1103516-0.1923828,0.3564453-0.2597656,0.5449219-0.1513672c0.1923828,0.1083984,0.2607422,0.3525391,0.1523438,0.5449219
			c-0.3916016,0.6928711-0.1005859,1.565918,0.1074219,2.0249023c0.4853516,1.1147461,1.4228516,2.0058594,2.6513672,2.5385742
			l0.1347656,0.059082c0.3398438,0.1577148,0.6601563,0.328125,0.9804688,0.5
			c0.2177734,0.1157227,0.4345703,0.2324219,0.6572266,0.3432617c0.9755859,0.605957,2.0615234,1.3349609,2.9658203,2.2875977
			c0.9472656,0.9746094,1.6347656,2.0400391,2.0410156,3.1635742c0.4140625,1.2402344,0.5185547,2.6469727,0.2822266,3.7724609
			c-0.0185547,0.0878906-0.0644531,0.1635742-0.1279297,0.2192383c-0.0292969,0.0366211-0.0576172,0.0722656-0.0878906,0.1054688
			C31.7085075,52.798851,31.5991325,52.8442612,31.488781,52.8442612z"/>
	</g>
	<g>
		<path d="M29.1928825,53.4199448c-0.0097656,0-0.0195313-0.0004883-0.0302734-0.0009766
			c-0.2197266-0.0166016-0.4375-0.0498047-0.6552734-0.1005859c-2.0703125-0.4306641-4.0908203-1.1269531-5.9951172-2.0673828
			c-0.1767578-0.0874023-0.2636719-0.2900391-0.2050781-0.4780273c0.0625-0.1992188,0.1503906-0.3803711,0.2412109-0.5625
			l0.0839844-0.1728516c0.1738281-0.3676758,0.3583984-0.6337891,0.5791016-0.8378906
			c0.2060547-0.2060547,0.4541016-0.3359375,0.6689453-0.4345703c0.9453125-0.4042969,2.1123047-0.3735352,3.4726563,0.0913086
			c0.4023438,0.1391602,0.8291016,0.3061523,1.2275391,0.581543c0.3193359,0.230957,0.7285156,0.6191406,0.9023438,1.1835938
			c0.078125,0.2314453,0.0908203,0.4794922,0.1025391,0.6987305l0.0068359,0.1240234
			c0.0302734,0.5273438,0.0625,1.0703125-0.0019531,1.6220703C29.5659294,53.2695541,29.3940544,53.4199448,29.1928825,53.4199448z
			 M23.200695,50.6958237c1.7460938,0.8286133,3.5869141,1.4477539,5.4775391,1.8413086
			c0.0498047,0.0112305,0.0986328,0.0214844,0.1464844,0.0307617c0.0117188-0.3500977-0.0097656-0.7050781-0.03125-1.074707
			l-0.0068359-0.1308594c-0.0097656-0.1845703-0.0195313-0.3588867-0.0644531-0.4956055
			c-0.0888672-0.284668-0.3017578-0.5571289-0.6035156-0.7753906c-0.2949219-0.2041016-0.6240234-0.3393555-1.0263672-0.4785156
			c-1.1640625-0.3984375-2.1367188-0.4379883-2.8876953-0.1166992c-0.1474609,0.0683594-0.3115234,0.1533203-0.4394531,0.2807617
			c-0.1542969,0.1430664-0.2802734,0.3305664-0.4091797,0.6020508l-0.0917969,0.1875
			C23.2436638,50.6093979,23.2221794,50.6523666,23.200695,50.6958237z"/>
	</g>
	<g>
		<path d="M47.2114372,23.6396694c-0.0615234,0-0.1220703-0.0136719-0.1787109-0.0419922
			c-0.1201172-0.0600586-0.2021484-0.1767578-0.21875-0.3100586l-0.4599609-3.8300781
			c-0.0400391-0.3339844,0.1464844-0.6533203,0.4990234-0.8549805l7.1972656-4.17871
			c0.0722656-0.0410156,0.0957031-0.0717773,0.1005859-0.0810547c0.0039063-0.2177734,0.1816406-0.3930664,0.4003906-0.3930664l0,0
			c0.2207031,0,0.4003906,0.1791992,0.4003906,0.3999023c0,0.0004883,0,0.0004883,0,0.0009766l-0.0097656,4.3901358
			c0,0.1699219-0.0644531,0.4956055-0.4902344,0.7592773l-7.0390625,4.0859375
			C47.3501091,23.621603,47.2807732,23.6396694,47.2114372,23.6396694z M54.1499138,15.2910376l-6.8974609,4.0043936
			c-0.0742188,0.0424805-0.1015625,0.0800781-0.1054688,0.0898438l0.3886719,3.2041016l6.5048828-3.7758789
			c0.0693359-0.0429688,0.0996094-0.0820313,0.1035156-0.0927734L54.1499138,15.2910376z"/>
	</g>
	<g>
		<path d="M39.6713219,23.759779v0.0600586c-0.0200195,0.1298828-0.130127,0.2600098-0.2900391,0.3598633l-0.329834,0.1900635
			l0.0097656-3.0198975c0,0.75,0.1901855,1.5098877,0.5700684,2.2299805
			C39.6613121,23.6397839,39.6713219,23.6997204,39.6713219,23.759779z"/>
		<path d="M39.051281,24.7695522c-0.0693359,0-0.1386719-0.0180664-0.2011719-0.0541992
			c-0.1230469-0.0717773-0.1992188-0.2041016-0.1992188-0.347168l0.0097656-3.0200195
			c0.0009766-0.2202148,0.1796875-0.3984375,0.4003906-0.3984375c0,0,0,0,0.0009766,0
			c0.2207031,0.0004883,0.3994141,0.1791992,0.3994141,0.3999023c0,0.6967773,0.1757813,1.3842773,0.5234375,2.043457
			c0.0595703,0.1171875,0.0869141,0.2348633,0.0869141,0.3666992v0.0600586
			c-0.0439453,0.3061523-0.2119141,0.5322266-0.4785156,0.6992188l-0.3427734,0.1972656
			C39.1889763,24.7519741,39.1206169,24.7695522,39.051281,24.7695522z M39.4536247,23.7597866h0.2177734l-0.2177734-0.0048828
			V23.7597866z"/>
	</g>
	<g>
		<g>
			<path d="M52.3735466,33.8510971c-1.2880859,0-2.5878906-0.1074219-3.859375-0.328125
				c-0.2744141-0.0478516-0.578125-0.0097656-0.7685547,0.1015625c-0.1230469,0.0732422-0.2753906,0.0737305-0.4013672,0.0024414
				c-0.1240234-0.0717773-0.2011719-0.2045898-0.2011719-0.3481445l0.0097656-4.3872089
				c0.0009766-0.1416016,0.0761719-0.2724609,0.1982422-0.34375c0.3544922-0.2089844,0.8476563-0.2827148,1.3105469-0.2001953
				c4.578125,0.7939453,9.515625,0.078125,12.8759766-1.8676758c2.3486328-1.3725586,3.6503944-3.1679688,3.6621132-5.0556641
				v-0.0063477l0,0c0.0019531-0.2216797,0.1875-0.3994141,0.4023438-0.3979492
				c0.2207031,0.0009766,0.3994141,0.1806641,0.3984375,0.4018555l0,0c0,0.0004883,0,0.0004883,0,0.0009766l-0.0195313,4.3862305
				c0,2.1870117-1.4433594,4.2265625-4.0625038,5.7412109C59.3442497,33.045433,55.8999138,33.8510971,52.3735466,33.8510971z
				 M48.2729607,32.7011948c0.1269531,0,0.2548828,0.0112305,0.3808594,0.0341797
				c4.5712891,0.793457,9.5039063,0.0742188,12.8632813-1.876955c2.3623047-1.3662109,3.6630898-3.1601563,3.6630898-5.0512695
				l0.0078125-1.6342773c-0.6816406,1.1191406-1.7802773,2.1411133-3.2480507,2.9985352
				c-3.5166016,2.0371094-8.65625,2.7900391-13.4169922,1.9638672c-0.1933594-0.0336914-0.3984375-0.0249023-0.5703125,0.0214844
				l-0.0078125,3.5703144C48.051281,32.7099838,48.1616325,32.7011948,48.2729607,32.7011948z"/>
		</g>
		<g>
			<path d="M30.5014763,42.180687c-1.5449219,0-3.0917969-0.3408203-4.2724609-1.0214844
				c-1.2177734-0.6943359-1.9101563-1.6894531-1.9003906-2.7285156l0.0097656-4.3842773
				c0.0009766-0.2207031,0.1796875-0.3989258,0.4003906-0.3989258l0,0c0.2207031,0,0.4003906,0.1791992,0.4003906,0.3999023
				c0,0.7431641,0.5458984,1.4833984,1.4980469,2.03125c2.140625,1.2333984,5.6123047,1.2338867,7.7412109,0.0004883
				l12.9755859-7.5292988c0.125-0.0712891,0.2763672-0.0722656,0.4013672,0
				c0.1240234,0.0712891,0.2001953,0.2041016,0.2001953,0.347168l-0.0097656,4.3774433
				c-0.0009766,0.1420898-0.0761719,0.2734375-0.1992188,0.3447266L34.7612419,41.158226
				C33.5893669,41.8398666,32.0463982,42.180687,30.5014763,42.180687z M25.1342735,35.9087143l-0.0048676,2.5268555
				c-0.0078125,0.7436523,0.5380859,1.4824219,1.4980469,2.0292969c2.1416016,1.2358398,5.609375,1.2358398,7.7314453,0.0019531
				l12.7871094-7.4238281l0.0078125-3.4516621l-12.3740234,7.1801777c-2.3896484,1.3828125-6.140625,1.3842773-8.5419922,0.0004883
				C25.7993279,36.5195541,25.4292107,36.2280502,25.1342735,35.9087143z"/>
		</g>
		<g>
			<path d="M30.5122185,37.7959213c-1.5449219,0-3.0927734-0.340332-4.2734375-1.0209961
				c-1.2236328-0.7060547-1.8984375-1.6713867-1.9003906-2.7172852c-0.0009766-1.0380859,0.6621094-1.9951172,1.8662109-2.6943378
				l12.9755859-7.5336914c0.0683594-0.0395508,0.09375-0.0751953,0.0976563-0.0844727
				c-1.5244141-2.8920898-0.2089844-6.0126953,3.4316406-8.1269522c2.8867188-1.6757813,6.8662109-2.5004883,10.9345703-2.265625
				c0.3007813,0.0180664,0.5761719,0.0947266,0.7958984,0.222168c0.3232422,0.1860352,0.5097656,0.4697266,0.5097656,0.7773438
				c0.0009766,0.1762695-0.0634766,0.5092773-0.4980469,0.7617188l-7.2001953,4.1801748
				c-0.0859375,0.0498047-0.1025391,0.0883789-0.1035156,0.0888672l0.5195313,4.3383789v-0.0004883
				c0.0048828,0,0.0361328,0.0385742,0.109375,0.0805664c0.1191406,0.0693359,0.2900391,0.1132813,0.46875,0.1201172
				l7.5488281,0.2924805c0.2050781,0.0146484,0.4326172-0.0366211,0.5751953-0.1196289l7.2011719-4.1806641
				c0.526371-0.3066406,1.3291054-0.3051758,1.8632851,0.0024414c0.0009766,0,0.0009766,0.0004883,0.0009766,0.0004883
				c0.2666016,0.1538086,0.4394531,0.3779297,0.4873047,0.6303711c0.4375,2.4848633-1.015625,4.8964844-3.9863319,6.6210938
				c-3.5146484,2.0400391-8.6542969,2.796875-13.4140625,1.9716797c-0.2792969-0.0498047-0.5761719-0.0112305-0.7636719,0.0976563
				l-12.9814453,7.536623C33.6030388,37.4555893,32.0590935,37.7959213,30.5122185,37.7959213z M52.2739372,14.1128149
				c-3.4384766,0-6.7197266,0.7792969-9.1621094,2.1967764c-3.2333984,1.8774414-4.4306641,4.5908203-3.1269531,7.0820313
				c0.2119141,0.4042969,0.046875,0.8691406-0.4033203,1.1298828l-12.9746094,7.533205
				c-0.9482422,0.550293-1.46875,1.2612305-1.4677734,2.0019531c0.0009766,0.7485352,0.5332031,1.4677734,1.5,2.0249023
				c2.1396484,1.2348633,5.609375,1.2348633,7.7353516,0.0009766l12.9814453-7.536623
				c0.3535156-0.2055664,0.8408203-0.2773438,1.3056641-0.1938477c4.5791016,0.7929688,9.5136719,0.0742188,12.8720703-1.8754883
				c2.6640663-1.546875,3.9765663-3.6557617,3.6015663-5.7866211c-0.0029297-0.0029297-0.0283203-0.0390625-0.0996094-0.0805664l0,0
				c-0.2558594-0.1474609-0.7548828-0.1845703-1.0625038-0.0043945l-7.2011719,4.1806641
				c-0.2753906,0.1606445-0.6435547,0.2456055-1.0068359,0.2280273l-7.5517578-0.2924805
				c-0.3125-0.0126953-0.6015625-0.0913086-0.8369141-0.2265625c-0.2851563-0.1650391-0.4638672-0.4023438-0.5019531-0.668457
				l-0.5195313-4.371582c-0.0361328-0.3339844,0.1484375-0.6508789,0.4941406-0.8520508l7.2001953-4.1806631
				c0.0654297-0.0375977,0.09375-0.0693359,0.1015625-0.0825195c-0.0107422,0.0107422-0.0390625-0.03125-0.1103516-0.0717773
				c-0.1123047-0.0644531-0.2695313-0.105957-0.4443359-0.1162109C53.15382,14.1255102,52.7124138,14.1128149,52.2739372,14.1128149
				z"/>
		</g>
	</g>
</g>
</svg>