<?xml version="1.0" encoding="utf-8"?>
<!-- Generator: Adobe Illustrator 22.0.1, SVG Export Plug-In . SVG Version: 6.00 Build 0)  -->
<svg version="1.1" id="Layer_1" xmlns="http://www.w3.org/2000/svg" xmlns:xlink="http://www.w3.org/1999/xlink" x="0px" y="0px"
	 viewBox="0 0 68 68" style="enable-background:new 0 0 68 68;" xml:space="preserve">
<style type="text/css">
	.st0{enable-background:new    ;}
</style>
<g>
	<g>
		<path d="M14.9672871,66.0028305c-0.5566406,0-1.074707-0.1313477-1.534668-0.3959961
			c-1.0917969-0.628418-1.6958008-1.9165039-1.7006836-3.6269531l-0.0708008-24.9541016
			c-0.0097656-3.3652344,2.3652344-7.4790039,5.293457-9.1694336L55.4682617,5.6200175
			c1.5014648-0.8662109,2.9311523-0.9960938,4.0283203-0.3642578c1.0908203,0.6274414,1.6938477,1.9169922,1.6987305,3.6308599
			l0.0708008,24.9541016c0.0097656,3.3657227-2.3652344,7.4790039-5.293457,9.1694336L17.4589863,65.2464828
			C16.5883808,65.7494125,15.7407246,66.0028305,14.9672871,66.0028305z M57.9638672,5.6615214
			c-0.6328125,0-1.3466797,0.21875-2.0952148,0.6508789l0,0L17.3549824,28.5487289
			c-2.7075195,1.5629883-4.902832,5.3647461-4.894043,8.4750977l0.0708008,24.9541016
			c0.0039063,1.4125977,0.4658203,2.4550781,1.300293,2.9355469c0.8398438,0.4833984,1.9873047,0.3549805,3.2265625-0.359375
			l38.5136719-22.2363281c2.7075195-1.5629883,4.902832-5.3647461,4.894043-8.4750977L60.3955078,8.8885727
			c-0.0039063-1.4165044-0.4648438-2.4604497-1.2978516-2.9394536C58.7636719,5.7567363,58.3813477,5.6615214,57.9638672,5.6615214z
			 M55.668457,5.9662089h0.0097656H55.668457z"/>
	</g>
	<g>
		<g>
			<path d="M13.618166,65.6551743c-0.0683594,0-0.1376953-0.0175781-0.2006836-0.0541992L8.4912128,62.732811
				c-1.0878911-0.6259766-1.6875005-1.9130859-1.6875005-3.6230469l-0.0698242-24.949707
				c-0.0043945-1.4433594,0.4287109-3.0541992,1.2524414-4.6577148c0.0502934-0.0976563,0.1381841-0.1704102,0.2436528-0.2011719
				c0.105957-0.0302734,0.2192383-0.0170898,0.3134766,0.0380859l4.9287109,2.8691406
				c0.184082,0.1069336,0.2519531,0.3393555,0.1542969,0.5288086c-0.7670898,1.4916992-1.1708984,2.9746094-1.1669922,4.2885742
				l0.0703125,24.9506836c0.0087891,1.4116211,0.4667969,2.4536133,1.2900391,2.9331055
				c0.190918,0.1113281,0.2558594,0.355957,0.1445313,0.546875C13.8901386,65.5843735,13.7558613,65.6551743,13.618166,65.6551743z
				 M8.5112324,30.2459946c-0.6440434,1.3623047-0.9809575,2.7070313-0.9775395,3.9121094l0,0l0.0698242,24.9506836
				c0,1.4125977,0.45752,2.4536133,1.2885747,2.9316406l3.1479492,1.8330078
				c-0.199707-0.5473633-0.3056641-1.184082-0.3100586-1.8935547l-0.0703125-24.9521484
				c-0.0043945-1.3388672,0.3706055-2.824707,1.0864258-4.3164063L8.5112324,30.2459946z"/>
		</g>
		<g>
			<path d="M13.270998,32.9540024c-0.0698242,0-0.1396484-0.0180664-0.2011719-0.0541992l-4.9287109-2.8691406
				c-0.1840825-0.1069336-0.2519536-0.3393555-0.1547856-0.5283203c1.0122075-1.9707031,2.4858403-3.6157227,4.0434575-4.5131836
				L50.5390625,2.7567363c1.5043945-0.8696289,2.9389648-0.9970703,4.0380859-0.3588867c0.0004883,0,0.0004883,0,0.0004883,0
				l4.9248047,2.8666992c0.0004883,0.0004883,0.0009766,0.0004883,0.0009766,0.0004883l0.0004883,0.0004883
				c0.190918,0.1113281,0.2558594,0.355957,0.1445313,0.546875c-0.1113281,0.1894531-0.3554688,0.2558594-0.5463867,0.1450195
				c-0.0004883-0.0004883-0.0004883-0.0004883-0.0004883-0.0004883l0,0c-0.84375-0.4882813-1.9926758-0.3613281-3.2353516,0.3598633
				L17.3559589,28.5497055c-1.425293,0.8237305-2.784668,2.3500977-3.7290039,4.1875
				c-0.050293,0.097168-0.1386719,0.1699219-0.2436523,0.2006836C13.3461933,32.9486313,13.3085957,32.9540024,13.270998,32.9540024
				z M8.8764668,29.5331039l4.2373047,2.4667969c1.0019531-1.8046875,2.3862305-3.3012695,3.8417969-4.1425781L55.465332,5.6249003
				c0.6367188-0.3696289,1.2612305-0.6054688,1.8535156-0.7055664l-3.1430664-1.8300781
				c-0.840332-0.4858398-1.9892578-0.3598633-3.2363281,0.3598633L12.4296894,25.6820297
				C11.0893574,26.4544907,9.8085957,27.8456039,8.8764668,29.5331039z"/>
		</g>
	</g>
	<g>
		<g>
			<g>
				<line x1="55.9869308" y1="12.9695749" x2="38.0952492" y2="23.2994633"/>
				<path d="M38.0957031,23.6996078c-0.1381874,0-0.2729492-0.0717773-0.3466797-0.199707
					c-0.1108398-0.1914063-0.0449219-0.4360352,0.1459961-0.5463867L55.7866211,12.623436
					c0.1914063-0.1098633,0.4365234-0.0449219,0.5463867,0.1459961c0.1108398,0.1914063,0.0449219,0.4360352-0.1459961,0.5463867
					L38.2954102,23.6458969C38.2324219,23.682518,38.1635742,23.6996078,38.0957031,23.6996078z"/>
			</g>
			<g>
				<line x1="55.9869308" y1="20.4526253" x2="41.0597763" y2="29.0709229"/>
				<path d="M41.0600586,29.4706039c-0.1381836,0-0.2729492-0.0717773-0.3466797-0.199707
					c-0.1108398-0.1914063-0.0449219-0.4360352,0.1459961-0.5463867l14.9272461-8.6181641
					c0.1914063-0.1108398,0.4365234-0.0439453,0.5463867,0.1459961c0.1108398,0.1914063,0.0449219,0.4360352-0.1459961,0.5463867
					L41.2597656,29.416893C41.1967773,29.4535141,41.1279297,29.4706039,41.0600586,29.4706039z"/>
			</g>
			<g>
				<line x1="55.9869308" y1="27.9356766" x2="44.0243034" y2="34.8423843"/>
				<path d="M44.0249023,35.2420883c-0.1381836,0-0.2729492-0.0717773-0.3466797-0.199707
					c-0.1108398-0.1914063-0.0449219-0.4360352,0.1459961-0.5463867l11.9624023-6.9067383
					c0.1914063-0.1108398,0.4365234-0.0444336,0.5463867,0.1459961c0.1108398,0.1914063,0.0449219,0.4360352-0.1459961,0.5463867
					l-11.9624023,6.9067383C44.1616211,35.2249985,44.0927734,35.2420883,44.0249023,35.2420883z"/>
			</g>
			<g>
				<line x1="55.9869308" y1="35.4187279" x2="38.0952492" y2="45.7486153"/>
				<path d="M38.0957031,46.1483383c-0.1381874,0-0.2729492-0.0717773-0.3466797-0.199707
					c-0.1108398-0.1914063-0.0449219-0.4360352,0.1459961-0.5463867l17.8916016-10.3295898
					c0.1914063-0.1108398,0.4365234-0.0449219,0.5463867,0.1459961c0.1108398,0.1914063,0.0449219,0.4360352-0.1459961,0.5463867
					L38.2954102,46.0946274C38.2324219,46.1312485,38.1635742,46.1483383,38.0957031,46.1483383z"/>
			</g>
		</g>
		<g>
			<g>
				<g>
					<g class="st0">
						<g>
							<g>
								<path d="M22.7387714,54.4081039c-1.0654297,0-2.0537109-0.25-2.9287109-0.7529297
									c-2.0991211-1.2075195-3.2602539-3.7167969-3.2695313-7.0664063
									c-0.019043-6.7553711,4.7421875-15.0131836,10.6137695-18.4077148l0,0
									c2.9077148-1.6801758,5.666502-1.9389648,7.7690411-0.730957c2.1064453,1.2114258,3.2719727,3.7241211,3.2817383,7.0756836
									c0.019043,6.7568359-4.7280273,15.0073242-10.5820293,18.3911133
									C25.9091816,53.9076157,24.2465839,54.4081039,22.7387714,54.4081039z M27.5546894,28.873436
									c-5.6503906,3.2666016-10.2324219,11.2128906-10.2143555,17.7133789
									c0.0087891,3.0517578,1.0273438,5.315918,2.8686523,6.375c1.8540039,1.0664063,4.3452148,0.8046875,7.0136719-0.7373047
									c5.6328106-3.2563477,10.2006817-11.1948242,10.1826153-17.6967773
									c-0.0087891-3.0537109-1.0317383-5.3208008-2.8808594-6.3837891
									C32.6806641,27.0829086,30.20508,27.3416977,27.5546894,28.873436L27.5546894,28.873436z"/>
							</g>
						</g>
					</g>
				</g>
			</g>
			<g>
				<g>
					<g>
						<path d="M27.3365726,33.2346535c1.1446686-0.6616783,2.0957718-0.1432495,2.0995464,1.1897774
							c0.003727,1.3168602-0.9413338,2.9313202-2.0860043,3.5930023c-1.1376228,0.657608-2.0885334,0.1391182-2.0922623-1.177742
							C25.2540779,35.5066681,26.1989498,33.8922615,27.3365726,33.2346535z"/>
					</g>
				</g>
				<g>
					<g>
						<path d="M27.3542557,39.4797592c2.6263218-1.5181541,4.802536-0.5426559,5.1688995,2.1587639
							c0.0574532,0.4118576-0.2503815,0.9944229-0.6435604,1.2217026l-9.0097294,5.208107
							c-0.393177,0.2272758-0.7032986,0.0019226-0.6483631-0.4749031
							C22.571394,44.4779778,24.7349815,40.9938431,27.3542557,39.4797592z"/>
					</g>
				</g>
			</g>
		</g>
	</g>
</g>
</svg>