<?xml version="1.0" encoding="utf-8"?>
<!-- Generator: Adobe Illustrator 22.0.1, SVG Export Plug-In . SVG Version: 6.00 Build 0)  -->
<svg version="1.1" id="Layer_1" xmlns="http://www.w3.org/2000/svg" xmlns:xlink="http://www.w3.org/1999/xlink" x="0px" y="0px"
	 viewBox="0 0 68 68" style="enable-background:new 0 0 68 68;" xml:space="preserve">
<style type="text/css">
	.st0{enable-background:new    ;}
</style>
<g>
	<g>
		<path d="M51.8915977,14.5713177c-0.0634766,0-0.1269531-0.015625-0.1845703-0.0449219
			c-0.1074219-0.0566406-0.1835938-0.1582031-0.2080078-0.2773438c-0.2998047-1.4951172-0.7851563-2.8232422-1.4423828-3.9462891
			c-0.0722656-0.1230469-0.0732422-0.2753906-0.0029297-0.3994141s0.2021484-0.2011719,0.3447266-0.203125
			c1.2539063,0.0029297,2.453125,0.2841797,3.4736328,0.8740234l5.3310547,3.0771484
			c0.0380859,0.0214844,0.0761719,0.0439453,0.1142578,0.0664063c0.1884766,0.1132813,0.25,0.3564453,0.1386719,0.5458984
			c-0.1113281,0.1884766-0.3544922,0.2519531-0.5449219,0.1435547l-0.1025391-0.0595703
			c-0.1054688-0.0585938-0.2158203-0.1113281-0.3261719-0.1591797c-0.2021484-0.1005859-0.3916016-0.1728516-0.5908203-0.2353516
			c-0.1933594-0.0683594-0.375-0.1132813-0.5654297-0.1494141c-0.0371094-0.0068359-0.0742188-0.0195313-0.1083984-0.0371094
			c-0.2460938-0.046875-0.4287109-0.0703125-0.6113281-0.0869141c-0.2392578-0.0302734-0.4716797-0.0380859-0.7050781-0.0380859
			c-1.2050781,0-2.4990234,0.3007813-3.8486328,0.8955078C52.0009727,14.5595989,51.9462852,14.5713177,51.8915977,14.5713177z
			 M57.2265587,13.7685833c0.0224609,0.0078125,0.0439453,0.0126953,0.0644531,0.0126953
			C57.2695274,13.7763958,57.2480431,13.7724895,57.2265587,13.7685833z M51.0888634,10.5283489
			c0.4658203,0.9257813,0.8320313,1.9599609,1.0917969,3.0878906c1.4042969-0.5595703,2.7529297-0.8212891,4.0273438-0.7695313
			l-2.7363281-1.5791016C52.7597618,10.8554974,51.9599571,10.6074505,51.0888634,10.5283489z"/>
	</g>
	<g>
		<path d="M13.2314396,61.7480736c-0.0683594,0-0.1367188-0.0175781-0.2001953-0.0537109l0,0
			c-0.0019531-0.0019531-0.0039063-0.0029297-0.0058594-0.0039063L7.596674,58.5527611
			c-1.71875-0.9941406-2.6699219-3.0449219-2.6787109-5.7744141c-0.0126953-4.8085938,2.9638672-10.6308594,7.0771484-13.84375
			c0.1308594-0.0996094,0.3066406-0.1103516,0.4462891-0.03125l5.4345703,3.140625
			c0.1152344,0.0664063,0.1894531,0.1865234,0.1992188,0.3193359c0.0087891,0.1318359-0.0488281,0.2607422-0.1533203,0.3427734
			c-3.9355469,3.0732422-6.7822266,8.6289063-6.7685547,13.2109375c0.0068359,2.4335938,0.8164063,4.2392578,2.2783203,5.0839844
			c0.1914063,0.1113281,0.2568359,0.3554688,0.1464844,0.546875C13.5039005,61.675808,13.3691349,61.7480736,13.2314396,61.7480736z
			 M12.277338,39.7324486c-3.8251953,3.1044922-6.5712891,8.5439453-6.5585938,13.0439453
			c0.0068359,2.4326172,0.8164063,4.2382813,2.2783203,5.0830078l3.1679688,1.8320313
			c-0.5283203-1.0195313-0.8076172-2.296875-0.8125-3.7724609c-0.0126953-4.6289063,2.7441406-10.1972656,6.6201172-13.4726563
			L12.277338,39.7324486z"/>
	</g>
	<g>
		<path d="M17.6767521,42.7890892c-0.0693359,0-0.1376953-0.0185547-0.2001953-0.0537109l-5.4355469-3.1445313
			c-0.0947266-0.0556641-0.1630859-0.1464844-0.1884766-0.2539063c-0.3105469-1.2958984-0.4736328-2.7792969-0.4873047-4.4101563
			C11.339838,23.7422161,19.2812443,10.0595989,29.0693302,4.4248333c4.8242207-2.7607422,9.3740253-3.1816406,12.814455-1.1875
			l5.4335938,3.1298828c0.1914063,0.1103516,0.2578125,0.3544922,0.1474609,0.5458984
			c-0.1113281,0.1933594-0.3574219,0.2558594-0.5459213,0.1474609c-3.194313-1.8398438-7.4618912-1.4121094-12.0156021,1.2021484
			c-9.5654316,5.4941406-17.3271503,18.8642578-17.3017597,29.8046856c0,1.5117188,0.15625,2.9345703,0.4638672,4.2285156
			c0.0371094,0.1552734-0.0215054,0.3183594-0.1494141,0.4140625
			C17.8447208,42.7617455,17.7607365,42.7890892,17.6767521,42.7890892z M12.5917912,38.9844017l4.5107422,2.6103516
			c-0.2001953-1.1074219-0.3017578-2.2900391-0.3017578-3.5263672C16.7753849,26.8730755,24.7177677,13.1904583,34.504879,7.5693645
			c3.2675781-1.8759766,6.4111328-2.6767578,9.1787109-2.3720703l-2.2001953-1.2675781
			c-3.1865234-1.8466797-7.4511719-1.4238281-12.0166035,1.1884766
			c-9.5644531,5.5078125-17.3261719,18.8779297-17.3007813,29.8046856
			C12.1777287,36.4209251,12.3212833,37.7871361,12.5917912,38.9844017z"/>
	</g>
	<g>
		<path d="M15.4628849,62.3213158c-0.8837891,0-1.7021484-0.2070313-2.4267578-0.625
			c-1.7207031-0.9931641-2.6738281-3.0429688-2.6845703-5.7744141c-0.0107422-4.7304688,2.8691406-10.4433594,6.875-13.6884766
			c-0.2724609-1.2675781-0.4150391-2.6660156-0.4257813-4.1591797
			c-0.0292969-11.1962872,7.9111328-24.8779278,17.7011738-30.4999981c4.4287109-2.5458984,8.7119141-3.1123047,12.0517578-1.59375
			c2.8007813,1.2724609,4.7871094,3.9736328,5.6279297,7.6347656c2.8017578-1.1132813,5.4179688-1.0244141,7.4091797,0.2685547
			c2.2402344,1.4560547,3.4804688,4.2851563,3.4912109,7.9658203l0,0
			c0.0195313,7.8261719-5.5117188,17.3798809-12.3310547,21.2978497l-1.8027344,1.0351563
			c-1.1708984,0.6728516-2.7236328,1.5654297-4.5087891,2.5859375c-0.1240234,0.0703125-0.2763672,0.0683594-0.3984375-0.0009766
			c-0.1230469-0.0712891-0.1992188-0.203125-0.2001953-0.3457031l-0.0097656-3.7402344
			c0-0.6416016,0.4169922-1.3662109,0.9697266-1.6865234l4.5498047-2.6396484
			c0.5371094-0.3076172,0.8857422-1.0009766,0.9433365-1.4980469c0.0273666-0.2412109-0.0116959-0.4365234-0.1044693-0.5234375
			l-9.5097656-8.7890606c-0.2460938-0.2167969-0.6445313-0.0244141-0.8037109,0.0693359
			c-0.4433594,0.2587891-0.8525391,0.7324219-1.1230469,1.2998047l-9.4296894,19.7490215
			c-0.296875,0.6240234-0.2089844,1.0400391-0.0830078,1.1552734c0.1152344,0.1044922,0.3466797-0.0087891,0.4414063-0.0644531
			l1.8193359-1.0498047c0.125-0.0703125,0.2763672-0.0703125,0.3994141,0
			c0.1240253,0.0712891,0.2001972,0.203125,0.2011738,0.3457031l0.0107422,4.5595703
			c0,0.1435547-0.0771484,0.2763672-0.2011738,0.3476563c-3.9033203,2.2392578-7.5410156,4.3320313-9.9443359,5.7148438
			l-2.4960938,1.4355469C18.0644474,61.9140892,16.7001896,62.3213158,15.4628849,62.3213158z M42.5234337,5.9443645
			c-2.3408203,0-4.9453125,0.7832031-7.6230469,2.3232422c-9.5673847,5.4951172-17.3281269,18.8642578-17.29883,29.8027325
			c0.0097656,1.53125,0.1650391,2.9550781,0.4599609,4.2304688c0.0351563,0.1513672-0.0205078,0.3095703-0.1435547,0.4052734
			c-3.9306641,3.0742188-6.7763672,8.6318359-6.765625,13.2138672c0.0087891,2.4335938,0.8193359,4.2392578,2.2841797,5.0830078
			c1.4794922,0.8544922,3.4814453,0.6464844,5.6357422-0.5888672l2.4960938-1.4355469
			c2.3623047-1.359375,5.9160156-3.4033203,9.7431641-5.5996094l-0.0087891-3.6367188l-1.2207031,0.7050781
			c-0.515625,0.2988281-1.0341797,0.2822266-1.3847656-0.0410156c-0.4599609-0.4238281-0.4980469-1.2431641-0.0966797-2.0869141
			l9.4296894-19.7499981c0.3388672-0.7089844,0.8642578-1.3085938,1.4404297-1.6445313
			c0.6396484-0.3798828,1.2929688-0.3701172,1.7441406,0.0253906l9.5185547,8.7968731
			c0.2880859,0.2685547,0.4130859,0.6953125,0.3554688,1.2021484c-0.0966797,0.8398438-0.6474609,1.7021484-1.3378906,2.0986328
			l-4.5478516,2.6386719c-0.3095703,0.1796875-0.5712891,0.6347656-0.5712891,0.9941406l0.0078125,3.0517578
			c1.5332031-0.8779297,2.8720703-1.6474609,3.9101563-2.2441406l1.8037109-1.0351563
			c6.5957031-3.7890625,11.9472656-13.0312481,11.9277344-20.6015606l0,0
			c-0.0097656-3.4013672-1.1201172-5.9931641-3.1259766-7.296875c-1.8652344-1.2119141-4.3847656-1.2167969-7.1025391-0.0175781
			c-0.109375,0.0488281-0.2382813,0.0449219-0.3457031-0.0117188c-0.1074219-0.0556641-0.1845703-0.1572266-0.2080078-0.2763672
			c-0.7324219-3.6972656-2.5576172-6.3046875-5.2763672-7.5400391C45.098629,6.1972942,43.8535118,5.9443645,42.5234337,5.9443645z"
			/>
	</g>
	<g>
		<path d="M29.0615177,50.575222c-0.0683594,0-0.1376953-0.0175781-0.2011719-0.0546875l-3.5029297-2.0361328
			c-0.5976563-0.3476563-0.7060547-1.2695313-0.2578125-2.1933594l9.4267597-19.7509747
			c0.3330078-0.7099609,0.8544922-1.3105469,1.4287109-1.6464844c0.5654297-0.3242188,1.1152344-0.3681641,1.5498047-0.1230469
			l3.5087891,2.0390625c0.1894531,0.1103516,0.2548828,0.3535156,0.1464844,0.5439453
			c-0.1103516,0.1914063-0.3525391,0.2578125-0.5439453,0.1503906c-0.1777344-0.0996094-0.4521484-0.0556641-0.7558594,0.1181641
			c-0.4277344,0.25-0.8427734,0.7294922-1.109375,1.2802734l-9.4277363,19.7714825
			c-0.2910156,0.5986328-0.2197266,1.0625-0.0605469,1.1552734c0.1914063,0.1113281,0.2558594,0.3564453,0.1445313,0.546875
			C29.3330021,50.503933,29.199213,50.575222,29.0615177,50.575222z M36.8935509,25.4150677
			c-0.1533203,0-0.3388672,0.0576172-0.5371094,0.1708984c-0.4355469,0.2548828-0.8398438,0.7275391-1.1064453,1.2958984
			L25.8203068,46.637722c-0.2910156,0.5986328-0.2197266,1.0625-0.0605469,1.1552734l2.5722656,1.4951172
			c0.0214844-0.3027344,0.1103516-0.6318359,0.2705078-0.9609375l9.4267597-19.7705059
			c0.3388672-0.7011719,0.859375-1.2939453,1.4296875-1.6269531c0.0292969-0.0166016,0.0585938-0.0322266,0.0878906-0.0478516
			l-2.4394531-1.4169922C37.0478477,25.4316692,36.9755821,25.4150677,36.8935509,25.4150677z"/>
	</g>
	<g>
		<g>
			<path d="M35.5712852,65.9316711c-0.0654297,0-0.1318359-0.0166016-0.1923828-0.0498047l0.1923828-0.3505859l-0.1943359,0.3496094
				c-0.0039063-0.0019531-0.0078125-0.0048828-0.0117188-0.0068359l-3.4951191-2.0371132
				c-0.34375-0.1875-0.5390625-0.5751953-0.5390625-1.0859375l-0.0302734-13.6992188
				c0-0.1425781,0.0761719-0.2753906,0.1992188-0.3466797l2.720705-1.5800781
				c0.4501953-0.2587891,0.9082031-0.2060547,1.1679688,0.1328125c0.0693359,0.0859375,0.1240234,0.1943359,0.1582031,0.3154297
				c0.0351563,0.1044922,0.0449219,0.2373047,0.0449219,0.3271484l0.0400391,16.8896523
				c0,0.0771484,0.0097656,0.1396484,0.03125,0.1943359c0.0361328,0.1289063,0.078125,0.1621094,0.0869141,0.1679688
				c0.0302734,0.0205078,0.0576172,0.0458984,0.0810547,0.0742188c0.1435547,0.1220703,0.1845703,0.3320313,0.0878677,0.5019531
				C35.8456993,65.858429,35.7099571,65.9316711,35.5712852,65.9316711z M32.1015587,49.2803001l0.0302734,13.4697266
				c0,0.1992188,0.0488281,0.3447266,0.1308594,0.390625l2.5683594,1.4960976l-0.0488281-16.8281288
				c-0.0009766-0.0478516-0.0546875-0.0507813-0.1611328,0.0087891L32.1015587,49.2803001z"/>
		</g>
		<g>
			<path d="M35.8828087,66.0029602c-0.1787109,0-0.3486328-0.0429688-0.4990234-0.1289063
				c-0.3427734-0.1972656-0.5410156-0.5927734-0.5429688-1.0869141l-0.0468979-16.8730507
				c0-0.1025391-0.0234146-0.1513672-0.0312271-0.1601563c0.0019531,0.0048828-0.0537109,0.0097656-0.1425781,0.0615234
				l-4.5380878,2.6279297c-0.515625,0.3017578-1.0341797,0.2832031-1.3847656-0.0410156
				c-0.4589844-0.4248047-0.4960938-1.2421875-0.09375-2.0820313l9.4248066-19.7548809
				c0.3417969-0.7099609,0.8662109-1.3066406,1.4394531-1.6386719c0.6542969-0.3818359,1.3105469-0.3691406,1.7509766,0.03125
				l9.5097656,8.7919903c0.2880859,0.265625,0.4160156,0.6894531,0.3603516,1.1933594
				c-0.0927734,0.8388672-0.6425781,1.7050781-1.3378906,2.1074219l-4.5498047,2.6357422
				c-0.3056641,0.1767578-0.5722656,0.640625-0.5703125,0.9912109l0.046875,16.8730469
				c0.0019531,0.8759766-0.5908203,1.90625-1.3496094,2.3447266l-6.7294922,3.8974648
				C36.3583946,65.9326477,36.1123009,66.0029602,35.8828087,66.0029602z M34.7714806,46.9619408
				c0.1416016,0,0.2763672,0.0341797,0.3964844,0.1025391c0.2705078,0.1552734,0.4257813,0.4648438,0.4267578,0.8476563
				l0.046875,16.8720741c0,0.1972656,0.0527344,0.3457031,0.140625,0.3955078
				c0.0878906,0.0517578,0.2441406,0.0205078,0.4160156-0.0791016l6.7294922-3.8974648
				c0.5078125-0.2939453,0.9511719-1.0644531,0.9492188-1.6503906l-0.046875-16.8720703
				c-0.0019531-0.6396484,0.4150391-1.3652344,0.9707031-1.6865234l4.5498047-2.6347656
				c0.5390625-0.3125,0.8886719-1.0078125,0.9433365-1.5039063c0.0263901-0.2373047-0.0146255-0.4306641-0.1083755-0.5175781
				l-9.5068359-8.7900372c-0.2441406-0.2207031-0.6474609-0.0234375-0.8105469,0.0703125
				c-0.4375,0.2539063-0.8447266,0.7255859-1.1181641,1.2929688l-9.4248066,19.7539043
				c-0.281271,0.5878906-0.21875,1.0263672-0.0849609,1.1503906c0.1181641,0.1064453,0.3681641-0.0205078,0.4414063-0.0644531
				l4.5371113-2.6269531C34.4033165,47.0156517,34.5937462,46.9619408,34.7714806,46.9619408z"/>
		</g>
	</g>
</g>
</svg>